<?xml version="1.0" standalone="no"?>
<!DOCTYPE svg PUBLIC "-//W3C//DTD SVG 1.1//EN" "http://www.w3.org/Graphics/SVG/1.1/DTD/svg11.dtd" >
<svg xmlns="http://www.w3.org/2000/svg" xmlns:xlink="http://www.w3.org/1999/xlink" version="1.1">
<metadata>
Created by FontForge 20170731 at Wed Nov  3 15:43:28 2021
 By Aleksey,,,
Copyright 2019 The Readex Pro Project Authors (https://github.com/ThomasJockin/readexpro)
</metadata>
<defs>
<font id="ReadexPro-ExtraLight" horiz-adv-x="0" >
  <font-face 
    font-family="Readex Pro ExtraLight"
    font-weight="250"
    font-stretch="normal"
    units-per-em="1000"
    panose-1="0 0 0 0 0 0 0 0 0 0"
    ascent="800"
    descent="-200"
    x-height="525"
    cap-height="700"
    bbox="-184 -484 1366 1126"
    underline-thickness="50"
    underline-position="-175"
    unicode-range="U+000D-FD3F"
  />
<missing-glyph horiz-adv-x="584" 
d="M75 0q-35 0 -35 35v630q0 35 35 35h434q35 0 35 -35v-630q0 -35 -35 -35h-434zM70 25h426q3 0 4 2t-1 4l-428 615q-2 3 -4 3t-2 -5v-614q0 -5 5 -5zM513 53q2 -3 4 -2.5t2 4.5v615q0 5 -5 5h-427q-3 0 -3.5 -2t0.5 -4z" />
    <glyph glyph-name="fi" unicode="fi" horiz-adv-x="583" 
d="M137 0v611q0 45 15 75t43 45.5t64 15.5q34 0 59 -12t39 -32l-21 -37q-15 18 -33.5 25t-40.5 7q-23 0 -40 -8.5t-26 -27.5t-9 -52v-610h-23h-14.5h-12.5zM35 474v48h294v-48h-294zM445 0v525h51v-525h-51zM471 655q-21 0 -32 11.5t-11 30.5t11 30t32 11q19 0 30.5 -11
t11.5 -30q0 -18 -10.5 -30t-31.5 -12z" />
    <glyph glyph-name="fl" unicode="fl" horiz-adv-x="581" 
d="M137 0v611q0 45 15 75t43 45.5t64 15.5q34 0 59 -12t39 -32l-21 -37q-15 18 -33.5 25t-40.5 7q-23 0 -40 -8.5t-26 -27.5t-9 -52v-610h-23h-14.5h-12.5zM35 474v48h294v-48h-294zM444 0v740h50v-740h-50z" />
    <glyph glyph-name="f_f" unicode="ff" horiz-adv-x="717" 
d="M137 0v611q0 45 15 75t43 45.5t64 15.5q34 0 59 -12t39 -32l-21 -37q-15 18 -33.5 25t-40.5 7q-23 0 -40 -8.5t-26 -27.5t-9 -52v-610h-23h-14.5h-12.5zM35 474v48h294v-48h-294zM495 0v611q0 45 15 75t43 45.5t64 15.5q34 0 59 -12t39 -32l-21 -37q-15 18 -33.5 25
t-40.5 7q-23 0 -40 -8.5t-26 -27.5t-9 -52v-610h-23h-14.5h-12.5zM393 474v48h294v-48h-294z" />
    <glyph glyph-name="f_f_i" unicode="ffi" horiz-adv-x="942" 
d="M137 0v611q0 45 15 75t43 45.5t64 15.5q34 0 59 -12t39 -32l-21 -37q-15 18 -33.5 25t-40.5 7q-23 0 -40 -8.5t-26 -27.5t-9 -52v-610h-23h-14.5h-12.5zM35 474v48h294v-48h-294zM495 0v611q0 45 15 75t43 45.5t64 15.5q34 0 59 -12t39 -32l-21 -37q-15 18 -33.5 25
t-40.5 7q-23 0 -40 -8.5t-26 -27.5t-9 -52v-610h-23h-14.5h-12.5zM393 474v48h294v-48h-294zM804 0v525h51v-525h-51zM830 655q-21 0 -32 11.5t-11 30.5t11 30t32 11q19 0 30.5 -11t11.5 -30q0 -18 -10.5 -30t-31.5 -12z" />
    <glyph glyph-name="f_f_l" unicode="ffl" horiz-adv-x="938" 
d="M137 0v611q0 45 15 75t43 45.5t64 15.5q34 0 59 -12t39 -32l-21 -37q-15 18 -33.5 25t-40.5 7q-23 0 -40 -8.5t-26 -27.5t-9 -52v-610h-23h-14.5h-12.5zM35 474v48h294v-48h-294zM495 0v611q0 45 15 75t43 45.5t64 15.5q34 0 59 -12t39 -32l-21 -37q-15 18 -33.5 25
t-40.5 7q-23 0 -40 -8.5t-26 -27.5t-9 -52v-610h-23h-14.5h-12.5zM393 474v48h294v-48h-294zM803 0v740h50v-740h-50z" />
    <glyph glyph-name="uniFE82" unicode="&#x622;" horiz-adv-x="256" arabic-form="final" 
d="M233 0q-41 0 -70 10t-47.5 29t-27 46.5t-8.5 63.5v591h50v-587q0 -26 5 -46t17.5 -32.5t33 -18.5t51.5 -6h19v-50h-23zM210 818q-30 0 -55 8t-47.5 18t-43.5 18t-42 8q-27 0 -47.5 -10t-43.5 -35l-25 23q20 21 38 34t37.5 18.5t41.5 5.5q34 0 62 -13t58 -26t68 -13
q25 0 46.5 7.5t39.5 22.5l21 -27q-22 -20 -49 -29.5t-59 -9.5z" />
    <glyph glyph-name="uniFE84" unicode="&#x623;" horiz-adv-x="256" arabic-form="final" 
d="M233 0q-41 0 -70 10t-47.5 29t-27 46.5t-8.5 63.5v591h50v-587q0 -26 5 -46t17.5 -32.5t33 -18.5t51.5 -6h19v-50h-23zM7 810v34h54q-11 11 -17 25.5t-6 32.5q0 37 24 59.5t63 22.5q16 0 32 -3.5t29 -10.5l-16 -30q-10 5 -21.5 7.5t-23.5 2.5q-25 0 -39 -13t-14 -36
q0 -26 22 -41.5t65 -15.5h43v-34h-195z" />
    <glyph glyph-name="uniFE86" unicode="&#x624;" horiz-adv-x="505" arabic-form="final" 
d="M136 494v41h66q-14 13 -21 30.5t-7 38.5q0 44 28.5 71t75.5 27q12 0 25 -2t25 -5.5t23 -9.5l-19 -36q-12 6 -26 9t-27 3q-31 0 -47.5 -15t-16.5 -43q0 -21 11.5 -36.5t34.5 -23.5t58 -8h51v-41h-234zM171 -230q-39 0 -85 14t-86 40l24 40q34 -20 73 -32t72 -12
q81 0 135 47t73 133h-88q-54 0 -93 9.5t-65 28.5t-38.5 47.5t-12.5 65.5q0 44 13.5 82t37.5 67t56 45.5t67 16.5q53 0 93.5 -33.5t63.5 -91.5t24 -134q0 -14 -0.5 -27t-2.5 -26h73v-50h-79q-11 -52 -32.5 -95t-54 -73t-75 -46t-93.5 -16zM291 50h93q2 13 2 26v27
q-1 61 -18 108t-46.5 74t-68.5 27q-34 0 -62.5 -22t-45.5 -57.5t-17 -78.5q0 -35 16 -58.5t52 -34.5t95 -11z" />
    <glyph glyph-name="uniFE88" unicode="&#x625;" horiz-adv-x="256" arabic-form="final" 
d="M233 0q-41 0 -70 10t-47.5 29t-27 46.5t-8.5 63.5v591h50v-587q0 -26 5 -46t17.5 -32.5t33 -18.5t51.5 -6h19v-50h-23zM5 -234v34h54q-11 11 -17 25.5t-6 32.5q0 37 24 59.5t63 22.5q16 0 32 -3.5t29 -10.5l-16 -30q-10 5 -21.5 7.5t-23.5 2.5q-25 0 -39 -13t-14 -36
q0 -17 10 -30t29 -20t48 -7h43v-34h-195z" />
    <glyph glyph-name="uniFE8B" unicode="&#x626;" horiz-adv-x="316" arabic-form="initial" 
d="M31 531v41h66q-14 14 -21 31t-7 38q0 45 28.5 72t75.5 27q12 0 25 -2t25 -6t23 -10l-18 -35q-13 6 -27 9t-27 3q-31 0 -47.5 -15.5t-16.5 -42.5q0 -22 11.5 -37t34.5 -23.5t58 -8.5h51v-41h-234zM0 0v50h193q11 74 -4.5 155t-59.5 167l40 40q36 -72 56 -142t21.5 -138
t-16.5 -132h-230zM0 50h10v-50h-10q-30 0 -30 25t30 25z" />
    <glyph glyph-name="uniFE8C" unicode="&#x626;" horiz-adv-x="332" arabic-form="medial" 
d="M100 465v41h65q-14 14 -21 31t-7 38q0 45 28.5 72t75.5 27q13 0 25.5 -2t24.5 -6t24 -10l-19 -35q-12 6 -26 9t-28 3q-31 0 -47.5 -15.5t-16.5 -42.5q0 -22 12 -37t34.5 -23.5t57.5 -8.5h52v-41h-234zM0 0v50h117q17 36 30.5 77.5t23.5 85.5t17 87l56 19
q-11 -65 -26 -121.5t-33 -105.5t-41 -92h-144zM330 0q-35 0 -68.5 6.5t-65 19t-60.5 30.5l27 40q25 -16 53 -26t57 -15t53 -5h6v-50h-2zM0 50h10v-50h-10q-30 0 -30 25t30 25z" />
    <glyph glyph-name="uniFE8A" unicode="&#x626;" horiz-adv-x="768" arabic-form="final" 
d="M-2 306v41h65q-14 14 -21 31t-7 38q0 45 28.5 72t75.5 27q13 0 25.5 -2.5t24.5 -6t24 -9.5l-19 -35q-12 6 -26 9t-28 3q-31 0 -47.5 -15.5t-16.5 -42.5q0 -22 12 -37t35 -23.5t57 -8.5h52v-41h-234zM326 -230q-70 0 -125 15.5t-93 46t-58 75.5t-20 105q0 34 10 81t30 97
l46 -16q-18 -45 -27 -86.5t-9 -73.5q0 -48 15.5 -84.5t47 -61t78 -36.5t107.5 -12q63 0 117 13t94 34.5t62 49.5t22 59q0 22 -11 38.5t-40.5 34.5t-87.5 44l23 45q49 -25 81 -43.5t50 -36t25.5 -36t7.5 -42.5q0 -34 -16.5 -65.5t-46.5 -57.5t-72.5 -45.5t-95 -30.5
t-114.5 -11zM763 0q-22 0 -48.5 5t-54.5 15t-57 24.5t-56 33.5l-40 60q45 -22 82 -38.5t68 -27.5t57 -16.5t49 -5.5h5v-50h-5z" />
    <glyph glyph-name="uniFE8E" unicode="&#x627;" horiz-adv-x="256" arabic-form="final" 
d="M233 0q-41 0 -70 10t-47.5 29t-27 46.5t-8.5 63.5v591h50v-587q0 -26 5 -46t17.5 -32.5t33 -18.5t51.5 -6h19v-50h-23z" />
    <glyph glyph-name="uniFE91" unicode="&#x628;" horiz-adv-x="316" arabic-form="initial" 
d="M0 0v50h193q11 74 -4.5 155t-59.5 167l40 40q36 -72 56 -142t21.5 -138t-16.5 -132h-230zM0 50h10v-50h-10q-30 0 -30 25t30 25zM157 -189l-52 53l50 54l52 -54z" />
    <glyph glyph-name="uniFE92" unicode="&#x628;" horiz-adv-x="332" arabic-form="medial" 
d="M0 0v50h117q17 36 30.5 77.5t23.5 85.5t17 87l56 19q-11 -65 -26 -121.5t-33 -105.5t-41 -92h-144zM330 0q-35 0 -68.5 6.5t-65 19t-60.5 30.5l27 40q25 -16 53 -26t57 -15t53 -5h6v-50h-2zM0 50h10v-50h-10q-30 0 -30 25t30 25zM169 -189l-52 53l50 54l52 -54z" />
    <glyph glyph-name="uniFE90" unicode="&#x628;" horiz-adv-x="902" arabic-form="final" 
d="M334 0q-148 0 -226 50t-78 145q0 44 13.5 92t42.5 102l42 -21q-24 -50 -36 -91t-12 -78q0 -51 29 -83.5t87 -49t143 -16.5h347l3 -50h-355zM570 0v50h117q17 36 30.5 77.5t23 85.5t17.5 87l56 19q-11 -65 -26 -121.5t-33 -105.5t-42 -92h-143zM900 0q-36 0 -69.5 6.5
t-65 19t-59.5 30.5l27 40q25 -16 53 -26t57 -15t53 -5h6v-50h-2zM570 50h10v-50h-10q-30 0 -30 25t30 25zM410 -189l-52 53l50 54l52 -54z" />
    <glyph glyph-name="uniFE94" unicode="&#x629;" horiz-adv-x="505" arabic-form="final" 
d="M219 70q-57 0 -99.5 15t-66 43.5t-23.5 68.5q0 34 15.5 62t50.5 53.5t96 54t152 64.5l14 -48q-84 -34 -138.5 -59t-85 -45.5t-42.5 -39.5t-12 -42q0 -35 37 -56t102 -21q24 0 44.5 2t41.5 6.5t42 12.5l16 -46q-36 -14 -69.5 -19.5t-74.5 -5.5zM482 0q-41 0 -70 9
t-47.5 27.5t-27 47t-8.5 65.5v359h50v-355q0 -57 23 -80t84 -23h19v-50h-23zM158 585l-53 54l50 53l53 -53zM304 585l-53 54l50 53l53 -53z" />
    <glyph glyph-name="uniFE97" unicode="&#x62a;" horiz-adv-x="316" arabic-form="initial" 
d="M0 0v50h193q11 74 -4.5 155t-59.5 167l40 40q36 -72 56 -142t21.5 -138t-16.5 -132h-230zM0 50h10v-50h-10q-30 0 -30 25t30 25zM78 509l-53 54l50 53l53 -53zM224 509l-53 54l50 53l53 -53z" />
    <glyph glyph-name="uniFE98" unicode="&#x62a;" horiz-adv-x="332" arabic-form="medial" 
d="M0 0v50h117q17 36 30.5 77.5t23.5 85.5t17 87l56 19q-11 -65 -26 -121.5t-33 -105.5t-41 -92h-144zM330 0q-35 0 -68.5 6.5t-65 19t-60.5 30.5l27 40q25 -16 53 -26t57 -15t53 -5h6v-50h-2zM0 50h10v-50h-10q-30 0 -30 25t30 25zM146 443l-53 54l50 53l53 -53zM292 443
l-53 54l50 53l53 -53z" />
    <glyph glyph-name="uniFE96" unicode="&#x62a;" horiz-adv-x="902" arabic-form="final" 
d="M334 0q-148 0 -226 50t-78 145q0 44 13.5 92t42.5 102l42 -21q-24 -50 -36 -91t-12 -78q0 -51 29 -83.5t87 -49t143 -16.5h347l3 -50h-355zM570 0v50h117q17 36 30.5 77.5t23 85.5t17.5 87l56 19q-11 -65 -26 -121.5t-33 -105.5t-42 -92h-143zM900 0q-36 0 -69.5 6.5
t-65 19t-59.5 30.5l27 40q25 -16 53 -26t57 -15t53 -5h6v-50h-2zM570 50h10v-50h-10q-30 0 -30 25t30 25zM341 481l-53 54l50 53l53 -53zM487 481l-53 54l50 53l53 -53z" />
    <glyph glyph-name="uniFE9B" unicode="&#x62b;" horiz-adv-x="316" arabic-form="initial" 
d="M0 0v50h193q11 74 -4.5 155t-59.5 167l40 40q36 -72 56 -142t21.5 -138t-16.5 -132h-230zM0 50h10v-50h-10q-30 0 -30 25t30 25zM149 616l-53 53l50 54l53 -54zM78 509l-53 54l50 53l53 -53zM224 509l-53 54l50 53l53 -53z" />
    <glyph glyph-name="uniFE9C" unicode="&#x62b;" horiz-adv-x="332" arabic-form="medial" 
d="M0 0v50h117q17 36 30.5 77.5t23.5 85.5t17 87l56 19q-11 -65 -26 -121.5t-33 -105.5t-41 -92h-144zM330 0q-35 0 -68.5 6.5t-65 19t-60.5 30.5l27 40q25 -16 53 -26t57 -15t53 -5h6v-50h-2zM0 50h10v-50h-10q-30 0 -30 25t30 25zM217 550l-53 53l50 54l53 -54zM146 443
l-53 54l50 53l53 -53zM292 443l-53 54l50 53l53 -53z" />
    <glyph glyph-name="uniFE9A" unicode="&#x62b;" horiz-adv-x="902" arabic-form="final" 
d="M334 0q-148 0 -226 50t-78 145q0 44 13.5 92t42.5 102l42 -21q-24 -50 -36 -91t-12 -78q0 -51 29 -83.5t87 -49t143 -16.5h347l3 -50h-355zM570 0v50h117q17 36 30.5 77.5t23 85.5t17.5 87l56 19q-11 -65 -26 -121.5t-33 -105.5t-42 -92h-143zM900 0q-36 0 -69.5 6.5
t-65 19t-59.5 30.5l27 40q25 -16 53 -26t57 -15t53 -5h6v-50h-2zM570 50h10v-50h-10q-30 0 -30 25t30 25zM412 588l-53 53l50 54l53 -54zM341 481l-53 54l50 53l53 -53zM487 481l-53 54l50 53l53 -53z" />
    <glyph glyph-name="uniFE9F" unicode="&#x62c;" horiz-adv-x="724" arabic-form="initial" 
d="M0 0v50h26q91 0 157 9t115 24t86.5 33t71.5 37q23 13 42.5 23t38 19t36.5 15q-36 13 -82 37t-94.5 50.5t-93 45t-78.5 18.5q-46 0 -81.5 -24t-59.5 -73l-42 21q20 42 48 70t62.5 42t74.5 14q42 0 86 -17t88.5 -42t89 -50.5t88 -44.5t83.5 -21l2 -48q-44 -8 -84 -26
t-100 -51q-34 -18 -73.5 -37.5t-91.5 -36t-123 -27t-166 -10.5h-26zM0 50h10v-50h-10q-30 0 -30 25t30 25zM302 -189l-52 53l50 54l52 -54z" />
    <glyph glyph-name="uniFEA0" unicode="&#x62c;" horiz-adv-x="748" arabic-form="medial" 
d="M737 0q-61 0 -104 17.5t-71 53.5t-41 91l45 17q11 -46 32 -74.5t55 -41.5t84 -13h11v-50h-11zM0 50h10v-50h-10q-30 0 -30 25t30 25zM0 0v50h26q91 0 157 9t115 24t86.5 33t71.5 37q23 13 42.5 23t38 19t36.5 15q-36 13 -82 37t-94.5 50.5t-93 45t-78.5 18.5
q-46 0 -81.5 -24t-59.5 -73l-42 21q20 42 48 70t62.5 42t74.5 14q42 0 86 -17t88.5 -42t89 -50.5t88 -44.5t83.5 -21l2 -48q-44 -8 -84 -26t-100 -51q-34 -18 -73.5 -37.5t-91.5 -36t-123 -27t-166 -10.5h-26zM0 50h10v-50h-10q-30 0 -30 25t30 25zM302 -189l-52 53l50 54
l52 -54z" />
    <glyph glyph-name="uniFE9E" unicode="&#x62c;" horiz-adv-x="670" arabic-form="final" 
d="M658 0q-60 0 -103.5 17.5t-71 53.5t-40.5 91l44 17q11 -46 32 -74.5t55.5 -41.5t84.5 -13h11v-50h-12zM653 -361l16 -45q-48 -17 -92.5 -28.5t-90.5 -16.5t-99 -5q-78 0 -141.5 19t-109 55.5t-70 88.5t-24.5 119q0 75 29.5 134.5t90 107.5t153.5 89.5t220 82.5
q-30 10 -65.5 27t-73.5 35t-75.5 30.5t-70.5 12.5q-36 0 -69 -14t-59 -39t-44 -58l-40 21q20 41 53 72t74.5 49.5t86.5 18.5q36 0 75 -13t79 -31.5t78.5 -38.5t73.5 -34t64 -17v-42q-148 -46 -249.5 -87.5t-163.5 -85.5t-89.5 -97t-27.5 -121q0 -74 36 -126.5t103.5 -80
t160.5 -27.5q50 0 92.5 4.5t83.5 14.5t85 26zM376 -177l-52 53l50 53l52 -53z" />
    <glyph glyph-name="uniFEA3" unicode="&#x62d;" horiz-adv-x="724" arabic-form="initial" 
d="M0 0v50h26q91 0 157 9t115 24t86.5 33t71.5 37q23 13 42.5 23t38 19t36.5 15q-36 13 -82 37t-94.5 50.5t-93 45t-78.5 18.5q-46 0 -81.5 -24t-59.5 -73l-42 21q20 42 48 70t62.5 42t74.5 14q42 0 86 -17t88.5 -42t89 -50.5t88 -44.5t83.5 -21l2 -48q-44 -8 -84 -26
t-100 -51q-34 -18 -73.5 -37.5t-91.5 -36t-123 -27t-166 -10.5h-26zM0 50h10v-50h-10q-30 0 -30 25t30 25z" />
    <glyph glyph-name="uniFEA4" unicode="&#x62d;" horiz-adv-x="748" arabic-form="medial" 
d="M737 0q-61 0 -104 17.5t-71 53.5t-41 91l45 17q11 -46 32 -74.5t55 -41.5t84 -13h11v-50h-11zM0 50h10v-50h-10q-30 0 -30 25t30 25zM0 0v50h26q91 0 157 9t115 24t86.5 33t71.5 37q23 13 42.5 23t38 19t36.5 15q-36 13 -82 37t-94.5 50.5t-93 45t-78.5 18.5
q-46 0 -81.5 -24t-59.5 -73l-42 21q20 42 48 70t62.5 42t74.5 14q42 0 86 -17t88.5 -42t89 -50.5t88 -44.5t83.5 -21l2 -48q-44 -8 -84 -26t-100 -51q-34 -18 -73.5 -37.5t-91.5 -36t-123 -27t-166 -10.5h-26zM0 50h10v-50h-10q-30 0 -30 25t30 25z" />
    <glyph glyph-name="uniFEA2" unicode="&#x62d;" horiz-adv-x="670" arabic-form="final" 
d="M658 0q-60 0 -103.5 17.5t-71 53.5t-40.5 91l44 17q11 -46 32 -74.5t55.5 -41.5t84.5 -13h11v-50h-12zM653 -361l16 -45q-48 -17 -92.5 -28.5t-90.5 -16.5t-99 -5q-78 0 -141.5 19t-109 55.5t-70 88.5t-24.5 119q0 75 29.5 134.5t90 107.5t153.5 89.5t220 82.5
q-30 10 -65.5 27t-73.5 35t-75.5 30.5t-70.5 12.5q-36 0 -69 -14t-59 -39t-44 -58l-40 21q20 41 53 72t74.5 49.5t86.5 18.5q36 0 75 -13t79 -31.5t78.5 -38.5t73.5 -34t64 -17v-42q-148 -46 -249.5 -87.5t-163.5 -85.5t-89.5 -97t-27.5 -121q0 -74 36 -126.5t103.5 -80
t160.5 -27.5q50 0 92.5 4.5t83.5 14.5t85 26z" />
    <glyph glyph-name="uniFEA7" unicode="&#x62e;" horiz-adv-x="724" arabic-form="initial" 
d="M0 0v50h26q91 0 157 9t115 24t86.5 33t71.5 37q23 13 42.5 23t38 19t36.5 15q-36 13 -82 37t-94.5 50.5t-93 45t-78.5 18.5q-46 0 -81.5 -24t-59.5 -73l-42 21q20 42 48 70t62.5 42t74.5 14q42 0 86 -17t88.5 -42t89 -50.5t88 -44.5t83.5 -21l2 -48q-44 -8 -84 -26
t-100 -51q-34 -18 -73.5 -37.5t-91.5 -36t-123 -27t-166 -10.5h-26zM0 50h10v-50h-10q-30 0 -30 25t30 25zM228 521l-52 54l50 53l52 -53z" />
    <glyph glyph-name="uniFEA8" unicode="&#x62e;" horiz-adv-x="748" arabic-form="medial" 
d="M737 0q-61 0 -104 17.5t-71 53.5t-41 91l45 17q11 -46 32 -74.5t55 -41.5t84 -13h11v-50h-11zM0 50h10v-50h-10q-30 0 -30 25t30 25zM0 0v50h26q91 0 157 9t115 24t86.5 33t71.5 37q23 13 42.5 23t38 19t36.5 15q-36 13 -82 37t-94.5 50.5t-93 45t-78.5 18.5
q-46 0 -81.5 -24t-59.5 -73l-42 21q20 42 48 70t62.5 42t74.5 14q42 0 86 -17t88.5 -42t89 -50.5t88 -44.5t83.5 -21l2 -48q-44 -8 -84 -26t-100 -51q-34 -18 -73.5 -37.5t-91.5 -36t-123 -27t-166 -10.5h-26zM0 50h10v-50h-10q-30 0 -30 25t30 25zM228 521l-52 54l50 53
l52 -53z" />
    <glyph glyph-name="uniFEA6" unicode="&#x62e;" horiz-adv-x="670" arabic-form="final" 
d="M658 0q-60 0 -103.5 17.5t-71 53.5t-40.5 91l44 17q11 -46 32 -74.5t55.5 -41.5t84.5 -13h11v-50h-12zM653 -361l16 -45q-48 -17 -92.5 -28.5t-90.5 -16.5t-99 -5q-78 0 -141.5 19t-109 55.5t-70 88.5t-24.5 119q0 75 29.5 134.5t90 107.5t153.5 89.5t220 82.5
q-30 10 -65.5 27t-73.5 35t-75.5 30.5t-70.5 12.5q-36 0 -69 -14t-59 -39t-44 -58l-40 21q20 41 53 72t74.5 49.5t86.5 18.5q36 0 75 -13t79 -31.5t78.5 -38.5t73.5 -34t64 -17v-42q-148 -46 -249.5 -87.5t-163.5 -85.5t-89.5 -97t-27.5 -121q0 -74 36 -126.5t103.5 -80
t160.5 -27.5q50 0 92.5 4.5t83.5 14.5t85 26zM253 505l-52 54l50 53l52 -53z" />
    <glyph glyph-name="uniFEAA" unicode="&#x62f;" horiz-adv-x="539" arabic-form="final" 
d="M49 0l-9 50h263q52 0 78 10t42 32l30 -33q-15 -21 -34.5 -34.5t-47.5 -19t-68 -5.5h-254zM211 416l34 43l174 -288q23 -38 43 -65.5t38 -41.5t35 -14h4v-50h-6q-22 0 -42.5 11.5t-39.5 31.5t-37 46t-37 56z" />
    <glyph glyph-name="uniFEAC" unicode="&#x630;" horiz-adv-x="539" arabic-form="final" 
d="M49 0l-9 50h263q52 0 78 10t42 32l30 -33q-15 -21 -34.5 -34.5t-47.5 -19t-68 -5.5h-254zM211 416l34 43l174 -288q23 -38 43 -65.5t38 -41.5t35 -14h4v-50h-6q-22 0 -42.5 11.5t-39.5 31.5t-37 46t-37 56zM227 542l-52 54l50 53l52 -53z" />
    <glyph glyph-name="uniFEAE" unicode="&#x631;" horiz-adv-x="463" arabic-form="final" 
d="M91 -230q-40 0 -85.5 14t-85.5 40l24 40q34 -20 72.5 -32t71.5 -12q66 0 115 33.5t75.5 98t26.5 156.5q0 12 -3.5 23.5t-9.5 23.5t-14 24l75 -43v-14.5v-13.5q0 -61 -11.5 -113.5t-34 -94.5t-55 -71t-73 -44t-88.5 -15zM457 0q-23 0 -42 9t-37 26.5t-37 45t-42 64.5
l-123 199l33 43l132 -216q30 -47 49 -73.5t34.5 -37t33.5 -10.5h5v-50h-6z" />
    <glyph glyph-name="uniFEB0" unicode="&#x632;" horiz-adv-x="463" arabic-form="final" 
d="M91 -230q-40 0 -85.5 14t-85.5 40l24 40q34 -20 72.5 -32t71.5 -12q66 0 115 33.5t75.5 98t26.5 156.5q0 12 -3.5 23.5t-9.5 23.5t-14 24l75 -43v-14.5v-13.5q0 -61 -11.5 -113.5t-34 -94.5t-55 -71t-73 -44t-88.5 -15zM457 0q-23 0 -42 9t-37 26.5t-37 45t-42 64.5
l-123 199l33 43l132 -216q30 -47 49 -73.5t34.5 -37t33.5 -10.5h5v-50h-6zM191 488l-52 54l50 53l52 -53z" />
    <glyph glyph-name="uniFEB3" unicode="&#x633;" horiz-adv-x="905" arabic-form="initial" 
d="M661 0q-39 0 -75 7t-69 21t-66 34l24 42q45 -29 89 -41.5t94 -12.5h123q12 74 -3.5 154.5t-59.5 166.5l40 41q27 -54 44.5 -107t26 -104.5t6 -102t-16.5 -98.5h-157zM0 0v50h135q18 31 33.5 71.5t27 83.5t19.5 78l55 19q-8 -36 -18.5 -76.5t-24 -81t-30.5 -77.5t-38 -67
h-159zM323 0q-34 0 -65 5.5t-59 15t-54 22.5l26 41q33 -17 70 -25.5t79 -8.5h86q19 31 34.5 71.5t27 83.5t18.5 78l55 19q-7 -36 -17.5 -76.5t-24 -81t-31 -77.5t-38.5 -67h-107zM0 50h10v-50h-10q-30 0 -30 25t30 25z" />
    <glyph glyph-name="uniFEB4" unicode="&#x633;" horiz-adv-x="928" arabic-form="medial" 
d="M651 0q-40 0 -75.5 6.5t-67 19t-59.5 30.5l27 40q74 -46 172 -46h122q2 50 -1 98t-10.5 95t-18.5 94l47 31q15 -66 23 -129t8.5 -123t-8.5 -116h-159zM0 0v50h135q18 31 33 71.5t26.5 83.5t18.5 78l55 19q-7 -36 -17.5 -76.5t-24 -81t-30 -77.5t-37.5 -67h-159zM322 0
q-34 0 -65 6t-58.5 16t-53.5 23l26 40q34 -17 72 -26t82 -9h80q18 31 33 71.5t26.5 83.5t18.5 78l55 19q-7 -36 -17.5 -76.5t-24 -81t-30 -77.5t-37.5 -67h-107zM926 0q-21 0 -44.5 3.5t-48 10.5t-47.5 17l22 43q14 -6 29 -10t30 -7t29 -5t26 -2h6v-50h-2zM0 50h10v-50h-10
q-30 0 -30 25t30 25z" />
    <glyph glyph-name="uniFEB2" unicode="&#x633;" horiz-adv-x="1264" arabic-form="final" 
d="M987 0q-40 0 -75.5 6.5t-67 19t-60.5 30.5l27 40q75 -46 172 -46h131q2 50 -1 98t-10.5 95t-18.5 94l47 31q15 -66 23 -129t8.5 -123t-8.5 -116h-167zM571 0v50h168q19 31 33.5 71.5t26 83.5t18.5 78l55 19q-7 -36 -17.5 -76.5t-23.5 -81t-30 -77.5t-38 -67h-192zM1262 0
q-21 0 -44.5 3.5t-48 10.5t-47.5 17l22 43q15 -6 29.5 -10.5t29.5 -7.5t29 -4.5t26 -1.5h6v-50h-2zM301 -230q-64 0 -114.5 16t-85 47t-53 73.5t-18.5 96.5q0 34 10 81t30 97l46 -16q-18 -46 -27 -87t-9 -73q0 -59 26 -100t76 -63t121 -22q51 0 93 13.5t72.5 38.5t47 59.5
t16.5 76.5q0 33 -7.5 71t-22.5 80t-37 88l36 43q33 -63 50 -115.5t23.5 -93t6.5 -69.5q0 -71 -35.5 -126t-98.5 -85.5t-146 -30.5z" />
    <glyph glyph-name="uniFEB7" unicode="&#x634;" horiz-adv-x="905" arabic-form="initial" 
d="M661 0q-39 0 -75 7t-69 21t-66 34l24 42q45 -29 89 -41.5t94 -12.5h123q12 74 -3.5 154.5t-59.5 166.5l40 41q27 -54 44.5 -107t26 -104.5t6 -102t-16.5 -98.5h-157zM0 0v50h135q18 31 33.5 71.5t27 83.5t19.5 78l55 19q-8 -36 -18.5 -76.5t-24 -81t-30.5 -77.5t-38 -67
h-159zM323 0q-34 0 -65 5.5t-59 15t-54 22.5l26 41q33 -17 70 -25.5t79 -8.5h86q19 31 34.5 71.5t27 83.5t18.5 78l55 19q-7 -36 -17.5 -76.5t-24 -81t-31 -77.5t-38.5 -67h-107zM0 50h10v-50h-10q-30 0 -30 25t30 25zM506 525l-53 53l50 54l53 -54zM435 418l-53 54l50 53
l53 -53zM581 418l-53 54l50 53l53 -53z" />
    <glyph glyph-name="uniFEB8" unicode="&#x634;" horiz-adv-x="928" arabic-form="medial" 
d="M651 0q-40 0 -75.5 6.5t-67 19t-59.5 30.5l27 40q74 -46 172 -46h122q2 50 -1 98t-10.5 95t-18.5 94l47 31q15 -66 23 -129t8.5 -123t-8.5 -116h-159zM0 0v50h135q18 31 33 71.5t26.5 83.5t18.5 78l55 19q-7 -36 -17.5 -76.5t-24 -81t-30 -77.5t-37.5 -67h-159zM322 0
q-34 0 -65 6t-58.5 16t-53.5 23l26 40q34 -17 72 -26t82 -9h80q18 31 33 71.5t26.5 83.5t18.5 78l55 19q-7 -36 -17.5 -76.5t-24 -81t-30 -77.5t-37.5 -67h-107zM926 0q-21 0 -44.5 3.5t-48 10.5t-47.5 17l22 43q14 -6 29 -10t30 -7t29 -5t26 -2h6v-50h-2zM0 50h10v-50h-10
q-30 0 -30 25t30 25zM503 525l-53 53l50 54l53 -54zM432 418l-53 54l50 53l53 -53zM578 418l-53 54l50 53l53 -53z" />
    <glyph glyph-name="uniFEB6" unicode="&#x634;" horiz-adv-x="1264" arabic-form="final" 
d="M987 0q-40 0 -75.5 6.5t-67 19t-60.5 30.5l27 40q75 -46 172 -46h131q2 50 -1 98t-10.5 95t-18.5 94l47 31q15 -66 23 -129t8.5 -123t-8.5 -116h-167zM571 0v50h168q19 31 33.5 71.5t26 83.5t18.5 78l55 19q-7 -36 -17.5 -76.5t-23.5 -81t-30 -77.5t-38 -67h-192zM1262 0
q-21 0 -44.5 3.5t-48 10.5t-47.5 17l22 43q15 -6 29.5 -10.5t29.5 -7.5t29 -4.5t26 -1.5h6v-50h-2zM301 -230q-64 0 -114.5 16t-85 47t-53 73.5t-18.5 96.5q0 34 10 81t30 97l46 -16q-18 -46 -27 -87t-9 -73q0 -59 26 -100t76 -63t121 -22q51 0 93 13.5t72.5 38.5t47 59.5
t16.5 76.5q0 33 -7.5 71t-22.5 80t-37 88l36 43q33 -63 50 -115.5t23.5 -93t6.5 -69.5q0 -71 -35.5 -126t-98.5 -85.5t-146 -30.5zM838 533l-53 53l50 54l53 -54zM767 426l-53 54l50 53l53 -53zM913 426l-53 54l50 53l53 -53z" />
    <glyph glyph-name="uniFEBB" unicode="&#x635;" horiz-adv-x="942" arabic-form="initial" 
d="M332 0v50h487q10 98 -5.5 165t-54 102t-99.5 35q-59 0 -119 -37t-120.5 -112t-119.5 -190l-39 30q64 122 130 201t134 118.5t136 39.5q62 0 106.5 -27.5t70 -80t31.5 -126.5t-9 -168h-529zM0 0v50h117q17 36 30.5 77.5t23.5 85.5t17 87l56 19q-11 -65 -26 -121.5
t-33 -105.5t-41 -92h-144zM330 0q-35 0 -68.5 6.5t-65 19t-60.5 30.5l27 40q25 -16 53 -26t57 -15t53 -5h6v-50h-2zM0 50h10v-50h-10q-30 0 -30 25t30 25z" />
    <glyph glyph-name="uniFEBC" unicode="&#x635;" horiz-adv-x="981" arabic-form="medial" 
d="M848 82q28 -19 61.5 -25.5t71.5 -6.5v-50q-43 0 -83 12.5t-72 41.5zM332 0v50h487q10 98 -5.5 165t-54 102t-99.5 35q-59 0 -119 -37t-120.5 -112t-119.5 -190l-39 30q64 122 130 201t134 118.5t136 39.5q62 0 106.5 -27.5t70 -80t31.5 -126.5t-9 -168h-529zM0 0v50h117
q17 36 30.5 77.5t23.5 85.5t17 87l56 19q-11 -65 -26 -121.5t-33 -105.5t-41 -92h-144zM330 0q-35 0 -68.5 6.5t-65 19t-60.5 30.5l27 40q25 -16 53 -26t57 -15t53 -5h6v-50h-2zM0 50h10v-50h-10q-30 0 -30 25t30 25z" />
    <glyph glyph-name="uniFEBA" unicode="&#x635;" horiz-adv-x="1366" arabic-form="final" 
d="M1233 82q28 -19 61.5 -25.5t71.5 -6.5v-50q-43 0 -83 12.5t-72 41.5zM683 0v50h521q10 98 -5 165t-54 102t-100 35q-59 0 -119.5 -37t-120.5 -112t-119 -190l-40 30q65 121 131 200.5t134 119t136 39.5q63 0 107 -27.5t69.5 -80t31.5 -126.5t-9 -168h-563zM301 -230
q-64 0 -114.5 16t-85 47t-53 73.5t-18.5 96.5q0 34 10 81t30 97l46 -16q-18 -46 -27 -87t-9 -73q0 -44 14.5 -78.5t43 -58.5t70.5 -36t95 -12q51 0 93 13.5t72.5 38.5t47 59.5t16.5 76.5q0 33 -8.5 59t-23.5 57l68 -39q3 -11 6 -24.5t5 -26t2 -22.5q0 -71 -35.5 -126
t-98.5 -85.5t-146 -30.5zM675 0q-21 0 -44 4t-45 14.5t-40.5 28.5t-31.5 45l-66 146l36 42l75 -165q14 -30 34 -44t41.5 -17.5t40.5 -3.5h10v-50h-10z" />
    <glyph glyph-name="uniFEBF" unicode="&#x636;" horiz-adv-x="942" arabic-form="initial" 
d="M332 0v50h487q10 98 -5.5 165t-54 102t-99.5 35q-59 0 -119 -37t-120.5 -112t-119.5 -190l-39 30q64 122 130 201t134 118.5t136 39.5q62 0 106.5 -27.5t70 -80t31.5 -126.5t-9 -168h-529zM0 0v50h117q17 36 30.5 77.5t23.5 85.5t17 87l56 19q-11 -65 -26 -121.5
t-33 -105.5t-41 -92h-144zM330 0q-35 0 -68.5 6.5t-65 19t-60.5 30.5l27 40q25 -16 53 -26t57 -15t53 -5h6v-50h-2zM0 50h10v-50h-10q-30 0 -30 25t30 25zM633 512l-52 54l50 53l52 -53z" />
    <glyph glyph-name="uniFEC0" unicode="&#x636;" horiz-adv-x="981" arabic-form="medial" 
d="M848 82q28 -19 61.5 -25.5t71.5 -6.5v-50q-43 0 -83 12.5t-72 41.5zM332 0v50h487q10 98 -5.5 165t-54 102t-99.5 35q-59 0 -119 -37t-120.5 -112t-119.5 -190l-39 30q64 122 130 201t134 118.5t136 39.5q62 0 106.5 -27.5t70 -80t31.5 -126.5t-9 -168h-529zM0 0v50h117
q17 36 30.5 77.5t23.5 85.5t17 87l56 19q-11 -65 -26 -121.5t-33 -105.5t-41 -92h-144zM330 0q-35 0 -68.5 6.5t-65 19t-60.5 30.5l27 40q25 -16 53 -26t57 -15t53 -5h6v-50h-2zM0 50h10v-50h-10q-30 0 -30 25t30 25zM633 512l-52 54l50 53l52 -53z" />
    <glyph glyph-name="uniFEBE" unicode="&#x636;" horiz-adv-x="1366" arabic-form="final" 
d="M1233 82q28 -19 61.5 -25.5t71.5 -6.5v-50q-43 0 -83 12.5t-72 41.5zM683 0v50h521q10 98 -5 165t-54 102t-100 35q-59 0 -119.5 -37t-120.5 -112t-119 -190l-40 30q65 121 131 200.5t134 119t136 39.5q63 0 107 -27.5t69.5 -80t31.5 -126.5t-9 -168h-563zM301 -230
q-64 0 -114.5 16t-85 47t-53 73.5t-18.5 96.5q0 34 10 81t30 97l46 -16q-18 -46 -27 -87t-9 -73q0 -44 14.5 -78.5t43 -58.5t70.5 -36t95 -12q51 0 93 13.5t72.5 38.5t47 59.5t16.5 76.5q0 33 -8.5 59t-23.5 57l68 -39q3 -11 6 -24.5t5 -26t2 -22.5q0 -71 -35.5 -126
t-98.5 -85.5t-146 -30.5zM675 0q-21 0 -44 4t-45 14.5t-40.5 28.5t-31.5 45l-66 146l36 42l75 -165q14 -30 34 -44t41.5 -17.5t40.5 -3.5h10v-50h-10zM1018 512l-52 54l50 53l52 -53z" />
    <glyph glyph-name="uniFEC3" unicode="&#x637;" horiz-adv-x="805" arabic-form="initial" 
d="M0 0v50h682q10 98 -5.5 165t-54 102t-99.5 35q-59 0 -119 -37t-120.5 -112t-119.5 -190l-35 30q62 121 127 200.5t133 119t136 39.5q62 0 106.5 -27.5t70 -80t31.5 -126.5t-9 -168h-724zM132 0v740h50v-740h-50zM0 50h10v-50h-10q-30 0 -30 25t30 25z" />
    <glyph glyph-name="uniFEC4" unicode="&#x637;" horiz-adv-x="844" arabic-form="medial" 
d="M711 82q28 -19 61.5 -25.5t71.5 -6.5v-50q-43 0 -83 12.5t-72 41.5zM0 0v50h682q10 98 -5.5 165t-54 102t-99.5 35q-59 0 -119 -37t-120.5 -112t-119.5 -190l-35 30q62 121 127 200.5t133 119t136 39.5q62 0 106.5 -27.5t70 -80t31.5 -126.5t-9 -168h-724zM132 0v740h50
v-740h-50zM0 50h10v-50h-10q-30 0 -30 25t30 25z" />
    <glyph glyph-name="uniFEC2" unicode="&#x637;" horiz-adv-x="835" arabic-form="final" 
d="M701 82q29 -19 62.5 -25.5t71.5 -6.5v-50q-43 0 -83 12.5t-73 41.5zM30 0v50h642q10 98 -5 165t-53.5 102t-99.5 35q-59 0 -119.5 -37t-121 -112t-119.5 -190l-35 30q62 121 127 200.5t133 119t137 39.5q62 0 106 -27.5t69.5 -80t32 -126.5t-8.5 -168h-685zM122 0v740h50
v-740h-50z" />
    <glyph glyph-name="uniFEC7" unicode="&#x638;" horiz-adv-x="805" arabic-form="initial" 
d="M0 0v50h682q10 98 -5.5 165t-54 102t-99.5 35q-59 0 -119 -37t-120.5 -112t-119.5 -190l-35 30q62 121 127 200.5t133 119t136 39.5q62 0 106.5 -27.5t70 -80t31.5 -126.5t-9 -168h-724zM132 0v740h50v-740h-50zM0 50h10v-50h-10q-30 0 -30 25t30 25zM493 512l-52 54
l50 53l52 -53z" />
    <glyph glyph-name="uniFEC8" unicode="&#x638;" horiz-adv-x="844" arabic-form="medial" 
d="M711 82q28 -19 61.5 -25.5t71.5 -6.5v-50q-43 0 -83 12.5t-72 41.5zM0 0v50h682q10 98 -5.5 165t-54 102t-99.5 35q-59 0 -119 -37t-120.5 -112t-119.5 -190l-35 30q62 121 127 200.5t133 119t136 39.5q62 0 106.5 -27.5t70 -80t31.5 -126.5t-9 -168h-724zM132 0v740h50
v-740h-50zM0 50h10v-50h-10q-30 0 -30 25t30 25zM493 512l-52 54l50 53l52 -53z" />
    <glyph glyph-name="uniFEC6" unicode="&#x638;" horiz-adv-x="835" arabic-form="final" 
d="M701 82q29 -19 62.5 -25.5t71.5 -6.5v-50q-43 0 -83 12.5t-73 41.5zM30 0v50h642q10 98 -5 165t-53.5 102t-99.5 35q-59 0 -119.5 -37t-121 -112t-119.5 -190l-35 30q62 121 127 200.5t133 119t137 39.5q62 0 106 -27.5t69.5 -80t32 -126.5t-8.5 -168h-685zM122 0v740h50
v-740h-50zM483 512l-52 54l50 53l52 -53z" />
    <glyph glyph-name="uniFECB" unicode="&#x639;" horiz-adv-x="524" arabic-form="initial" 
d="M0 0v50h199q-52 28 -80.5 69t-28.5 98q0 55 25 97t69.5 65t101.5 23q43 0 83 -11t75 -34l-26 -42q-30 19 -62.5 28t-69.5 9q-66 0 -106 -37t-40 -98q0 -45 27 -83.5t80 -61t131 -22.5h86v-50h-464zM0 50h10v-50h-10q-30 0 -30 25t30 25z" />
    <glyph glyph-name="uniFECC" unicode="&#x639;" horiz-adv-x="551" arabic-form="medial" 
d="M485 0q-38 0 -70 6.5t-58 19.5t-49 30t-45 38.5t-46 46.5l-127 131v69q28 18 63.5 31.5t74.5 21.5t79 8q55 0 94 -14t59.5 -41.5t20.5 -66.5q0 -34 -16 -68t-46 -66t-73 -60q28 -21 58.5 -28.5t72.5 -7.5h74v-50h-66zM0 0v50h34q48 0 89.5 5t78 15.5t67.5 27.5l39 -33
q-61 -35 -130 -50t-151 -15h-27zM306 118q41 25 69 51.5t42 54.5t14 53q0 24 -13.5 40.5t-41.5 25.5t-69 9q-50 0 -98 -13t-85 -34l126 -130q16 -15 30 -29.5t26 -27.5zM0 50h10v-50h-10q-30 0 -30 25t30 25z" />
    <glyph glyph-name="uniFECA" unicode="&#x639;" horiz-adv-x="562" arabic-form="final" 
d="M346 -456q-97 0 -170.5 29.5t-114.5 84t-41 128.5q0 47 13.5 88t44 78t80.5 72.5t124 73.5l35 -36q-96 -50 -150 -92t-75.5 -85.5t-21.5 -96.5q0 -59 34 -102.5t97 -67.5t150 -24q67 0 122.5 8.5t107.5 26.5l16 -45q-40 -14 -80 -23t-82 -13t-89 -4zM318 117q40 25 68 52
t42 55t14 53q0 24 -14 40.5t-41.5 25.5t-68.5 9q-50 0 -98 -12.5t-85 -34.5l126 -130q16 -16 30 -30.5t27 -27.5zM488 0q-48 0 -84 11t-65.5 30t-56 45t-55.5 55l-126 131v69q28 20 63.5 33t74.5 20.5t79 7.5q54 0 93.5 -14t60 -41.5t20.5 -66.5q0 -34 -16 -68t-46.5 -65.5
t-73.5 -60.5q28 -21 59 -28.5t73 -7.5h74v-50h-74z" />
    <glyph glyph-name="uniFECF" unicode="&#x63a;" horiz-adv-x="524" arabic-form="initial" 
d="M0 0v50h199q-52 28 -80.5 69t-28.5 98q0 55 25 97t69.5 65t101.5 23q43 0 83 -11t75 -34l-26 -42q-30 19 -62.5 28t-69.5 9q-66 0 -106 -37t-40 -98q0 -45 27 -83.5t80 -61t131 -22.5h86v-50h-464zM0 50h10v-50h-10q-30 0 -30 25t30 25zM287 512l-52 54l50 53l52 -53z
" />
    <glyph glyph-name="uniFED0" unicode="&#x63a;" horiz-adv-x="551" arabic-form="medial" 
d="M485 0q-38 0 -70 6.5t-58 19.5t-49 30t-45 38.5t-46 46.5l-127 131v69q28 18 63.5 31.5t74.5 21.5t79 8q55 0 94 -14t59.5 -41.5t20.5 -66.5q0 -34 -16 -68t-46 -66t-73 -60q28 -21 58.5 -28.5t72.5 -7.5h74v-50h-66zM0 0v50h34q48 0 89.5 5t78 15.5t67.5 27.5l39 -33
q-61 -35 -130 -50t-151 -15h-27zM306 118q41 25 69 51.5t42 54.5t14 53q0 24 -13.5 40.5t-41.5 25.5t-69 9q-50 0 -98 -13t-85 -34l126 -130q16 -15 30 -29.5t26 -27.5zM0 50h10v-50h-10q-30 0 -30 25t30 25zM308 512l-52 54l50 53l52 -53z" />
    <glyph glyph-name="uniFECE" unicode="&#x63a;" horiz-adv-x="562" arabic-form="final" 
d="M346 -456q-97 0 -170.5 29.5t-114.5 84t-41 128.5q0 47 13.5 88t44 78t80.5 72.5t124 73.5l35 -36q-96 -50 -150 -92t-75.5 -85.5t-21.5 -96.5q0 -59 34 -102.5t97 -67.5t150 -24q67 0 122.5 8.5t107.5 26.5l16 -45q-40 -14 -80 -23t-82 -13t-89 -4zM318 117q40 25 68 52
t42 55t14 53q0 24 -14 40.5t-41.5 25.5t-68.5 9q-50 0 -98 -12.5t-85 -34.5l126 -130q16 -16 30 -30.5t27 -27.5zM488 0q-48 0 -84 11t-65.5 30t-56 45t-55.5 55l-126 131v69q28 20 63.5 33t74.5 20.5t79 7.5q54 0 93.5 -14t60 -41.5t20.5 -66.5q0 -34 -16 -68t-46.5 -65.5
t-73.5 -60.5q28 -21 59 -28.5t73 -7.5h74v-50h-74zM318 512l-52 54l50 53l52 -53z" />
    <glyph glyph-name="uniFED3" unicode="&#x641;" horiz-adv-x="514" arabic-form="initial" 
d="M0 0v50h383q5 34 8 63.5t4 56t1 50.5q0 52 -9.5 94.5t-27.5 74t-42.5 48.5t-54.5 17q-35 0 -63.5 -20t-45 -54t-16.5 -75q0 -30 14.5 -50t43 -31t71.5 -11q33 0 66 7.5t68 23.5l15 -45q-33 -17 -72.5 -26.5t-78.5 -9.5q-43 0 -75.5 9.5t-55 28t-34 44t-11.5 57.5
q0 42 14 79t38 64.5t56 43t67 15.5q54 0 94.5 -35t63.5 -97t23 -143q0 -34 -3.5 -77t-8 -84t-9.5 -68h-423zM0 50h10v-50h-10q-30 0 -30 25t30 25zM264 614l-52 54l50 53l52 -53z" />
    <glyph glyph-name="uniFED4" unicode="&#x641;" horiz-adv-x="516" arabic-form="medial" 
d="M0 0v50h28q12 0 38.5 1t59.5 3.5t66 7.5q-48 31 -75 73.5t-27 95.5q0 37 13 68.5t37 54.5t57 35.5t73 12.5q38 0 70.5 -13t56 -36.5t36.5 -55.5t13 -69q0 -51 -28.5 -95t-78.5 -74q22 -4 46 -6.5t49 -2.5h82v-50h-78q-34 0 -64 3t-57 9.5t-52 14.5q-30 -9 -64.5 -14
t-68.5 -8t-61 -4t-41 -1h-30zM266 72q36 14 65.5 34.5t47 50t17.5 71.5q0 35 -16 63t-44.5 44.5t-65.5 16.5q-39 0 -68.5 -15.5t-45.5 -42.5t-16 -64q0 -36 16 -66t44.5 -53.5t65.5 -38.5zM0 50h10v-50h-10q-30 0 -30 25t30 25zM271 512l-52 54l50 53l52 -53z" />
    <glyph glyph-name="uniFED2" unicode="&#x641;" horiz-adv-x="1048" arabic-form="final" 
d="M334 0q-99 0 -166.5 22.5t-102.5 65.5t-35 107q0 44 13.5 92t42.5 102l42 -21q-24 -50 -36 -91t-12 -78q0 -51 29 -83.5t87 -49t143 -16.5h225l-18 -50h-212zM532 0v50h28q12 0 38.5 1t59.5 3.5t66 7.5q-48 31 -75 73.5t-27 95.5q0 37 13 68.5t37 54.5t57 35.5t73 12.5
q38 0 70.5 -13t56 -36.5t36.5 -55.5t13 -69q0 -51 -28.5 -95t-78.5 -74q22 -4 46 -6.5t49 -2.5h82v-50h-78q-33 0 -63.5 3t-57.5 9.5t-52 14.5q-30 -9 -64.5 -14t-68.5 -8t-61 -4t-41 -1h-30zM798 72q36 14 65.5 34.5t47 50t17.5 71.5q0 35 -16 63t-44.5 44.5t-65.5 16.5
q-39 0 -68.5 -15.5t-45.5 -42.5t-16 -64q0 -36 16 -66t44.5 -53.5t65.5 -38.5zM532 50h10v-50h-10q-30 0 -30 25t30 25zM801 512l-52 54l50 53l52 -53z" />
    <glyph glyph-name="uniFED7" unicode="&#x642;" horiz-adv-x="514" arabic-form="initial" 
d="M0 0v50h383q5 34 8 63.5t4 56t1 50.5q0 52 -9.5 94.5t-27.5 74t-42.5 48.5t-54.5 17q-35 0 -63.5 -20t-45 -54t-16.5 -75q0 -30 14.5 -50t43 -31t71.5 -11q33 0 66 7.5t68 23.5l15 -45q-33 -17 -72.5 -26.5t-78.5 -9.5q-43 0 -75.5 9.5t-55 28t-34 44t-11.5 57.5
q0 42 14 79t38 64.5t56 43t67 15.5q54 0 94.5 -35t63.5 -97t23 -143q0 -34 -3.5 -77t-8 -84t-9.5 -68h-423zM0 50h10v-50h-10q-30 0 -30 25t30 25zM192 614l-53 54l50 53l53 -53zM338 614l-53 54l50 53l53 -53z" />
    <glyph glyph-name="uniFED8" unicode="&#x642;" horiz-adv-x="516" arabic-form="medial" 
d="M0 0v50h28q12 0 38.5 1t59.5 3.5t66 7.5q-48 31 -75 73.5t-27 95.5q0 37 13 68.5t37 54.5t57 35.5t73 12.5q38 0 70.5 -13t56 -36.5t36.5 -55.5t13 -69q0 -51 -28.5 -95t-78.5 -74q22 -4 46 -6.5t49 -2.5h82v-50h-78q-34 0 -64 3t-57 9.5t-52 14.5q-30 -9 -64.5 -14
t-68.5 -8t-61 -4t-41 -1h-30zM266 72q36 14 65.5 34.5t47 50t17.5 71.5q0 35 -16 63t-44.5 44.5t-65.5 16.5q-39 0 -68.5 -15.5t-45.5 -42.5t-16 -64q0 -36 16 -66t44.5 -53.5t65.5 -38.5zM0 50h10v-50h-10q-30 0 -30 25t30 25zM198 512l-53 54l50 53l53 -53zM344 512
l-53 54l50 53l53 -53z" />
    <glyph glyph-name="uniFED6" unicode="&#x642;" horiz-adv-x="741" arabic-form="final" 
d="M326 -230q-67 0 -121.5 17.5t-93.5 49t-60 76t-21 99.5q0 37 11 86t30 91l44 -16q-16 -38 -25.5 -81.5t-9.5 -77.5q0 -59 29.5 -102.5t85 -67.5t133.5 -24q73 0 130 20.5t95.5 61t55.5 98.5h-84q-54 0 -93 9.5t-65 28.5t-39 47.5t-13 65.5q0 44 14 82t38 67t56 45.5
t67 16.5q53 0 93 -33t63.5 -90t24.5 -130q0 -16 -1.5 -30.5t-2.5 -28.5h74v-50h-83q-18 -73 -62.5 -124.5t-112.5 -78.5t-157 -27zM527 50h91q2 14 3 28.5t1 29.5q0 59 -17.5 105t-47 72.5t-68.5 26.5q-34 0 -62.5 -22t-45.5 -57.5t-17 -78.5q0 -54 37 -79t126 -25zM419 472
l-53 54l50 53l53 -53zM565 472l-53 54l50 53l53 -53z" />
    <glyph glyph-name="uniFEDB" unicode="&#x643;" horiz-adv-x="454" arabic-form="initial" 
d="M66 465l315 261l32 -38l-336 -278l1 44q131 -40 206 -102.5t103.5 -149t19.5 -202.5h-407v50h361q1 89 -27 156t-92.5 116.5t-175.5 83.5v59zM0 50h10v-50h-10q-30 0 -30 25t30 25z" />
    <glyph glyph-name="uniFEDC" unicode="&#x643;" horiz-adv-x="527" arabic-form="medial" 
d="M394 82q28 -19 61.5 -25.5t71.5 -6.5v-50q-43 0 -83 12.5t-72 41.5zM66 465l315 261l32 -38l-336 -278l1 44q131 -40 206 -102.5t103.5 -149t19.5 -202.5h-407v50h361q1 89 -27 156t-92.5 116.5t-175.5 83.5v59zM0 50h10v-50h-10q-30 0 -30 25t30 25z" />
    <glyph glyph-name="uniFEDA" unicode="&#x643;" horiz-adv-x="920" arabic-form="final" 
d="M800 50h120v-50h-120v50zM334 0q-148 0 -226 50t-78 145q0 44 13.5 92t42.5 102l42 -21q-24 -50 -36 -91t-12 -78q0 -51 29 -83.5t87 -49t143 -16.5h468l-1 -50h-472zM780 0v740h50v-740h-50zM345 301v41h65q-14 14 -21 31t-7 38q0 45 29 72t76 27q12 0 24.5 -2.5t25 -6
t23.5 -9.5l-19 -35q-12 6 -26 9t-28 3q-31 0 -47 -15.5t-16 -42.5q0 -22 11.5 -37t34.5 -23.5t57 -8.5h52v-41h-234z" />
    <glyph glyph-name="uniFEDF" unicode="&#x644;" horiz-adv-x="282" arabic-form="initial" 
d="M0 0v50h152v690h50v-740h-202zM0 50h10v-50h-10q-30 0 -30 25t30 25z" />
    <glyph glyph-name="uniFEE0" unicode="&#x644;" horiz-adv-x="292" arabic-form="medial" 
d="M172 50h120v-50h-120v50zM0 0v50h152v690h50v-740h-202zM0 50h10v-50h-10q-30 0 -30 25t30 25z" />
    <glyph glyph-name="uniFEDE" unicode="&#x644;" horiz-adv-x="672" arabic-form="final" 
d="M552 50h120v-50h-120v50zM301 -230q-64 0 -114.5 16t-85 47t-53 73.5t-18.5 96.5q0 34 10 81t30 97l46 -16q-18 -46 -27 -87t-9 -73q0 -59 26 -100t76 -63t121 -22q54 0 96.5 15.5t72 46t45 76t15.5 104.5v678h50v-676q0 -94 -33.5 -159.5t-96.5 -100t-151 -34.5z" />
    <glyph glyph-name="uniFEE3" unicode="&#x645;" horiz-adv-x="564" arabic-form="initial" 
d="M0 0v50h6q22 0 41.5 19t39 51.5t39.5 71.5q17 31 35.5 63t41 59.5t51 44t64.5 16.5q48 0 85.5 -27.5t60 -77.5t28.5 -116t-7 -144q-37 -14 -73.5 -21.5t-70 -8t-64.5 6.5t-60 22t-55 36.5t-50 51.5l30 36q30 -36 63.5 -59t71 -34.5t78.5 -10t85 15.5q9 59 4 109.5t-22 89
t-44 60t-61 21.5q-31 0 -55.5 -20t-46.5 -54.5t-45 -79.5q-16 -30 -33 -59.5t-36.5 -55t-43 -41t-51.5 -15.5h-6zM0 50h10v-50h-10q-30 0 -30 25t30 25z" />
    <glyph glyph-name="uniFEE4" unicode="&#x645;" horiz-adv-x="606" arabic-form="medial" 
d="M0 0v50h14q13 0 22.5 4.5t22 20t31.5 48t51 90.5q24 43 47.5 74.5t47 51.5t48 29.5t50.5 9.5q36 0 63 -17.5t51 -57.5t48 -107t40 -98t30.5 -39.5t35.5 -8.5h4v-50h-4q-27 0 -47 7.5t-37 27t-33.5 54t-35.5 89.5q-21 58 -39 91t-36 46t-41 13q-24 0 -48 -14t-49 -44.5
t-51 -80.5q-26 -46 -45.5 -79t-35 -54.5t-29 -33.5t-28.5 -17t-33 -5h-14zM533 50q-31 -31 -69 -46t-80.5 -15.5t-87.5 12t-90 39t-89 65.5l33 33q48 -40 96 -64t94 -31.5t87.5 2.5t76.5 38zM0 50h10v-50h-10q-30 0 -30 25t30 25z" />
    <glyph glyph-name="uniFEE2" unicode="&#x645;" horiz-adv-x="572" arabic-form="final" 
d="M110 -484l44 30l-130 6l41 -31q7 84 2.5 162t-13 149t-16.5 135t-8 118q0 32 10.5 61.5t33.5 60t60 63.5q43 37 76.5 61t59.5 36t47 12q28 0 50 -16.5t43.5 -55.5t46.5 -107q19 -50 34 -80.5t28 -45t25 -19.5t25 -5h3v-50h-3q-24 0 -43.5 7t-37.5 26.5t-36.5 55.5
t-39.5 95q-21 56 -37.5 87.5t-30 44.5t-28.5 13q-14 0 -34 -10t-48 -30.5t-65 -52.5q-33 -28 -52.5 -52.5t-28 -48t-8.5 -50.5q0 -55 8 -120.5t16.5 -139t12 -151.5t-6.5 -158zM365 -6q-29 0 -59.5 8.5t-62 24t-62.5 38t-61 52.5q-10 11 -16 19t-9 16t-4 16l22 24
q53 -57 102 -92t94 -48t85.5 -5.5t75.5 35.5l29 -32q-19 -18 -40 -30.5t-44 -19t-50 -6.5z" />
    <glyph glyph-name="uniFEE7" unicode="&#x646;" horiz-adv-x="316" arabic-form="initial" 
d="M0 0v50h193q11 74 -4.5 155t-59.5 167l40 40q36 -72 56 -142t21.5 -138t-16.5 -132h-230zM0 50h10v-50h-10q-30 0 -30 25t30 25zM150 509l-52 54l50 53l52 -53z" />
    <glyph glyph-name="uniFEE8" unicode="&#x646;" horiz-adv-x="332" arabic-form="medial" 
d="M0 0v50h117q17 36 30.5 77.5t23.5 85.5t17 87l56 19q-11 -65 -26 -121.5t-33 -105.5t-41 -92h-144zM330 0q-35 0 -68.5 6.5t-65 19t-60.5 30.5l27 40q25 -16 53 -26t57 -15t53 -5h6v-50h-2zM0 50h10v-50h-10q-30 0 -30 25t30 25zM218 443l-52 54l50 53l52 -53z" />
    <glyph glyph-name="uniFEE6" unicode="&#x646;" horiz-adv-x="685" arabic-form="final" 
d="M301 -230q-64 0 -114.5 16t-85 47t-53 73.5t-18.5 96.5q0 34 10 81t30 97l46 -16q-18 -46 -27 -87t-9 -73q0 -44 14.5 -78.5t43 -58.5t70.5 -36t95 -12q51 0 93 13.5t72.5 38.5t47 59.5t16.5 76.5q0 33 -8.5 59t-23.5 57l68 -39q3 -11 6 -24.5t5 -26t2 -22.5
q0 -71 -35.5 -126t-98.5 -85.5t-146 -30.5zM675 0q-21 0 -44 4t-45 14.5t-40.5 28.5t-31.5 45l-66 146l36 42l75 -165q14 -30 34 -44t41.5 -17.5t40.5 -3.5h10v-50h-10zM297 363l-52 54l50 53l52 -53z" />
    <glyph glyph-name="uniFEEB" unicode="&#x647;" horiz-adv-x="576" arabic-form="initial" 
d="M0 0v50h22q21 0 42.5 1t43 3t41.5 5q-29 24 -44 55t-15 69q0 40 15.5 70.5t42 47.5t61.5 17q36 0 62.5 -17t42 -47.5t15.5 -70.5q0 -39 -15 -69.5t-45 -54.5q18 -3 38 -5t42 -3t46 -1h81q8 95 -15 167t-76.5 119.5t-137 71.5t-196.5 22l5 50q127 2 222 -28.5t154.5 -91
t81.5 -150.5t3 -210h-125q-53 0 -98.5 5.5t-83.5 15.5q-40 -10 -89.5 -15.5t-98.5 -5.5h-22zM209 66q37 23 54.5 50.5t17.5 65.5q0 41 -19.5 65.5t-52.5 24.5q-32 0 -51.5 -24.5t-19.5 -65.5q0 -38 17.5 -65.5t53.5 -50.5zM0 50h10v-50h-10q-30 0 -30 25t30 25z" />
    <glyph glyph-name="uniFEEC" unicode="&#x647;" horiz-adv-x="482" arabic-form="medial" 
d="M265 -230q-67 0 -116 26t-71.5 77.5t-8.5 126.5h-69v50h79q11 35 26.5 82t34.5 99t39.5 104t39.5 97l37 16q36 -27 64 -57t46.5 -61t28 -64t9.5 -65q0 -46 -17.5 -86.5t-54.5 -64.5h150v-50h-109q25 -18 38 -42.5t13 -54.5q0 -39 -19.5 -69t-55 -47t-84.5 -17zM266 -180
q52 0 81 23.5t29 62.5q0 29 -17.5 50t-48.5 32.5t-70 11.5h-120q-9 -48 -2 -82t27 -56t51.5 -32t69.5 -10zM130 50h61q48 0 79.5 13.5t49.5 36t26 49t8 52.5q0 36 -15 72.5t-44 71.5t-73 66l40 -1q-14 -32 -31 -75t-34.5 -91.5t-34.5 -98t-32 -95.5zM0 50h10v-50h-10
q-30 0 -30 25t30 25z" />
    <glyph glyph-name="uniFEEA" unicode="&#x647;" horiz-adv-x="505" arabic-form="final" 
d="M219 70q-57 0 -99.5 15t-66 43.5t-23.5 68.5q0 34 15.5 62t50.5 53.5t96 54t152 64.5l14 -48q-84 -34 -138.5 -59t-85 -45.5t-42.5 -39.5t-12 -42q0 -35 37 -56t102 -21q24 0 44.5 2t41.5 6.5t42 12.5l16 -46q-36 -14 -69.5 -19.5t-74.5 -5.5zM482 0q-41 0 -70 9
t-47.5 27.5t-27 47t-8.5 65.5v359h50v-355q0 -57 23 -80t84 -23h19v-50h-23z" />
    <glyph glyph-name="uniFEEE" unicode="&#x648;" horiz-adv-x="505" arabic-form="final" 
d="M171 -230q-39 0 -85 14t-86 40l24 40q34 -20 73 -32t72 -12q81 0 135 47t73 133h-88q-54 0 -93 9.5t-65 28.5t-38.5 47.5t-12.5 65.5q0 44 13.5 82t37.5 67t56 45.5t67 16.5q53 0 93.5 -33.5t63.5 -91.5t24 -134q0 -14 -0.5 -27t-2.5 -26h73v-50h-79q-11 -52 -32.5 -95
t-54 -73t-75 -46t-93.5 -16zM291 50h93q2 13 2 26v27q-1 61 -18 108t-46.5 74t-68.5 27q-34 0 -62.5 -22t-45.5 -57.5t-17 -78.5q0 -35 16 -58.5t52 -34.5t95 -11z" />
    <glyph glyph-name="uniFEF0" unicode="&#x649;" horiz-adv-x="768" arabic-form="final" 
d="M326 -230q-70 0 -125 15.5t-93 46t-58 75.5t-20 105q0 34 10 81t30 97l46 -16q-18 -45 -27 -86.5t-9 -73.5q0 -48 15.5 -84.5t47 -61t78 -36.5t107.5 -12q63 0 117 13t94 34.5t62 49.5t22 59q0 22 -11 38.5t-40.5 34.5t-87.5 44l23 45q49 -25 81 -43.5t50 -36t25.5 -36
t7.5 -42.5q0 -34 -16.5 -65.5t-46.5 -57.5t-72.5 -45.5t-95 -30.5t-114.5 -11zM763 0q-22 0 -48.5 5t-54.5 15t-57 24.5t-56 33.5l-40 60q45 -22 82 -38.5t68 -27.5t57 -16.5t49 -5.5h5v-50h-5z" />
    <glyph glyph-name="uniFEF3" unicode="&#x64a;" horiz-adv-x="316" arabic-form="initial" 
d="M0 0v50h193q11 74 -4.5 155t-59.5 167l40 40q36 -72 56 -142t21.5 -138t-16.5 -132h-230zM0 50h10v-50h-10q-30 0 -30 25t30 25zM87 -189l-53 53l50 54l53 -54zM233 -189l-53 53l50 54l53 -54z" />
    <glyph glyph-name="uniFEF4" unicode="&#x64a;" horiz-adv-x="332" arabic-form="medial" 
d="M0 0v50h117q17 36 30.5 77.5t23.5 85.5t17 87l56 19q-11 -65 -26 -121.5t-33 -105.5t-41 -92h-144zM330 0q-35 0 -68.5 6.5t-65 19t-60.5 30.5l27 40q25 -16 53 -26t57 -15t53 -5h6v-50h-2zM0 50h10v-50h-10q-30 0 -30 25t30 25zM99 -189l-53 53l50 54l53 -54zM245 -189
l-53 53l50 54l53 -54z" />
    <glyph glyph-name="uniFEF2" unicode="&#x64a;" horiz-adv-x="768" arabic-form="final" 
d="M326 -230q-70 0 -125 15.5t-93 46t-58 75.5t-20 105q0 34 10 81t30 97l46 -16q-18 -45 -27 -86.5t-9 -73.5q0 -48 15.5 -84.5t47 -61t78 -36.5t107.5 -12q63 0 117 13t94 34.5t62 49.5t22 59q0 22 -11 38.5t-40.5 34.5t-87.5 44l23 45q49 -25 81 -43.5t50 -36t25.5 -36
t7.5 -42.5q0 -34 -16.5 -65.5t-46.5 -57.5t-72.5 -45.5t-95 -30.5t-114.5 -11zM763 0q-22 0 -48.5 5t-54.5 15t-57 24.5t-56 33.5l-40 60q45 -22 82 -38.5t68 -27.5t57 -16.5t49 -5.5h5v-50h-5zM254 -419l-53 53l50 54l53 -54zM400 -419l-53 53l50 54l53 -54z" />
    <glyph glyph-name="uni066E.init" unicode="&#x66e;" horiz-adv-x="316" 
d="M0 0v50h193q11 74 -4.5 155t-59.5 167l40 40q36 -72 56 -142t21.5 -138t-16.5 -132h-230zM0 50h10v-50h-10q-30 0 -30 25t30 25z" />
    <glyph glyph-name="uni066E.medi" unicode="&#x66e;" horiz-adv-x="332" 
d="M0 0v50h117q17 36 30.5 77.5t23.5 85.5t17 87l56 19q-11 -65 -26 -121.5t-33 -105.5t-41 -92h-144zM330 0q-35 0 -68.5 6.5t-65 19t-60.5 30.5l27 40q25 -16 53 -26t57 -15t53 -5h6v-50h-2zM0 50h10v-50h-10q-30 0 -30 25t30 25z" />
    <glyph glyph-name="uni066E.fina" unicode="&#x66e;" horiz-adv-x="902" 
d="M334 0q-148 0 -226 50t-78 145q0 44 13.5 92t42.5 102l42 -21q-24 -50 -36 -91t-12 -78q0 -51 29 -83.5t87 -49t143 -16.5h347l3 -50h-355zM570 0v50h117q17 36 30.5 77.5t23 85.5t17.5 87l56 19q-11 -65 -26 -121.5t-33 -105.5t-42 -92h-143zM900 0q-36 0 -69.5 6.5
t-65 19t-59.5 30.5l27 40q25 -16 53 -26t57 -15t53 -5h6v-50h-2zM570 50h10v-50h-10q-30 0 -30 25t30 25z" />
    <glyph glyph-name="uni066F.fina" unicode="&#x66f;" horiz-adv-x="741" 
d="M326 -230q-67 0 -121.5 17.5t-93.5 49t-60 76t-21 99.5q0 37 11 86t30 91l44 -16q-16 -38 -25.5 -81.5t-9.5 -77.5q0 -59 29.5 -102.5t85 -67.5t133.5 -24q73 0 130 20.5t95.5 61t55.5 98.5h-84q-54 0 -93 9.5t-65 28.5t-39 47.5t-13 65.5q0 44 14 82t38 67t56 45.5
t67 16.5q53 0 93 -33t63.5 -90t24.5 -130q0 -16 -1.5 -30.5t-2.5 -28.5h74v-50h-83q-18 -73 -62.5 -124.5t-112.5 -78.5t-157 -27zM527 50h91q2 14 3 28.5t1 29.5q0 59 -17.5 105t-47 72.5t-68.5 26.5q-34 0 -62.5 -22t-45.5 -57.5t-17 -78.5q0 -54 37 -79t126 -25z" />
    <glyph glyph-name="uniFB51" unicode="&#x671;" horiz-adv-x="256" arabic-form="final" 
d="M233 0q-41 0 -70 10t-47.5 29t-27 46.5t-8.5 63.5v591h50v-587q0 -26 5 -46t17.5 -32.5t33 -18.5t51.5 -6h19v-50h-23zM-34 920l37 7q-6 -29 -12.5 -48.5t-13.5 -33.5t-16 -26h-54v34h39q6 13 11 29t9 38zM30 830l-28 15q32 60 68.5 91t74.5 31q32 0 51 -18.5t25.5 -51.5
t-3.5 -78h-192q-21 0 -39 5.5t-34 16.5l19 27q23 -15 54 -15h165q3 39 -9.5 59.5t-36.5 20.5q-28 0 -57 -25.5t-58 -77.5z" />
    <glyph glyph-name="uni06A1.init" unicode="&#x6a1;" horiz-adv-x="514" 
d="M0 0v50h383q5 34 8 63.5t4 56t1 50.5q0 52 -9.5 94.5t-27.5 74t-42.5 48.5t-54.5 17q-35 0 -63.5 -20t-45 -54t-16.5 -75q0 -30 14.5 -50t43 -31t71.5 -11q33 0 66 7.5t68 23.5l15 -45q-33 -17 -72.5 -26.5t-78.5 -9.5q-43 0 -75.5 9.5t-55 28t-34 44t-11.5 57.5
q0 42 14 79t38 64.5t56 43t67 15.5q54 0 94.5 -35t63.5 -97t23 -143q0 -34 -3.5 -77t-8 -84t-9.5 -68h-423zM0 50h10v-50h-10q-30 0 -30 25t30 25z" />
    <glyph glyph-name="uni06A1.medi" unicode="&#x6a1;" horiz-adv-x="516" 
d="M0 0v50h28q12 0 38.5 1t59.5 3.5t66 7.5q-48 31 -75 73.5t-27 95.5q0 37 13 68.5t37 54.5t57 35.5t73 12.5q38 0 70.5 -13t56 -36.5t36.5 -55.5t13 -69q0 -51 -28.5 -95t-78.5 -74q22 -4 46 -6.5t49 -2.5h82v-50h-78q-34 0 -64 3t-57 9.5t-52 14.5q-30 -9 -64.5 -14
t-68.5 -8t-61 -4t-41 -1h-30zM266 72q36 14 65.5 34.5t47 50t17.5 71.5q0 35 -16 63t-44.5 44.5t-65.5 16.5q-39 0 -68.5 -15.5t-45.5 -42.5t-16 -64q0 -36 16 -66t44.5 -53.5t65.5 -38.5zM0 50h10v-50h-10q-30 0 -30 25t30 25z" />
    <glyph glyph-name="uni06A1.fina" unicode="&#x6a1;" horiz-adv-x="1048" 
d="M334 0q-99 0 -166.5 22.5t-102.5 65.5t-35 107q0 44 13.5 92t42.5 102l42 -21q-24 -50 -36 -91t-12 -78q0 -51 29 -83.5t87 -49t143 -16.5h225l-18 -50h-212zM532 0v50h28q12 0 38.5 1t59.5 3.5t66 7.5q-48 31 -75 73.5t-27 95.5q0 37 13 68.5t37 54.5t57 35.5t73 12.5
q38 0 70.5 -13t56 -36.5t36.5 -55.5t13 -69q0 -51 -28.5 -95t-78.5 -74q22 -4 46 -6.5t49 -2.5h82v-50h-78q-33 0 -63.5 3t-57.5 9.5t-52 14.5q-30 -9 -64.5 -14t-68.5 -8t-61 -4t-41 -1h-30zM798 72q36 14 65.5 34.5t47 50t17.5 71.5q0 35 -16 63t-44.5 44.5t-65.5 16.5
q-39 0 -68.5 -15.5t-45.5 -42.5t-16 -64q0 -36 16 -66t44.5 -53.5t65.5 -38.5zM532 50h10v-50h-10q-30 0 -30 25t30 25z" />
    <glyph glyph-name="uniFB6C" unicode="&#x6a4;" horiz-adv-x="514" arabic-form="initial" 
d="M0 0v50h383q5 34 8 63.5t4 56t1 50.5q0 52 -9.5 94.5t-27.5 74t-42.5 48.5t-54.5 17q-35 0 -63.5 -20t-45 -54t-16.5 -75q0 -30 14.5 -50t43 -31t71.5 -11q33 0 66 7.5t68 23.5l15 -45q-33 -17 -72.5 -26.5t-78.5 -9.5q-43 0 -75.5 9.5t-55 28t-34 44t-11.5 57.5
q0 42 14 79t38 64.5t56 43t67 15.5q54 0 94.5 -35t63.5 -97t23 -143q0 -34 -3.5 -77t-8 -84t-9.5 -68h-423zM0 50h10v-50h-10q-30 0 -30 25t30 25zM263 721l-53 53l50 54l53 -54zM192 614l-53 54l50 53l53 -53zM338 614l-53 54l50 53l53 -53z" />
    <glyph glyph-name="uniFB6D" unicode="&#x6a4;" horiz-adv-x="516" arabic-form="medial" 
d="M0 0v50h28q12 0 38.5 1t59.5 3.5t66 7.5q-48 31 -75 73.5t-27 95.5q0 37 13 68.5t37 54.5t57 35.5t73 12.5q38 0 70.5 -13t56 -36.5t36.5 -55.5t13 -69q0 -51 -28.5 -95t-78.5 -74q22 -4 46 -6.5t49 -2.5h82v-50h-78q-34 0 -64 3t-57 9.5t-52 14.5q-30 -9 -64.5 -14
t-68.5 -8t-61 -4t-41 -1h-30zM266 72q36 14 65.5 34.5t47 50t17.5 71.5q0 35 -16 63t-44.5 44.5t-65.5 16.5q-39 0 -68.5 -15.5t-45.5 -42.5t-16 -64q0 -36 16 -66t44.5 -53.5t65.5 -38.5zM0 50h10v-50h-10q-30 0 -30 25t30 25zM269 619l-53 53l50 54l53 -54zM198 512
l-53 54l50 53l53 -53zM344 512l-53 54l50 53l53 -53z" />
    <glyph glyph-name="uniFB6B" unicode="&#x6a4;" horiz-adv-x="1048" arabic-form="final" 
d="M334 0q-99 0 -166.5 22.5t-102.5 65.5t-35 107q0 44 13.5 92t42.5 102l42 -21q-24 -50 -36 -91t-12 -78q0 -51 29 -83.5t87 -49t143 -16.5h225l-18 -50h-212zM532 0v50h28q12 0 38.5 1t59.5 3.5t66 7.5q-48 31 -75 73.5t-27 95.5q0 37 13 68.5t37 54.5t57 35.5t73 12.5
q38 0 70.5 -13t56 -36.5t36.5 -55.5t13 -69q0 -51 -28.5 -95t-78.5 -74q22 -4 46 -6.5t49 -2.5h82v-50h-78q-33 0 -63.5 3t-57.5 9.5t-52 14.5q-30 -9 -64.5 -14t-68.5 -8t-61 -4t-41 -1h-30zM798 72q36 14 65.5 34.5t47 50t17.5 71.5q0 35 -16 63t-44.5 44.5t-65.5 16.5
q-39 0 -68.5 -15.5t-45.5 -42.5t-16 -64q0 -36 16 -66t44.5 -53.5t65.5 -38.5zM532 50h10v-50h-10q-30 0 -30 25t30 25zM800 619l-53 53l50 54l53 -54zM729 512l-53 54l50 53l53 -53zM875 512l-53 54l50 53l53 -53z" />
    <glyph glyph-name="uniFB9F" unicode="&#x6ba;" horiz-adv-x="685" arabic-form="final" 
d="M301 -230q-64 0 -114.5 16t-85 47t-53 73.5t-18.5 96.5q0 34 10 81t30 97l46 -16q-18 -46 -27 -87t-9 -73q0 -44 14.5 -78.5t43 -58.5t70.5 -36t95 -12q51 0 93 13.5t72.5 38.5t47 59.5t16.5 76.5q0 33 -8.5 59t-23.5 57l68 -39q3 -11 6 -24.5t5 -26t2 -22.5
q0 -71 -35.5 -126t-98.5 -85.5t-146 -30.5zM675 0q-21 0 -44 4t-45 14.5t-40.5 28.5t-31.5 45l-66 146l36 42l75 -165q14 -30 34 -44t41.5 -17.5t40.5 -3.5h10v-50h-10z" />
    <glyph glyph-name=".notdef" horiz-adv-x="584" 
d="M75 0q-35 0 -35 35v630q0 35 35 35h434q35 0 35 -35v-630q0 -35 -35 -35h-434zM70 25h426q3 0 4 2t-1 4l-428 615q-2 3 -4 3t-2 -5v-614q0 -5 5 -5zM513 53q2 -3 4 -2.5t2 4.5v615q0 5 -5 5h-427q-3 0 -3.5 -2t0.5 -4z" />
    <glyph glyph-name=".null" 
 />
    <glyph glyph-name="nonmarkingreturn" horiz-adv-x="333" 
 />
    <glyph glyph-name="CR" unicode="&#xd;" horiz-adv-x="277" 
 />
    <glyph glyph-name="space" unicode=" " horiz-adv-x="280" 
 />
    <glyph glyph-name="exclam" unicode="!" horiz-adv-x="248" 
d="M111 241q-3 43 -5.5 87t-4 89t-1.5 87l1 196h52v-196q1 -43 -0.5 -88.5t-4 -89.5t-6.5 -85h-31zM124 -9q-21 0 -32.5 13t-11.5 37q0 22 11.5 36t32.5 14q22 0 33.5 -13t11.5 -37q0 -21 -12.5 -35.5t-32.5 -14.5z" />
    <glyph glyph-name="quotedbl" unicode="&#x22;" horiz-adv-x="358" 
d="M199 442l39 258h58l-65 -258h-32zM65 442l39 258h60l-67 -258h-32z" />
    <glyph glyph-name="numbersign" unicode="#" horiz-adv-x="684" 
d="M396 0l120 700h46l-120 -700h-46zM38 201v43h571v-43h-571zM121 0l120 700h46l-120 -700h-46zM76 467v44h570v-44h-570z" />
    <glyph glyph-name="dollar" unicode="$" horiz-adv-x="586" 
d="M303 -10q-77 0 -142.5 30t-107.5 84l35 41q45 -55 98 -80.5t122 -25.5q50 0 90.5 18t65.5 48.5t25 69.5q0 26 -8.5 45.5t-24.5 35.5t-39.5 28.5t-54 23.5t-66.5 23q-71 20 -117 45t-69 60t-23 88q0 55 29 95.5t79 63t113 22.5q80 0 133.5 -30.5t86.5 -75.5l-36 -36
q-29 39 -76.5 66.5t-107.5 27.5q-49 0 -87.5 -16.5t-60 -47t-21.5 -70.5q0 -27 10 -47.5t31.5 -36.5t55.5 -30.5t82 -28.5q53 -17 94.5 -34t70 -39t43.5 -52t15 -71q0 -57 -31 -100.5t-84.5 -68.5t-122.5 -25zM276 -91v451l49 -15v-436h-49zM339 349l-49 14v419h49v-433z
" />
    <glyph glyph-name="percent" unicode="%" horiz-adv-x="834" 
d="M157 0l465 700h53l-466 -700h-52zM193 329q-45 0 -79.5 24.5t-54 67t-19.5 97.5t19.5 98.5t54 68t79.5 24.5t80 -24.5t54.5 -68t19.5 -98.5q0 -53 -20 -96t-55 -68t-79 -25zM193 369q32 0 57 18.5t39.5 52.5t14.5 78q0 45 -14 79t-39 52.5t-58 18.5q-32 0 -57 -19
t-39 -52.5t-14 -78.5q0 -67 31 -108t79 -41zM637 -9q-45 0 -79.5 24.5t-54 67t-19.5 97.5q0 56 19.5 99t54 67.5t79.5 24.5t79.5 -24.5t54.5 -67.5t20 -99q0 -53 -20 -96t-55 -68t-79 -25zM637 30q32 0 57 19t39 53t14 78q0 68 -30.5 109t-79.5 41q-32 0 -57.5 -19
t-39.5 -52.5t-14 -78.5q0 -67 31 -108.5t80 -41.5z" />
    <glyph glyph-name="ampersand" unicode="&#x26;" horiz-adv-x="685" 
d="M552 0l-63 68l-14 15l-207 226q-33 37 -57.5 66t-39.5 54t-22 48.5t-7 50.5q0 52 25 92t70.5 62.5t103.5 22.5q45 0 82 -15t64 -43t41 -69l-40 -25q-24 56 -58.5 81t-88.5 25q-44 0 -77 -16.5t-50.5 -45.5t-17.5 -67q0 -24 7.5 -45.5t21 -43t34 -45.5t46.5 -53l207 -226
l14 -17l92 -100h-66zM312 -10q-76 0 -135.5 29t-93 80t-33.5 119t37 123t110 86l30 -38q-59 -21 -91.5 -65t-32.5 -101q0 -54 28 -96t76.5 -65.5t113.5 -23.5q55 0 101.5 20.5t81.5 58.5t58 91.5t31 120.5h46q-7 -61 -26 -113t-47 -93.5t-66 -71t-85 -45.5t-103 -16z" />
    <glyph glyph-name="quotesingle" unicode="'" horiz-adv-x="193" 
d="M50 442l32 258h59l-58 -258h-33z" />
    <glyph glyph-name="parenleft" unicode="(" horiz-adv-x="346" 
d="M304 -186q-122 76 -186 190t-64 254q0 139 64.5 253.5t186.5 190.5l28 -32q-114 -77 -172.5 -181.5t-58.5 -230.5q0 -124 56 -228t175 -184z" />
    <glyph glyph-name="parenright" unicode=")" horiz-adv-x="347" 
d="M42 -186l-29 32q115 77 172.5 182t57.5 230t-56 228.5t-174 183.5l30 32q122 -76 186 -190t64 -254q0 -139 -64.5 -253.5t-186.5 -190.5z" />
    <glyph glyph-name="asterisk" unicode="*" horiz-adv-x="397" 
d="M177 376l5 145l9 -4l-124 -74l-21 35l131 65v-11l-133 66l22 37l126 -77l-10 -10l-5 152h43l-7 -149l-11 6l127 77l21 -37l-129 -64v11l129 -65l-21 -36l-125 75l9 1l7 -143h-43z" />
    <glyph glyph-name="plus" unicode="+" horiz-adv-x="590" 
d="M55 262v46h480v-46h-480zM284 42l-15 170l37 313l15 -170z" />
    <glyph glyph-name="comma" unicode="," horiz-adv-x="234" 
d="M86 -142l-19 23q25 21 41 43.5t16 37.5q0 14 -6.5 21t-21.5 16q-11 10 -17 19t-6 22q0 15 11 25.5t30 10.5t32.5 -9.5t21 -27t7.5 -43.5q0 -21 -5.5 -40t-17 -35.5t-28 -32t-38.5 -30.5z" />
    <glyph glyph-name="hyphen" unicode="-" horiz-adv-x="394" 
d="M58 253v50h278v-50h-278z" />
    <glyph glyph-name="period" unicode="." horiz-adv-x="228" 
d="M114 -7q-21 0 -32.5 12t-11.5 35q0 20 12 33t32 13q21 0 32.5 -12t11.5 -34q0 -21 -12 -34t-32 -13z" />
    <glyph glyph-name="slash" unicode="/" horiz-adv-x="563" 
d="M55 -108l400 808h51l-401 -808h-50z" />
    <glyph glyph-name="zero" unicode="0" horiz-adv-x="615" 
d="M308 -10q-82 0 -140 42t-88 122.5t-30 195.5t30 195.5t88 122.5t140 42q83 0 140.5 -42t87.5 -122.5t30 -195.5t-30 -195.5t-87.5 -122.5t-140.5 -42zM308 39q99 0 152 81t53 230q0 150 -53 230.5t-152 80.5t-152.5 -80.5t-53.5 -230.5q0 -149 53.5 -230t152.5 -81z" />
    <glyph glyph-name="one" unicode="1" horiz-adv-x="422" 
d="M193 23v634l16 -11l-139 -85l-14 46l164 103h25v-687h-52zM77 0v51h285v-51h-285z" />
    <glyph glyph-name="two" unicode="2" horiz-adv-x="548" 
d="M83 0l-15 37l263 286q16 17 35 40t36 50t27.5 55.5t10.5 57.5q0 39 -20.5 69.5t-56 48t-82.5 17.5q-35 0 -71 -17t-66 -52t-47 -93l-43 25q19 63 52.5 104t80 61.5t100.5 20.5q59 0 105.5 -23t74 -64t27.5 -93q0 -32 -9.5 -63t-25.5 -61t-38 -59t-48 -57l-244 -261l-8 22
h388v-51h-426z" />
    <glyph glyph-name="three" unicode="3" horiz-adv-x="529" 
d="M259 -10q-73 0 -132 33.5t-107 114.5l43 27q30 -48 62 -76t66.5 -39.5t72.5 -11.5q50 0 90.5 24.5t63.5 66.5t23 93t-21.5 89.5t-58.5 61t-84 22.5q-20 0 -41.5 -3.5t-44 -14t-47.5 -33.5l-19 42l281 281l8 -16h-336v49h377l15 -29l-268 -269l-16 13q20 14 43 22t52 8
q46 0 84.5 -16.5t67 -46t44.5 -70.5t16 -88q0 -66 -30.5 -119t-83.5 -84t-120 -31z" />
    <glyph glyph-name="four" unicode="4" horiz-adv-x="620" 
d="M405 0v640l18 -3l-334 -407l-3 9h492v-49h-521l-24 46l381 464h42v-700h-51z" />
    <glyph glyph-name="five" unicode="5" horiz-adv-x="568" 
d="M257 -9q-69 0 -124.5 32t-93.5 92l34 35q39 -57 86.5 -83t98.5 -26q56 0 101 26t71 70.5t26 98.5q0 50 -23.5 90.5t-64 65t-92.5 24.5q-31 0 -61 -7.5t-60 -22.5t-60 -37l-29 37l45 314h376v-49h-350l18 14l-41 -280l-15 16q22 18 52 32.5t63.5 23t67.5 8.5q65 0 116 -29
t80.5 -80.5t29.5 -118.5q0 -69 -33 -125t-89.5 -88.5t-128.5 -32.5z" />
    <glyph glyph-name="six" unicode="6" horiz-adv-x="588" 
d="M291 -7q-49 0 -91.5 18t-74 51t-49.5 77.5t-18 98.5q-1 37 9.5 82t33 95.5t56.5 105.5l117 183h51l4 -7l-122 -191q-28 -44 -50 -85t-34.5 -75t-15.5 -58l-12 38q24 48 55.5 79t69.5 46.5t80 15.5q62 0 112.5 -31t80.5 -83.5t30 -116.5q0 -69 -30.5 -124t-83 -87
t-118.5 -32zM293 43q50 0 90.5 24.5t64 67.5t23.5 97q0 51 -24 93.5t-64 67.5t-90 25q-52 0 -93.5 -25t-65.5 -67t-24 -95t24 -95.5t65.5 -67.5t93.5 -25z" />
    <glyph glyph-name="seven" unicode="7" horiz-adv-x="493" 
d="M103 0l302 672l9 -21h-393v49h417l15 -37l-293 -663h-57z" />
    <glyph glyph-name="eight" unicode="8" horiz-adv-x="580" 
d="M290 -3q-65 0 -118.5 26.5t-85 71.5t-31.5 100q0 34 10.5 64t31.5 54.5t50 43t67 29.5l1 -15q-42 9 -72 31.5t-46 54.5t-16 66q0 53 28 94.5t75.5 65.5t105.5 24t105.5 -24t76 -65.5t28.5 -94.5q0 -34 -16 -65t-46.5 -53.5t-73.5 -33.5l2 13q47 -13 83 -40.5t56.5 -65
t20.5 -83.5q0 -56 -31.5 -101t-85 -71t-119.5 -26zM290 46q51 0 92.5 21t66 54.5t24.5 74.5q0 45 -23.5 80t-65 55t-94.5 20q-52 0 -93.5 -20t-65.5 -55t-24 -80q0 -40 24.5 -74t66 -55t92.5 -21zM290 397q45 0 80.5 16.5t56 45.5t20.5 67q0 37 -20.5 66.5t-56 47
t-80.5 17.5q-46 0 -81 -17.5t-55.5 -47t-20.5 -66.5t20.5 -66t55.5 -46t81 -17z" />
    <glyph glyph-name="nine" unicode="9" horiz-adv-x="549" 
d="M255 0l-2 7l209 401l3 -27q-24 -45 -55.5 -75.5t-68.5 -45.5t-78 -15q-61 0 -111.5 30.5t-80.5 82t-30 115.5q0 67 31 121t84 85t119 31q48 0 90 -17.5t73.5 -48.5t50 -74t18.5 -94q0 -31 -7 -63t-20 -67t-31 -73.5t-41 -82.5l-101 -190h-52zM269 294q52 0 93 24.5t65 66
t24 92.5q0 52 -24 93.5t-64.5 66t-92.5 24.5q-48 0 -88 -24.5t-63.5 -65.5t-23.5 -94q0 -50 23.5 -92t63.5 -66.5t87 -24.5z" />
    <glyph glyph-name="colon" unicode=":" horiz-adv-x="228" 
d="M114 -8q-21 0 -32.5 12t-11.5 35q0 20 12 33t32 13q21 0 32.5 -12t11.5 -34q0 -21 -12 -34t-32 -13zM114 432q-21 0 -32.5 12t-11.5 35q0 20 12 33t32 13q21 0 32.5 -12t11.5 -34q0 -21 -12 -34t-32 -13z" />
    <glyph glyph-name="semicolon" unicode=";" horiz-adv-x="238" 
d="M89 -142l-19 23q25 21 41 43.5t16 37.5q0 14 -6.5 21t-21.5 16q-11 10 -17 19t-6 22q0 15 11 25.5t30 10.5t32.5 -9.5t21 -27t7.5 -43.5q0 -21 -5.5 -40t-17 -35.5t-28 -32t-38.5 -30.5zM126 432q-21 0 -32.5 12t-11.5 35q0 20 12 33t32 13q21 0 32.5 -12t11.5 -34
q0 -21 -12 -34t-32 -13z" />
    <glyph glyph-name="less" unicode="&#x3c;" horiz-adv-x="490" 
d="M406 24l-358 206v45l358 205l25 -39l-350 -203v28l350 -201z" />
    <glyph glyph-name="equal" unicode="=" horiz-adv-x="566" 
d="M60 342v46h446v-46h-446zM60 173v47h446v-47h-446z" />
    <glyph glyph-name="greater" unicode="&#x3e;" horiz-adv-x="489" 
d="M83 24l-24 41l352 201v-28l-352 203l24 39l358 -205v-45z" />
    <glyph glyph-name="question" unicode="?" horiz-adv-x="464" 
d="M188 170l-10 158q47 12 83.5 30.5t60.5 42.5t35.5 54t11.5 64q0 38 -18 70t-52.5 52t-81.5 20q-36 0 -68.5 -13.5t-59 -41.5t-44.5 -72l-36 28q19 48 51 81t72.5 50t86.5 17q60 0 106.5 -25.5t72.5 -68.5t26 -96q0 -51 -23.5 -94.5t-65.5 -76t-99 -49.5l-7 -130h-41z
M169 35q0 21 11 34t30 13q20 0 30.5 -12t10.5 -35q0 -19 -11 -32t-30 -13q-20 0 -30.5 12t-10.5 33z" />
    <glyph glyph-name="at" unicode="@" horiz-adv-x="979" 
d="M421 -162q-84 0 -152 27.5t-117 78t-75.5 120t-26.5 154.5q0 104 38 193.5t106 156.5t160 104.5t203 37.5q83 0 151 -24t117.5 -66.5t76.5 -101.5t27 -130q0 -73 -20 -134.5t-54 -106t-77 -68.5t-90 -24q-31 0 -51.5 11t-30.5 30t-10 42q0 18 5.5 39t14.5 50l11 -14
q-17 -49 -46 -84.5t-68 -54.5t-85 -19q-47 0 -83.5 22t-57.5 62.5t-21 93.5t17 102.5t48.5 89t73.5 62.5t93 23q34 0 66 -13.5t56 -43.5t33 -76l-15 -26l26 150h49l-59 -319q-8 -43 0 -63.5t44 -20.5q35 0 68 19.5t59.5 56.5t42.5 90.5t16 120.5q0 89 -41.5 152t-115 97
t-171.5 34q-105 0 -190 -35.5t-145.5 -97.5t-93.5 -142t-33 -170q0 -79 23.5 -142t67 -108.5t103.5 -69t134 -23.5q39 0 81 8.5t81 23.5t69 33l21 -36q-43 -24 -86 -40t-84.5 -23.5t-82.5 -7.5zM437 99q49 0 88.5 24.5t66.5 69.5t35 106q3 9 4 19.5t1 18.5q0 32 -15 61.5
t-44.5 48.5t-73.5 19q-47 0 -89 -31t-67.5 -84t-25.5 -119q0 -59 33 -96t87 -37z" />
    <glyph glyph-name="A" unicode="A" horiz-adv-x="643" 
d="M22 0l269 700h61l269 -700h-58l-181 475q-3 7 -10.5 29.5t-18.5 52l-22 59t-19 50.5l15 -1q-6 -18 -15.5 -45t-20.5 -56t-20 -53.5t-14 -37.5l-179 -473h-56zM129 210l19 52h343l22 -52h-384z" />
    <glyph glyph-name="B" unicode="B" horiz-adv-x="662" 
d="M106 0v700h276q60 0 102.5 -22t65.5 -60.5t23 -88.5q0 -62 -39.5 -107t-105.5 -58l-4 16q60 -6 101.5 -31.5t63 -64t21.5 -87.5q0 -44 -13.5 -80t-42 -62t-71.5 -40.5t-102 -14.5h-275zM158 51h223q92 0 133.5 40.5t41.5 103.5q0 43 -21 75t-59.5 50.5t-94.5 18.5h-223
v-288zM158 390h218q41 0 73.5 17.5t51.5 47t19 67.5q0 56 -39 91.5t-107 35.5h-216v-259z" />
    <glyph glyph-name="C" unicode="C" horiz-adv-x="686" 
d="M393 -10q-75 0 -136.5 26t-107.5 73.5t-71 113t-25 144.5q0 78 25.5 144t72 115t109 76t136.5 27q53 0 100 -15t86.5 -41t68.5 -62l-38 -37q-43 48 -98 75t-119 27q-62 0 -115 -23t-92 -64.5t-60.5 -98t-21.5 -123.5t21.5 -123t60.5 -96.5t92.5 -63t117.5 -22.5
q42 0 79.5 10t70 29t58.5 45l29 -43q-27 -28 -65.5 -49.5t-83.5 -32.5t-94 -11z" />
    <glyph glyph-name="D" unicode="D" horiz-adv-x="740" 
d="M106 0v700h256q68 0 127.5 -26t104 -72.5t69.5 -110.5t25 -141q0 -76 -25 -140t-69.5 -111t-104 -73t-127.5 -26h-256zM158 42l-7 9h206q58 0 108.5 22t88.5 62t59.5 95t21.5 120t-21.5 120t-59.5 95t-88.5 62t-108.5 22h-208l9 10v-617z" />
    <glyph glyph-name="E" unicode="E" horiz-adv-x="583" 
d="M106 0v700h409v-51h-357v-598h352v-51h-404zM132 336v51h326v-51h-326z" />
    <glyph glyph-name="F" unicode="F" horiz-adv-x="584" 
d="M106 0v700h52v-700h-52zM131 326v51h335v-51h-335zM132 649v51h387v-51h-387z" />
    <glyph glyph-name="G" unicode="G" horiz-adv-x="767" 
d="M403 -10q-76 0 -139.5 26.5t-111 74.5t-73.5 113.5t-26 142.5q0 79 26 145t73 114.5t110.5 75.5t139.5 27q56 0 105.5 -16t90.5 -44.5t71 -66.5l-35 -35q-43 51 -102.5 81t-129.5 30q-64 0 -118 -23.5t-94 -65t-61.5 -98.5t-21.5 -124q0 -65 22.5 -121t63 -97.5
t94.5 -64.5t118 -23q61 0 109 18.5t82.5 53t52.5 80.5t18 102v19l9 -8h-267v52h312q1 -7 1 -13v-10.5v-9.5q0 -80 -22.5 -142t-64.5 -105t-101 -65.5t-131 -22.5z" />
    <glyph glyph-name="H" unicode="H" horiz-adv-x="742" 
d="M584 0v700h52v-700h-52zM106 0v700h52v-700h-52zM130 323v52h478v-52h-478z" />
    <glyph glyph-name="I" unicode="I" horiz-adv-x="418" 
d="M59 0v49h124v602h-124v49h302v-49h-125v-602h125v-49h-302z" />
    <glyph glyph-name="J" unicode="J" horiz-adv-x="588" 
d="M226 -10q-34 0 -64.5 9t-55 26t-43.5 40.5t-32 53.5l34 34q22 -40 46 -65t52.5 -36t62.5 -11q46 0 80.5 19.5t53.5 58.5t19 97v435h-128v49h287v-49h-106v-438q0 -54 -15 -95.5t-42.5 -70t-65 -43t-83.5 -14.5z" />
    <glyph glyph-name="K" unicode="K" horiz-adv-x="670" 
d="M144 226l-2 63l418 411h70zM106 0v700h52v-700h-52zM578 0l-292 388l40 34l319 -422h-67z" />
    <glyph glyph-name="L" unicode="L" horiz-adv-x="556" 
d="M106 0v700h52v-649h343v-51h-395z" />
    <glyph glyph-name="M" unicode="M" horiz-adv-x="848" 
d="M106 0v700h48l281 -450l-20 1l281 449h46v-700h-53v452q0 56 2 104.5t7 95.5l15 -17l-273 -432h-33l-268 426l10 23q6 -45 7.5 -92.5t1.5 -105.5v-454h-52z" />
    <glyph glyph-name="N" unicode="N" horiz-adv-x="753" 
d="M106 0v700h48l457 -635l-8 -4q-3 25 -5 57t-2.5 81t-0.5 123v378h52v-700h-48l-463 639l14 5q3 -35 4 -68.5t2.5 -63.5t1.5 -56.5v-48.5v-407h-52z" />
    <glyph glyph-name="O" unicode="O" horiz-adv-x="792" 
d="M396 -10q-75 0 -137.5 26.5t-109 74.5t-71.5 113.5t-25 144.5t25 145t71.5 114.5t109 75t137.5 26.5t138 -26.5t109 -75t71.5 -114.5t25.5 -144q0 -79 -25.5 -145t-71.5 -114t-109 -74.5t-138 -26.5zM396 41q64 0 117 23t92 64.5t60 97.5t21 123t-21 123.5t-60 98.5
t-92 65t-117 23q-63 0 -116 -23t-92 -65t-60 -98.5t-21 -123.5q0 -89 37.5 -158.5t102.5 -109.5t149 -40z" />
    <glyph glyph-name="P" unicode="P" horiz-adv-x="612" 
d="M106 0v700h264q56 0 98.5 -26t67 -71t24.5 -104q0 -62 -24.5 -111t-67 -77.5t-98.5 -28.5h-212v-282h-52zM158 333h214q39 0 69.5 22t48 59t17.5 85q0 44 -17.5 77.5t-48 53t-69.5 19.5h-214v-316z" />
    <glyph glyph-name="Q" unicode="Q" horiz-adv-x="792" 
d="M638 -90l-257 341l43 30l256 -340zM396 -10q-75 0 -137.5 26.5t-109 74.5t-71.5 113.5t-25 144.5t25 145t71.5 114.5t109 75t137.5 26.5t138 -26.5t109 -75t71.5 -114.5t25.5 -144q0 -79 -25.5 -145t-71.5 -114t-109 -74.5t-138 -26.5zM396 41q64 0 117 23t92 64.5
t60 97.5t21 123t-21 123.5t-60 98.5t-92 65t-117 23q-63 0 -116 -23t-92 -65t-60 -98.5t-21 -123.5q0 -89 37.5 -158.5t102.5 -109.5t149 -40z" />
    <glyph glyph-name="R" unicode="R" horiz-adv-x="639" 
d="M106 0v700h267q58 0 102.5 -26t70 -72t25.5 -106q0 -61 -25.5 -110t-70 -77t-102.5 -28h-215v-281h-52zM533 0l-177 304l55 14l185 -318h-63zM158 332h223q41 0 71.5 21t47.5 58.5t17 85.5q0 45 -18.5 79.5t-51.5 53.5t-77 19h-212v-317z" />
    <glyph glyph-name="S" unicode="S" horiz-adv-x="587" 
d="M306 -10q-87 0 -152.5 33t-108.5 95l38 42q42 -63 97.5 -92t131.5 -29q49 0 89 17.5t64 48t24 70.5q0 25 -9.5 44.5t-27.5 35t-44 28.5t-59 23.5t-73 20.5q-50 13 -87.5 30t-64 40.5t-39.5 54t-13 70.5q0 54 30.5 96.5t83.5 67t118 24.5q81 0 136 -28t89 -80l-37 -36
q-32 46 -77.5 70.5t-111.5 24.5q-50 0 -90.5 -17.5t-64 -48.5t-23.5 -72q0 -30 11 -52.5t33 -39.5t53.5 -30t73.5 -23q57 -14 102.5 -31.5t77.5 -40.5t49 -52.5t17 -68.5q0 -57 -30 -101t-83.5 -69t-122.5 -25z" />
    <glyph glyph-name="T" unicode="T" horiz-adv-x="519" 
d="M233 0v649h-208v51h469v-51h-209v-649h-52z" />
    <glyph glyph-name="U" unicode="U" horiz-adv-x="743" 
d="M368 -6q-76 0 -136.5 35.5t-95 97.5t-34.5 142v431h52v-422q0 -67 27.5 -119.5t76.5 -83t110 -30.5q65 0 115 30.5t78.5 83t28.5 119.5v422h50v-431q0 -80 -35 -142t-96 -97.5t-141 -35.5z" />
    <glyph glyph-name="V" unicode="V" horiz-adv-x="643" 
d="M293 0l-272 700h60l213 -554q8 -20 13.5 -36t10.5 -29t8.5 -23t5.5 -18h-17q3 10 8 25t12.5 35t16.5 45l208 555h62l-274 -700h-55z" />
    <glyph glyph-name="W" unicode="W" horiz-adv-x="901" 
d="M227 0l-206 700h56l140 -483q10 -34 16.5 -60.5t13 -52t15.5 -56.5h-18q18 51 29 82.5t19 53t15 39.5l122 317h44l120 -317q7 -15 13.5 -34.5t18 -51t32.5 -85.5l-18 -3q8 30 12 47t7 27.5t5.5 20.5t7 27t13.5 48l139 481h56l-205 -700h-43l-190 478l16 -2l-188 -476h-42
z" />
    <glyph glyph-name="X" unicode="X" horiz-adv-x="619" 
d="M530 0l-240 337l-263 363h68l229 -325l273 -375h-67zM22 0l262 369l34 -36l-233 -333h-63zM332 342l-34 36l226 322h63z" />
    <glyph glyph-name="Y" unicode="Y" horiz-adv-x="616" 
d="M288 0v342l8 -42l-279 400h62l244 -351l-16 2l233 349h59l-270 -403l11 48v-345h-52z" />
    <glyph glyph-name="Z" unicode="Z" horiz-adv-x="643" 
d="M60 0v43l455 621l13 -15h-442v51h488v-42l-454 -621l-8 14h473v-51h-525z" />
    <glyph glyph-name="bracketleft" unicode="[" horiz-adv-x="349" 
d="M77 -190v890h227v-42h-188l9 8v-826l-11 12h190v-42h-227z" />
    <glyph glyph-name="backslash" unicode="\" horiz-adv-x="533" 
d="M436 -99l-396 799h53l396 -799h-53z" />
    <glyph glyph-name="bracketright" unicode="]" horiz-adv-x="350" 
d="M45 -190v42h188l-8 -8v826l11 -12h-191v42h228v-890h-228z" />
    <glyph glyph-name="asciicircum" unicode="^" horiz-adv-x="582" 
d="M43 368l223 359h50l224 -359h-58l-196 313l12 1l-197 -314h-58z" />
    <glyph glyph-name="underscore" unicode="_" horiz-adv-x="694" 
d="M55 -125v43h584v-43h-584z" />
    <glyph glyph-name="grave" unicode="`" horiz-adv-x="500" 
d="M318 609l-155 101l33 42l141 -115z" />
    <glyph glyph-name="a" unicode="a" horiz-adv-x="536" 
d="M422 0v358q0 58 -40.5 92t-110.5 34q-52 0 -96 -22t-77 -64l-34 34q41 50 94.5 75t116.5 25q60 0 103.5 -19.5t66.5 -57.5t23 -91v-364h-46zM221 -10q-51 0 -91 20t-63.5 55.5t-23.5 83.5q0 36 13.5 64.5t40.5 47t68 28.5t95 10h184l-4 -44h-189q-39 0 -68 -7t-50 -20.5
t-31.5 -33t-10.5 -45.5q0 -33 18 -59t47.5 -40t65.5 -14q46 0 85.5 16t71 44.5t50.5 66.5l17 -31q-23 -41 -57 -73t-77 -50.5t-91 -18.5z" />
    <glyph glyph-name="b" unicode="b" horiz-adv-x="612" 
d="M325 -10q-38 0 -74 12.5t-66 35t-50 51.5t-27 63l13 2l-1 -153h-50v739h51v-372l-11 1q8 34 28 63.5t48 52t62.5 35t72.5 12.5q73 0 129.5 -34.5t89 -95.5t32.5 -140q0 -78 -33 -139.5t-89 -97t-125 -35.5zM318 38q60 0 106 29t72.5 80t26.5 115q0 65 -26 114.5
t-72.5 78.5t-106.5 29q-57 0 -101.5 -28.5t-71 -78.5t-26.5 -116q0 -64 26.5 -114.5t71 -79.5t101.5 -29z" />
    <glyph glyph-name="c" unicode="c" horiz-adv-x="529" 
d="M303 -10q-77 0 -136 35.5t-93 97t-34 140.5q0 78 34 138.5t93 95.5t136 35q65 0 118 -25t86 -69l-30 -36q-21 25 -48 43.5t-58.5 28.5t-64.5 10q-63 0 -111.5 -28.5t-76.5 -78t-29 -114.5q1 -65 29 -116t77 -80.5t111 -29.5q34 0 64.5 9.5t57 28t48.5 43.5l30 -36
q-35 -42 -88 -67t-115 -25z" />
    <glyph glyph-name="d" unicode="d" horiz-adv-x="615" 
d="M293 -10q-73 0 -130 35t-90 95.5t-33 139.5t33.5 140t90 96.5t126.5 35.5q40 0 76.5 -13.5t67 -36.5t50 -53.5t23.5 -63.5l-14 1v374h51v-740h-51v155l12 3q-5 -35 -24.5 -65.5t-48 -53t-64.5 -36t-75 -13.5zM297 36q57 0 101.5 28.5t70.5 79.5t26 117t-26 117t-70.5 80
t-102.5 29q-60 0 -106.5 -29.5t-72.5 -81t-26 -116.5q0 -64 26 -115t72.5 -80t107.5 -29z" />
    <glyph glyph-name="e" unicode="e" horiz-adv-x="560" 
d="M304 -10q-78 0 -137.5 35t-93 96t-33.5 140q0 60 18.5 109.5t52 86t80.5 56t103 19.5q50 0 92.5 -17.5t74 -49.5t48 -77t14.5 -100l-1 -33h-447l-8 44h416l-12 -17v25q0 52 -24.5 92t-64 62.5t-87.5 22.5q-63 0 -109 -27.5t-70.5 -77t-24.5 -116.5t27.5 -117.5t76 -79
t113.5 -28.5q47 0 87.5 16t76.5 50l26 -37q-24 -23 -55 -40.5t-66.5 -27t-72.5 -9.5z" />
    <glyph glyph-name="f" unicode="f" horiz-adv-x="358" 
d="M137 0v611q0 45 15 75t43 45.5t64 15.5q34 0 59 -12t39 -32l-21 -37q-15 18 -33.5 25t-40.5 7q-23 0 -40 -8.5t-26 -27.5t-9 -52v-610h-23h-14.5h-12.5zM35 474v48h294v-48h-294z" />
    <glyph glyph-name="g" unicode="g" horiz-adv-x="619" 
d="M299 -237q-56 0 -106 19t-82 52l20 40q30 -29 74 -46t93 -17q56 0 101 25.5t71.5 74t26.5 116.5v127h10q-10 -47 -41 -83.5t-75.5 -58.5t-94.5 -22q-74 0 -132 35t-91 95.5t-33 139.5t34 140t91 96.5t127 35.5q32 0 61.5 -8.5t55.5 -23.5t47 -35.5t35 -44.5t19 -49
l-13 -1l1 155h49v-501q0 -61 -18.5 -109.5t-52 -82t-79 -51.5t-98.5 -18zM299 38q58 0 102.5 28.5t70.5 79t26 115.5t-25.5 115t-71 79t-103.5 29q-60 0 -107 -29t-73.5 -79.5t-26.5 -115.5q0 -64 26.5 -114t74 -79t107.5 -29z" />
    <glyph glyph-name="h" unicode="h" horiz-adv-x="560" 
d="M70 0v740h51v-331l-12 -6q12 35 41.5 64t71 47t86.5 18q59 0 100 -22t62.5 -68t21.5 -117v-325h-51v323q0 57 -16.5 93t-49 52.5t-79.5 15.5q-38 0 -70 -12.5t-55.5 -32.5t-36.5 -42t-13 -41v-356h-25h-12h-14z" />
    <glyph glyph-name="i" unicode="i" horiz-adv-x="225" 
d="M87 0v525h51v-525h-51zM113 655q-21 0 -32 11.5t-11 30.5t11 30t32 11q19 0 30.5 -11t11.5 -30q0 -18 -10.5 -30t-31.5 -12z" />
    <glyph glyph-name="j" unicode="j" horiz-adv-x="191" 
d="M-19 -195l-19 42q61 0 87 31.5t26 85.5v561h51v-572q0 -47 -17.5 -80t-49.5 -50.5t-78 -17.5zM100 655q-20 0 -31 11.5t-11 30.5t11 30t31 11t31 -11t11 -30q0 -18 -10.5 -30t-31.5 -12z" />
    <glyph glyph-name="k" unicode="k" horiz-adv-x="508" 
d="M113 174l-2 61l293 290h71zM70 0v740h51v-740h-51zM433 0l-235 270l37 34l264 -304h-66z" />
    <glyph glyph-name="l" unicode="l" horiz-adv-x="221" 
d="M86 0v740h50v-740h-50z" />
    <glyph glyph-name="m" unicode="m" horiz-adv-x="892" 
d="M67 0v525h50l1 -125l-16 -2q15 32 35.5 57t46 42t54.5 25.5t60 8.5q44 0 78.5 -13.5t57.5 -43t33 -78.5l-12 -2l6 17q12 28 31.5 50t45.5 38t55 24t58 8q58 0 97 -21.5t60 -67.5t21 -119v-323h-52v322q0 85 -35 123.5t-104 38.5q-35 0 -65 -12t-52.5 -32t-34.5 -44.5
t-12 -48.5v-347h-51v322q0 84 -35 123t-102 39q-37 0 -67.5 -13t-53 -32.5t-35.5 -42t-13 -41.5v-355h-50z" />
    <glyph glyph-name="n" unicode="n" horiz-adv-x="560" 
d="M70 0v525h50l1 -116l-12 -7q11 35 40.5 64.5t71.5 47.5t87 18q59 0 100 -22t62.5 -68t21.5 -117v-325h-51v323q0 57 -16.5 93t-49 52.5t-79.5 15.5q-38 0 -70 -12.5t-55.5 -32.5t-36.5 -42t-13 -41v-356h-25h-12h-14z" />
    <glyph glyph-name="o" unicode="o" horiz-adv-x="615" 
d="M308 -10q-78 0 -138.5 35.5t-95 97t-34.5 140.5q0 78 34.5 138.5t95 95.5t138.5 35q79 0 139 -35t94 -95.5t34 -138.5q0 -79 -34 -140.5t-94 -97t-139 -35.5zM308 38q63 0 112 29t76.5 80t27.5 116t-27.5 114.5t-76.5 78t-112 28.5t-112 -28.5t-77 -78.5t-28 -114
q0 -65 28 -116t77 -80t112 -29z" />
    <glyph glyph-name="p" unicode="p" horiz-adv-x="612" 
d="M70 -227v752h50l2 -157l-12 1q11 46 42 82.5t75.5 58t94.5 21.5q72 0 129 -34.5t89 -95.5t32 -139t-33 -139.5t-89 -97t-125 -35.5q-51 0 -97 22t-78.5 59t-40.5 81l13 2v-381h-52zM319 38q60 0 106 29t72 80t26 115t-26 114t-72 79t-107 29q-57 0 -101.5 -28.5
t-70.5 -78.5t-26 -116q0 -64 26 -114.5t70.5 -79.5t102.5 -29z" />
    <glyph glyph-name="q" unicode="q" horiz-adv-x="617" 
d="M490 -227v382l14 3q-6 -35 -25.5 -65.5t-48.5 -53t-64 -36t-74 -13.5q-72 0 -129 35t-90 95.5t-33 139.5t33.5 140t89.5 96.5t125 35.5q40 0 77 -13.5t67 -36.5t49.5 -53.5t23.5 -63.5l-15 1l2 159h49v-752h-51zM295 38q56 0 100.5 28.5t70.5 79t26 115.5t-26 115
t-70.5 79t-101.5 29q-60 0 -106.5 -29t-72.5 -79.5t-26 -115.5q0 -64 26 -114t72.5 -79t107.5 -29z" />
    <glyph glyph-name="r" unicode="r" horiz-adv-x="343" 
d="M70 0v525h50l1 -141l-7 13q8 35 31 65.5t59 50t81 19.5q17 0 32.5 -2.5t25.5 -6.5l-14 -54q-15 5 -29.5 7.5t-26.5 2.5q-35 0 -63 -14t-48 -37.5t-30 -51t-10 -55.5v-321h-52z" />
    <glyph glyph-name="s" unicode="s" horiz-adv-x="479" 
d="M248 -10q-66 0 -120 24.5t-85 66.5l36 30q29 -35 72.5 -56t100.5 -21q33 0 57.5 8t40.5 22t23.5 33t7.5 39q0 40 -34 64q-17 13 -44 23t-64 19q-50 12 -85.5 28t-57.5 37q-17 17 -26 37.5t-9 45.5q0 42 22.5 74t63 50t93.5 18q36 0 70 -10t64 -28.5t52 -46.5l-31 -34
q-21 23 -45.5 40t-52 26t-55.5 9q-31 0 -55.5 -7t-41.5 -19.5t-25.5 -30t-8.5 -39.5q1 -15 7.5 -30t19.5 -26q16 -13 45.5 -25t70.5 -21q46 -11 79 -24.5t55 -32.5q21 -18 31 -41t10 -54q0 -45 -23 -78t-63 -51.5t-95 -18.5z" />
    <glyph glyph-name="t" unicode="t" horiz-adv-x="362" 
d="M154 0v659h51v-659h-51zM23 476v49h322v-49h-322z" />
    <glyph glyph-name="u" unicode="u" horiz-adv-x="562" 
d="M261 -10q-59 0 -101 23t-64.5 69t-22.5 116v327h51v-316q0 -88 40 -130.5t113 -42.5q34 0 63 13.5t51.5 33.5t35 43.5t12.5 43.5v355h51v-525h-49l-2 118l12 5q-12 -36 -40 -66.5t-66.5 -48.5t-83.5 -18z" />
    <glyph glyph-name="v" unicode="v" horiz-adv-x="505" 
d="M232 0l-215 525h55l186 -462l-14 -4l189 466h54l-219 -525h-36z" />
    <glyph glyph-name="w" unicode="w" horiz-adv-x="763" 
d="M200 0l-183 525h52l160 -462h-18l155 381h31l156 -381h-19l159 462h52l-182 -525h-34l-158 391l18 -1l-155 -390h-34z" />
    <glyph glyph-name="x" unicode="x" horiz-adv-x="505" 
d="M430 0l-192 243l-8 11l-210 271h64l181 -235l10 -13l219 -277h-64zM12 0l214 272l32 -36l-183 -236h-63zM278 259l-28 37l167 229h62z" />
    <glyph glyph-name="y" unicode="y" horiz-adv-x="530" 
d="M158 -230l99 241l3 -39l-248 553h58l195 -439q7 -14 11 -25t7 -21l-15 -5q6 14 11.5 28.5t10.5 28.5l169 433h59l-217 -533l-87 -222h-56z" />
    <glyph glyph-name="z" unicode="z" horiz-adv-x="449" 
d="M40 0v47l307 448l-2 -16h-305v46h354v-48l-302 -441l-4 10h321v-46h-369z" />
    <glyph glyph-name="braceleft" unicode="{" horiz-adv-x="405" 
d="M352 -191q-38 9 -67.5 23.5t-49.5 37t-30 53.5t-10 70l2 95q0 66 -29 102.5t-84 37.5h-27v44h28q55 1 83.5 37t28.5 103l-2 95q0 79 40 123t117 61l11 -37q-45 -13 -71.5 -31.5t-38.5 -49.5t-12 -80l2 -95q0 -58 -23.5 -96.5t-70.5 -52.5v3q47 -17 70.5 -55t23.5 -95
l-2 -95q0 -48 12 -79t38.5 -49.5t71.5 -32.5z" />
    <glyph glyph-name="bar" unicode="|" horiz-adv-x="226" 
d="M88 -193v933h50v-933h-50z" />
    <glyph glyph-name="braceright" unicode="}" horiz-adv-x="406" 
d="M53 -191l-10 37q44 13 70.5 31.5t38.5 49.5t12 80l-2 95q0 58 24 96.5t70 52.5l1 -3q-48 17 -71.5 55t-23.5 95l2 95q0 48 -12 79t-38 50t-71 32l10 37q39 -9 68 -24t49 -37t30 -53t10 -70l-1 -95q0 -66 29 -102.5t83 -37.5h28v-44h-29q-55 -1 -83 -37t-28 -103l1 -95
q0 -79 -39.5 -122.5t-117.5 -61.5z" />
    <glyph glyph-name="asciitilde" unicode="~" horiz-adv-x="510" 
d="M358 242q-20 0 -42 6.5t-41.5 15t-32.5 13.5q-14 6 -30 12.5t-32 11t-30 4.5q-20 0 -33.5 -14.5t-13.5 -44.5h-40q0 49 25.5 76.5t65.5 27.5q18 0 39.5 -6t42.5 -15t38 -17q11 -4 26 -10.5t30.5 -11t28.5 -4.5q19 0 33 13t13 43l41 -1q0 -32 -11 -54t-31 -33.5t-46 -11.5
z" />
    <glyph glyph-name="uni00A0" unicode="&#xa0;" horiz-adv-x="280" 
 />
    <glyph glyph-name="exclamdown" unicode="&#xa1;" horiz-adv-x="248" 
d="M138 289q3 -43 5.5 -87t3.5 -88.5t1 -87.5l-1 -196h-52v196q0 44 1.5 89t4 89.5t5.5 84.5h32zM124 539q22 0 33.5 -13t11.5 -37q0 -21 -12 -35.5t-33 -14.5t-32.5 13t-11.5 37q0 22 12 36t32 14z" />
    <glyph glyph-name="cent" unicode="&#xa2;" horiz-adv-x="532" 
d="M306 78q-76 0 -136 35.5t-93.5 97t-33.5 140.5q0 78 33.5 138.5t93.5 95t136 34.5q65 0 118 -24.5t86 -68.5l-31 -36q-19 25 -46 43.5t-58.5 29t-64.5 10.5q-63 0 -112.5 -29t-77.5 -78.5t-28 -114.5t28.5 -116t77.5 -80.5t112 -29.5q33 0 63 9.5t56.5 28t48.5 43.5
l30 -35q-33 -42 -86.5 -67.5t-115.5 -25.5zM268 0v94l2 18v475l-2 23v90h48v-90l-2 -20v-479l2 -17v-94h-48z" />
    <glyph glyph-name="sterling" unicode="&#xa3;" horiz-adv-x="610" 
d="M178 49l-39 17q23 13 39.5 51t16.5 84q0 19 -2.5 38.5t-9.5 46t-21 66.5q-12 40 -18 66t-8.5 44t-2.5 35q0 61 25.5 106.5t72 71t109.5 25.5t106 -21.5t70 -62.5l-38 -29q-32 38 -64.5 52t-73.5 14q-45 0 -81 -20t-55.5 -55.5t-19.5 -81.5q0 -33 10.5 -72t20.5 -71
q14 -38 22 -72t8 -70q0 -29 -6 -55.5t-20.5 -53t-40.5 -53.5zM439 -10q-29 0 -62.5 7.5t-63.5 17.5q-16 5 -38.5 11t-42 10t-28.5 4q-29 0 -63.5 -9t-68.5 -24l-22 37q35 18 73 29t81 11q26 0 53 -5.5t77 -22.5q26 -8 52.5 -15t52.5 -7q27 0 52.5 8.5t53.5 24.5l26 -34
q-27 -20 -61 -31.5t-71 -11.5zM54 342v45h388v-45h-388z" />
    <glyph glyph-name="currency" unicode="&#xa4;" horiz-adv-x="558" 
d="M279 122q-49 0 -89.5 24t-64.5 64.5t-24 91.5t24 91.5t64.5 64.5t89.5 24t89 -24t64.5 -65t24.5 -91q0 -51 -24 -91.5t-64.5 -64.5t-89.5 -24zM107 100l-35 36l79 77l35 -35zM150 394l-81 75l35 36l81 -77zM279 168q39 0 68 17.5t45.5 47.5t16.5 69t-16.5 69.5t-45.5 48
t-68 17.5q-37 0 -66.5 -17.5t-46.5 -48t-17 -69.5t17 -69t46.5 -47.5t66.5 -17.5zM451 104l-81 75l35 34l80 -74zM407 395l-35 34l79 79l36 -35z" />
    <glyph glyph-name="yen" unicode="&#xa5;" horiz-adv-x="616" 
d="M288 0v342l8 -42l-279 400h62l244 -351l-16 2l232 349h60l-270 -403l11 48v-345h-52zM136 129v44l365 -1v-44zM136 275v44h365v-45z" />
    <glyph glyph-name="brokenbar" unicode="&#xa6;" horiz-adv-x="229" 
d="M90 -202v400h48v-400h-48zM90 341v399h48v-399h-48z" />
    <glyph glyph-name="section" unicode="&#xa7;" horiz-adv-x="542" 
d="M343 154l-18 31q41 9 72.5 35.5t31.5 69.5q0 34 -21 52.5t-55 29.5l-141 49q-17 7 -36 18t-36 27.5t-27 40.5t-10 55q0 43 21.5 75.5t60.5 50.5t91 18q37 0 71 -9.5t63.5 -28t52.5 -46.5l-30 -35q-20 23 -45 39t-53.5 24.5t-59.5 8.5q-52 0 -87 -25.5t-35 -70.5
q0 -20 9 -38t28.5 -32.5t47.5 -24.5l126 -44q65 -22 90 -55.5t24 -75.5q-1 -40 -19 -68.5t-48 -46t-68 -24.5zM282 -87q-40 0 -79 9.5t-73 26.5t-61 41l28 39q36 -32 84 -50.5t100 -18.5q56 0 92.5 24t36.5 69q0 21 -10.5 38t-31 31t-50.5 23l-134 47q-61 21 -86 54.5
t-25 76.5q0 36 17 65t46 49t66 26l17 -34q-22 -6 -43.5 -19.5t-35 -34t-13.5 -50.5q0 -33 21.5 -52.5t58.5 -32.5l129 -46q34 -11 62 -29t44.5 -44t16.5 -64q0 -43 -21.5 -75.5t-61.5 -50.5t-94 -18z" />
    <glyph glyph-name="dieresis" unicode="&#xa8;" horiz-adv-x="500" 
d="M334 656q-21 0 -31.5 11.5t-10.5 29.5q0 19 10.5 30.5t31.5 11.5q19 0 31 -11.5t12 -30.5q0 -18 -11.5 -29.5t-31.5 -11.5zM166 656q-20 0 -31.5 11.5t-11.5 29.5q0 19 11.5 30.5t31.5 11.5t31 -11.5t11 -30.5q0 -18 -10.5 -29.5t-31.5 -11.5z" />
    <glyph glyph-name="copyright" unicode="&#xa9;" horiz-adv-x="786" 
d="M392 -8q-75 0 -140 27.5t-113.5 76t-76 113.5t-27.5 140t27.5 140t76 114t113.5 76.5t140 27.5t140 -27.5t114 -76.5t76.5 -114t27.5 -140t-27.5 -140t-76.5 -113.5t-114 -76t-140 -27.5zM403 142q-59 0 -105.5 27t-74.5 74t-28 107q0 58 28 104.5t74.5 74.5t105.5 28
q34 0 67 -11.5t62 -33.5l-21 -38q-21 15 -47.5 28t-60.5 13q-46 0 -83 -23t-58.5 -60.5t-21.5 -81.5q0 -46 21.5 -83.5t58.5 -60t83 -22.5q33 0 59.5 9.5t52.5 28.5l21 -37q-30 -21 -64 -32t-69 -11zM393 32q67 0 124 24.5t100.5 68t67.5 101t24 124.5t-24 124t-67.5 100.5
t-100.5 68t-124 24.5t-124 -24.5t-101 -68t-68 -100.5t-24 -124t24 -124.5t68 -101t101 -68t124 -24.5z" />
    <glyph glyph-name="ordfeminine" unicode="&#xaa;" horiz-adv-x="365" 
d="M164 399q-41 0 -72.5 21t-49 57.5t-17.5 83.5q0 46 19 82t51.5 57t73.5 21q45 0 76 -25.5t39 -71.5l-11 21l1 71h45v-313h-46v74l11 17q-5 -26 -22 -48.5t-43 -34.5t-55 -12zM174 435q45 0 73.5 29t28.5 95q0 67 -29 96t-73 29t-74 -35t-30 -88q0 -36 13.5 -64.5t37 -45
t53.5 -16.5z" />
    <glyph glyph-name="guillemotleft" unicode="&#xab;" horiz-adv-x="463" 
d="M389 64l-165 201v4l165 193l34 -24l-152 -179v17l153 -187zM195 64l-165 201v4l165 193l34 -24l-152 -179v17l153 -187z" />
    <glyph glyph-name="logicalnot" unicode="&#xac;" horiz-adv-x="670" 
d="M559 117v241l14 -12h-513v48h550v-277h-51z" />
    <glyph glyph-name="uni00AD" unicode="&#xad;" horiz-adv-x="394" 
d="M58 253v50h278v-50h-278z" />
    <glyph glyph-name="registered" unicode="&#xae;" horiz-adv-x="519" 
d="M259 257q-63 0 -115.5 30.5t-84 82t-31.5 113.5q0 63 31.5 114.5t84 81.5t115.5 30q48 0 89.5 -17.5t73.5 -48.5t50 -72t18 -88q0 -62 -31 -113.5t-83.5 -82t-116.5 -30.5zM259 292q54 0 98 26t71 69.5t27 95.5q0 54 -27 97t-71 68.5t-98 25.5t-98 -25.5t-71 -68.5
t-27 -97q0 -52 27 -95.5t71 -69.5t98 -26zM306 367l-39 103l30 9l45 -112h-36zM185 367v239h88q34 0 54.5 -20.5t20.5 -53.5q0 -30 -21.5 -49.5t-53.5 -19.5h-67l11 6v-102h-32zM217 484l-10 6h56q24 0 38 12t14 30q0 21 -12.5 32t-37.5 11h-62l14 8v-99z" />
    <glyph glyph-name="macron" unicode="&#xaf;" horiz-adv-x="424" 
d="M113 656v41h274v-41h-274z" />
    <glyph glyph-name="degree" unicode="&#xb0;" horiz-adv-x="532" 
d="M266 399q-44 0 -79.5 21t-56 55.5t-20.5 77.5q0 44 20.5 79.5t55.5 56t80 20.5t80 -20.5t55.5 -56t20.5 -78.5t-20.5 -78.5t-56 -56t-79.5 -20.5zM266 436q31 0 57 16.5t42.5 43t16.5 58.5t-16.5 58t-42.5 42.5t-57 16.5t-57.5 -16.5t-42.5 -42.5t-16 -59q0 -32 16.5 -58
t42.5 -42.5t57 -16.5z" />
    <glyph glyph-name="plusminus" unicode="&#xb1;" horiz-adv-x="598" 
d="M60 325v45h478v-45h-478zM60 44v46h478v-46h-478zM273 169v359h52v-359h-52z" />
    <glyph glyph-name="uni00B2" unicode="&#xb2;" horiz-adv-x="346" 
d="M72 418l-5 41l122 135q14 16 26.5 31t20 30.5t7.5 30.5q0 25 -17.5 39.5t-42.5 14.5q-24 0 -46.5 -14t-42.5 -47l-32 22q21 35 53 56.5t71 21.5q42 0 70.5 -25t28.5 -64q0 -23 -10 -44.5t-26 -41.5t-36 -42l-107 -116l2 9h187v-37h-223z" />
    <glyph glyph-name="uni00B3" unicode="&#xb3;" horiz-adv-x="342" 
d="M171 412q-28 0 -57.5 9.5t-50.5 24.5l19 31q27 -17 46.5 -22.5t38.5 -5.5q39 0 64.5 22t25.5 59q0 32 -23.5 52t-57.5 20q-21 0 -37 -4t-38 -16l-10 29l138 129l10 -6h-159v38h186l4 -39l-129 -119l-16 4q21 12 34 15.5t25 3.5q49 0 81 -29.5t32 -76.5q0 -34 -16.5 -61
t-45 -42.5t-64.5 -15.5z" />
    <glyph glyph-name="acute" unicode="&#xb4;" horiz-adv-x="500" 
d="M182 609l-19 28l141 115l33 -42z" />
    <glyph glyph-name="uni00B5" unicode="&#xb5;" horiz-adv-x="562" 
d="M75 -157v682h49v-334q0 -49 16 -84t48.5 -53t82.5 -18q35 0 65 13.5t53 37t35.5 53t12.5 63.5v322h49v-525h-48l-4 131l16 -5q-17 -48 -46 -78t-64.5 -44t-74.5 -14q-38 0 -70.5 11.5t-54.5 39t-30 73.5l14 -26v-245h-49z" />
    <glyph glyph-name="paragraph" unicode="&#xb6;" horiz-adv-x="620" 
d="M279 0v300l15 -21h-53q-54 0 -96.5 27t-67 73.5t-24.5 106.5q0 65 28 113t78.5 74.5t118.5 26.5h236v-700h-53v679l13 -30h-166l23 27v-676h-52z" />
    <glyph glyph-name="periodcentered" unicode="&#xb7;" horiz-adv-x="228" 
d="M114 257q-21 0 -32.5 12t-11.5 35q0 20 12 33t32 13q21 0 32.5 -12t11.5 -34q0 -21 -12 -34t-32 -13z" />
    <glyph glyph-name="cedilla" unicode="&#xb8;" horiz-adv-x="500" 
d="M173 -233l-7 29q29 4 57.5 10.5t47.5 20t19 35.5q0 19 -16 28.5t-38.5 13.5t-41.5 4l-13 10l60 91h36l-48 -71q55 -5 80 -25t25 -52q0 -27 -15 -44t-39 -27t-52.5 -15.5t-54.5 -7.5z" />
    <glyph glyph-name="uni00B9" unicode="&#xb9;" horiz-adv-x="281" 
d="M148 431v303l6 -7l-83 -47l-18 34l106 63h29v-346h-20h-10h-10z" />
    <glyph glyph-name="ordmasculine" unicode="&#xba;" horiz-adv-x="358" 
d="M179 392q-41 0 -74 22t-52 59t-19 84t19 85.5t52 60t74 21.5t74 -22t52.5 -60t19.5 -85t-19.5 -84t-52.5 -59t-74 -22zM178 430q44 0 73 36.5t29 90.5q0 56 -29 92t-72 36q-45 0 -73.5 -36t-28.5 -92q0 -54 28.5 -90.5t72.5 -36.5z" />
    <glyph glyph-name="guillemotright" unicode="&#xbb;" horiz-adv-x="491" 
d="M294 59l-34 24l152 179v-17l-153 187l35 25l165 -201v-4zM78 59l-34 24l152 179v-17l-153 187l35 25l165 -201v-4z" />
    <glyph glyph-name="onequarter" unicode="&#xbc;" horiz-adv-x="766" 
d="M157 361v303l6 -7l-83 -47l-18 34l106 63h29v-346h-20h-10h-10zM98 0l468 700h53l-468 -700h-53zM655 122h69v-38h-69v38zM472 101l-8 21h172l-13 -14v209l14 -8zM663 0h-40v94l10 -10h-188l-8 33l189 239h37v-356z" />
    <glyph glyph-name="onehalf" unicode="&#xbd;" horiz-adv-x="772" 
d="M157 361v303l6 -7l-83 -47l-18 34l106 63h29v-346h-20h-10h-10zM79 0l468 700h53l-468 -700h-53zM474 0l-5 41l122 135q14 16 26.5 31t20 30.5t7.5 30.5q0 25 -17.5 39.5t-42.5 14.5q-24 0 -46.5 -14t-42.5 -47l-32 22q21 35 53 56.5t71 21.5q42 0 70.5 -25t28.5 -64
q0 -23 -10 -44.5t-26 -41.5t-36 -42l-107 -116l2 9h187v-37h-223z" />
    <glyph glyph-name="threequarters" unicode="&#xbe;" horiz-adv-x="728" 
d="M128 342q-28 0 -57.5 9.5t-50.5 24.5l19 31q27 -17 46.5 -22.5t38.5 -5.5q39 0 64.5 22t25.5 59q0 32 -23.5 52t-57.5 20q-21 0 -37 -4t-38 -16l-10 29l138 129l10 -6h-159v38h186l4 -39l-129 -119l-16 4q21 12 34 15.5t25 3.5q49 0 81 -29.5t32 -76.5q0 -34 -16.5 -61
t-45 -42.5t-64.5 -15.5zM86 0l468 700h53l-468 -700h-53zM617 122h69v-38h-69v38zM434 101l-8 21h172l-13 -14v209l14 -8zM625 0h-40v94l10 -10h-188l-8 33l189 239h37v-356z" />
    <glyph glyph-name="questiondown" unicode="&#xbf;" horiz-adv-x="464" 
d="M244 364l10 -158q-47 -12 -83 -30.5t-60 -42.5t-36 -54t-12 -64q0 -38 18.5 -70t53 -52t81.5 -20q35 0 67.5 13.5t59 41.5t44.5 72l37 -28q-20 -48 -52 -80.5t-72 -50t-86 -17.5q-60 0 -106.5 25.5t-72.5 68.5t-26 96q0 51 23 94.5t65.5 76t98.5 49.5l8 130h40zM263 499
q0 -21 -11 -34t-30 -13q-20 0 -30.5 12.5t-10.5 34.5q0 19 11.5 32t29.5 13q20 0 30.5 -11.5t10.5 -33.5z" />
    <glyph glyph-name="Agrave" unicode="&#xc0;" horiz-adv-x="643" 
d="M22 0l269 700h61l269 -700h-58l-181 475q-3 7 -10.5 29.5t-18.5 52l-22 59t-19 50.5l15 -1q-6 -18 -15.5 -45t-20.5 -56t-20 -53.5t-14 -37.5l-179 -473h-56zM129 210l19 52h343l22 -52h-384zM383 761l-171 83l25 45l162 -99z" />
    <glyph glyph-name="Aacute" unicode="&#xc1;" horiz-adv-x="643" 
d="M22 0l269 700h61l269 -700h-58l-181 475q-3 7 -10.5 29.5t-18.5 52l-22 59t-19 50.5l15 -1q-6 -18 -15.5 -45t-20.5 -56t-20 -53.5t-14 -37.5l-179 -473h-56zM129 210l19 52h343l22 -52h-384zM263 761l-16 29l162 99l25 -45z" />
    <glyph glyph-name="Acircumflex" unicode="&#xc2;" horiz-adv-x="643" 
d="M22 0l269 700h61l269 -700h-58l-181 475q-3 7 -10.5 29.5t-18.5 52l-22 59t-19 50.5l15 -1q-6 -18 -15.5 -45t-20.5 -56t-20 -53.5t-14 -37.5l-179 -473h-56zM129 210l19 52h343l22 -52h-384zM207 765l-21 20l113 89h45l112 -89l-21 -20l-123 75h19z" />
    <glyph glyph-name="Atilde" unicode="&#xc3;" horiz-adv-x="643" 
d="M22 0l269 700h61l269 -700h-58l-181 475q-3 7 -10.5 29.5t-18.5 52l-22 59t-19 50.5l15 -1q-6 -18 -15.5 -45t-20.5 -56t-20 -53.5t-14 -37.5l-179 -473h-56zM129 210l19 52h343l22 -52h-384zM386 779q-16 0 -34.5 6t-50.5 20q-10 5 -24.5 10.5t-27.5 5.5q-14 0 -24 -10
t-10 -32h-42q0 39 23.5 61t53.5 22q23 0 43.5 -9t38.5 -17q22 -9 32.5 -12.5t17.5 -3.5q18 0 31 10.5t14 31.5h41q0 -24 -10.5 -43t-29.5 -29.5t-42 -10.5z" />
    <glyph glyph-name="Adieresis" unicode="&#xc4;" horiz-adv-x="643" 
d="M22 0l269 700h61l269 -700h-58l-181 475q-3 7 -10.5 29.5t-18.5 52l-22 59t-19 50.5l15 -1q-6 -18 -15.5 -45t-20.5 -56t-20 -53.5t-14 -37.5l-179 -473h-56zM129 210l19 52h343l22 -52h-384zM406 779q-20 0 -31 11.5t-11 29.5q0 16 11 28t31 12q22 0 32 -10.5t10 -29.5
q0 -16 -10 -28.5t-32 -12.5zM236 779q-19 0 -30.5 11.5t-11.5 29.5q0 16 11 28t31 12q22 0 32 -10.5t10 -29.5q0 -16 -10 -28.5t-32 -12.5z" />
    <glyph glyph-name="Aring" unicode="&#xc5;" horiz-adv-x="643" 
d="M22 0l269 700h61l269 -700h-58l-181 475q-3 7 -10.5 29.5t-18.5 52l-22 59t-19 50.5l15 -1q-6 -18 -15.5 -45t-20.5 -56t-20 -53.5t-14 -37.5l-179 -473h-56zM129 210l19 52h343l22 -52h-384zM321 686q-25 0 -47.5 12.5t-36.5 34t-14 46.5q0 27 13.5 48.5t36 35
t48.5 13.5t48.5 -13.5t36 -35t13.5 -48.5q0 -25 -13.5 -46.5t-36 -34t-48.5 -12.5zM321 719q27 0 45.5 18t18.5 42q0 30 -18.5 46.5t-45.5 16.5t-44.5 -17.5t-17.5 -45.5q0 -24 18 -42t44 -18z" />
    <glyph glyph-name="AE" unicode="&#xc6;" horiz-adv-x="941" 
d="M2 0l480 700h391v-47h-345v-270h291v-48h-291v-288h345v-47h-394v194h-299l32 46h267v404l13 -5l-434 -639h-56z" />
    <glyph glyph-name="Ccedilla" unicode="&#xc7;" horiz-adv-x="686" 
d="M393 -10q-75 0 -136.5 26t-107.5 73.5t-71 113t-25 144.5q0 78 25.5 144t72 115t109 76t136.5 27q53 0 100 -15t86.5 -41t68.5 -62l-38 -37q-43 48 -98 75t-119 27q-62 0 -115 -23t-92 -64.5t-60.5 -98t-21.5 -123.5t21.5 -123t60.5 -96.5t92.5 -63t117.5 -22.5
q42 0 79.5 10t70 29t58.5 45l29 -43q-27 -28 -65.5 -49.5t-83.5 -32.5t-94 -11zM301 -233l-6 29q28 4 56.5 10.5t48 20t19.5 35.5q0 19 -16 28.5t-38.5 13.5t-42.5 4l-13 10l61 91h36l-48 -71q55 -5 80 -25t25 -52q0 -27 -15 -44t-39 -27t-52.5 -15.5t-55.5 -7.5z" />
    <glyph glyph-name="Egrave" unicode="&#xc8;" horiz-adv-x="583" 
d="M106 0v700h409v-51h-357v-598h352v-51h-404zM132 336v51h326v-51h-326zM379 761l-171 83l25 45l162 -99z" />
    <glyph glyph-name="Eacute" unicode="&#xc9;" horiz-adv-x="583" 
d="M106 0v700h409v-51h-357v-598h352v-51h-404zM132 336v51h326v-51h-326zM260 761l-16 29l162 99l25 -45z" />
    <glyph glyph-name="Ecircumflex" unicode="&#xca;" horiz-adv-x="583" 
d="M106 0v700h409v-51h-357v-598h352v-51h-404zM132 336v51h326v-51h-326zM204 765l-21 20l113 89h45l112 -89l-21 -20l-123 75h19z" />
    <glyph glyph-name="Edieresis" unicode="&#xcb;" horiz-adv-x="583" 
d="M106 0v700h409v-51h-357v-598h352v-51h-404zM132 336v51h326v-51h-326zM403 779q-20 0 -31 11.5t-11 29.5q0 16 11 28t31 12q22 0 32 -10.5t10 -29.5q0 -16 -10 -28.5t-32 -12.5zM233 779q-19 0 -30.5 11.5t-11.5 29.5q0 16 11 28t31 12q22 0 32 -10.5t10 -29.5
q0 -16 -10 -28.5t-32 -12.5z" />
    <glyph glyph-name="Igrave" unicode="&#xcc;" horiz-adv-x="418" 
d="M59 0v49h124v602h-124v49h302v-49h-125v-602h125v-49h-302zM270 761l-171 83l25 45l162 -99z" />
    <glyph glyph-name="Iacute" unicode="&#xcd;" horiz-adv-x="418" 
d="M59 0v49h124v602h-124v49h302v-49h-125v-602h125v-49h-302zM151 761l-16 29l162 99l25 -45z" />
    <glyph glyph-name="Icircumflex" unicode="&#xce;" horiz-adv-x="418" 
d="M59 0v49h124v602h-124v49h302v-49h-125v-602h125v-49h-302zM94 765l-21 20l113 89h45l112 -89l-21 -20l-123 75h19z" />
    <glyph glyph-name="Idieresis" unicode="&#xcf;" horiz-adv-x="418" 
d="M59 0v49h124v602h-124v49h302v-49h-125v-602h125v-49h-302zM294 779q-20 0 -31 11.5t-11 29.5q0 16 11 28t31 12q22 0 32 -10.5t10 -29.5q0 -16 -10 -28.5t-32 -12.5zM124 779q-19 0 -30.5 11.5t-11.5 29.5q0 16 11 28t31 12q22 0 32 -10.5t10 -29.5q0 -16 -10 -28.5
t-32 -12.5z" />
    <glyph glyph-name="Eth" unicode="&#xd0;" horiz-adv-x="741" 
d="M33 327v45h268v-45h-268zM106 0v700h256q68 0 127.5 -26t104 -72.5t69.5 -110.5t25 -141q0 -76 -25 -140t-69.5 -111t-104 -73t-127.5 -26h-256zM158 42l-7 9h206q58 0 108.5 22t88.5 62t59.5 95t21.5 120t-21.5 120t-59.5 95t-88.5 62t-108.5 22h-208l9 10v-617z" />
    <glyph glyph-name="Ntilde" unicode="&#xd1;" horiz-adv-x="753" 
d="M106 0v700h48l457 -635l-8 -4q-3 25 -5 57t-2.5 81t-0.5 123v378h52v-700h-48l-463 639l14 5q3 -35 4 -68.5t2.5 -63.5t1.5 -56.5v-48.5v-407h-52zM442 779q-16 0 -34.5 6t-50.5 20q-10 5 -24.5 10.5t-27.5 5.5q-14 0 -24 -10t-10 -32h-42q0 39 23.5 61t53.5 22
q23 0 43.5 -9t38.5 -17q22 -9 32.5 -12.5t17.5 -3.5q18 0 31 10.5t14 31.5h41q0 -24 -10.5 -43t-29.5 -29.5t-42 -10.5z" />
    <glyph glyph-name="Ograve" unicode="&#xd2;" horiz-adv-x="792" 
d="M396 -10q-75 0 -137.5 26.5t-109 74.5t-71.5 113.5t-25 144.5t25 145t71.5 114.5t109 75t137.5 26.5t138 -26.5t109 -75t71.5 -114.5t25.5 -144q0 -79 -25.5 -145t-71.5 -114t-109 -74.5t-138 -26.5zM396 41q64 0 117 23t92 64.5t60 97.5t21 123t-21 123.5t-60 98.5
t-92 65t-117 23q-63 0 -116 -23t-92 -65t-60 -98.5t-21 -123.5q0 -89 37.5 -158.5t102.5 -109.5t149 -40zM457 761l-171 83l25 45l162 -99z" />
    <glyph glyph-name="Oacute" unicode="&#xd3;" horiz-adv-x="792" 
d="M396 -10q-75 0 -137.5 26.5t-109 74.5t-71.5 113.5t-25 144.5t25 145t71.5 114.5t109 75t137.5 26.5t138 -26.5t109 -75t71.5 -114.5t25.5 -144q0 -79 -25.5 -145t-71.5 -114t-109 -74.5t-138 -26.5zM396 41q64 0 117 23t92 64.5t60 97.5t21 123t-21 123.5t-60 98.5
t-92 65t-117 23q-63 0 -116 -23t-92 -65t-60 -98.5t-21 -123.5q0 -89 37.5 -158.5t102.5 -109.5t149 -40zM338 761l-16 29l162 99l25 -45z" />
    <glyph glyph-name="Ocircumflex" unicode="&#xd4;" horiz-adv-x="792" 
d="M396 -10q-75 0 -137.5 26.5t-109 74.5t-71.5 113.5t-25 144.5t25 145t71.5 114.5t109 75t137.5 26.5t138 -26.5t109 -75t71.5 -114.5t25.5 -144q0 -79 -25.5 -145t-71.5 -114t-109 -74.5t-138 -26.5zM396 41q64 0 117 23t92 64.5t60 97.5t21 123t-21 123.5t-60 98.5
t-92 65t-117 23q-63 0 -116 -23t-92 -65t-60 -98.5t-21 -123.5q0 -89 37.5 -158.5t102.5 -109.5t149 -40zM282 765l-21 20l113 89h45l112 -89l-21 -20l-123 75h19z" />
    <glyph glyph-name="Otilde" unicode="&#xd5;" horiz-adv-x="792" 
d="M396 -10q-75 0 -137.5 26.5t-109 74.5t-71.5 113.5t-25 144.5t25 145t71.5 114.5t109 75t137.5 26.5t138 -26.5t109 -75t71.5 -114.5t25.5 -144q0 -79 -25.5 -145t-71.5 -114t-109 -74.5t-138 -26.5zM396 41q64 0 117 23t92 64.5t60 97.5t21 123t-21 123.5t-60 98.5
t-92 65t-117 23q-63 0 -116 -23t-92 -65t-60 -98.5t-21 -123.5q0 -89 37.5 -158.5t102.5 -109.5t149 -40zM461 779q-16 0 -34.5 6t-50.5 20q-10 5 -24.5 10.5t-27.5 5.5q-14 0 -24 -10t-10 -32h-42q0 39 23.5 61t53.5 22q23 0 43.5 -9t38.5 -17q22 -9 32.5 -12.5t17.5 -3.5
q18 0 31 10.5t14 31.5h41q0 -24 -10.5 -43t-29.5 -29.5t-42 -10.5z" />
    <glyph glyph-name="Odieresis" unicode="&#xd6;" horiz-adv-x="792" 
d="M396 -10q-75 0 -137.5 26.5t-109 74.5t-71.5 113.5t-25 144.5t25 145t71.5 114.5t109 75t137.5 26.5t138 -26.5t109 -75t71.5 -114.5t25.5 -144q0 -79 -25.5 -145t-71.5 -114t-109 -74.5t-138 -26.5zM396 41q64 0 117 23t92 64.5t60 97.5t21 123t-21 123.5t-60 98.5
t-92 65t-117 23q-63 0 -116 -23t-92 -65t-60 -98.5t-21 -123.5q0 -89 37.5 -158.5t102.5 -109.5t149 -40zM481 779q-20 0 -31 11.5t-11 29.5q0 16 11 28t31 12q22 0 32 -10.5t10 -29.5q0 -16 -10 -28.5t-32 -12.5zM311 779q-19 0 -30.5 11.5t-11.5 29.5q0 16 11 28t31 12
q22 0 32 -10.5t10 -29.5q0 -16 -10 -28.5t-32 -12.5z" />
    <glyph glyph-name="multiply" unicode="&#xd7;" horiz-adv-x="458" 
d="M387 97l-343 342l34 30l341 -341zM72 95l-32 33l341 341l32 -33z" />
    <glyph glyph-name="Oslash" unicode="&#xd8;" horiz-adv-x="788" 
d="M117 -23l-34 28l589 722l36 -26zM395 -10q-75 0 -137.5 26.5t-109 74.5t-71.5 113.5t-25 144.5t25 145t71.5 114.5t109 75t137.5 26.5t138 -26.5t109 -75t71.5 -114.5t25.5 -144q0 -79 -25.5 -145t-71.5 -114t-109 -74.5t-138 -26.5zM395 41q64 0 117 23t92 64.5t60 97.5
t21 123t-21 123.5t-60 98.5t-92 65t-117 23q-63 0 -116 -23t-92 -65t-60 -98.5t-21 -123.5q0 -89 37.5 -158.5t102.5 -109.5t149 -40z" />
    <glyph glyph-name="Ugrave" unicode="&#xd9;" horiz-adv-x="743" 
d="M368 -6q-76 0 -136.5 35.5t-95 97.5t-34.5 142v431h52v-422q0 -67 27.5 -119.5t76.5 -83t110 -30.5q65 0 115 30.5t78.5 83t28.5 119.5v422h50v-431q0 -80 -35 -142t-96 -97.5t-141 -35.5zM432 761l-171 83l25 45l162 -99z" />
    <glyph glyph-name="Uacute" unicode="&#xda;" horiz-adv-x="743" 
d="M368 -6q-76 0 -136.5 35.5t-95 97.5t-34.5 142v431h52v-422q0 -67 27.5 -119.5t76.5 -83t110 -30.5q65 0 115 30.5t78.5 83t28.5 119.5v422h50v-431q0 -80 -35 -142t-96 -97.5t-141 -35.5zM314 761l-16 29l162 99l25 -45z" />
    <glyph glyph-name="Ucircumflex" unicode="&#xdb;" horiz-adv-x="743" 
d="M368 -6q-76 0 -136.5 35.5t-95 97.5t-34.5 142v431h52v-422q0 -67 27.5 -119.5t76.5 -83t110 -30.5q65 0 115 30.5t78.5 83t28.5 119.5v422h50v-431q0 -80 -35 -142t-96 -97.5t-141 -35.5zM257 765l-21 20l113 89h45l112 -89l-21 -20l-123 75h19z" />
    <glyph glyph-name="Udieresis" unicode="&#xdc;" horiz-adv-x="743" 
d="M368 -6q-76 0 -136.5 35.5t-95 97.5t-34.5 142v431h52v-422q0 -67 27.5 -119.5t76.5 -83t110 -30.5q65 0 115 30.5t78.5 83t28.5 119.5v422h50v-431q0 -80 -35 -142t-96 -97.5t-141 -35.5zM457 779q-20 0 -31 11.5t-11 29.5q0 16 11 28t31 12q22 0 32 -10.5t10 -29.5
q0 -16 -10 -28.5t-32 -12.5zM287 779q-19 0 -30.5 11.5t-11.5 29.5q0 16 11 28t31 12q22 0 32 -10.5t10 -29.5q0 -16 -10 -28.5t-32 -12.5z" />
    <glyph glyph-name="Yacute" unicode="&#xdd;" horiz-adv-x="616" 
d="M288 0v342l8 -42l-279 400h62l244 -351l-16 2l233 349h59l-270 -403l11 48v-345h-52zM250 761l-16 29l162 99l25 -45z" />
    <glyph glyph-name="Thorn" unicode="&#xde;" horiz-adv-x="590" 
d="M106 0v700h52v-146h190q54 0 97 -25t68 -69.5t25 -101.5q0 -54 -25 -99.5t-68 -72t-97 -26.5h-190v-160h-52zM158 211h188q43 0 74 21t48.5 54.5t17.5 71.5q0 42 -16.5 74.5t-48 51.5t-75.5 19h-188v-292z" />
    <glyph glyph-name="germandbls" unicode="&#xdf;" horiz-adv-x="627" 
d="M378 -10q-56 1 -95 22t-67 65l32 27q28 -40 59.5 -56t71.5 -16q68 0 108.5 37t40.5 119q0 51 -24 92.5t-71 72.5t-118 51v38q34 6 60 17.5t44 28.5t27.5 38.5t9.5 46.5q0 48 -35.5 80t-95.5 32q-73 0 -114.5 -48t-41.5 -141v-496h-48v496q0 76 25 128t70 79t107 27
q57 0 98 -20t62.5 -55t21.5 -79q0 -39 -20 -71.5t-53 -52.5t-74 -26l-1 9q78 -24 126.5 -61.5t71 -84t22.5 -97.5q0 -63 -23.5 -108t-68 -69t-107.5 -25zM35 412v46h111v-46h-111z" />
    <glyph glyph-name="agrave" unicode="&#xe0;" horiz-adv-x="536" 
d="M422 0v358q0 58 -40.5 92t-110.5 34q-52 0 -96 -22t-77 -64l-34 34q41 50 94.5 75t116.5 25q60 0 103.5 -19.5t66.5 -57.5t23 -91v-364h-46zM221 -10q-51 0 -91 20t-63.5 55.5t-23.5 83.5q0 36 13.5 64.5t40.5 47t68 28.5t95 10h184l-4 -44h-189q-39 0 -68 -7t-50 -20.5
t-31.5 -33t-10.5 -45.5q0 -33 18 -59t47.5 -40t65.5 -14q46 0 85.5 16t71 44.5t50.5 66.5l17 -31q-23 -41 -57 -73t-77 -50.5t-91 -18.5zM317 609l-155 101l33 42l141 -115z" />
    <glyph glyph-name="aacute" unicode="&#xe1;" horiz-adv-x="536" 
d="M422 0v358q0 58 -40.5 92t-110.5 34q-52 0 -96 -22t-77 -64l-34 34q41 50 94.5 75t116.5 25q60 0 103.5 -19.5t66.5 -57.5t23 -91v-364h-46zM221 -10q-51 0 -91 20t-63.5 55.5t-23.5 83.5q0 36 13.5 64.5t40.5 47t68 28.5t95 10h184l-4 -44h-189q-39 0 -68 -7t-50 -20.5
t-31.5 -33t-10.5 -45.5q0 -33 18 -59t47.5 -40t65.5 -14q46 0 85.5 16t71 44.5t50.5 66.5l17 -31q-23 -41 -57 -73t-77 -50.5t-91 -18.5zM213 609l-19 28l141 115l33 -42z" />
    <glyph glyph-name="acircumflex" unicode="&#xe2;" horiz-adv-x="536" 
d="M422 0v358q0 58 -40.5 92t-110.5 34q-52 0 -96 -22t-77 -64l-34 34q41 50 94.5 75t116.5 25q60 0 103.5 -19.5t66.5 -57.5t23 -91v-364h-46zM221 -10q-51 0 -91 20t-63.5 55.5t-23.5 83.5q0 36 13.5 64.5t40.5 47t68 28.5t95 10h184l-4 -44h-189q-39 0 -68 -7t-50 -20.5
t-31.5 -33t-10.5 -45.5q0 -33 18 -59t47.5 -40t65.5 -14q46 0 85.5 16t71 44.5t50.5 66.5l17 -31q-23 -41 -57 -73t-77 -50.5t-91 -18.5zM157 616l-22 20l110 100h48l110 -100l-22 -20l-122 85h20z" />
    <glyph glyph-name="atilde" unicode="&#xe3;" horiz-adv-x="536" 
d="M422 0v358q0 58 -40.5 92t-110.5 34q-52 0 -96 -22t-77 -64l-34 34q41 50 94.5 75t116.5 25q60 0 103.5 -19.5t66.5 -57.5t23 -91v-364h-46zM221 -10q-51 0 -91 20t-63.5 55.5t-23.5 83.5q0 36 13.5 64.5t40.5 47t68 28.5t95 10h184l-4 -44h-189q-39 0 -68 -7t-50 -20.5
t-31.5 -33t-10.5 -45.5q0 -33 18 -59t47.5 -40t65.5 -14q46 0 85.5 16t71 44.5t50.5 66.5l17 -31q-23 -41 -57 -73t-77 -50.5t-91 -18.5zM330 627q-22 0 -39 10.5t-34 22.5q-22 17 -32 22t-18 5q-15 0 -27 -14.5t-13 -42.5l-37 6q0 37 23 63.5t56 26.5q20 0 37 -10.5
t35 -23.5q10 -9 24 -18t26 -9q15 0 26 13.5t13 43.5l37 -6q0 -25 -10.5 -45.5t-28 -32t-38.5 -11.5z" />
    <glyph glyph-name="adieresis" unicode="&#xe4;" horiz-adv-x="536" 
d="M422 0v358q0 58 -40.5 92t-110.5 34q-52 0 -96 -22t-77 -64l-34 34q41 50 94.5 75t116.5 25q60 0 103.5 -19.5t66.5 -57.5t23 -91v-364h-46zM221 -10q-51 0 -91 20t-63.5 55.5t-23.5 83.5q0 36 13.5 64.5t40.5 47t68 28.5t95 10h184l-4 -44h-189q-39 0 -68 -7t-50 -20.5
t-31.5 -33t-10.5 -45.5q0 -33 18 -59t47.5 -40t65.5 -14q46 0 85.5 16t71 44.5t50.5 66.5l17 -31q-23 -41 -57 -73t-77 -50.5t-91 -18.5zM353 656q-21 0 -31.5 11.5t-10.5 29.5q0 19 10.5 30.5t31.5 11.5q19 0 31 -11.5t12 -30.5q0 -18 -11.5 -29.5t-31.5 -11.5zM185 656
q-20 0 -31.5 11.5t-11.5 29.5q0 19 11.5 30.5t31.5 11.5t31 -11.5t11 -30.5q0 -18 -10.5 -29.5t-31.5 -11.5z" />
    <glyph glyph-name="aring" unicode="&#xe5;" horiz-adv-x="536" 
d="M422 0v358q0 58 -40.5 92t-110.5 34q-52 0 -96 -22t-77 -64l-34 34q41 50 94.5 75t116.5 25q60 0 103.5 -19.5t66.5 -57.5t23 -91v-364h-46zM221 -10q-51 0 -91 20t-63.5 55.5t-23.5 83.5q0 36 13.5 64.5t40.5 47t68 28.5t95 10h184l-4 -44h-189q-39 0 -68 -7t-50 -20.5
t-31.5 -33t-10.5 -45.5q0 -33 18 -59t47.5 -40t65.5 -14q46 0 85.5 16t71 44.5t50.5 66.5l17 -31q-23 -41 -57 -73t-77 -50.5t-91 -18.5zM268 597q-25 0 -47.5 13t-36.5 35t-14 47q0 26 13.5 47.5t36 34.5t48.5 13q27 0 49.5 -13t35.5 -34.5t13 -47.5q0 -25 -13.5 -46.5
t-35.5 -35t-49 -13.5zM268 631q27 0 45.5 18.5t18.5 42.5q0 28 -18.5 44.5t-45.5 16.5t-44.5 -17t-17.5 -44q0 -24 18 -42.5t44 -18.5z" />
    <glyph glyph-name="ae" unicode="&#xe6;" horiz-adv-x="933" 
d="M221 -10q-51 0 -91 20t-63.5 55.5t-23.5 83.5q0 36 13.5 64.5t41 47t68 28.5t94.5 10h597l-11 -16v23q-1 52 -25.5 92t-64.5 62.5t-87 22.5q-62 0 -107 -27t-69.5 -76.5t-24.5 -116.5q0 -65 28.5 -116.5t78 -80t112.5 -28.5q47 0 87.5 16t75.5 50l26 -38
q-24 -23 -54.5 -40t-65.5 -26.5t-73 -9.5q-78 0 -137 35t-92 96t-33 140q0 57 18 106.5t51 86t78.5 57t97.5 20.5q68 0 119.5 -30t81.5 -84.5t30 -128.5l-2 -33h-644q-39 0 -68 -7t-50 -20.5t-31.5 -33t-10.5 -45.5q0 -33 18 -59t48 -40t65 -14q47 0 88.5 16.5t74 46.5
t52.5 69l23 -36q-24 -41 -60.5 -73.5t-82 -50.5t-96.5 -18zM421 270v94q0 27 -10.5 49t-30 38t-47 24.5t-62.5 8.5q-52 0 -96.5 -22t-78.5 -65l-34 33q42 50 95 76t115 26q46 0 82 -11t61.5 -31t39 -49.5t13.5 -67.5v-102z" />
    <glyph glyph-name="ccedilla" unicode="&#xe7;" horiz-adv-x="529" 
d="M303 -10q-77 0 -136 35.5t-93 97t-34 140.5q0 78 34 138.5t93 95.5t136 35q65 0 118 -25t86 -69l-30 -36q-21 25 -48 43.5t-58.5 28.5t-64.5 10q-63 0 -111.5 -28.5t-76.5 -78t-29 -114.5q1 -65 29 -116t77 -80.5t111 -29.5q34 0 64.5 9.5t57 28t48.5 43.5l30 -36
q-35 -42 -88 -67t-115 -25zM220 -233l-7 29q29 4 57.5 10.5t47.5 20t19 35.5q0 19 -16 28.5t-38.5 13.5t-41.5 4l-13 10l60 91h36l-48 -71q55 -5 80 -25t25 -52q0 -27 -15 -44t-39 -27t-52.5 -15.5t-54.5 -7.5z" />
    <glyph glyph-name="egrave" unicode="&#xe8;" horiz-adv-x="560" 
d="M304 -10q-78 0 -137.5 35t-93 96t-33.5 140q0 60 18.5 109.5t52 86t80.5 56t103 19.5q50 0 92.5 -17.5t74 -49.5t48 -77t14.5 -100l-1 -33h-447l-8 44h416l-12 -17v25q0 52 -24.5 92t-64 62.5t-87.5 22.5q-63 0 -109 -27.5t-70.5 -77t-24.5 -116.5t27.5 -117.5t76 -79
t113.5 -28.5q47 0 87.5 16t76.5 50l26 -37q-24 -23 -55 -40.5t-66.5 -27t-72.5 -9.5zM342 609l-155 101l33 42l141 -115z" />
    <glyph glyph-name="eacute" unicode="&#xe9;" horiz-adv-x="560" 
d="M304 -10q-78 0 -137.5 35t-93 96t-33.5 140q0 60 18.5 109.5t52 86t80.5 56t103 19.5q50 0 92.5 -17.5t74 -49.5t48 -77t14.5 -100l-1 -33h-447l-8 44h416l-12 -17v25q0 52 -24.5 92t-64 62.5t-87.5 22.5q-63 0 -109 -27.5t-70.5 -77t-24.5 -116.5t27.5 -117.5t76 -79
t113.5 -28.5q47 0 87.5 16t76.5 50l26 -37q-24 -23 -55 -40.5t-66.5 -27t-72.5 -9.5zM238 609l-19 28l141 115l33 -42z" />
    <glyph glyph-name="ecircumflex" unicode="&#xea;" horiz-adv-x="560" 
d="M304 -10q-78 0 -137.5 35t-93 96t-33.5 140q0 60 18.5 109.5t52 86t80.5 56t103 19.5q50 0 92.5 -17.5t74 -49.5t48 -77t14.5 -100l-1 -33h-447l-8 44h416l-12 -17v25q0 52 -24.5 92t-64 62.5t-87.5 22.5q-63 0 -109 -27.5t-70.5 -77t-24.5 -116.5t27.5 -117.5t76 -79
t113.5 -28.5q47 0 87.5 16t76.5 50l26 -37q-24 -23 -55 -40.5t-66.5 -27t-72.5 -9.5zM182 616l-22 20l110 100h48l110 -100l-22 -20l-122 85h20z" />
    <glyph glyph-name="edieresis" unicode="&#xeb;" horiz-adv-x="560" 
d="M304 -10q-78 0 -137.5 35t-93 96t-33.5 140q0 60 18.5 109.5t52 86t80.5 56t103 19.5q50 0 92.5 -17.5t74 -49.5t48 -77t14.5 -100l-1 -33h-447l-8 44h416l-12 -17v25q0 52 -24.5 92t-64 62.5t-87.5 22.5q-63 0 -109 -27.5t-70.5 -77t-24.5 -116.5t27.5 -117.5t76 -79
t113.5 -28.5q47 0 87.5 16t76.5 50l26 -37q-24 -23 -55 -40.5t-66.5 -27t-72.5 -9.5zM378 656q-21 0 -31.5 11.5t-10.5 29.5q0 19 10.5 30.5t31.5 11.5q19 0 31 -11.5t12 -30.5q0 -18 -11.5 -29.5t-31.5 -11.5zM210 656q-20 0 -31.5 11.5t-11.5 29.5q0 19 11.5 30.5
t31.5 11.5t31 -11.5t11 -30.5q0 -18 -10.5 -29.5t-31.5 -11.5z" />
    <glyph glyph-name="igrave" unicode="&#xec;" horiz-adv-x="191" 
d="M70 0v525h51v-525h-51zM143 609l-155 101l33 42l141 -115z" />
    <glyph glyph-name="iacute" unicode="&#xed;" horiz-adv-x="191" 
d="M70 0v525h51v-525h-51zM39 609l-19 28l141 115l33 -42z" />
    <glyph glyph-name="icircumflex" unicode="&#xee;" horiz-adv-x="191" 
d="M70 0v525h51v-525h-51zM-17 616l-22 20l110 100h48l110 -100l-22 -20l-122 85h20z" />
    <glyph glyph-name="idieresis" unicode="&#xef;" horiz-adv-x="191" 
d="M70 0v525h51v-525h-51zM179 656q-21 0 -31.5 11.5t-10.5 29.5q0 19 10.5 30.5t31.5 11.5q19 0 31 -11.5t12 -30.5q0 -18 -11.5 -29.5t-31.5 -11.5zM11 656q-20 0 -31.5 11.5t-11.5 29.5q0 19 11.5 30.5t31.5 11.5t31 -11.5t11 -30.5q0 -18 -10.5 -29.5t-31.5 -11.5z" />
    <glyph glyph-name="eth" unicode="&#xf0;" horiz-adv-x="576" 
d="M288 -9q-72 0 -128 35.5t-88 96.5t-32 140q0 57 18.5 105.5t52.5 84t78.5 55t96.5 19.5q53 0 98.5 -23.5t75 -61t36.5 -80.5l-24 12q-1 60 -22 113t-58.5 95.5t-89 72t-113.5 43.5l22 41q60 -13 110.5 -40.5t90 -68.5t67.5 -95.5t42.5 -121.5t14.5 -145q0 -80 -32 -142.5
t-88 -98.5t-128 -36zM288 39q58 0 102.5 29t70 79.5t25.5 115.5q0 63 -25.5 111.5t-70 76.5t-102.5 28q-57 0 -102 -27.5t-71 -76.5t-26 -112q0 -65 26 -115.5t71 -79.5t102 -29zM161 558l-7 37l181 49l28 8l124 32l11 -37l-103 -26l-24 -8z" />
    <glyph glyph-name="ntilde" unicode="&#xf1;" horiz-adv-x="560" 
d="M70 0v525h50l1 -116l-12 -7q11 35 40.5 64.5t71.5 47.5t87 18q59 0 100 -22t62.5 -68t21.5 -117v-325h-51v323q0 57 -16.5 93t-49 52.5t-79.5 15.5q-38 0 -70 -12.5t-55.5 -32.5t-36.5 -42t-13 -41v-356h-25h-12h-14zM356 627q-22 0 -39 10.5t-34 22.5q-22 17 -32 22
t-18 5q-15 0 -27 -14.5t-13 -42.5l-37 6q0 37 23 63.5t56 26.5q20 0 37 -10.5t35 -23.5q10 -9 24 -18t26 -9q15 0 26 13.5t13 43.5l37 -6q0 -25 -10.5 -45.5t-28 -32t-38.5 -11.5z" />
    <glyph glyph-name="ograve" unicode="&#xf2;" horiz-adv-x="615" 
d="M308 -10q-78 0 -138.5 35.5t-95 97t-34.5 140.5q0 78 34.5 138.5t95 95.5t138.5 35q79 0 139 -35t94 -95.5t34 -138.5q0 -79 -34 -140.5t-94 -97t-139 -35.5zM308 38q63 0 112 29t76.5 80t27.5 116t-27.5 114.5t-76.5 78t-112 28.5t-112 -28.5t-77 -78.5t-28 -114
q0 -65 28 -116t77 -80t112 -29zM356 609l-155 101l33 42l141 -115z" />
    <glyph glyph-name="oacute" unicode="&#xf3;" horiz-adv-x="615" 
d="M308 -10q-78 0 -138.5 35.5t-95 97t-34.5 140.5q0 78 34.5 138.5t95 95.5t138.5 35q79 0 139 -35t94 -95.5t34 -138.5q0 -79 -34 -140.5t-94 -97t-139 -35.5zM308 38q63 0 112 29t76.5 80t27.5 116t-27.5 114.5t-76.5 78t-112 28.5t-112 -28.5t-77 -78.5t-28 -114
q0 -65 28 -116t77 -80t112 -29zM254 609l-19 28l141 115l33 -42z" />
    <glyph glyph-name="ocircumflex" unicode="&#xf4;" horiz-adv-x="615" 
d="M308 -10q-78 0 -138.5 35.5t-95 97t-34.5 140.5q0 78 34.5 138.5t95 95.5t138.5 35q79 0 139 -35t94 -95.5t34 -138.5q0 -79 -34 -140.5t-94 -97t-139 -35.5zM308 38q63 0 112 29t76.5 80t27.5 116t-27.5 114.5t-76.5 78t-112 28.5t-112 -28.5t-77 -78.5t-28 -114
q0 -65 28 -116t77 -80t112 -29zM196 616l-22 20l110 100h48l110 -100l-22 -20l-122 85h20z" />
    <glyph glyph-name="otilde" unicode="&#xf5;" horiz-adv-x="615" 
d="M308 -10q-78 0 -138.5 35.5t-95 97t-34.5 140.5q0 78 34.5 138.5t95 95.5t138.5 35q79 0 139 -35t94 -95.5t34 -138.5q0 -79 -34 -140.5t-94 -97t-139 -35.5zM308 38q63 0 112 29t76.5 80t27.5 116t-27.5 114.5t-76.5 78t-112 28.5t-112 -28.5t-77 -78.5t-28 -114
q0 -65 28 -116t77 -80t112 -29zM369 627q-22 0 -39 10.5t-34 22.5q-22 17 -32 22t-18 5q-15 0 -27 -14.5t-13 -42.5l-37 6q0 37 23 63.5t56 26.5q20 0 37 -10.5t35 -23.5q10 -9 24 -18t26 -9q15 0 26 13.5t13 43.5l37 -6q0 -25 -10.5 -45.5t-28 -32t-38.5 -11.5z" />
    <glyph glyph-name="odieresis" unicode="&#xf6;" horiz-adv-x="615" 
d="M308 -10q-78 0 -138.5 35.5t-95 97t-34.5 140.5q0 78 34.5 138.5t95 95.5t138.5 35q79 0 139 -35t94 -95.5t34 -138.5q0 -79 -34 -140.5t-94 -97t-139 -35.5zM308 38q63 0 112 29t76.5 80t27.5 116t-27.5 114.5t-76.5 78t-112 28.5t-112 -28.5t-77 -78.5t-28 -114
q0 -65 28 -116t77 -80t112 -29zM392 656q-21 0 -31.5 11.5t-10.5 29.5q0 19 10.5 30.5t31.5 11.5q19 0 31 -11.5t12 -30.5q0 -18 -11.5 -29.5t-31.5 -11.5zM224 656q-20 0 -31.5 11.5t-11.5 29.5q0 19 11.5 30.5t31.5 11.5t31 -11.5t11 -30.5q0 -18 -10.5 -29.5t-31.5 -11.5
z" />
    <glyph glyph-name="divide" unicode="&#xf7;" horiz-adv-x="591" 
d="M54 261v46h482v-46h-482zM294 83q-12 0 -21.5 5.5t-15.5 15t-6 20.5t6 20t15.5 15t20.5 6q12 0 21 -6t14.5 -15t5.5 -20t-5.5 -20t-14.5 -15t-20 -6zM293 402q-11 0 -20.5 5.5t-15.5 15t-6 20.5q0 10 6 20t15.5 16t20.5 6q12 0 21 -6t14.5 -16t5.5 -20q0 -11 -5.5 -20.5
t-14.5 -15t-21 -5.5z" />
    <glyph glyph-name="oslash" unicode="&#xf8;" horiz-adv-x="615" 
d="M90 -24l-34 25l458 539l35 -27zM308 -10q-78 0 -138.5 35.5t-95 97t-34.5 140.5q0 78 34.5 138.5t95 95.5t138.5 35q79 0 139 -35t94 -95.5t34 -138.5q0 -79 -34 -140.5t-94 -97t-139 -35.5zM308 38q63 0 112 29t76.5 80t27.5 116t-27.5 114.5t-76.5 78t-112 28.5
t-112 -28.5t-77 -78.5t-28 -114q0 -65 28 -116t77 -80t112 -29z" />
    <glyph glyph-name="ugrave" unicode="&#xf9;" horiz-adv-x="562" 
d="M261 -10q-59 0 -101 23t-64.5 69t-22.5 116v327h51v-316q0 -88 40 -130.5t113 -42.5q34 0 63 13.5t51.5 33.5t35 43.5t12.5 43.5v355h51v-525h-49l-2 118l12 5q-12 -36 -40 -66.5t-66.5 -48.5t-83.5 -18zM329 609l-155 101l33 42l141 -115z" />
    <glyph glyph-name="uacute" unicode="&#xfa;" horiz-adv-x="562" 
d="M261 -10q-59 0 -101 23t-64.5 69t-22.5 116v327h51v-316q0 -88 40 -130.5t113 -42.5q34 0 63 13.5t51.5 33.5t35 43.5t12.5 43.5v355h51v-525h-49l-2 118l12 5q-12 -36 -40 -66.5t-66.5 -48.5t-83.5 -18zM226 609l-19 28l141 115l33 -42z" />
    <glyph glyph-name="ucircumflex" unicode="&#xfb;" horiz-adv-x="562" 
d="M261 -10q-59 0 -101 23t-64.5 69t-22.5 116v327h51v-316q0 -88 40 -130.5t113 -42.5q34 0 63 13.5t51.5 33.5t35 43.5t12.5 43.5v355h51v-525h-49l-2 118l12 5q-12 -36 -40 -66.5t-66.5 -48.5t-83.5 -18zM169 616l-22 20l110 100h48l110 -100l-22 -20l-122 85h20z" />
    <glyph glyph-name="udieresis" unicode="&#xfc;" horiz-adv-x="562" 
d="M261 -10q-59 0 -101 23t-64.5 69t-22.5 116v327h51v-316q0 -88 40 -130.5t113 -42.5q34 0 63 13.5t51.5 33.5t35 43.5t12.5 43.5v355h51v-525h-49l-2 118l12 5q-12 -36 -40 -66.5t-66.5 -48.5t-83.5 -18zM365 656q-21 0 -31.5 11.5t-10.5 29.5q0 19 10.5 30.5t31.5 11.5
q19 0 31 -11.5t12 -30.5q0 -18 -11.5 -29.5t-31.5 -11.5zM197 656q-20 0 -31.5 11.5t-11.5 29.5q0 19 11.5 30.5t31.5 11.5t31 -11.5t11 -30.5q0 -18 -10.5 -29.5t-31.5 -11.5z" />
    <glyph glyph-name="yacute" unicode="&#xfd;" horiz-adv-x="530" 
d="M158 -230l99 241l3 -39l-248 553h58l195 -439q7 -14 11 -25t7 -21l-15 -5q6 14 11.5 28.5t10.5 28.5l169 433h59l-217 -533l-87 -222h-56zM210 609l-19 28l141 115l33 -42z" />
    <glyph glyph-name="thorn" unicode="&#xfe;" horiz-adv-x="618" 
d="M70 -227v967h52v-370l-11 4q13 45 44.5 80.5t77 56t97.5 20.5q69 0 125.5 -35t89.5 -96t33 -140q0 -78 -32 -139t-88 -96t-128 -35q-53 0 -99.5 20.5t-78.5 56.5t-44 80l14 5v-379h-52zM321 38q61 0 108 29t74 79.5t27 113.5q0 65 -27.5 115.5t-74 79.5t-107.5 29
q-59 0 -104.5 -29t-72 -79t-26.5 -115t27 -115.5t72.5 -79t103.5 -28.5z" />
    <glyph glyph-name="ydieresis" unicode="&#xff;" horiz-adv-x="530" 
d="M158 -230l99 241l3 -39l-248 553h58l195 -439q7 -14 11 -25t7 -21l-15 -5q6 14 11.5 28.5t10.5 28.5l169 433h59l-217 -533l-87 -222h-56zM349 656q-21 0 -31.5 11.5t-10.5 29.5q0 19 10.5 30.5t31.5 11.5q19 0 31 -11.5t12 -30.5q0 -18 -11.5 -29.5t-31.5 -11.5z
M181 656q-20 0 -31.5 11.5t-11.5 29.5q0 19 11.5 30.5t31.5 11.5t31 -11.5t11 -30.5q0 -18 -10.5 -29.5t-31.5 -11.5z" />
    <glyph glyph-name="Amacron" unicode="&#x100;" horiz-adv-x="643" 
d="M22 0l269 700h61l269 -700h-58l-181 475q-3 7 -10.5 29.5t-18.5 52l-22 59t-19 50.5l15 -1q-6 -18 -15.5 -45t-20.5 -56t-20 -53.5t-14 -37.5l-179 -473h-56zM129 210l19 52h343l22 -52h-384zM175 801v40h292v-40h-292z" />
    <glyph glyph-name="amacron" unicode="&#x101;" horiz-adv-x="536" 
d="M422 0v358q0 58 -40.5 92t-110.5 34q-52 0 -96 -22t-77 -64l-34 34q41 50 94.5 75t116.5 25q60 0 103.5 -19.5t66.5 -57.5t23 -91v-364h-46zM221 -10q-51 0 -91 20t-63.5 55.5t-23.5 83.5q0 36 13.5 64.5t40.5 47t68 28.5t95 10h184l-4 -44h-189q-39 0 -68 -7t-50 -20.5
t-31.5 -33t-10.5 -45.5q0 -33 18 -59t47.5 -40t65.5 -14q46 0 85.5 16t71 44.5t50.5 66.5l17 -31q-23 -41 -57 -73t-77 -50.5t-91 -18.5zM132 656v41h274v-41h-274z" />
    <glyph glyph-name="Abreve" unicode="&#x102;" horiz-adv-x="643" 
d="M22 0l269 700h61l269 -700h-58l-181 475q-3 7 -10.5 29.5t-18.5 52l-22 59t-19 50.5l15 -1q-6 -18 -15.5 -45t-20.5 -56t-20 -53.5t-14 -37.5l-179 -473h-56zM129 210l19 52h343l22 -52h-384zM321 759q-36 0 -65 15.5t-49 42t-29 60.5l41 6q11 -35 38.5 -59t63.5 -24
q37 0 64.5 24t37.5 59l41 -6q-8 -34 -28 -60.5t-49.5 -42t-65.5 -15.5z" />
    <glyph glyph-name="abreve" unicode="&#x103;" horiz-adv-x="536" 
d="M422 0v358q0 58 -40.5 92t-110.5 34q-52 0 -96 -22t-77 -64l-34 34q41 50 94.5 75t116.5 25q60 0 103.5 -19.5t66.5 -57.5t23 -91v-364h-46zM221 -10q-51 0 -91 20t-63.5 55.5t-23.5 83.5q0 36 13.5 64.5t40.5 47t68 28.5t95 10h184l-4 -44h-189q-39 0 -68 -7t-50 -20.5
t-31.5 -33t-10.5 -45.5q0 -33 18 -59t47.5 -40t65.5 -14q46 0 85.5 16t71 44.5t50.5 66.5l17 -31q-23 -41 -57 -73t-77 -50.5t-91 -18.5zM269 604q-56 0 -93 35.5t-50 96.5l41 6q11 -45 38.5 -70t63.5 -25t64 25t38 70l41 -6q-13 -61 -50.5 -96.5t-92.5 -35.5z" />
    <glyph glyph-name="Aogonek" unicode="&#x104;" horiz-adv-x="643" 
d="M22 0l269 700h61l269 -700h-58l-181 475q-3 7 -10.5 29.5t-18.5 52l-22 59t-19 50.5l15 -1q-6 -18 -15.5 -45t-20.5 -56t-20 -53.5t-14 -37.5l-179 -473h-56zM129 210l19 52h343l22 -52h-384zM533 -219q-28 0 -51 13.5t-37.5 36.5t-14.5 51t12.5 52t33.5 43t49.5 32.5
t59.5 20.5l19 -30q-53 -10 -90 -40.5t-37 -74.5q0 -26 17.5 -44.5t43.5 -18.5q22 0 37 10.5t25 27.5l30 -22q-12 -25 -38 -41t-59 -16z" />
    <glyph glyph-name="aogonek" unicode="&#x105;" horiz-adv-x="536" 
d="M422 0v358q0 58 -40.5 92t-110.5 34q-52 0 -96 -22t-77 -64l-34 34q41 50 94.5 75t116.5 25q60 0 103.5 -19.5t66.5 -57.5t23 -91v-364h-46zM221 -10q-51 0 -91 20t-63.5 55.5t-23.5 83.5q0 36 13.5 64.5t40.5 47t68 28.5t95 10h184l-4 -44h-189q-39 0 -68 -7t-50 -20.5
t-31.5 -33t-10.5 -45.5q0 -33 18 -59t47.5 -40t65.5 -14q46 0 85.5 16t71 44.5t50.5 66.5l17 -31q-23 -41 -57 -73t-77 -50.5t-91 -18.5zM397 -221q-28 0 -50.5 13.5t-35.5 36.5t-13 51t11.5 51t33 41.5t49.5 31.5t61 21l15 -25q-34 -8 -63 -24t-45.5 -39.5t-16.5 -53.5
q0 -26 17 -44.5t42 -18.5q21 0 35.5 10.5t23.5 27.5l29 -22q-10 -25 -35 -41t-58 -16z" />
    <glyph glyph-name="Cacute" unicode="&#x106;" horiz-adv-x="686" 
d="M393 -10q-75 0 -136.5 26t-107.5 73.5t-71 113t-25 144.5q0 78 25.5 144t72 115t109 76t136.5 27q53 0 100 -15t86.5 -41t68.5 -62l-38 -37q-43 48 -98 75t-119 27q-62 0 -115 -23t-92 -64.5t-60.5 -98t-21.5 -123.5t21.5 -123t60.5 -96.5t92.5 -63t117.5 -22.5
q42 0 79.5 10t70 29t58.5 45l29 -43q-27 -28 -65.5 -49.5t-83.5 -32.5t-94 -11zM338 761l-16 29l162 99l25 -45z" />
    <glyph glyph-name="cacute" unicode="&#x107;" horiz-adv-x="529" 
d="M303 -10q-77 0 -136 35.5t-93 97t-34 140.5q0 78 34 138.5t93 95.5t136 35q65 0 118 -25t86 -69l-30 -36q-21 25 -48 43.5t-58.5 28.5t-64.5 10q-63 0 -111.5 -28.5t-76.5 -78t-29 -114.5q1 -65 29 -116t77 -80.5t111 -29.5q34 0 64.5 9.5t57 28t48.5 43.5l30 -36
q-35 -42 -88 -67t-115 -25zM247 609l-19 28l141 115l33 -42z" />
    <glyph glyph-name="Ccircumflex" unicode="&#x108;" horiz-adv-x="686" 
d="M393 -10q-75 0 -136.5 26t-107.5 73.5t-71 113t-25 144.5q0 78 25.5 144t72 115t109 76t136.5 27q53 0 100 -15t86.5 -41t68.5 -62l-38 -37q-43 48 -98 75t-119 27q-62 0 -115 -23t-92 -64.5t-60.5 -98t-21.5 -123.5t21.5 -123t60.5 -96.5t92.5 -63t117.5 -22.5
q42 0 79.5 10t70 29t58.5 45l29 -43q-27 -28 -65.5 -49.5t-83.5 -32.5t-94 -11zM282 765l-21 20l113 89h45l112 -89l-21 -20l-123 75h19z" />
    <glyph glyph-name="ccircumflex" unicode="&#x109;" horiz-adv-x="529" 
d="M303 -10q-77 0 -136 35.5t-93 97t-34 140.5q0 78 34 138.5t93 95.5t136 35q65 0 118 -25t86 -69l-30 -36q-21 25 -48 43.5t-58.5 28.5t-64.5 10q-63 0 -111.5 -28.5t-76.5 -78t-29 -114.5q1 -65 29 -116t77 -80.5t111 -29.5q34 0 64.5 9.5t57 28t48.5 43.5l30 -36
q-35 -42 -88 -67t-115 -25zM191 616l-22 20l110 100h48l110 -100l-22 -20l-122 85h20z" />
    <glyph glyph-name="Cdotaccent" unicode="&#x10a;" horiz-adv-x="686" 
d="M393 -10q-75 0 -136.5 26t-107.5 73.5t-71 113t-25 144.5q0 78 25.5 144t72 115t109 76t136.5 27q53 0 100 -15t86.5 -41t68.5 -62l-38 -37q-43 48 -98 75t-119 27q-62 0 -115 -23t-92 -64.5t-60.5 -98t-21.5 -123.5t21.5 -123t60.5 -96.5t92.5 -63t117.5 -22.5
q42 0 79.5 10t70 29t58.5 45l29 -43q-27 -28 -65.5 -49.5t-83.5 -32.5t-94 -11zM396 778q-21 0 -32 12t-11 30q0 17 11 29.5t32 12.5t32 -11.5t11 -30.5q0 -17 -10.5 -29.5t-32.5 -12.5z" />
    <glyph glyph-name="cdotaccent" unicode="&#x10b;" horiz-adv-x="529" 
d="M303 -10q-77 0 -136 35.5t-93 97t-34 140.5q0 78 34 138.5t93 95.5t136 35q65 0 118 -25t86 -69l-30 -36q-21 25 -48 43.5t-58.5 28.5t-64.5 10q-63 0 -111.5 -28.5t-76.5 -78t-29 -114.5q1 -65 29 -116t77 -80.5t111 -29.5q34 0 64.5 9.5t57 28t48.5 43.5l30 -36
q-35 -42 -88 -67t-115 -25zM303 655q-21 0 -32 11.5t-11 30.5t11 30t32 11q20 0 31.5 -11t11.5 -30q0 -18 -11 -30t-32 -12z" />
    <glyph glyph-name="Ccaron" unicode="&#x10c;" horiz-adv-x="686" 
d="M393 -10q-75 0 -136.5 26t-107.5 73.5t-71 113t-25 144.5q0 78 25.5 144t72 115t109 76t136.5 27q53 0 100 -15t86.5 -41t68.5 -62l-38 -37q-43 48 -98 75t-119 27q-62 0 -115 -23t-92 -64.5t-60.5 -98t-21.5 -123.5t21.5 -123t60.5 -96.5t92.5 -63t117.5 -22.5
q42 0 79.5 10t70 29t58.5 45l29 -43q-27 -28 -65.5 -49.5t-83.5 -32.5t-94 -11zM372 765l-112 90l22 20l124 -75h-20l124 75l22 -20l-112 -90h-48z" />
    <glyph glyph-name="ccaron" unicode="&#x10d;" horiz-adv-x="529" 
d="M303 -10q-77 0 -136 35.5t-93 97t-34 140.5q0 78 34 138.5t93 95.5t136 35q65 0 118 -25t86 -69l-30 -36q-21 25 -48 43.5t-58.5 28.5t-64.5 10q-63 0 -111.5 -28.5t-76.5 -78t-29 -114.5q1 -65 29 -116t77 -80.5t111 -29.5q34 0 64.5 9.5t57 28t48.5 43.5l30 -36
q-35 -42 -88 -67t-115 -25zM279 616l-107 99l22 21l119 -86h-20l119 86l22 -21l-107 -99h-48z" />
    <glyph glyph-name="Dcaron" unicode="&#x10e;" horiz-adv-x="741" 
d="M106 0v700h256q68 0 127.5 -26t104 -72.5t69.5 -110.5t25 -141q0 -76 -25 -140t-69.5 -111t-104 -73t-127.5 -26h-256zM158 42l-7 9h206q58 0 108.5 22t88.5 62t59.5 95t21.5 120t-21.5 120t-59.5 95t-88.5 62t-108.5 22h-208l9 10v-617zM347 765l-112 90l22 20l124 -75
h-20l124 75l22 -20l-112 -90h-48z" />
    <glyph glyph-name="dcaron" unicode="&#x10f;" horiz-adv-x="601" 
d="M293 -10q-73 0 -130 35t-90 95.5t-33 139.5t33.5 140t90 96.5t126.5 35.5q40 0 76.5 -13.5t67 -36.5t50 -53.5t23.5 -63.5l-14 1v374h51v-740h-51v155l12 3q-5 -35 -24.5 -65.5t-48 -53t-64.5 -36t-75 -13.5zM297 36q57 0 101.5 28.5t70.5 79.5t26 117t-26 117t-70.5 80
t-102.5 29q-60 0 -106.5 -29.5t-72.5 -81t-26 -116.5q0 -64 26 -115t72.5 -80t107.5 -29zM610 582l-17 24q9 4 18.5 12t16 17.5t6.5 18.5q0 8 -3.5 12.5t-14.5 8.5q-13 5 -18.5 13t-5.5 19q0 13 11.5 23t29.5 10q22 0 36.5 -15.5t14.5 -41.5q0 -16 -4.5 -29.5t-13.5 -26
t-23 -23.5t-33 -22z" />
    <glyph glyph-name="Dcroat" unicode="&#x110;" horiz-adv-x="741" 
d="M33 327v45h268v-45h-268zM106 0v700h256q68 0 127.5 -26t104 -72.5t69.5 -110.5t25 -141q0 -76 -25 -140t-69.5 -111t-104 -73t-127.5 -26h-256zM158 42l-7 9h206q58 0 108.5 22t88.5 62t59.5 95t21.5 120t-21.5 120t-59.5 95t-88.5 62t-108.5 22h-208l9 10v-617z" />
    <glyph glyph-name="dcroat" unicode="&#x111;" horiz-adv-x="615" 
d="M367 611v45h268v-45h-268zM293 -10q-73 0 -130 35t-90 95.5t-33 139.5t33.5 140t90 96.5t126.5 35.5q40 0 76.5 -13.5t67 -36.5t50 -53.5t23.5 -63.5l-14 1v374h51v-740h-51v155l12 3q-5 -35 -24.5 -65.5t-48 -53t-64.5 -36t-75 -13.5zM297 36q57 0 101.5 28.5t70.5 79.5
t26 117t-26 117t-70.5 80t-102.5 29q-60 0 -106.5 -29.5t-72.5 -81t-26 -116.5q0 -64 26 -115t72.5 -80t107.5 -29z" />
    <glyph glyph-name="Emacron" unicode="&#x112;" horiz-adv-x="583" 
d="M106 0v700h409v-51h-357v-598h352v-51h-404zM132 336v51h326v-51h-326zM172 801v40h292v-40h-292z" />
    <glyph glyph-name="emacron" unicode="&#x113;" horiz-adv-x="560" 
d="M304 -10q-78 0 -137.5 35t-93 96t-33.5 140q0 60 18.5 109.5t52 86t80.5 56t103 19.5q50 0 92.5 -17.5t74 -49.5t48 -77t14.5 -100l-1 -33h-447l-8 44h416l-12 -17v25q0 52 -24.5 92t-64 62.5t-87.5 22.5q-63 0 -109 -27.5t-70.5 -77t-24.5 -116.5t27.5 -117.5t76 -79
t113.5 -28.5q47 0 87.5 16t76.5 50l26 -37q-24 -23 -55 -40.5t-66.5 -27t-72.5 -9.5zM157 656v41h274v-41h-274z" />
    <glyph glyph-name="Ebreve" unicode="&#x114;" horiz-adv-x="583" 
d="M106 0v700h409v-51h-357v-598h352v-51h-404zM132 336v51h326v-51h-326zM318 759q-36 0 -65 15.5t-49 42t-29 60.5l41 6q11 -35 38.5 -59t63.5 -24q37 0 64.5 24t37.5 59l41 -6q-8 -34 -28 -60.5t-49.5 -42t-65.5 -15.5z" />
    <glyph glyph-name="ebreve" unicode="&#x115;" horiz-adv-x="560" 
d="M304 -10q-78 0 -137.5 35t-93 96t-33.5 140q0 60 18.5 109.5t52 86t80.5 56t103 19.5q50 0 92.5 -17.5t74 -49.5t48 -77t14.5 -100l-1 -33h-447l-8 44h416l-12 -17v25q0 52 -24.5 92t-64 62.5t-87.5 22.5q-63 0 -109 -27.5t-70.5 -77t-24.5 -116.5t27.5 -117.5t76 -79
t113.5 -28.5q47 0 87.5 16t76.5 50l26 -37q-24 -23 -55 -40.5t-66.5 -27t-72.5 -9.5zM294 604q-56 0 -93 35.5t-50 96.5l41 6q11 -45 38.5 -70t63.5 -25t64 25t38 70l41 -6q-13 -61 -50.5 -96.5t-92.5 -35.5z" />
    <glyph glyph-name="Edotaccent" unicode="&#x116;" horiz-adv-x="583" 
d="M106 0v700h409v-51h-357v-598h352v-51h-404zM132 336v51h326v-51h-326zM318 778q-21 0 -32 12t-11 30q0 17 11 29.5t32 12.5t32 -11.5t11 -30.5q0 -17 -10.5 -29.5t-32.5 -12.5z" />
    <glyph glyph-name="edotaccent" unicode="&#x117;" horiz-adv-x="560" 
d="M304 -10q-78 0 -137.5 35t-93 96t-33.5 140q0 60 18.5 109.5t52 86t80.5 56t103 19.5q50 0 92.5 -17.5t74 -49.5t48 -77t14.5 -100l-1 -33h-447l-8 44h416l-12 -17v25q0 52 -24.5 92t-64 62.5t-87.5 22.5q-63 0 -109 -27.5t-70.5 -77t-24.5 -116.5t27.5 -117.5t76 -79
t113.5 -28.5q47 0 87.5 16t76.5 50l26 -37q-24 -23 -55 -40.5t-66.5 -27t-72.5 -9.5zM294 655q-21 0 -32 11.5t-11 30.5t11 30t32 11q20 0 31.5 -11t11.5 -30q0 -18 -11 -30t-32 -12z" />
    <glyph glyph-name="Eogonek" unicode="&#x118;" horiz-adv-x="583" 
d="M106 0v700h409v-51h-357v-598h352v-51h-404zM132 336v51h326v-51h-326zM416 -219q-28 0 -51 13.5t-37.5 36.5t-14.5 51t12.5 52t33.5 43t49.5 32.5t59.5 20.5l19 -30q-53 -10 -90 -40.5t-37 -74.5q0 -26 17.5 -44.5t43.5 -18.5q22 0 37 10.5t25 27.5l30 -22
q-12 -25 -38 -41t-59 -16z" />
    <glyph glyph-name="eogonek" unicode="&#x119;" horiz-adv-x="560" 
d="M401 -220q-44 0 -73 28.5t-29 71.5q0 41 21.5 74.5t58.5 62t82 52.5l11 -22q-61 -39 -93.5 -79t-32.5 -79q0 -29 17.5 -49t43.5 -20q21 0 35 10.5t24 28.5l30 -23q-12 -24 -37.5 -40t-57.5 -16zM304 -10q-78 0 -137.5 35t-93 96t-33.5 140q0 60 18.5 109.5t52 86t80.5 56
t103 19.5q50 0 92.5 -17.5t74 -49.5t48 -77t14.5 -100l-1 -33h-447l-8 44h416l-12 -17v25q0 52 -24.5 92t-64 62.5t-87.5 22.5q-63 0 -109 -27.5t-70.5 -77t-24.5 -116.5t27.5 -117.5t76 -79t113.5 -28.5q47 0 87.5 16t76.5 50l26 -37q-24 -23 -55 -40.5t-66.5 -27
t-72.5 -9.5z" />
    <glyph glyph-name="Ecaron" unicode="&#x11a;" horiz-adv-x="583" 
d="M106 0v700h409v-51h-357v-598h352v-51h-404zM132 336v51h326v-51h-326zM294 765l-112 90l22 20l124 -75h-20l124 75l22 -20l-112 -90h-48z" />
    <glyph glyph-name="ecaron" unicode="&#x11b;" horiz-adv-x="560" 
d="M304 -10q-78 0 -137.5 35t-93 96t-33.5 140q0 60 18.5 109.5t52 86t80.5 56t103 19.5q50 0 92.5 -17.5t74 -49.5t48 -77t14.5 -100l-1 -33h-447l-8 44h416l-12 -17v25q0 52 -24.5 92t-64 62.5t-87.5 22.5q-63 0 -109 -27.5t-70.5 -77t-24.5 -116.5t27.5 -117.5t76 -79
t113.5 -28.5q47 0 87.5 16t76.5 50l26 -37q-24 -23 -55 -40.5t-66.5 -27t-72.5 -9.5zM270 616l-107 99l22 21l119 -86h-20l119 86l22 -21l-107 -99h-48z" />
    <glyph glyph-name="Gcircumflex" unicode="&#x11c;" horiz-adv-x="766" 
d="M403 -10q-76 0 -139.5 26.5t-111 74.5t-73.5 113.5t-26 142.5q0 79 26 145t73 114.5t110.5 75.5t139.5 27q56 0 105.5 -16t90.5 -44.5t71 -66.5l-35 -35q-43 51 -102.5 81t-129.5 30q-64 0 -118 -23.5t-94 -65t-61.5 -98.5t-21.5 -124q0 -65 22.5 -121t63 -97.5
t94.5 -64.5t118 -23q61 0 109 18.5t82.5 53t52.5 80.5t18 102v19l9 -8h-267v52h312q1 -7 1 -13v-10.5v-9.5q0 -80 -22.5 -142t-64.5 -105t-101 -65.5t-131 -22.5zM285 765l-21 20l113 89h45l112 -89l-21 -20l-123 75h19z" />
    <glyph glyph-name="gcircumflex" unicode="&#x11d;" horiz-adv-x="619" 
d="M299 -237q-56 0 -106 19t-82 52l20 40q30 -29 74 -46t93 -17q56 0 101 25.5t71.5 74t26.5 116.5v127h10q-10 -47 -41 -83.5t-75.5 -58.5t-94.5 -22q-74 0 -132 35t-91 95.5t-33 139.5t34 140t91 96.5t127 35.5q32 0 61.5 -8.5t55.5 -23.5t47 -35.5t35 -44.5t19 -49
l-13 -1l1 155h49v-501q0 -61 -18.5 -109.5t-52 -82t-79 -51.5t-98.5 -18zM299 38q58 0 102.5 28.5t70.5 79t26 115.5t-25.5 115t-71 79t-103.5 29q-60 0 -107 -29t-73.5 -79.5t-26.5 -115.5q0 -64 26.5 -114t74 -79t107.5 -29zM192 616l-22 20l110 100h48l110 -100l-22 -20
l-122 85h20z" />
    <glyph glyph-name="Gbreve" unicode="&#x11e;" horiz-adv-x="766" 
d="M403 -10q-76 0 -139.5 26.5t-111 74.5t-73.5 113.5t-26 142.5q0 79 26 145t73 114.5t110.5 75.5t139.5 27q56 0 105.5 -16t90.5 -44.5t71 -66.5l-35 -35q-43 51 -102.5 81t-129.5 30q-64 0 -118 -23.5t-94 -65t-61.5 -98.5t-21.5 -124q0 -65 22.5 -121t63 -97.5
t94.5 -64.5t118 -23q61 0 109 18.5t82.5 53t52.5 80.5t18 102v19l9 -8h-267v52h312q1 -7 1 -13v-10.5v-9.5q0 -80 -22.5 -142t-64.5 -105t-101 -65.5t-131 -22.5zM399 759q-36 0 -65 15.5t-49 42t-29 60.5l41 6q11 -35 38.5 -59t63.5 -24q37 0 64.5 24t37.5 59l41 -6
q-8 -34 -28 -60.5t-49.5 -42t-65.5 -15.5z" />
    <glyph glyph-name="gbreve" unicode="&#x11f;" horiz-adv-x="619" 
d="M299 -237q-56 0 -106 19t-82 52l20 40q30 -29 74 -46t93 -17q56 0 101 25.5t71.5 74t26.5 116.5v127h10q-10 -47 -41 -83.5t-75.5 -58.5t-94.5 -22q-74 0 -132 35t-91 95.5t-33 139.5t34 140t91 96.5t127 35.5q32 0 61.5 -8.5t55.5 -23.5t47 -35.5t35 -44.5t19 -49
l-13 -1l1 155h49v-501q0 -61 -18.5 -109.5t-52 -82t-79 -51.5t-98.5 -18zM299 38q58 0 102.5 28.5t70.5 79t26 115.5t-25.5 115t-71 79t-103.5 29q-60 0 -107 -29t-73.5 -79.5t-26.5 -115.5q0 -64 26.5 -114t74 -79t107.5 -29zM304 604q-56 0 -93 35.5t-50 96.5l41 6
q11 -45 38.5 -70t63.5 -25t64 25t38 70l41 -6q-13 -61 -50.5 -96.5t-92.5 -35.5z" />
    <glyph glyph-name="Gdotaccent" unicode="&#x120;" horiz-adv-x="766" 
d="M403 -10q-76 0 -139.5 26.5t-111 74.5t-73.5 113.5t-26 142.5q0 79 26 145t73 114.5t110.5 75.5t139.5 27q56 0 105.5 -16t90.5 -44.5t71 -66.5l-35 -35q-43 51 -102.5 81t-129.5 30q-64 0 -118 -23.5t-94 -65t-61.5 -98.5t-21.5 -124q0 -65 22.5 -121t63 -97.5
t94.5 -64.5t118 -23q61 0 109 18.5t82.5 53t52.5 80.5t18 102v19l9 -8h-267v52h312q1 -7 1 -13v-10.5v-9.5q0 -80 -22.5 -142t-64.5 -105t-101 -65.5t-131 -22.5zM399 778q-21 0 -32 12t-11 30q0 17 11 29.5t32 12.5t32 -11.5t11 -30.5q0 -17 -10.5 -29.5t-32.5 -12.5z" />
    <glyph glyph-name="gdotaccent" unicode="&#x121;" horiz-adv-x="619" 
d="M299 -237q-56 0 -106 19t-82 52l20 40q30 -29 74 -46t93 -17q56 0 101 25.5t71.5 74t26.5 116.5v127h10q-10 -47 -41 -83.5t-75.5 -58.5t-94.5 -22q-74 0 -132 35t-91 95.5t-33 139.5t34 140t91 96.5t127 35.5q32 0 61.5 -8.5t55.5 -23.5t47 -35.5t35 -44.5t19 -49
l-13 -1l1 155h49v-501q0 -61 -18.5 -109.5t-52 -82t-79 -51.5t-98.5 -18zM299 38q58 0 102.5 28.5t70.5 79t26 115.5t-25.5 115t-71 79t-103.5 29q-60 0 -107 -29t-73.5 -79.5t-26.5 -115.5q0 -64 26.5 -114t74 -79t107.5 -29zM304 655q-21 0 -32 11.5t-11 30.5t11 30t32 11
q20 0 31.5 -11t11.5 -30q0 -18 -11 -30t-32 -12z" />
    <glyph glyph-name="uni0122" unicode="&#x122;" horiz-adv-x="766" 
d="M403 -10q-76 0 -139.5 26.5t-111 74.5t-73.5 113.5t-26 142.5q0 79 26 145t73 114.5t110.5 75.5t139.5 27q56 0 105.5 -16t90.5 -44.5t71 -66.5l-35 -35q-43 51 -102.5 81t-129.5 30q-64 0 -118 -23.5t-94 -65t-61.5 -98.5t-21.5 -124q0 -65 22.5 -121t63 -97.5
t94.5 -64.5t118 -23q61 0 109 18.5t82.5 53t52.5 80.5t18 102v19l9 -8h-267v52h312q1 -7 1 -13v-10.5v-9.5q0 -80 -22.5 -142t-64.5 -105t-101 -65.5t-131 -22.5zM356 -218l-17 24q9 5 18.5 13t16 16.5t6.5 18.5q0 8 -3.5 12.5t-14.5 9.5q-13 5 -18.5 12.5t-5.5 19.5
t11.5 22.5t29.5 10.5q22 0 36.5 -16t14.5 -42q0 -16 -4.5 -29t-13.5 -25.5t-23 -24t-33 -22.5z" />
    <glyph glyph-name="uni0123" unicode="&#x123;" horiz-adv-x="619" 
d="M299 -237q-56 0 -106 19t-82 52l20 40q30 -29 74 -46t93 -17q56 0 101 25.5t71.5 74t26.5 116.5v127h10q-10 -47 -41 -83.5t-75.5 -58.5t-94.5 -22q-74 0 -132 35t-91 95.5t-33 139.5t34 140t91 96.5t127 35.5q32 0 61.5 -8.5t55.5 -23.5t47 -35.5t35 -44.5t19 -49
l-13 -1l1 155h49v-501q0 -61 -18.5 -109.5t-52 -82t-79 -51.5t-98.5 -18zM299 38q58 0 102.5 28.5t70.5 79t26 115.5t-25.5 115t-71 79t-103.5 29q-60 0 -107 -29t-73.5 -79.5t-26.5 -115.5q0 -64 26.5 -114t74 -79t107.5 -29zM309 609q-20 0 -35.5 14.5t-15.5 42.5
q0 18 6.5 32t16.5 26.5t23.5 22.5t27.5 19l16 -23q-8 -4 -17.5 -11.5t-16 -17t-6.5 -19.5q0 -8 4.5 -12.5t13.5 -9.5q11 -3 17 -10t6 -21q0 -15 -11 -24t-29 -9z" />
    <glyph glyph-name="Hcircumflex" unicode="&#x124;" horiz-adv-x="742" 
d="M584 0v700h52v-700h-52zM106 0v700h52v-700h-52zM130 323v52h478v-52h-478zM257 765l-21 20l113 89h45l112 -89l-21 -20l-123 75h19z" />
    <glyph glyph-name="hcircumflex" unicode="&#x125;" horiz-adv-x="560" 
d="M70 0v740h51v-331l-12 -6q12 35 41.5 64t71 47t86.5 18q59 0 100 -22t62.5 -68t21.5 -117v-325h-51v323q0 57 -16.5 93t-49 52.5t-79.5 15.5q-38 0 -70 -12.5t-55.5 -32.5t-36.5 -42t-13 -41v-356h-25h-12h-14zM166 805l-21 20l113 89h45l112 -89l-21 -20l-123 75h19z
" />
    <glyph glyph-name="Hbar" unicode="&#x126;" horiz-adv-x="775" 
d="M36 515v50h102l20 -3h452l16 3h113v-50h-110l-15 4h-459l-22 -4h-97zM600 0v700h53v-700h-53zM122 0v700h53v-700h-53zM147 323v52h478v-52h-478z" />
    <glyph glyph-name="hbar" unicode="&#x127;" horiz-adv-x="560" 
d="M-6 615v45h268v-45h-268zM70 0v740h51v-331l-12 -6q12 35 41.5 64t71 47t86.5 18q59 0 100 -22t62.5 -68t21.5 -117v-325h-51v323q0 57 -16.5 93t-49 52.5t-79.5 15.5q-38 0 -70 -12.5t-55.5 -32.5t-36.5 -42t-13 -41v-356h-25h-12h-14z" />
    <glyph glyph-name="Itilde" unicode="&#x128;" horiz-adv-x="418" 
d="M59 0v49h124v602h-124v49h302v-49h-125v-602h125v-49h-302zM274 779q-16 0 -34.5 6t-50.5 20q-10 5 -24.5 10.5t-27.5 5.5q-14 0 -24 -10t-10 -32h-42q0 39 23.5 61t53.5 22q23 0 43.5 -9t38.5 -17q22 -9 32.5 -12.5t17.5 -3.5q18 0 31 10.5t14 31.5h41q0 -24 -10.5 -43
t-29.5 -29.5t-42 -10.5z" />
    <glyph glyph-name="itilde" unicode="&#x129;" horiz-adv-x="191" 
d="M70 0v525h51v-525h-51zM157 627q-22 0 -39 10.5t-34 22.5q-22 17 -32 22t-18 5q-15 0 -27 -14.5t-13 -42.5l-37 6q0 37 23 63.5t56 26.5q20 0 37 -10.5t35 -23.5q10 -9 24 -18t26 -9q15 0 26 13.5t13 43.5l37 -6q0 -25 -10.5 -45.5t-28 -32t-38.5 -11.5z" />
    <glyph glyph-name="Imacron" unicode="&#x12a;" horiz-adv-x="418" 
d="M59 0v49h124v602h-124v49h302v-49h-125v-602h125v-49h-302zM62 801v40h292v-40h-292z" />
    <glyph glyph-name="imacron" unicode="&#x12b;" horiz-adv-x="191" 
d="M70 0v525h51v-525h-51zM-42 656v41h274v-41h-274z" />
    <glyph glyph-name="Ibreve" unicode="&#x12c;" horiz-adv-x="418" 
d="M59 0v49h124v602h-124v49h302v-49h-125v-602h125v-49h-302zM209 759q-36 0 -65 15.5t-49 42t-29 60.5l41 6q11 -35 38.5 -59t63.5 -24q37 0 64.5 24t37.5 59l41 -6q-8 -34 -28 -60.5t-49.5 -42t-65.5 -15.5z" />
    <glyph glyph-name="ibreve" unicode="&#x12d;" horiz-adv-x="191" 
d="M70 0v525h51v-525h-51zM95 604q-56 0 -93 35.5t-50 96.5l41 6q11 -45 38.5 -70t63.5 -25t64 25t38 70l41 -6q-13 -61 -50.5 -96.5t-92.5 -35.5z" />
    <glyph glyph-name="Iogonek" unicode="&#x12e;" horiz-adv-x="418" 
d="M59 0v49h124v602h-124v49h302v-49h-125v-602h125v-49h-302zM217 -219q-28 0 -51 13.5t-37.5 36.5t-14.5 51t12.5 52t33.5 43t49.5 32.5t59.5 20.5l19 -30q-53 -10 -90 -40.5t-37 -74.5q0 -26 17.5 -44.5t43.5 -18.5q22 0 37 10.5t25 27.5l30 -22q-12 -25 -38 -41t-59 -16
z" />
    <glyph glyph-name="iogonek" unicode="&#x12f;" horiz-adv-x="191" 
d="M70 0v525h51v-525h-51zM95 655q-21 0 -32 11.5t-11 30.5t11 30t32 11q20 0 31.5 -11t11.5 -30q0 -18 -11 -30t-32 -12zM50 -221q-28 0 -50.5 13.5t-35.5 36.5t-13 51t11.5 51t33 41.5t49.5 31.5t61 21l15 -25q-34 -8 -63 -24t-45.5 -39.5t-16.5 -53.5q0 -26 17 -44.5
t42 -18.5q21 0 35.5 10.5t23.5 27.5l29 -22q-10 -25 -35 -41t-58 -16z" />
    <glyph glyph-name="Idotaccent" unicode="&#x130;" horiz-adv-x="418" 
d="M59 0v49h124v602h-124v49h302v-49h-125v-602h125v-49h-302zM209 778q-21 0 -32 12t-11 30q0 17 11 29.5t32 12.5t32 -11.5t11 -30.5q0 -17 -10.5 -29.5t-32.5 -12.5z" />
    <glyph glyph-name="dotlessi" unicode="&#x131;" horiz-adv-x="191" 
d="M70 0v525h51v-525h-51z" />
    <glyph glyph-name="IJ" unicode="&#x132;" horiz-adv-x="1007" 
d="M59 0v49h124v602h-124v49h302v-49h-125v-602h125v-49h-302zM644 -10q-34 0 -64.5 9t-55 26t-43.5 40.5t-32 53.5l34 34q22 -40 46 -65t52.5 -36t62.5 -11q46 0 80.5 19.5t53.5 58.5t19 97v435h-128v49h287v-49h-106v-438q0 -54 -15 -95.5t-42.5 -70t-65 -43t-83.5 -14.5z
" />
    <glyph glyph-name="ij" unicode="&#x133;" horiz-adv-x="416" 
d="M87 0v525h51v-525h-51zM113 655q-21 0 -32 11.5t-11 30.5t11 30t32 11q19 0 30.5 -11t11.5 -30q0 -18 -10.5 -30t-31.5 -12zM206 -195l-19 42q61 0 87 31.5t26 85.5v561h51v-572q0 -47 -17.5 -80t-49.5 -50.5t-78 -17.5zM325 655q-20 0 -31 11.5t-11 30.5t11 30t31 11
t31 -11t11 -30q0 -18 -10.5 -30t-31.5 -12z" />
    <glyph glyph-name="Jcircumflex" unicode="&#x134;" horiz-adv-x="588" 
d="M226 -10q-34 0 -64.5 9t-55 26t-43.5 40.5t-32 53.5l34 34q22 -40 46 -65t52.5 -36t62.5 -11q46 0 80.5 19.5t53.5 58.5t19 97v435h-128v49h287v-49h-106v-438q0 -54 -15 -95.5t-42.5 -70t-65 -43t-83.5 -14.5zM285 765l-21 20l113 89h45l112 -89l-21 -20l-123 75h19z
" />
    <glyph glyph-name="jcircumflex" unicode="&#x135;" horiz-adv-x="208" 
d="M-12 -195l-20 42q62 0 88 31.5t26 85.5v561h50v-572q0 -47 -18 -80t-50 -50.5t-76 -17.5zM-6 616l-22 20l110 100h48l110 -100l-22 -20l-122 85h20z" />
    <glyph glyph-name="uni0136" unicode="&#x136;" horiz-adv-x="670" 
d="M144 226l-2 63l418 411h70zM106 0v700h52v-700h-52zM578 0l-292 388l40 34l319 -422h-67zM308 -218l-17 24q9 5 18.5 13t16 16.5t6.5 18.5q0 8 -3.5 12.5t-14.5 9.5q-13 5 -18.5 12.5t-5.5 19.5t11.5 22.5t29.5 10.5q22 0 36.5 -16t14.5 -42q0 -16 -4.5 -29t-13.5 -25.5
t-23 -24t-33 -22.5z" />
    <glyph glyph-name="uni0137" unicode="&#x137;" horiz-adv-x="508" 
d="M113 174l-2 61l293 290h71zM70 0v740h51v-740h-51zM433 0l-235 270l37 34l264 -304h-66zM226 -218l-17 24q9 6 18.5 13.5t16 16.5t6.5 19q0 7 -3.5 12t-14.5 9q-13 5 -18.5 12.5t-5.5 19.5q0 13 11.5 23t29.5 10q22 0 36.5 -15.5t14.5 -41.5q0 -16 -4.5 -29.5
t-13.5 -25.5t-23 -24t-33 -23z" />
    <glyph glyph-name="kgreenlandic" unicode="&#x138;" horiz-adv-x="508" 
d="M111 170l-2 56l294 299h63zM70 0v525h49v-525h-49zM426 0l-231 285l35 26l261 -311h-65z" />
    <glyph glyph-name="Lacute" unicode="&#x139;" horiz-adv-x="556" 
d="M106 0v700h52v-649h343v-51h-395zM75 761l-16 29l162 99l25 -45z" />
    <glyph glyph-name="lacute" unicode="&#x13a;" horiz-adv-x="221" 
d="M86 0v740h50v-740h-50zM54 801l-16 29l162 99l25 -45z" />
    <glyph glyph-name="uni013B" unicode="&#x13b;" horiz-adv-x="556" 
d="M106 0v700h52v-649h343v-51h-395zM252 -218l-17 24q9 5 18.5 13t16 16.5t6.5 18.5q0 8 -3.5 12.5t-14.5 9.5q-13 5 -18.5 12.5t-5.5 19.5t11.5 22.5t29.5 10.5q22 0 36.5 -16t14.5 -42q0 -16 -4.5 -29t-13.5 -25.5t-23 -24t-33 -22.5z" />
    <glyph glyph-name="uni013C" unicode="&#x13c;" horiz-adv-x="221" 
d="M86 0v740h50v-740h-50zM85 -218l-17 24q9 6 18.5 13.5t16 16.5t6.5 19q0 7 -3.5 12t-14.5 9q-13 5 -18.5 12.5t-5.5 19.5q0 13 11.5 23t29.5 10q22 0 36.5 -15.5t14.5 -41.5q0 -16 -4.5 -29.5t-13.5 -25.5t-23 -24t-33 -23z" />
    <glyph glyph-name="Lcaron" unicode="&#x13d;" horiz-adv-x="556" 
d="M106 0v700h52v-649h343v-51h-395zM347 542l-17 24q9 4 18.5 12t16 17.5t6.5 18.5q0 8 -3.5 12.5t-14.5 8.5q-13 5 -18.5 13t-5.5 19q0 13 11.5 23t29.5 10q22 0 36.5 -15.5t14.5 -41.5q0 -16 -4.5 -29.5t-13.5 -26t-23 -23.5t-33 -22z" />
    <glyph glyph-name="lcaron" unicode="&#x13e;" horiz-adv-x="203" 
d="M86 0v740h50v-740h-50zM212 582l-17 24q9 4 18.5 12t16 17.5t6.5 18.5q0 8 -3.5 12.5t-14.5 8.5q-13 5 -18.5 13t-5.5 19q0 13 11.5 23t29.5 10q22 0 36.5 -15.5t14.5 -41.5q0 -16 -4.5 -29.5t-13.5 -26t-23 -23.5t-33 -22z" />
    <glyph glyph-name="Ldot" unicode="&#x13f;" horiz-adv-x="556" 
d="M106 0v700h52v-649h343v-51h-395zM411 322q-21 0 -32.5 12t-11.5 35q0 20 12 33t32 13q21 0 32.5 -12t11.5 -34q0 -21 -12 -34t-32 -13z" />
    <glyph glyph-name="ldot" unicode="&#x140;" horiz-adv-x="251" 
d="M86 0v740h50v-740h-50zM226 322q-21 0 -32.5 12t-11.5 35q0 20 12 33t32 13q21 0 32.5 -12t11.5 -34q0 -21 -12 -34t-32 -13z" />
    <glyph glyph-name="Lslash" unicode="&#x141;" horiz-adv-x="560" 
d="M24 292l-16 39l275 125l16 -41zM109 0v700h52v-649h344v-51h-396z" />
    <glyph glyph-name="lslash" unicode="&#x142;" horiz-adv-x="278" 
d="M23 286l-18 42l250 112l18 -39zM125 0v740h50v-740h-50z" />
    <glyph glyph-name="Nacute" unicode="&#x143;" horiz-adv-x="753" 
d="M106 0v700h48l457 -635l-8 -4q-3 25 -5 57t-2.5 81t-0.5 123v378h52v-700h-48l-463 639l14 5q3 -35 4 -68.5t2.5 -63.5t1.5 -56.5v-48.5v-407h-52zM319 761l-16 29l162 99l25 -45z" />
    <glyph glyph-name="nacute" unicode="&#x144;" horiz-adv-x="560" 
d="M70 0v525h50l1 -116l-12 -7q11 35 40.5 64.5t71.5 47.5t87 18q59 0 100 -22t62.5 -68t21.5 -117v-325h-51v323q0 57 -16.5 93t-49 52.5t-79.5 15.5q-38 0 -70 -12.5t-55.5 -32.5t-36.5 -42t-13 -41v-356h-25h-12h-14zM240 609l-19 28l141 115l33 -42z" />
    <glyph glyph-name="uni0145" unicode="&#x145;" horiz-adv-x="753" 
d="M106 0v700h48l457 -635l-8 -4q-3 25 -5 57t-2.5 81t-0.5 123v378h52v-700h-48l-463 639l14 5q3 -35 4 -68.5t2.5 -63.5t1.5 -56.5v-48.5v-407h-52zM350 -218l-17 24q9 5 18.5 13t16 16.5t6.5 18.5q0 8 -3.5 12.5t-14.5 9.5q-13 5 -18.5 12.5t-5.5 19.5t11.5 22.5
t29.5 10.5q22 0 36.5 -16t14.5 -42q0 -16 -4.5 -29t-13.5 -25.5t-23 -24t-33 -22.5z" />
    <glyph glyph-name="uni0146" unicode="&#x146;" horiz-adv-x="560" 
d="M70 0v525h50l1 -116l-12 -7q11 35 40.5 64.5t71.5 47.5t87 18q59 0 100 -22t62.5 -68t21.5 -117v-325h-51v323q0 57 -16.5 93t-49 52.5t-79.5 15.5q-38 0 -70 -12.5t-55.5 -32.5t-36.5 -42t-13 -41v-356h-25h-12h-14zM254 -218l-17 24q9 6 18.5 13.5t16 16.5t6.5 19
q0 7 -3.5 12t-14.5 9q-13 5 -18.5 12.5t-5.5 19.5q0 13 11.5 23t29.5 10q22 0 36.5 -15.5t14.5 -41.5q0 -16 -4.5 -29.5t-13.5 -25.5t-23 -24t-33 -23z" />
    <glyph glyph-name="Ncaron" unicode="&#x147;" horiz-adv-x="753" 
d="M106 0v700h48l457 -635l-8 -4q-3 25 -5 57t-2.5 81t-0.5 123v378h52v-700h-48l-463 639l14 5q3 -35 4 -68.5t2.5 -63.5t1.5 -56.5v-48.5v-407h-52zM353 765l-112 90l22 20l124 -75h-20l124 75l22 -20l-112 -90h-48z" />
    <glyph glyph-name="ncaron" unicode="&#x148;" horiz-adv-x="560" 
d="M70 0v525h50l1 -116l-12 -7q11 35 40.5 64.5t71.5 47.5t87 18q59 0 100 -22t62.5 -68t21.5 -117v-325h-51v323q0 57 -16.5 93t-49 52.5t-79.5 15.5q-38 0 -70 -12.5t-55.5 -32.5t-36.5 -42t-13 -41v-356h-25h-12h-14zM270 616l-107 99l22 21l119 -86h-20l119 86l22 -21
l-107 -99h-48z" />
    <glyph glyph-name="napostrophe" unicode="&#x149;" horiz-adv-x="603" 
d="M-26 442l32 258h59l-58 -258h-33zM113 0v525h50l1 -116l-12 -7q11 35 40.5 64.5t71.5 47.5t87 18q59 0 100 -22t62.5 -68t21.5 -117v-325h-51v323q0 57 -16.5 93t-49 52.5t-79.5 15.5q-38 0 -70 -12.5t-55.5 -32.5t-36.5 -42t-13 -41v-356h-25h-12h-14z" />
    <glyph glyph-name="Eng" unicode="&#x14a;" horiz-adv-x="753" 
d="M499 -195l-18 42q41 0 65.5 14t36.5 40.5t12 62.5v75l9 -46l-468 646l14 5q2 -20 3.5 -55t2.5 -72t1.5 -67t0.5 -43v-407h-52v700h48l457 -635l-8 -4q-2 25 -4 57t-3 81t-1 123v378h52v-747q0 -47 -18 -80t-51 -50.5t-79 -17.5z" />
    <glyph glyph-name="eng" unicode="&#x14b;" horiz-adv-x="560" 
d="M347 -195l-19 42q61 0 87 31.5t26 85.5v359q0 57 -16.5 93t-49 52.5t-79.5 15.5q-38 0 -70 -12.5t-55.5 -32.5t-36.5 -42t-13 -41v-356h-51v525h50l1 -96q23 34 52 56.5t64 34.5t71 12q59 0 100 -22t62.5 -68t21.5 -117v-372q0 -46 -17.5 -79.5t-50 -51t-77.5 -17.5z" />
    <glyph glyph-name="Omacron" unicode="&#x14c;" horiz-adv-x="792" 
d="M396 -10q-75 0 -137.5 26.5t-109 74.5t-71.5 113.5t-25 144.5t25 145t71.5 114.5t109 75t137.5 26.5t138 -26.5t109 -75t71.5 -114.5t25.5 -144q0 -79 -25.5 -145t-71.5 -114t-109 -74.5t-138 -26.5zM396 41q64 0 117 23t92 64.5t60 97.5t21 123t-21 123.5t-60 98.5
t-92 65t-117 23q-63 0 -116 -23t-92 -65t-60 -98.5t-21 -123.5q0 -89 37.5 -158.5t102.5 -109.5t149 -40zM250 801v40h292v-40h-292z" />
    <glyph glyph-name="omacron" unicode="&#x14d;" horiz-adv-x="615" 
d="M308 -10q-78 0 -138.5 35.5t-95 97t-34.5 140.5q0 78 34.5 138.5t95 95.5t138.5 35q79 0 139 -35t94 -95.5t34 -138.5q0 -79 -34 -140.5t-94 -97t-139 -35.5zM308 38q63 0 112 29t76.5 80t27.5 116t-27.5 114.5t-76.5 78t-112 28.5t-112 -28.5t-77 -78.5t-28 -114
q0 -65 28 -116t77 -80t112 -29zM171 656v41h274v-41h-274z" />
    <glyph glyph-name="Obreve" unicode="&#x14e;" horiz-adv-x="792" 
d="M396 -10q-75 0 -137.5 26.5t-109 74.5t-71.5 113.5t-25 144.5t25 145t71.5 114.5t109 75t137.5 26.5t138 -26.5t109 -75t71.5 -114.5t25.5 -144q0 -79 -25.5 -145t-71.5 -114t-109 -74.5t-138 -26.5zM396 41q64 0 117 23t92 64.5t60 97.5t21 123t-21 123.5t-60 98.5
t-92 65t-117 23q-63 0 -116 -23t-92 -65t-60 -98.5t-21 -123.5q0 -89 37.5 -158.5t102.5 -109.5t149 -40zM396 759q-36 0 -65 15.5t-49 42t-29 60.5l41 6q11 -35 38.5 -59t63.5 -24q37 0 64.5 24t37.5 59l41 -6q-8 -34 -28 -60.5t-49.5 -42t-65.5 -15.5z" />
    <glyph glyph-name="obreve" unicode="&#x14f;" horiz-adv-x="615" 
d="M308 -10q-78 0 -138.5 35.5t-95 97t-34.5 140.5q0 78 34.5 138.5t95 95.5t138.5 35q79 0 139 -35t94 -95.5t34 -138.5q0 -79 -34 -140.5t-94 -97t-139 -35.5zM308 38q63 0 112 29t76.5 80t27.5 116t-27.5 114.5t-76.5 78t-112 28.5t-112 -28.5t-77 -78.5t-28 -114
q0 -65 28 -116t77 -80t112 -29zM308 604q-56 0 -93 35.5t-50 96.5l41 6q11 -45 38.5 -70t63.5 -25t64 25t38 70l41 -6q-13 -61 -50.5 -96.5t-92.5 -35.5z" />
    <glyph glyph-name="Ohungarumlaut" unicode="&#x150;" horiz-adv-x="792" 
d="M396 -10q-75 0 -137.5 26.5t-109 74.5t-71.5 113.5t-25 144.5t25 145t71.5 114.5t109 75t137.5 26.5t138 -26.5t109 -75t71.5 -114.5t25.5 -144q0 -79 -25.5 -145t-71.5 -114t-109 -74.5t-138 -26.5zM396 41q64 0 117 23t92 64.5t60 97.5t21 123t-21 123.5t-60 98.5
t-92 65t-117 23q-63 0 -116 -23t-92 -65t-60 -98.5t-21 -123.5q0 -89 37.5 -158.5t102.5 -109.5t149 -40zM299 758l-18 27l142 110l34 -41zM457 758l-20 27l144 110l32 -41z" />
    <glyph glyph-name="ohungarumlaut" unicode="&#x151;" horiz-adv-x="615" 
d="M308 -10q-78 0 -138.5 35.5t-95 97t-34.5 140.5q0 78 34.5 138.5t95 95.5t138.5 35q79 0 139 -35t94 -95.5t34 -138.5q0 -79 -34 -140.5t-94 -97t-139 -35.5zM308 38q63 0 112 29t76.5 80t27.5 116t-27.5 114.5t-76.5 78t-112 28.5t-112 -28.5t-77 -78.5t-28 -114
q0 -65 28 -116t77 -80t112 -29zM313 609l-18 28l140 115l33 -42zM165 609l-19 28l142 115l32 -42z" />
    <glyph glyph-name="OE" unicode="&#x152;" horiz-adv-x="1010" 
d="M378 0q-67 0 -126 26t-104 73t-70 111t-25 140q0 77 25.5 141t70 110.5t104 72.5t127.5 26h562v-51h-356v-262h299v-51h-299v-285h353v-51h-561zM107 350q0 -65 21.5 -120t59.5 -95t88 -62t107 -22h151v598h-149q-57 0 -107.5 -22t-89 -62t-60 -95t-21.5 -120z" />
    <glyph glyph-name="oe" unicode="&#x153;" horiz-adv-x="1042" 
d="M308 -10q-78 0 -138.5 35.5t-95 97t-34.5 140.5q0 78 34.5 138.5t95 95.5t138.5 35q64 0 114.5 -23t86 -64t50.5 -97l-19 -1q16 56 48.5 97.5t80 64.5t105.5 23q52 0 94.5 -17.5t74.5 -49.5t48.5 -77t15.5 -100l-1 -33h-440l2 44h412l-24 -22v33q0 53 -25 92t-66 60.5
t-90 21.5q-59 0 -104 -27t-70.5 -77t-25.5 -116q0 -62 26 -114t74.5 -82t116.5 -30q47 0 87.5 16.5t76.5 49.5l26 -37q-24 -22 -54.5 -40t-66 -27.5t-72.5 -9.5q-63 0 -114 23.5t-86 65.5t-50 98h20q-14 -56 -49.5 -98t-86.5 -65.5t-115 -23.5zM308 38q63 0 112 29t76.5 80
t27.5 116t-27.5 114.5t-76.5 78t-112 28.5t-112 -28.5t-77 -78.5t-28 -114q0 -65 28 -116t77 -80t112 -29z" />
    <glyph glyph-name="Racute" unicode="&#x154;" horiz-adv-x="639" 
d="M106 0v700h267q58 0 102.5 -26t70 -72t25.5 -106q0 -61 -25.5 -110t-70 -77t-102.5 -28h-215v-281h-52zM533 0l-177 304l55 14l185 -318h-63zM158 332h223q41 0 71.5 21t47.5 58.5t17 85.5q0 45 -18.5 79.5t-51.5 53.5t-77 19h-212v-317zM246 761l-16 29l162 99l25 -45z
" />
    <glyph glyph-name="racute" unicode="&#x155;" horiz-adv-x="343" 
d="M70 0v525h50l1 -141l-7 13q8 35 31 65.5t59 50t81 19.5q17 0 32.5 -2.5t25.5 -6.5l-14 -54q-15 5 -29.5 7.5t-26.5 2.5q-35 0 -63 -14t-48 -37.5t-30 -51t-10 -55.5v-321h-52zM152 609l-19 28l141 115l33 -42z" />
    <glyph glyph-name="uni0156" unicode="&#x156;" horiz-adv-x="639" 
d="M106 0v700h267q58 0 102.5 -26t70 -72t25.5 -106q0 -61 -25.5 -110t-70 -77t-102.5 -28h-215v-281h-52zM533 0l-177 304l55 14l185 -318h-63zM158 332h223q41 0 71.5 21t47.5 58.5t17 85.5q0 45 -18.5 79.5t-51.5 53.5t-77 19h-212v-317zM293 -218l-17 24q9 5 18.5 13
t16 16.5t6.5 18.5q0 8 -3.5 12.5t-14.5 9.5q-13 5 -18.5 12.5t-5.5 19.5t11.5 22.5t29.5 10.5q22 0 36.5 -16t14.5 -42q0 -16 -4.5 -29t-13.5 -25.5t-23 -24t-33 -22.5z" />
    <glyph glyph-name="uni0157" unicode="&#x157;" horiz-adv-x="343" 
d="M70 0v525h50l1 -141l-7 13q8 35 31 65.5t59 50t81 19.5q17 0 32.5 -2.5t25.5 -6.5l-14 -54q-15 5 -29.5 7.5t-26.5 2.5q-35 0 -63 -14t-48 -37.5t-30 -51t-10 -55.5v-321h-52zM73 -218l-17 24q9 6 18.5 13.5t16 16.5t6.5 19q0 7 -3.5 12t-14.5 9q-13 5 -18.5 12.5
t-5.5 19.5q0 13 11.5 23t29.5 10q22 0 36.5 -15.5t14.5 -41.5q0 -16 -4.5 -29.5t-13.5 -25.5t-23 -24t-33 -23z" />
    <glyph glyph-name="Rcaron" unicode="&#x158;" horiz-adv-x="639" 
d="M106 0v700h267q58 0 102.5 -26t70 -72t25.5 -106q0 -61 -25.5 -110t-70 -77t-102.5 -28h-215v-281h-52zM533 0l-177 304l55 14l185 -318h-63zM158 332h223q41 0 71.5 21t47.5 58.5t17 85.5q0 45 -18.5 79.5t-51.5 53.5t-77 19h-212v-317zM280 765l-112 90l22 20l124 -75
h-20l124 75l22 -20l-112 -90h-48z" />
    <glyph glyph-name="rcaron" unicode="&#x159;" horiz-adv-x="343" 
d="M70 0v525h50l1 -141l-7 13q8 35 31 65.5t59 50t81 19.5q17 0 32.5 -2.5t25.5 -6.5l-14 -54q-15 5 -29.5 7.5t-26.5 2.5q-35 0 -63 -14t-48 -37.5t-30 -51t-10 -55.5v-321h-52zM183 616l-107 99l22 21l119 -86h-20l119 86l22 -21l-107 -99h-48z" />
    <glyph glyph-name="Sacute" unicode="&#x15a;" horiz-adv-x="587" 
d="M306 -10q-87 0 -152.5 33t-108.5 95l38 42q42 -63 97.5 -92t131.5 -29q49 0 89 17.5t64 48t24 70.5q0 25 -9.5 44.5t-27.5 35t-44 28.5t-59 23.5t-73 20.5q-50 13 -87.5 30t-64 40.5t-39.5 54t-13 70.5q0 54 30.5 96.5t83.5 67t118 24.5q81 0 136 -28t89 -80l-37 -36
q-32 46 -77.5 70.5t-111.5 24.5q-50 0 -90.5 -17.5t-64 -48.5t-23.5 -72q0 -30 11 -52.5t33 -39.5t53.5 -30t73.5 -23q57 -14 102.5 -31.5t77.5 -40.5t49 -52.5t17 -68.5q0 -57 -30 -101t-83.5 -69t-122.5 -25zM250 761l-16 29l162 99l25 -45z" />
    <glyph glyph-name="sacute" unicode="&#x15b;" horiz-adv-x="479" 
d="M248 -10q-66 0 -120 24.5t-85 66.5l36 30q29 -35 72.5 -56t100.5 -21q33 0 57.5 8t40.5 22t23.5 33t7.5 39q0 40 -34 64q-17 13 -44 23t-64 19q-50 12 -85.5 28t-57.5 37q-17 17 -26 37.5t-9 45.5q0 42 22.5 74t63 50t93.5 18q36 0 70 -10t64 -28.5t52 -46.5l-31 -34
q-21 23 -45.5 40t-52 26t-55.5 9q-31 0 -55.5 -7t-41.5 -19.5t-25.5 -30t-8.5 -39.5q1 -15 7.5 -30t19.5 -26q16 -13 45.5 -25t70.5 -21q46 -11 79 -24.5t55 -32.5q21 -18 31 -41t10 -54q0 -45 -23 -78t-63 -51.5t-95 -18.5zM186 609l-19 28l141 115l33 -42z" />
    <glyph glyph-name="Scircumflex" unicode="&#x15c;" horiz-adv-x="587" 
d="M306 -10q-87 0 -152.5 33t-108.5 95l38 42q42 -63 97.5 -92t131.5 -29q49 0 89 17.5t64 48t24 70.5q0 25 -9.5 44.5t-27.5 35t-44 28.5t-59 23.5t-73 20.5q-50 13 -87.5 30t-64 40.5t-39.5 54t-13 70.5q0 54 30.5 96.5t83.5 67t118 24.5q81 0 136 -28t89 -80l-37 -36
q-32 46 -77.5 70.5t-111.5 24.5q-50 0 -90.5 -17.5t-64 -48.5t-23.5 -72q0 -30 11 -52.5t33 -39.5t53.5 -30t73.5 -23q57 -14 102.5 -31.5t77.5 -40.5t49 -52.5t17 -68.5q0 -57 -30 -101t-83.5 -69t-122.5 -25zM193 765l-21 20l113 89h45l112 -89l-21 -20l-123 75h19z" />
    <glyph glyph-name="scircumflex" unicode="&#x15d;" horiz-adv-x="479" 
d="M248 -10q-66 0 -120 24.5t-85 66.5l36 30q29 -35 72.5 -56t100.5 -21q33 0 57.5 8t40.5 22t23.5 33t7.5 39q0 40 -34 64q-17 13 -44 23t-64 19q-50 12 -85.5 28t-57.5 37q-17 17 -26 37.5t-9 45.5q0 42 22.5 74t63 50t93.5 18q36 0 70 -10t64 -28.5t52 -46.5l-31 -34
q-21 23 -45.5 40t-52 26t-55.5 9q-31 0 -55.5 -7t-41.5 -19.5t-25.5 -30t-8.5 -39.5q1 -15 7.5 -30t19.5 -26q16 -13 45.5 -25t70.5 -21q46 -11 79 -24.5t55 -32.5q21 -18 31 -41t10 -54q0 -45 -23 -78t-63 -51.5t-95 -18.5zM128 616l-22 20l110 100h48l110 -100l-22 -20
l-122 85h20z" />
    <glyph glyph-name="Scedilla" unicode="&#x15e;" horiz-adv-x="587" 
d="M306 -10q-87 0 -152.5 33t-108.5 95l38 42q42 -63 97.5 -92t131.5 -29q49 0 89 17.5t64 48t24 70.5q0 25 -9.5 44.5t-27.5 35t-44 28.5t-59 23.5t-73 20.5q-50 13 -87.5 30t-64 40.5t-39.5 54t-13 70.5q0 54 30.5 96.5t83.5 67t118 24.5q81 0 136 -28t89 -80l-37 -36
q-32 46 -77.5 70.5t-111.5 24.5q-50 0 -90.5 -17.5t-64 -48.5t-23.5 -72q0 -30 11 -52.5t33 -39.5t53.5 -30t73.5 -23q57 -14 102.5 -31.5t77.5 -40.5t49 -52.5t17 -68.5q0 -57 -30 -101t-83.5 -69t-122.5 -25zM233 -233l-6 29q28 4 56.5 10.5t48 20t19.5 35.5
q0 19 -16 28.5t-38.5 13.5t-42.5 4l-13 10l61 91h36l-48 -71q55 -5 80 -25t25 -52q0 -27 -15 -44t-39 -27t-52.5 -15.5t-55.5 -7.5z" />
    <glyph glyph-name="scedilla" unicode="&#x15f;" horiz-adv-x="479" 
d="M248 -10q-66 0 -120 24.5t-85 66.5l36 30q29 -35 72.5 -56t100.5 -21q33 0 57.5 8t40.5 22t23.5 33t7.5 39q0 40 -34 64q-17 13 -44 23t-64 19q-50 12 -85.5 28t-57.5 37q-17 17 -26 37.5t-9 45.5q0 42 22.5 74t63 50t93.5 18q36 0 70 -10t64 -28.5t52 -46.5l-31 -34
q-21 23 -45.5 40t-52 26t-55.5 9q-31 0 -55.5 -7t-41.5 -19.5t-25.5 -30t-8.5 -39.5q1 -15 7.5 -30t19.5 -26q16 -13 45.5 -25t70.5 -21q46 -11 79 -24.5t55 -32.5q21 -18 31 -41t10 -54q0 -45 -23 -78t-63 -51.5t-95 -18.5zM167 -233l-7 29q29 4 57.5 10.5t47.5 20t19 35.5
q0 19 -16 28.5t-38.5 13.5t-41.5 4l-13 10l60 91h36l-48 -71q55 -5 80 -25t25 -52q0 -27 -15 -44t-39 -27t-52.5 -15.5t-54.5 -7.5z" />
    <glyph glyph-name="Scaron" unicode="&#x160;" horiz-adv-x="587" 
d="M306 -10q-87 0 -152.5 33t-108.5 95l38 42q42 -63 97.5 -92t131.5 -29q49 0 89 17.5t64 48t24 70.5q0 25 -9.5 44.5t-27.5 35t-44 28.5t-59 23.5t-73 20.5q-50 13 -87.5 30t-64 40.5t-39.5 54t-13 70.5q0 54 30.5 96.5t83.5 67t118 24.5q81 0 136 -28t89 -80l-37 -36
q-32 46 -77.5 70.5t-111.5 24.5q-50 0 -90.5 -17.5t-64 -48.5t-23.5 -72q0 -30 11 -52.5t33 -39.5t53.5 -30t73.5 -23q57 -14 102.5 -31.5t77.5 -40.5t49 -52.5t17 -68.5q0 -57 -30 -101t-83.5 -69t-122.5 -25zM284 765l-112 90l22 20l124 -75h-20l124 75l22 -20l-112 -90
h-48z" />
    <glyph glyph-name="scaron" unicode="&#x161;" horiz-adv-x="479" 
d="M248 -10q-66 0 -120 24.5t-85 66.5l36 30q29 -35 72.5 -56t100.5 -21q33 0 57.5 8t40.5 22t23.5 33t7.5 39q0 40 -34 64q-17 13 -44 23t-64 19q-50 12 -85.5 28t-57.5 37q-17 17 -26 37.5t-9 45.5q0 42 22.5 74t63 50t93.5 18q36 0 70 -10t64 -28.5t52 -46.5l-31 -34
q-21 23 -45.5 40t-52 26t-55.5 9q-31 0 -55.5 -7t-41.5 -19.5t-25.5 -30t-8.5 -39.5q1 -15 7.5 -30t19.5 -26q16 -13 45.5 -25t70.5 -21q46 -11 79 -24.5t55 -32.5q21 -18 31 -41t10 -54q0 -45 -23 -78t-63 -51.5t-95 -18.5zM216 616l-107 99l22 21l119 -86h-20l119 86
l22 -21l-107 -99h-48z" />
    <glyph glyph-name="uni0162" unicode="&#x162;" horiz-adv-x="519" 
d="M233 0v649h-208v51h469v-51h-209v-649h-52zM177 -233l-6 29q28 4 56.5 10.5t48 20t19.5 35.5q0 19 -16 28.5t-38.5 13.5t-42.5 4l-13 10l61 91h36l-48 -71q55 -5 80 -25t25 -52q0 -27 -15 -44t-39 -27t-52.5 -15.5t-55.5 -7.5z" />
    <glyph glyph-name="uni0163" unicode="&#x163;" horiz-adv-x="362" 
d="M154 0v659h51v-659h-51zM23 476v49h322v-49h-322zM99 -233l-7 29q29 4 57.5 10.5t47.5 20t19 35.5q0 19 -16 28.5t-38.5 13.5t-41.5 4l-13 10l60 91h36l-48 -71q55 -5 80 -25t25 -52q0 -27 -15 -44t-39 -27t-52.5 -15.5t-54.5 -7.5z" />
    <glyph glyph-name="Tcaron" unicode="&#x164;" horiz-adv-x="519" 
d="M233 0v649h-208v51h469v-51h-209v-649h-52zM235 765l-112 90l22 20l124 -75h-20l124 75l22 -20l-112 -90h-48z" />
    <glyph glyph-name="tcaron" unicode="&#x165;" horiz-adv-x="362" 
d="M154 0v659h51v-659h-51zM23 476v49h322v-49h-322zM289 599l-17 24q9 4 18.5 12t16 17.5t6.5 18.5q0 8 -3.5 12.5t-14.5 8.5q-13 5 -18.5 13t-5.5 19q0 13 11.5 23t29.5 10q22 0 36.5 -15.5t14.5 -41.5q0 -16 -4.5 -29.5t-13.5 -26t-23 -23.5t-33 -22z" />
    <glyph glyph-name="Tbar" unicode="&#x166;" horiz-adv-x="519" 
d="M124 328v46h268v-46h-268zM233 0v649h-208v51h469v-51h-209v-649h-52z" />
    <glyph glyph-name="tbar" unicode="&#x167;" horiz-adv-x="362" 
d="M47 240v45h268v-45h-268zM154 0v659h51v-659h-51zM23 476v49h322v-49h-322z" />
    <glyph glyph-name="Utilde" unicode="&#x168;" horiz-adv-x="743" 
d="M368 -6q-76 0 -136.5 35.5t-95 97.5t-34.5 142v431h52v-422q0 -67 27.5 -119.5t76.5 -83t110 -30.5q65 0 115 30.5t78.5 83t28.5 119.5v422h50v-431q0 -80 -35 -142t-96 -97.5t-141 -35.5zM437 779q-16 0 -34.5 6t-50.5 20q-10 5 -24.5 10.5t-27.5 5.5q-14 0 -24 -10
t-10 -32h-42q0 39 23.5 61t53.5 22q23 0 43.5 -9t38.5 -17q22 -9 32.5 -12.5t17.5 -3.5q18 0 31 10.5t14 31.5h41q0 -24 -10.5 -43t-29.5 -29.5t-42 -10.5z" />
    <glyph glyph-name="utilde" unicode="&#x169;" horiz-adv-x="562" 
d="M261 -10q-59 0 -101 23t-64.5 69t-22.5 116v327h51v-316q0 -88 40 -130.5t113 -42.5q34 0 63 13.5t51.5 33.5t35 43.5t12.5 43.5v355h51v-525h-49l-2 118l12 5q-12 -36 -40 -66.5t-66.5 -48.5t-83.5 -18zM343 627q-22 0 -39 10.5t-34 22.5q-22 17 -32 22t-18 5
q-15 0 -27 -14.5t-13 -42.5l-37 6q0 37 23 63.5t56 26.5q20 0 37 -10.5t35 -23.5q10 -9 24 -18t26 -9q15 0 26 13.5t13 43.5l37 -6q0 -25 -10.5 -45.5t-28 -32t-38.5 -11.5z" />
    <glyph glyph-name="Umacron" unicode="&#x16a;" horiz-adv-x="743" 
d="M368 -6q-76 0 -136.5 35.5t-95 97.5t-34.5 142v431h52v-422q0 -67 27.5 -119.5t76.5 -83t110 -30.5q65 0 115 30.5t78.5 83t28.5 119.5v422h50v-431q0 -80 -35 -142t-96 -97.5t-141 -35.5zM225 801v40h292v-40h-292z" />
    <glyph glyph-name="umacron" unicode="&#x16b;" horiz-adv-x="562" 
d="M261 -10q-59 0 -101 23t-64.5 69t-22.5 116v327h51v-316q0 -88 40 -130.5t113 -42.5q34 0 63 13.5t51.5 33.5t35 43.5t12.5 43.5v355h51v-525h-49l-2 118l12 5q-12 -36 -40 -66.5t-66.5 -48.5t-83.5 -18zM144 656v41h274v-41h-274z" />
    <glyph glyph-name="Ubreve" unicode="&#x16c;" horiz-adv-x="743" 
d="M368 -6q-76 0 -136.5 35.5t-95 97.5t-34.5 142v431h52v-422q0 -67 27.5 -119.5t76.5 -83t110 -30.5q65 0 115 30.5t78.5 83t28.5 119.5v422h50v-431q0 -80 -35 -142t-96 -97.5t-141 -35.5zM372 759q-36 0 -65 15.5t-49 42t-29 60.5l41 6q11 -35 38.5 -59t63.5 -24
q37 0 64.5 24t37.5 59l41 -6q-8 -34 -28 -60.5t-49.5 -42t-65.5 -15.5z" />
    <glyph glyph-name="ubreve" unicode="&#x16d;" horiz-adv-x="562" 
d="M261 -10q-59 0 -101 23t-64.5 69t-22.5 116v327h51v-316q0 -88 40 -130.5t113 -42.5q34 0 63 13.5t51.5 33.5t35 43.5t12.5 43.5v355h51v-525h-49l-2 118l12 5q-12 -36 -40 -66.5t-66.5 -48.5t-83.5 -18zM281 604q-56 0 -93 35.5t-50 96.5l41 6q11 -45 38.5 -70t63.5 -25
t64 25t38 70l41 -6q-13 -61 -50.5 -96.5t-92.5 -35.5z" />
    <glyph glyph-name="Uring" unicode="&#x16e;" horiz-adv-x="743" 
d="M368 -6q-76 0 -136.5 35.5t-95 97.5t-34.5 142v431h52v-422q0 -67 27.5 -119.5t76.5 -83t110 -30.5q65 0 115 30.5t78.5 83t28.5 119.5v422h50v-431q0 -80 -35 -142t-96 -97.5t-141 -35.5zM371 686q-25 0 -47.5 12.5t-36.5 34t-14 46.5q0 27 13.5 48.5t36 35t48.5 13.5
t48.5 -13.5t36 -35t13.5 -48.5q0 -25 -13.5 -46.5t-36 -34t-48.5 -12.5zM371 719q27 0 45.5 18t18.5 42q0 30 -18.5 46.5t-45.5 16.5t-44.5 -17.5t-17.5 -45.5q0 -24 18 -42t44 -18z" />
    <glyph glyph-name="uring" unicode="&#x16f;" horiz-adv-x="562" 
d="M261 -10q-59 0 -101 23t-64.5 69t-22.5 116v327h51v-316q0 -88 40 -130.5t113 -42.5q34 0 63 13.5t51.5 33.5t35 43.5t12.5 43.5v355h51v-525h-49l-2 118l12 5q-12 -36 -40 -66.5t-66.5 -48.5t-83.5 -18zM281 597q-25 0 -47.5 13t-36.5 35t-14 47q0 26 13.5 47.5t36 34.5
t48.5 13q27 0 49.5 -13t35.5 -34.5t13 -47.5q0 -25 -13.5 -46.5t-35.5 -35t-49 -13.5zM281 631q27 0 45.5 18.5t18.5 42.5q0 28 -18.5 44.5t-45.5 16.5t-44.5 -17t-17.5 -44q0 -24 18 -42.5t44 -18.5z" />
    <glyph glyph-name="Uhungarumlaut" unicode="&#x170;" horiz-adv-x="743" 
d="M368 -6q-76 0 -136.5 35.5t-95 97.5t-34.5 142v431h52v-422q0 -67 27.5 -119.5t76.5 -83t110 -30.5q65 0 115 30.5t78.5 83t28.5 119.5v422h50v-431q0 -80 -35 -142t-96 -97.5t-141 -35.5zM274 758l-18 27l142 110l34 -41zM432 758l-20 27l144 110l32 -41z" />
    <glyph glyph-name="uhungarumlaut" unicode="&#x171;" horiz-adv-x="562" 
d="M261 -10q-59 0 -101 23t-64.5 69t-22.5 116v327h51v-316q0 -88 40 -130.5t113 -42.5q34 0 63 13.5t51.5 33.5t35 43.5t12.5 43.5v355h51v-525h-49l-2 118l12 5q-12 -36 -40 -66.5t-66.5 -48.5t-83.5 -18zM287 609l-18 28l140 115l33 -42zM139 609l-19 28l142 115l32 -42z
" />
    <glyph glyph-name="Uogonek" unicode="&#x172;" horiz-adv-x="743" 
d="M450 -223q-43 0 -73 28.5t-30 74.5q0 32 12.5 58t35 48t50 41t57.5 36l17 -28q-29 -17 -51.5 -34t-39 -35.5t-26 -38t-9.5 -41.5q0 -30 18 -49t45 -19q21 0 36.5 10.5t24.5 27.5l30 -23q-11 -24 -37.5 -40t-59.5 -16zM368 -6q-76 0 -136.5 35.5t-95 97.5t-34.5 142v431
h52v-422q0 -67 27.5 -119.5t76.5 -83t110 -30.5q65 0 115 30.5t78.5 83t28.5 119.5v422h50v-431q0 -80 -35 -142t-96 -97.5t-141 -35.5z" />
    <glyph glyph-name="uogonek" unicode="&#x173;" horiz-adv-x="562" 
d="M261 -10q-59 0 -101 23t-64.5 69t-22.5 116v327h51v-316q0 -88 40 -130.5t113 -42.5q34 0 63 13.5t51.5 33.5t35 43.5t12.5 43.5v355h51v-525h-49l-2 118l12 5q-12 -36 -40 -66.5t-66.5 -48.5t-83.5 -18zM419 -221q-28 0 -50.5 13.5t-35.5 36.5t-13 51t11.5 51t33 41.5
t49.5 31.5t61 21l15 -25q-34 -8 -63 -24t-45.5 -39.5t-16.5 -53.5q0 -26 17 -44.5t42 -18.5q21 0 35.5 10.5t23.5 27.5l29 -22q-10 -25 -35 -41t-58 -16z" />
    <glyph glyph-name="Wcircumflex" unicode="&#x174;" horiz-adv-x="901" 
d="M227 0l-206 700h56l140 -483q10 -34 16.5 -60.5t13 -52t15.5 -56.5h-18q18 51 29 82.5t19 53t15 39.5l122 317h44l120 -317q7 -15 13.5 -34.5t18 -51t32.5 -85.5l-18 -3q8 30 12 47t7 27.5t5.5 20.5t7 27t13.5 48l139 481h56l-205 -700h-43l-190 478l16 -2l-188 -476h-42
zM337 765l-21 20l113 89h45l112 -89l-21 -20l-123 75h19z" />
    <glyph glyph-name="wcircumflex" unicode="&#x175;" horiz-adv-x="763" 
d="M200 0l-183 525h52l160 -462h-18l155 381h31l156 -381h-19l159 462h52l-182 -525h-34l-158 391l18 -1l-155 -390h-34zM270 616l-22 20l110 100h48l110 -100l-22 -20l-122 85h20z" />
    <glyph glyph-name="Ycircumflex" unicode="&#x176;" horiz-adv-x="616" 
d="M288 0v342l8 -42l-279 400h62l244 -351l-16 2l233 349h59l-270 -403l11 48v-345h-52zM194 765l-21 20l113 89h45l112 -89l-21 -20l-123 75h19z" />
    <glyph glyph-name="ycircumflex" unicode="&#x177;" horiz-adv-x="530" 
d="M158 -230l99 241l3 -39l-248 553h58l195 -439q7 -14 11 -25t7 -21l-15 -5q6 14 11.5 28.5t10.5 28.5l169 433h59l-217 -533l-87 -222h-56zM153 616l-22 20l110 100h48l110 -100l-22 -20l-122 85h20z" />
    <glyph glyph-name="Ydieresis" unicode="&#x178;" horiz-adv-x="616" 
d="M288 0v342l8 -42l-279 400h62l244 -351l-16 2l233 349h59l-270 -403l11 48v-345h-52zM393 779q-20 0 -31 11.5t-11 29.5q0 16 11 28t31 12q22 0 32 -10.5t10 -29.5q0 -16 -10 -28.5t-32 -12.5zM223 779q-19 0 -30.5 11.5t-11.5 29.5q0 16 11 28t31 12q22 0 32 -10.5
t10 -29.5q0 -16 -10 -28.5t-32 -12.5z" />
    <glyph glyph-name="Zacute" unicode="&#x179;" horiz-adv-x="643" 
d="M60 0v43l455 621l13 -15h-442v51h488v-42l-454 -621l-8 14h473v-51h-525zM264 761l-16 29l162 99l25 -45z" />
    <glyph glyph-name="zacute" unicode="&#x17a;" horiz-adv-x="449" 
d="M40 0v47l307 448l-2 -16h-305v46h354v-48l-302 -441l-4 10h321v-46h-369zM169 609l-19 28l141 115l33 -42z" />
    <glyph glyph-name="Zdotaccent" unicode="&#x17b;" horiz-adv-x="643" 
d="M60 0v43l455 621l13 -15h-442v51h488v-42l-454 -621l-8 14h473v-51h-525zM322 778q-21 0 -32 12t-11 30q0 17 11 29.5t32 12.5t32 -11.5t11 -30.5q0 -17 -10.5 -29.5t-32.5 -12.5z" />
    <glyph glyph-name="zdotaccent" unicode="&#x17c;" horiz-adv-x="449" 
d="M40 0v47l307 448l-2 -16h-305v46h354v-48l-302 -441l-4 10h321v-46h-369zM225 655q-21 0 -32 11.5t-11 30.5t11 30t32 11q20 0 31.5 -11t11.5 -30q0 -18 -11 -30t-32 -12z" />
    <glyph glyph-name="Zcaron" unicode="&#x17d;" horiz-adv-x="643" 
d="M60 0v43l455 621l13 -15h-442v51h488v-42l-454 -621l-8 14h473v-51h-525zM298 765l-112 90l22 20l124 -75h-20l124 75l22 -20l-112 -90h-48z" />
    <glyph glyph-name="zcaron" unicode="&#x17e;" horiz-adv-x="449" 
d="M40 0v47l307 448l-2 -16h-305v46h354v-48l-302 -441l-4 10h321v-46h-369zM201 616l-107 99l22 21l119 -86h-20l119 86l22 -21l-107 -99h-48z" />
    <glyph glyph-name="uni018F" unicode="&#x18f;" horiz-adv-x="789" 
d="M393 -10q-72 0 -134 26.5t-108 74t-72 111t-26 137.5v36h660l3 -49h-612q3 -60 25 -112t60.5 -91.5t90.5 -61.5t114 -22q63 0 116.5 23t92.5 64.5t61 98t22 124.5q0 91 -40 161.5t-110 110.5t-160 40q-65 0 -120 -23.5t-98 -64.5l-34 35q32 31 72 54t85.5 35.5t95.5 12.5
q76 0 141.5 -27.5t114.5 -77t76.5 -116t27.5 -143.5t-26 -142t-73 -113t-109.5 -74.5t-135.5 -26.5z" />
    <glyph glyph-name="florin" unicode="&#x192;" horiz-adv-x="519" 
d="M96 -30q-26 0 -50 9t-42 23l16 37q22 -15 38.5 -20t38.5 -5q25 0 42 13.5t27 36t14 46.5l77 429q14 77 49 115.5t98 38.5q32 0 59.5 -9t52.5 -26l-17 -35q-24 13 -46 19.5t-46 6.5q-42 0 -67 -30t-36 -93l-71 -406q-13 -76 -46.5 -113t-90.5 -37zM77 401v43h369v-43h-369
z" />
    <glyph glyph-name="uni019D" unicode="&#x19d;" horiz-adv-x="747" 
d="M6 -195l-20 42q62 0 88 31.5t26 85.5v736h49l456 -635l-7 -4q-3 25 -5.5 57t-3.5 81t-1 123v378h52v-700h-46l-464 639l14 5q2 -21 3.5 -55.5t2.5 -71.5t1.5 -67t0.5 -43v-454q0 -47 -17.5 -80t-50 -50.5t-78.5 -17.5z" />
    <glyph glyph-name="Ohorn" unicode="&#x1a0;" horiz-adv-x="792" 
d="M396 -10q-75 0 -137.5 26.5t-109 74.5t-71.5 113.5t-25 144.5t25 145t71.5 114.5t109 75t137.5 26.5q22 0 40.5 -2t36.5 -5q17 -4 32.5 -5.5t28.5 -1.5q49 0 74.5 26.5t25.5 81.5h47q0 -46 -15.5 -78.5t-47.5 -49.5t-81 -16l10 15q59 -27 102 -74.5t67 -111.5t24 -140
q0 -78 -25.5 -144t-71.5 -114t-109 -74.5t-138 -26.5zM396 41q64 0 117 23t92 64.5t60 97.5t21 123t-21 123.5t-60 98.5t-92 65t-117 23q-63 0 -116 -23t-92 -65t-60 -98.5t-21 -123.5q0 -89 37.5 -158.5t102.5 -109.5t149 -40z" />
    <glyph glyph-name="ohorn" unicode="&#x1a1;" horiz-adv-x="615" 
d="M308 -10q-78 0 -138.5 35.5t-95 97t-34.5 140.5q0 78 34.5 138.5t95 95.5t138.5 35q20 0 38 -2.5t34 -5.5q11 -2 22 -3.5t20 -1.5q43 0 66.5 28.5t23.5 81.5h43q0 -42 -15 -74.5t-43.5 -51t-70.5 -17.5l7 16q66 -31 104 -93.5t38 -145.5q0 -79 -34 -140.5t-94 -97
t-139 -35.5zM308 38q63 0 112 29t76.5 80t27.5 116t-27.5 114.5t-76.5 78t-112 28.5t-112 -28.5t-77 -78.5t-28 -114q0 -65 28 -116t77 -80t112 -29z" />
    <glyph glyph-name="Uhorn" unicode="&#x1af;" horiz-adv-x="743" 
d="M368 -6q-76 0 -136.5 35.5t-95 97.5t-34.5 142v431h52v-422q0 -67 27.5 -119.5t76.5 -83t110 -30.5q65 0 115 30.5t78.5 83t28.5 119.5v422h19q49 0 74 27t25 77h46q0 -44 -15 -75.5t-44.5 -49t-74.5 -20.5l20 27v-417q0 -80 -35 -142t-96 -97.5t-141 -35.5z" />
    <glyph glyph-name="uhorn" unicode="&#x1b0;" horiz-adv-x="562" 
d="M261 -10q-59 0 -101 23t-64.5 69t-22.5 116v327h51v-316q0 -88 40 -130.5t113 -42.5q34 0 63 13.5t51.5 33.5t35 43.5t12.5 43.5v355q36 0 56.5 11t30 34t9.5 59h42q0 -39 -11 -68.5t-34.5 -46.5t-63.5 -21l22 27v-520h-49l-2 126l12 -5q-12 -36 -40 -66t-66.5 -47.5
t-83.5 -17.5z" />
    <glyph glyph-name="uni01C4" unicode="&#x1c4;" horiz-adv-x="1338" 
d="M106 0v700h256q68 0 127.5 -26t104 -72.5t69.5 -110.5t25 -141q0 -76 -25 -140t-69.5 -111t-104 -73t-127.5 -26h-256zM158 42l-7 9h206q58 0 108.5 22t88.5 62t59.5 95t21.5 120t-21.5 120t-59.5 95t-88.5 62t-108.5 22h-208l9 10v-617zM755 0v43l455 621l13 -15h-442
v51h488v-42l-454 -621l-8 14h473v-51h-525zM994 765l-112 90l22 20l124 -75h-20l124 75l22 -20l-112 -90h-48z" />
    <glyph glyph-name="uni01C5" unicode="&#x1c5;" horiz-adv-x="1188" 
d="M106 0v700h256q68 0 127.5 -26t104 -72.5t69.5 -110.5t25 -141q0 -76 -25 -140t-69.5 -111t-104 -73t-127.5 -26h-256zM158 42l-7 9h206q58 0 108.5 22t88.5 62t59.5 95t21.5 120t-21.5 120t-59.5 95t-88.5 62t-108.5 22h-208l9 10v-617zM779 0v47l307 448l-2 -16h-305
v46h354v-48l-302 -441l-4 10h321v-46h-369zM941 616l-107 99l22 21l119 -86h-20l119 86l22 -21l-107 -99h-48z" />
    <glyph glyph-name="uni01C6" unicode="&#x1c6;" horiz-adv-x="1063" 
d="M293 -10q-73 0 -130 35t-90 95.5t-33 139.5t33.5 140t90 96.5t126.5 35.5q40 0 76.5 -13.5t67 -36.5t50 -53.5t23.5 -63.5l-14 1v374h51v-740h-51v155l12 3q-5 -35 -24.5 -65.5t-48 -53t-64.5 -36t-75 -13.5zM297 36q57 0 101.5 28.5t70.5 79.5t26 117t-26 117t-70.5 80
t-102.5 29q-60 0 -106.5 -29.5t-72.5 -81t-26 -116.5q0 -64 26 -115t72.5 -80t107.5 -29zM655 0v47l307 448l-2 -16h-305v46h354v-48l-302 -441l-4 10h321v-46h-369zM816 616l-107 99l22 21l119 -86h-20l119 86l22 -21l-107 -99h-48z" />
    <glyph glyph-name="uni01C7" unicode="&#x1c7;" horiz-adv-x="1145" 
d="M106 0v700h52v-649h343v-51h-395zM783 -10q-34 0 -64.5 9t-55 26t-43.5 40.5t-32 53.5l34 34q22 -40 46 -65t52.5 -36t62.5 -11q46 0 80.5 19.5t53.5 58.5t19 97v435h-128v49h287v-49h-106v-438q0 -54 -15 -95.5t-42.5 -70t-65 -43t-83.5 -14.5z" />
    <glyph glyph-name="uni01C8" unicode="&#x1c8;" horiz-adv-x="747" 
d="M106 0v700h52v-649h343v-51h-395zM538 -195l-19 42q61 0 87 31.5t26 85.5v561h51v-572q0 -47 -17.5 -80t-49.5 -50.5t-78 -17.5zM657 655q-20 0 -31 11.5t-11 30.5t11 30t31 11t31 -11t11 -30q0 -18 -10.5 -30t-31.5 -12z" />
    <glyph glyph-name="uni01C9" unicode="&#x1c9;" horiz-adv-x="398" 
d="M86 0v740h50v-740h-50zM188 -195l-19 42q61 0 87 31.5t26 85.5v561h51v-572q0 -47 -17.5 -80t-49.5 -50.5t-78 -17.5zM307 655q-20 0 -31 11.5t-11 30.5t11 30t31 11t31 -11t11 -30q0 -18 -10.5 -30t-31.5 -12z" />
    <glyph glyph-name="uni01CA" unicode="&#x1ca;" horiz-adv-x="1341" 
d="M106 0v700h48l457 -635l-8 -4q-3 25 -5 57t-2.5 81t-0.5 123v378h52v-700h-48l-463 639l14 5q3 -35 4 -68.5t2.5 -63.5t1.5 -56.5v-48.5v-407h-52zM979 -10q-34 0 -64.5 9t-55 26t-43.5 40.5t-32 53.5l34 34q22 -40 46 -65t52.5 -36t62.5 -11q46 0 80.5 19.5t53.5 58.5
t19 97v435h-128v49h287v-49h-106v-438q0 -54 -15 -95.5t-42.5 -70t-65 -43t-83.5 -14.5z" />
    <glyph glyph-name="uni01CB" unicode="&#x1cb;" horiz-adv-x="943" 
d="M106 0v700h48l457 -635l-8 -4q-3 25 -5 57t-2.5 81t-0.5 123v378h52v-700h-48l-463 639l14 5q3 -35 4 -68.5t2.5 -63.5t1.5 -56.5v-48.5v-407h-52zM734 -195l-19 42q61 0 87 31.5t26 85.5v561h51v-572q0 -47 -17.5 -80t-49.5 -50.5t-78 -17.5zM853 655q-20 0 -31 11.5
t-11 30.5t11 30t31 11t31 -11t11 -30q0 -18 -10.5 -30t-31.5 -12z" />
    <glyph glyph-name="uni01CC" unicode="&#x1cc;" horiz-adv-x="750" 
d="M70 0v525h50l1 -116l-12 -7q11 35 40.5 64.5t71.5 47.5t87 18q59 0 100 -22t62.5 -68t21.5 -117v-325h-51v323q0 57 -16.5 93t-49 52.5t-79.5 15.5q-38 0 -70 -12.5t-55.5 -32.5t-36.5 -42t-13 -41v-356h-25h-12h-14zM541 -195l-19 42q61 0 87 31.5t26 85.5v561h51v-572
q0 -47 -17.5 -80t-49.5 -50.5t-78 -17.5zM660 655q-20 0 -31 11.5t-11 30.5t11 30t31 11t31 -11t11 -30q0 -18 -10.5 -30t-31.5 -12z" />
    <glyph glyph-name="uni01CD" unicode="&#x1cd;" horiz-adv-x="643" 
d="M22 0l269 700h61l269 -700h-58l-181 475q-3 7 -10.5 29.5t-18.5 52l-22 59t-19 50.5l15 -1q-6 -18 -15.5 -45t-20.5 -56t-20 -53.5t-14 -37.5l-179 -473h-56zM129 210l19 52h343l22 -52h-384zM297 765l-112 90l22 20l124 -75h-20l124 75l22 -20l-112 -90h-48z" />
    <glyph glyph-name="uni01CE" unicode="&#x1ce;" horiz-adv-x="536" 
d="M422 0v358q0 58 -40.5 92t-110.5 34q-52 0 -96 -22t-77 -64l-34 34q41 50 94.5 75t116.5 25q60 0 103.5 -19.5t66.5 -57.5t23 -91v-364h-46zM221 -10q-51 0 -91 20t-63.5 55.5t-23.5 83.5q0 36 13.5 64.5t40.5 47t68 28.5t95 10h184l-4 -44h-189q-39 0 -68 -7t-50 -20.5
t-31.5 -33t-10.5 -45.5q0 -33 18 -59t47.5 -40t65.5 -14q46 0 85.5 16t71 44.5t50.5 66.5l17 -31q-23 -41 -57 -73t-77 -50.5t-91 -18.5zM245 616l-107 99l22 21l119 -86h-20l119 86l22 -21l-107 -99h-48z" />
    <glyph glyph-name="uni01CF" unicode="&#x1cf;" horiz-adv-x="418" 
d="M59 0v49h124v602h-124v49h302v-49h-125v-602h125v-49h-302zM185 765l-112 90l22 20l124 -75h-20l124 75l22 -20l-112 -90h-48z" />
    <glyph glyph-name="uni01D0" unicode="&#x1d0;" horiz-adv-x="191" 
d="M70 0v525h51v-525h-51zM71 616l-107 99l22 21l119 -86h-20l119 86l22 -21l-107 -99h-48z" />
    <glyph glyph-name="uni01D1" unicode="&#x1d1;" horiz-adv-x="792" 
d="M396 -10q-75 0 -137.5 26.5t-109 74.5t-71.5 113.5t-25 144.5t25 145t71.5 114.5t109 75t137.5 26.5t138 -26.5t109 -75t71.5 -114.5t25.5 -144q0 -79 -25.5 -145t-71.5 -114t-109 -74.5t-138 -26.5zM396 41q64 0 117 23t92 64.5t60 97.5t21 123t-21 123.5t-60 98.5
t-92 65t-117 23q-63 0 -116 -23t-92 -65t-60 -98.5t-21 -123.5q0 -89 37.5 -158.5t102.5 -109.5t149 -40zM372 765l-112 90l22 20l124 -75h-20l124 75l22 -20l-112 -90h-48z" />
    <glyph glyph-name="uni01D2" unicode="&#x1d2;" horiz-adv-x="615" 
d="M308 -10q-78 0 -138.5 35.5t-95 97t-34.5 140.5q0 78 34.5 138.5t95 95.5t138.5 35q79 0 139 -35t94 -95.5t34 -138.5q0 -79 -34 -140.5t-94 -97t-139 -35.5zM308 38q63 0 112 29t76.5 80t27.5 116t-27.5 114.5t-76.5 78t-112 28.5t-112 -28.5t-77 -78.5t-28 -114
q0 -65 28 -116t77 -80t112 -29zM284 616l-107 99l22 21l119 -86h-20l119 86l22 -21l-107 -99h-48z" />
    <glyph glyph-name="uni01D3" unicode="&#x1d3;" horiz-adv-x="743" 
d="M368 -6q-76 0 -136.5 35.5t-95 97.5t-34.5 142v431h52v-422q0 -67 27.5 -119.5t76.5 -83t110 -30.5q65 0 115 30.5t78.5 83t28.5 119.5v422h50v-431q0 -80 -35 -142t-96 -97.5t-141 -35.5zM348 765l-112 90l22 20l124 -75h-20l124 75l22 -20l-112 -90h-48z" />
    <glyph glyph-name="uni01D4" unicode="&#x1d4;" horiz-adv-x="562" 
d="M261 -10q-59 0 -101 23t-64.5 69t-22.5 116v327h51v-316q0 -88 40 -130.5t113 -42.5q34 0 63 13.5t51.5 33.5t35 43.5t12.5 43.5v355h51v-525h-49l-2 118l12 5q-12 -36 -40 -66.5t-66.5 -48.5t-83.5 -18zM257 616l-107 99l22 21l119 -86h-20l119 86l22 -21l-107 -99h-48z
" />
    <glyph glyph-name="Gcaron" unicode="&#x1e6;" horiz-adv-x="766" 
d="M403 -10q-76 0 -139.5 26.5t-111 74.5t-73.5 113.5t-26 142.5q0 79 26 145t73 114.5t110.5 75.5t139.5 27q56 0 105.5 -16t90.5 -44.5t71 -66.5l-35 -35q-43 51 -102.5 81t-129.5 30q-64 0 -118 -23.5t-94 -65t-61.5 -98.5t-21.5 -124q0 -65 22.5 -121t63 -97.5
t94.5 -64.5t118 -23q61 0 109 18.5t82.5 53t52.5 80.5t18 102v19l9 -8h-267v52h312q1 -7 1 -13v-10.5v-9.5q0 -80 -22.5 -142t-64.5 -105t-101 -65.5t-131 -22.5zM375 765l-112 90l22 20l124 -75h-20l124 75l22 -20l-112 -90h-48z" />
    <glyph glyph-name="gcaron" unicode="&#x1e7;" horiz-adv-x="619" 
d="M299 -237q-56 0 -106 19t-82 52l20 40q30 -29 74 -46t93 -17q56 0 101 25.5t71.5 74t26.5 116.5v127h10q-10 -47 -41 -83.5t-75.5 -58.5t-94.5 -22q-74 0 -132 35t-91 95.5t-33 139.5t34 140t91 96.5t127 35.5q32 0 61.5 -8.5t55.5 -23.5t47 -35.5t35 -44.5t19 -49
l-13 -1l1 155h49v-501q0 -61 -18.5 -109.5t-52 -82t-79 -51.5t-98.5 -18zM299 38q58 0 102.5 28.5t70.5 79t26 115.5t-25.5 115t-71 79t-103.5 29q-60 0 -107 -29t-73.5 -79.5t-26.5 -115.5q0 -64 26.5 -114t74 -79t107.5 -29zM280 616l-107 99l22 21l119 -86h-20l119 86
l22 -21l-107 -99h-48z" />
    <glyph glyph-name="uni01EA" unicode="&#x1ea;" horiz-adv-x="792" 
d="M502 -223q-43 0 -73.5 28.5t-30.5 74.5q0 32 13.5 58t35 48t49.5 41t58 36l17 -28q-28 -17 -51.5 -34t-40 -35.5t-25.5 -38t-9 -41.5q0 -30 17.5 -49t44.5 -19q22 0 37 10.5t25 27.5l29 -23q-11 -24 -37.5 -40t-58.5 -16zM396 -10q-75 0 -137.5 26.5t-109 74.5
t-71.5 113.5t-25 144.5t25 145t71.5 114.5t109 75t137.5 26.5t138 -26.5t109 -75t71.5 -114.5t25.5 -145q0 -78 -25.5 -144t-71.5 -114t-109 -74.5t-138 -26.5zM396 41q64 0 117 23t92 64.5t60 97.5t21 123t-21 123.5t-60 98.5t-92 65t-117 23q-63 0 -116 -23t-92 -65
t-60 -98.5t-21 -123.5q0 -89 37.5 -158.5t102.5 -109.5t149 -40z" />
    <glyph glyph-name="uni01EB" unicode="&#x1eb;" horiz-adv-x="615" 
d="M408 -220q-43 0 -71.5 29t-28.5 72q0 41 21 74t55.5 59.5t73.5 48.5l7 -25q-50 -33 -80 -70t-30 -79q0 -29 16.5 -49t42.5 -20q19 0 34 10.5t25 28.5l29 -23q-12 -24 -37.5 -40t-56.5 -16zM308 -10q-78 0 -138.5 35.5t-95 97t-34.5 140.5q0 78 34.5 138.5t95 95.5
t138.5 35q79 0 139 -35t94 -95.5t34 -138.5q0 -79 -34 -140.5t-94 -97t-139 -35.5zM308 38q63 0 112 29t76.5 80t27.5 116t-27.5 114.5t-76.5 78t-112 28.5t-112 -28.5t-77 -78.5t-28 -114q0 -65 28 -116t77 -80t112 -29z" />
    <glyph glyph-name="uni01F1" unicode="&#x1f1;" horiz-adv-x="1338" 
d="M106 0v700h256q68 0 127.5 -26t104 -72.5t69.5 -110.5t25 -141q0 -76 -25 -140t-69.5 -111t-104 -73t-127.5 -26h-256zM158 42l-7 9h206q58 0 108.5 22t88.5 62t59.5 95t21.5 120t-21.5 120t-59.5 95t-88.5 62t-108.5 22h-208l9 10v-617zM755 0v43l455 621l13 -15h-442
v51h488v-42l-454 -621l-8 14h473v-51h-525z" />
    <glyph glyph-name="uni01F1" unicode="&#x1f3;" horiz-adv-x="1338" 
d="M106 0v700h256q68 0 127.5 -26t104 -72.5t69.5 -110.5t25 -141q0 -76 -25 -140t-69.5 -111t-104 -73t-127.5 -26h-256zM158 42l-7 9h206q58 0 108.5 22t88.5 62t59.5 95t21.5 120t-21.5 120t-59.5 95t-88.5 62t-108.5 22h-208l9 10v-617zM755 0v43l455 621l13 -15h-442
v51h488v-42l-454 -621l-8 14h473v-51h-525z" />
    <glyph glyph-name="uni01F2" unicode="&#x1f2;" horiz-adv-x="1188" 
d="M106 0v700h256q68 0 127.5 -26t104 -72.5t69.5 -110.5t25 -141q0 -76 -25 -140t-69.5 -111t-104 -73t-127.5 -26h-256zM158 42l-7 9h206q58 0 108.5 22t88.5 62t59.5 95t21.5 120t-21.5 120t-59.5 95t-88.5 62t-108.5 22h-208l9 10v-617zM779 0v47l307 448l-2 -16h-305
v46h354v-48l-302 -441l-4 10h321v-46h-369z" />
    <glyph glyph-name="Aringacute" unicode="&#x1fa;" horiz-adv-x="643" 
d="M22 0l269 700h61l269 -700h-58l-181 475q-3 7 -10.5 29.5t-18.5 52l-22 59t-19 50.5l15 -1q-6 -18 -15.5 -45t-20.5 -56t-20 -53.5t-14 -37.5l-179 -473h-56zM129 210l19 52h343l22 -52h-384zM321 686q-25 0 -47.5 12.5t-36.5 34t-14 46.5q0 27 13.5 48.5t36 35
t48.5 13.5t48.5 -13.5t36 -35t13.5 -48.5q0 -25 -13.5 -46.5t-36 -34t-48.5 -12.5zM321 719q27 0 45.5 18t18.5 42q0 30 -18.5 46.5t-45.5 16.5t-44.5 -17.5t-17.5 -45.5q0 -24 18 -42t44 -18zM263 905l-16 29l162 99l25 -45z" />
    <glyph glyph-name="aringacute" unicode="&#x1fb;" horiz-adv-x="536" 
d="M422 0v358q0 58 -40.5 92t-110.5 34q-52 0 -96 -22t-77 -64l-34 34q41 50 94.5 75t116.5 25q60 0 103.5 -19.5t66.5 -57.5t23 -91v-364h-46zM221 -10q-51 0 -91 20t-63.5 55.5t-23.5 83.5q0 36 13.5 64.5t40.5 47t68 28.5t95 10h184l-4 -44h-189q-39 0 -68 -7t-50 -20.5
t-31.5 -33t-10.5 -45.5q0 -33 18 -59t47.5 -40t65.5 -14q46 0 85.5 16t71 44.5t50.5 66.5l17 -31q-23 -41 -57 -73t-77 -50.5t-91 -18.5zM268 597q-25 0 -47.5 13t-36.5 35t-14 47q0 26 13.5 47.5t36 34.5t48.5 13q27 0 49.5 -13t35.5 -34.5t13 -47.5q0 -25 -13.5 -46.5
t-35.5 -35t-49 -13.5zM268 631q27 0 45.5 18.5t18.5 42.5q0 28 -18.5 44.5t-45.5 16.5t-44.5 -17t-17.5 -44q0 -24 18 -42.5t44 -18.5zM213 818l-19 28l141 115l33 -42z" />
    <glyph glyph-name="AEacute" unicode="&#x1fc;" horiz-adv-x="941" 
d="M2 0l480 700h391v-47h-345v-270h291v-48h-291v-288h345v-47h-394v194h-299l32 46h267v404l13 -5l-434 -639h-56zM580 761l-16 29l162 99l25 -45z" />
    <glyph glyph-name="aeacute" unicode="&#x1fd;" horiz-adv-x="932" 
d="M221 -10q-51 0 -91 20t-63.5 55.5t-23.5 83.5q0 36 13.5 64.5t41 47t68 28.5t94.5 10h597l-11 -16v23q-1 52 -25.5 92t-64.5 62.5t-87 22.5q-62 0 -107 -27t-69.5 -76.5t-24.5 -116.5q0 -65 28.5 -116.5t78 -80t112.5 -28.5q47 0 87.5 16t75.5 50l26 -38
q-24 -23 -54.5 -40t-65.5 -26.5t-73 -9.5q-78 0 -137 35t-92 96t-33 140q0 57 18 106.5t51 86t78.5 57t97.5 20.5q68 0 119.5 -30t81.5 -84.5t30 -128.5l-2 -33h-644q-39 0 -68 -7t-50 -20.5t-31.5 -33t-10.5 -45.5q0 -33 18 -59t48 -40t65 -14q47 0 88.5 16.5t74 46.5
t52.5 69l23 -36q-24 -41 -60.5 -73.5t-82 -50.5t-96.5 -18zM421 270v94q0 27 -10.5 49t-30 38t-47 24.5t-62.5 8.5q-52 0 -96.5 -22t-78.5 -65l-34 33q42 50 95 76t115 26q46 0 82 -11t61.5 -31t39 -49.5t13.5 -67.5v-102zM412 609l-19 28l141 115l33 -42z" />
    <glyph glyph-name="Oslashacute" unicode="&#x1fe;" horiz-adv-x="788" 
d="M117 -23l-34 28l589 722l36 -26zM395 -10q-75 0 -137.5 26.5t-109 74.5t-71.5 113.5t-25 144.5t25 145t71.5 114.5t109 75t137.5 26.5t138 -26.5t109 -75t71.5 -114.5t25.5 -144q0 -79 -25.5 -145t-71.5 -114t-109 -74.5t-138 -26.5zM395 41q64 0 117 23t92 64.5t60 97.5
t21 123t-21 123.5t-60 98.5t-92 65t-117 23q-63 0 -116 -23t-92 -65t-60 -98.5t-21 -123.5q0 -89 37.5 -158.5t102.5 -109.5t149 -40zM336 761l-16 29l162 99l25 -45z" />
    <glyph glyph-name="oslashacute" unicode="&#x1ff;" horiz-adv-x="615" 
d="M90 -24l-34 25l458 539l35 -27zM308 -10q-78 0 -138.5 35.5t-95 97t-34.5 140.5q0 78 34.5 138.5t95 95.5t138.5 35q79 0 139 -35t94 -95.5t34 -138.5q0 -79 -34 -140.5t-94 -97t-139 -35.5zM308 38q63 0 112 29t76.5 80t27.5 116t-27.5 114.5t-76.5 78t-112 28.5
t-112 -28.5t-77 -78.5t-28 -114q0 -65 28 -116t77 -80t112 -29zM254 609l-19 28l141 115l33 -42z" />
    <glyph glyph-name="uni0200" unicode="&#x200;" horiz-adv-x="643" 
d="M22 0l269 700h61l269 -700h-58l-181 475q-3 7 -10.5 29.5t-18.5 52l-22 59t-19 50.5l15 -1q-6 -18 -15.5 -45t-20.5 -56t-20 -53.5t-14 -37.5l-179 -473h-56zM129 210l19 52h343l22 -52h-384zM405 758l-158 96l34 41l142 -110zM247 758l-156 96l32 41l144 -110z" />
    <glyph glyph-name="uni0201" unicode="&#x201;" horiz-adv-x="536" 
d="M422 0v358q0 58 -40.5 92t-110.5 34q-52 0 -96 -22t-77 -64l-34 34q41 50 94.5 75t116.5 25q60 0 103.5 -19.5t66.5 -57.5t23 -91v-364h-46zM221 -10q-51 0 -91 20t-63.5 55.5t-23.5 83.5q0 36 13.5 64.5t40.5 47t68 28.5t95 10h184l-4 -44h-189q-39 0 -68 -7t-50 -20.5
t-31.5 -33t-10.5 -45.5q0 -33 18 -59t47.5 -40t65.5 -14q46 0 85.5 16t71 44.5t50.5 66.5l17 -31q-23 -41 -57 -73t-77 -50.5t-91 -18.5zM352 609l-154 101l32 42l141 -115zM204 609l-155 101l33 42l141 -115z" />
    <glyph glyph-name="uni0202" unicode="&#x202;" horiz-adv-x="643" 
d="M22 0l269 700h61l269 -700h-58l-181 475q-3 7 -10.5 29.5t-18.5 52l-22 59t-19 50.5l15 -1q-6 -18 -15.5 -45t-20.5 -56t-20 -53.5t-14 -37.5l-179 -473h-56zM129 210l19 52h343l22 -52h-384zM219 762l-41 5q9 34 29 60.5t49 42t65 15.5q37 0 66 -15.5t49 -42t28 -60.5
l-41 -5q-10 34 -37.5 57.5t-64.5 23.5q-36 0 -64 -23.5t-38 -57.5z" />
    <glyph glyph-name="uni0203" unicode="&#x203;" horiz-adv-x="536" 
d="M422 0v358q0 58 -40.5 92t-110.5 34q-52 0 -96 -22t-77 -64l-34 34q41 50 94.5 75t116.5 25q60 0 103.5 -19.5t66.5 -57.5t23 -91v-364h-46zM221 -10q-51 0 -91 20t-63.5 55.5t-23.5 83.5q0 36 13.5 64.5t40.5 47t68 28.5t95 10h184l-4 -44h-189q-39 0 -68 -7t-50 -20.5
t-31.5 -33t-10.5 -45.5q0 -33 18 -59t47.5 -40t65.5 -14q46 0 85.5 16t71 44.5t50.5 66.5l17 -31q-23 -41 -57 -73t-77 -50.5t-91 -18.5zM167 614l-41 6q13 61 50 96.5t93 35.5q55 0 92.5 -35.5t50.5 -96.5l-41 -6q-10 45 -38 70.5t-64 25.5t-63.5 -25.5t-38.5 -70.5z" />
    <glyph glyph-name="uni0204" unicode="&#x204;" horiz-adv-x="583" 
d="M106 0v700h409v-51h-357v-598h352v-51h-404zM132 336v51h326v-51h-326zM402 758l-158 96l34 41l142 -110zM244 758l-156 96l32 41l144 -110z" />
    <glyph glyph-name="uni0205" unicode="&#x205;" horiz-adv-x="560" 
d="M304 -10q-78 0 -137.5 35t-93 96t-33.5 140q0 60 18.5 109.5t52 86t80.5 56t103 19.5q50 0 92.5 -17.5t74 -49.5t48 -77t14.5 -100l-1 -33h-447l-8 44h416l-12 -17v25q0 52 -24.5 92t-64 62.5t-87.5 22.5q-63 0 -109 -27.5t-70.5 -77t-24.5 -116.5t27.5 -117.5t76 -79
t113.5 -28.5q47 0 87.5 16t76.5 50l26 -37q-24 -23 -55 -40.5t-66.5 -27t-72.5 -9.5zM376 609l-154 101l32 42l141 -115zM228 609l-155 101l33 42l141 -115z" />
    <glyph glyph-name="uni0206" unicode="&#x206;" horiz-adv-x="583" 
d="M106 0v700h409v-51h-357v-598h352v-51h-404zM132 336v51h326v-51h-326zM216 762l-41 5q9 34 29 60.5t49 42t65 15.5q37 0 66 -15.5t49 -42t28 -60.5l-41 -5q-10 34 -37.5 57.5t-64.5 23.5q-36 0 -64 -23.5t-38 -57.5z" />
    <glyph glyph-name="uni0207" unicode="&#x207;" horiz-adv-x="560" 
d="M304 -10q-78 0 -137.5 35t-93 96t-33.5 140q0 60 18.5 109.5t52 86t80.5 56t103 19.5q50 0 92.5 -17.5t74 -49.5t48 -77t14.5 -100l-1 -33h-447l-8 44h416l-12 -17v25q0 52 -24.5 92t-64 62.5t-87.5 22.5q-63 0 -109 -27.5t-70.5 -77t-24.5 -116.5t27.5 -117.5t76 -79
t113.5 -28.5q47 0 87.5 16t76.5 50l26 -37q-24 -23 -55 -40.5t-66.5 -27t-72.5 -9.5zM192 614l-41 6q13 61 50 96.5t93 35.5q55 0 92.5 -35.5t50.5 -96.5l-41 -6q-10 45 -38 70.5t-64 25.5t-63.5 -25.5t-38.5 -70.5z" />
    <glyph glyph-name="uni0208" unicode="&#x208;" horiz-adv-x="418" 
d="M59 0v49h124v602h-124v49h302v-49h-125v-602h125v-49h-302zM293 758l-158 96l34 41l142 -110zM135 758l-156 96l32 41l144 -110z" />
    <glyph glyph-name="uni0209" unicode="&#x209;" horiz-adv-x="191" 
d="M70 0v525h51v-525h-51zM178 609l-154 101l32 42l141 -115zM30 609l-155 101l33 42l141 -115z" />
    <glyph glyph-name="uni020A" unicode="&#x20a;" horiz-adv-x="418" 
d="M59 0v49h124v602h-124v49h302v-49h-125v-602h125v-49h-302zM107 762l-41 5q9 34 29 60.5t49 42t65 15.5q37 0 66 -15.5t49 -42t28 -60.5l-41 -5q-10 34 -37.5 57.5t-64.5 23.5q-36 0 -64 -23.5t-38 -57.5z" />
    <glyph glyph-name="uni020B" unicode="&#x20b;" horiz-adv-x="191" 
d="M70 0v525h51v-525h-51zM-7 614l-41 6q13 61 50 96.5t93 35.5q55 0 92.5 -35.5t50.5 -96.5l-41 -6q-10 45 -38 70.5t-64 25.5t-63.5 -25.5t-38.5 -70.5z" />
    <glyph glyph-name="uni020C" unicode="&#x20c;" horiz-adv-x="792" 
d="M396 -10q-75 0 -137.5 26.5t-109 74.5t-71.5 113.5t-25 144.5t25 145t71.5 114.5t109 75t137.5 26.5t138 -26.5t109 -75t71.5 -114.5t25.5 -144q0 -79 -25.5 -145t-71.5 -114t-109 -74.5t-138 -26.5zM396 41q64 0 117 23t92 64.5t60 97.5t21 123t-21 123.5t-60 98.5
t-92 65t-117 23q-63 0 -116 -23t-92 -65t-60 -98.5t-21 -123.5q0 -89 37.5 -158.5t102.5 -109.5t149 -40zM479 758l-158 96l34 41l142 -110zM321 758l-156 96l32 41l144 -110z" />
    <glyph glyph-name="uni020D" unicode="&#x20d;" horiz-adv-x="615" 
d="M308 -10q-78 0 -138.5 35.5t-95 97t-34.5 140.5q0 78 34.5 138.5t95 95.5t138.5 35q79 0 139 -35t94 -95.5t34 -138.5q0 -79 -34 -140.5t-94 -97t-139 -35.5zM308 38q63 0 112 29t76.5 80t27.5 116t-27.5 114.5t-76.5 78t-112 28.5t-112 -28.5t-77 -78.5t-28 -114
q0 -65 28 -116t77 -80t112 -29zM391 609l-154 101l32 42l141 -115zM243 609l-155 101l33 42l141 -115z" />
    <glyph glyph-name="uni020E" unicode="&#x20e;" horiz-adv-x="792" 
d="M396 -10q-75 0 -137.5 26.5t-109 74.5t-71.5 113.5t-25 144.5t25 145t71.5 114.5t109 75t137.5 26.5t138 -26.5t109 -75t71.5 -114.5t25.5 -144q0 -79 -25.5 -145t-71.5 -114t-109 -74.5t-138 -26.5zM396 41q64 0 117 23t92 64.5t60 97.5t21 123t-21 123.5t-60 98.5
t-92 65t-117 23q-63 0 -116 -23t-92 -65t-60 -98.5t-21 -123.5q0 -89 37.5 -158.5t102.5 -109.5t149 -40zM294 762l-41 5q9 34 29 60.5t49 42t65 15.5q37 0 66 -15.5t49 -42t28 -60.5l-41 -5q-10 34 -37.5 57.5t-64.5 23.5q-36 0 -64 -23.5t-38 -57.5z" />
    <glyph glyph-name="uni020F" unicode="&#x20f;" horiz-adv-x="615" 
d="M308 -10q-78 0 -138.5 35.5t-95 97t-34.5 140.5q0 78 34.5 138.5t95 95.5t138.5 35q79 0 139 -35t94 -95.5t34 -138.5q0 -79 -34 -140.5t-94 -97t-139 -35.5zM308 38q63 0 112 29t76.5 80t27.5 116t-27.5 114.5t-76.5 78t-112 28.5t-112 -28.5t-77 -78.5t-28 -114
q0 -65 28 -116t77 -80t112 -29zM206 614l-41 6q13 61 50 96.5t93 35.5q55 0 92.5 -35.5t50.5 -96.5l-41 -6q-10 45 -38 70.5t-64 25.5t-63.5 -25.5t-38.5 -70.5z" />
    <glyph glyph-name="uni0210" unicode="&#x210;" horiz-adv-x="639" 
d="M106 0v700h267q58 0 102.5 -26t70 -72t25.5 -106q0 -61 -25.5 -110t-70 -77t-102.5 -28h-215v-281h-52zM533 0l-177 304l55 14l185 -318h-63zM158 332h223q41 0 71.5 21t47.5 58.5t17 85.5q0 45 -18.5 79.5t-51.5 53.5t-77 19h-212v-317zM387 758l-158 96l34 41l142 -110
zM229 758l-156 96l32 41l144 -110z" />
    <glyph glyph-name="uni0211" unicode="&#x211;" horiz-adv-x="343" 
d="M70 0v525h50l1 -141l-7 13q8 35 31 65.5t59 50t81 19.5q17 0 32.5 -2.5t25.5 -6.5l-14 -54q-15 5 -29.5 7.5t-26.5 2.5q-35 0 -63 -14t-48 -37.5t-30 -51t-10 -55.5v-321h-52zM291 609l-154 101l32 42l141 -115zM143 609l-155 101l33 42l141 -115z" />
    <glyph glyph-name="uni0212" unicode="&#x212;" horiz-adv-x="639" 
d="M106 0v700h267q58 0 102.5 -26t70 -72t25.5 -106q0 -61 -25.5 -110t-70 -77t-102.5 -28h-215v-281h-52zM533 0l-177 304l55 14l185 -318h-63zM158 332h223q41 0 71.5 21t47.5 58.5t17 85.5q0 45 -18.5 79.5t-51.5 53.5t-77 19h-212v-317zM202 762l-41 5q9 34 29 60.5
t49 42t65 15.5q37 0 66 -15.5t49 -42t28 -60.5l-41 -5q-10 34 -37.5 57.5t-64.5 23.5q-36 0 -64 -23.5t-38 -57.5z" />
    <glyph glyph-name="uni0213" unicode="&#x213;" horiz-adv-x="343" 
d="M70 0v525h50l1 -141l-7 13q8 35 31 65.5t59 50t81 19.5q17 0 32.5 -2.5t25.5 -6.5l-14 -54q-15 5 -29.5 7.5t-26.5 2.5q-35 0 -63 -14t-48 -37.5t-30 -51t-10 -55.5v-321h-52zM105 614l-41 6q13 61 50 96.5t93 35.5q55 0 92.5 -35.5t50.5 -96.5l-41 -6q-10 45 -38 70.5
t-64 25.5t-63.5 -25.5t-38.5 -70.5z" />
    <glyph glyph-name="uni0214" unicode="&#x214;" horiz-adv-x="743" 
d="M368 -6q-76 0 -136.5 35.5t-95 97.5t-34.5 142v431h52v-422q0 -67 27.5 -119.5t76.5 -83t110 -30.5q65 0 115 30.5t78.5 83t28.5 119.5v422h50v-431q0 -80 -35 -142t-96 -97.5t-141 -35.5zM455 758l-158 96l34 41l142 -110zM297 758l-156 96l32 41l144 -110z" />
    <glyph glyph-name="uni0215" unicode="&#x215;" horiz-adv-x="562" 
d="M261 -10q-59 0 -101 23t-64.5 69t-22.5 116v327h51v-316q0 -88 40 -130.5t113 -42.5q34 0 63 13.5t51.5 33.5t35 43.5t12.5 43.5v355h51v-525h-49l-2 118l12 5q-12 -36 -40 -66.5t-66.5 -48.5t-83.5 -18zM364 609l-154 101l32 42l141 -115zM216 609l-155 101l33 42
l141 -115z" />
    <glyph glyph-name="uni0216" unicode="&#x216;" horiz-adv-x="743" 
d="M368 -6q-76 0 -136.5 35.5t-95 97.5t-34.5 142v431h52v-422q0 -67 27.5 -119.5t76.5 -83t110 -30.5q65 0 115 30.5t78.5 83t28.5 119.5v422h50v-431q0 -80 -35 -142t-96 -97.5t-141 -35.5zM270 762l-41 5q9 34 29 60.5t49 42t65 15.5q37 0 66 -15.5t49 -42t28 -60.5
l-41 -5q-10 34 -37.5 57.5t-64.5 23.5q-36 0 -64 -23.5t-38 -57.5z" />
    <glyph glyph-name="uni0217" unicode="&#x217;" horiz-adv-x="562" 
d="M261 -10q-59 0 -101 23t-64.5 69t-22.5 116v327h51v-316q0 -88 40 -130.5t113 -42.5q34 0 63 13.5t51.5 33.5t35 43.5t12.5 43.5v355h51v-525h-49l-2 118l12 5q-12 -36 -40 -66.5t-66.5 -48.5t-83.5 -18zM179 614l-41 6q13 61 50 96.5t93 35.5q55 0 92.5 -35.5
t50.5 -96.5l-41 -6q-10 45 -38 70.5t-64 25.5t-63.5 -25.5t-38.5 -70.5z" />
    <glyph glyph-name="uni0218" unicode="&#x218;" horiz-adv-x="587" 
d="M306 -10q-87 0 -152.5 33t-108.5 95l38 42q42 -63 97.5 -92t131.5 -29q49 0 89 17.5t64 48t24 70.5q0 25 -9.5 44.5t-27.5 35t-44 28.5t-59 23.5t-73 20.5q-50 13 -87.5 30t-64 40.5t-39.5 54t-13 70.5q0 54 30.5 96.5t83.5 67t118 24.5q81 0 136 -28t89 -80l-37 -36
q-32 46 -77.5 70.5t-111.5 24.5q-50 0 -90.5 -17.5t-64 -48.5t-23.5 -72q0 -30 11 -52.5t33 -39.5t53.5 -30t73.5 -23q57 -14 102.5 -31.5t77.5 -40.5t49 -52.5t17 -68.5q0 -57 -30 -101t-83.5 -69t-122.5 -25zM288 -218l-17 24q9 5 18.5 13t16 16.5t6.5 18.5q0 8 -3.5 12.5
t-14.5 9.5q-13 5 -18.5 12.5t-5.5 19.5t11.5 22.5t29.5 10.5q22 0 36.5 -16t14.5 -42q0 -16 -4.5 -29t-13.5 -25.5t-23 -24t-33 -22.5z" />
    <glyph glyph-name="uni0219" unicode="&#x219;" horiz-adv-x="479" 
d="M248 -10q-66 0 -120 24.5t-85 66.5l36 30q29 -35 72.5 -56t100.5 -21q33 0 57.5 8t40.5 22t23.5 33t7.5 39q0 40 -34 64q-17 13 -44 23t-64 19q-50 12 -85.5 28t-57.5 37q-17 17 -26 37.5t-9 45.5q0 42 22.5 74t63 50t93.5 18q36 0 70 -10t64 -28.5t52 -46.5l-31 -34
q-21 23 -45.5 40t-52 26t-55.5 9q-31 0 -55.5 -7t-41.5 -19.5t-25.5 -30t-8.5 -39.5q1 -15 7.5 -30t19.5 -26q16 -13 45.5 -25t70.5 -21q46 -11 79 -24.5t55 -32.5q21 -18 31 -41t10 -54q0 -45 -23 -78t-63 -51.5t-95 -18.5zM222 -218l-17 24q9 6 18.5 13.5t16 16.5t6.5 19
q0 7 -3.5 12t-14.5 9q-13 5 -18.5 12.5t-5.5 19.5q0 13 11.5 23t29.5 10q22 0 36.5 -15.5t14.5 -41.5q0 -16 -4.5 -29.5t-13.5 -25.5t-23 -24t-33 -23z" />
    <glyph glyph-name="uni021A" unicode="&#x21a;" horiz-adv-x="519" 
d="M233 0v649h-208v51h469v-51h-209v-649h-52zM232 -218l-17 24q9 5 18.5 13t16 16.5t6.5 18.5q0 8 -3.5 12.5t-14.5 9.5q-13 5 -18.5 12.5t-5.5 19.5t11.5 22.5t29.5 10.5q22 0 36.5 -16t14.5 -42q0 -16 -4.5 -29t-13.5 -25.5t-23 -24t-33 -22.5z" />
    <glyph glyph-name="uni021B" unicode="&#x21b;" horiz-adv-x="362" 
d="M154 0v659h51v-659h-51zM23 476v49h322v-49h-322zM154 -218l-17 24q9 6 18.5 13.5t16 16.5t6.5 19q0 7 -3.5 12t-14.5 9q-13 5 -18.5 12.5t-5.5 19.5q0 13 11.5 23t29.5 10q22 0 36.5 -15.5t14.5 -41.5q0 -16 -4.5 -29.5t-13.5 -25.5t-23 -24t-33 -23z" />
    <glyph glyph-name="uni022A" unicode="&#x22a;" horiz-adv-x="792" 
d="M396 -10q-75 0 -137.5 26.5t-109 74.5t-71.5 113.5t-25 144.5t25 145t71.5 114.5t109 75t137.5 26.5t138 -26.5t109 -75t71.5 -114.5t25.5 -144q0 -79 -25.5 -145t-71.5 -114t-109 -74.5t-138 -26.5zM396 41q64 0 117 23t92 64.5t60 97.5t21 123t-21 123.5t-60 98.5
t-92 65t-117 23q-63 0 -116 -23t-92 -65t-60 -98.5t-21 -123.5q0 -89 37.5 -158.5t102.5 -109.5t149 -40zM481 779q-20 0 -31 11.5t-11 29.5q0 16 11 28t31 12q22 0 32 -10.5t10 -29.5q0 -16 -10 -28.5t-32 -12.5zM311 779q-19 0 -30.5 11.5t-11.5 29.5q0 16 11 28t31 12
q22 0 32 -10.5t10 -29.5q0 -16 -10 -28.5t-32 -12.5zM250 932v40h292v-40h-292z" />
    <glyph glyph-name="uni022B" unicode="&#x22b;" horiz-adv-x="615" 
d="M308 -10q-78 0 -138.5 35.5t-95 97t-34.5 140.5q0 78 34.5 138.5t95 95.5t138.5 35q79 0 139 -35t94 -95.5t34 -138.5q0 -79 -34 -140.5t-94 -97t-139 -35.5zM308 38q63 0 112 29t76.5 80t27.5 116t-27.5 114.5t-76.5 78t-112 28.5t-112 -28.5t-77 -78.5t-28 -114
q0 -65 28 -116t77 -80t112 -29zM392 656q-21 0 -31.5 11.5t-10.5 29.5q0 19 10.5 30.5t31.5 11.5q19 0 31 -11.5t12 -30.5q0 -18 -11.5 -29.5t-31.5 -11.5zM224 656q-20 0 -31.5 11.5t-11.5 29.5q0 19 11.5 30.5t31.5 11.5t31 -11.5t11 -30.5q0 -18 -10.5 -29.5t-31.5 -11.5
zM171 828v41h274v-41h-274z" />
    <glyph glyph-name="uni022C" unicode="&#x22c;" horiz-adv-x="792" 
d="M396 -10q-75 0 -137.5 26.5t-109 74.5t-71.5 113.5t-25 144.5t25 145t71.5 114.5t109 75t137.5 26.5t138 -26.5t109 -75t71.5 -114.5t25.5 -144q0 -79 -25.5 -145t-71.5 -114t-109 -74.5t-138 -26.5zM396 41q64 0 117 23t92 64.5t60 97.5t21 123t-21 123.5t-60 98.5
t-92 65t-117 23q-63 0 -116 -23t-92 -65t-60 -98.5t-21 -123.5q0 -89 37.5 -158.5t102.5 -109.5t149 -40zM461 779q-16 0 -34.5 6t-50.5 20q-10 5 -24.5 10.5t-27.5 5.5q-14 0 -24 -10t-10 -32h-42q0 39 23.5 61t53.5 22q23 0 43.5 -9t38.5 -17q22 -9 32.5 -12.5t17.5 -3.5
q18 0 31 10.5t14 31.5h41q0 -24 -10.5 -43t-29.5 -29.5t-42 -10.5zM250 932v40h292v-40h-292z" />
    <glyph glyph-name="uni022D" unicode="&#x22d;" horiz-adv-x="615" 
d="M308 -10q-78 0 -138.5 35.5t-95 97t-34.5 140.5q0 78 34.5 138.5t95 95.5t138.5 35q79 0 139 -35t94 -95.5t34 -138.5q0 -79 -34 -140.5t-94 -97t-139 -35.5zM308 38q63 0 112 29t76.5 80t27.5 116t-27.5 114.5t-76.5 78t-112 28.5t-112 -28.5t-77 -78.5t-28 -114
q0 -65 28 -116t77 -80t112 -29zM369 627q-22 0 -39 10.5t-34 22.5q-22 17 -32 22t-18 5q-15 0 -27 -14.5t-13 -42.5l-37 6q0 37 23 63.5t56 26.5q20 0 37 -10.5t35 -23.5q10 -9 24 -18t26 -9q15 0 26 13.5t13 43.5l37 -6q0 -25 -10.5 -45.5t-28 -32t-38.5 -11.5zM171 828v41
h274v-41h-274z" />
    <glyph glyph-name="uni0230" unicode="&#x230;" horiz-adv-x="792" 
d="M396 -10q-75 0 -137.5 26.5t-109 74.5t-71.5 113.5t-25 144.5t25 145t71.5 114.5t109 75t137.5 26.5t138 -26.5t109 -75t71.5 -114.5t25.5 -144q0 -79 -25.5 -145t-71.5 -114t-109 -74.5t-138 -26.5zM396 41q64 0 117 23t92 64.5t60 97.5t21 123t-21 123.5t-60 98.5
t-92 65t-117 23q-63 0 -116 -23t-92 -65t-60 -98.5t-21 -123.5q0 -89 37.5 -158.5t102.5 -109.5t149 -40zM396 778q-21 0 -32 12t-11 30q0 17 11 29.5t32 12.5t32 -11.5t11 -30.5q0 -17 -10.5 -29.5t-32.5 -12.5zM250 932v40h292v-40h-292z" />
    <glyph glyph-name="uni0231" unicode="&#x231;" horiz-adv-x="615" 
d="M308 -10q-78 0 -138.5 35.5t-95 97t-34.5 140.5q0 78 34.5 138.5t95 95.5t138.5 35q79 0 139 -35t94 -95.5t34 -138.5q0 -79 -34 -140.5t-94 -97t-139 -35.5zM308 38q63 0 112 29t76.5 80t27.5 116t-27.5 114.5t-76.5 78t-112 28.5t-112 -28.5t-77 -78.5t-28 -114
q0 -65 28 -116t77 -80t112 -29zM308 655q-21 0 -32 11.5t-11 30.5t11 30t32 11q20 0 31.5 -11t11.5 -30q0 -18 -11 -30t-32 -12zM171 828v41h274v-41h-274z" />
    <glyph glyph-name="uni0232" unicode="&#x232;" horiz-adv-x="616" 
d="M288 0v342l8 -42l-279 400h62l244 -351l-16 2l233 349h59l-270 -403l11 48v-345h-52zM162 801v40h292v-40h-292z" />
    <glyph glyph-name="uni0233" unicode="&#x233;" horiz-adv-x="530" 
d="M158 -230l99 241l3 -39l-248 553h58l195 -439q7 -14 11 -25t7 -21l-15 -5q6 14 11.5 28.5t10.5 28.5l169 433h59l-217 -533l-87 -222h-56zM128 656v41h274v-41h-274z" />
    <glyph glyph-name="uni0237" unicode="&#x237;" horiz-adv-x="208" 
d="M-12 -195l-20 42q62 0 88 31.5t26 85.5v561h50v-572q0 -47 -18 -80t-50 -50.5t-76 -17.5z" />
    <glyph glyph-name="uni0259" unicode="&#x259;" horiz-adv-x="560" 
d="M266 -7q-66 0 -118 30.5t-81.5 85.5t-29.5 128l1 33h446l9 -44h-417l13 17l-1 -25q1 -52 25 -92t64 -62.5t88 -22.5q63 0 109 27t70.5 77t24.5 117t-27.5 118t-76.5 79t-114 28q-46 0 -86.5 -16.5t-76.5 -49.5l-27 37q25 23 55.5 40.5t66.5 27t73 9.5q78 0 137.5 -35
t93 -96t33.5 -140q0 -60 -19 -109.5t-52.5 -86t-80 -56t-102.5 -19.5z" />
    <glyph glyph-name="uni0272" unicode="&#x272;" horiz-adv-x="566" 
d="M-19 -195l-19 42q30 0 51.5 7.5t35.5 23t20 37t6 49.5v561h50l1 -122l-11 3q12 34 41 62.5t70.5 46t87.5 17.5q59 0 100 -22t62 -68t21 -117v-325h-51v323q0 57 -17 93t-49 52.5t-79 15.5q-38 0 -70 -12.5t-55.5 -32.5t-36.5 -42t-13 -41v-403q0 -47 -17.5 -80
t-49.5 -50.5t-78 -17.5z" />
    <glyph glyph-name="uni02BB" unicode="&#x2bb;" horiz-adv-x="238" 
d="M131 540q-19 0 -34 9.5t-23 27.5t-8 42q0 19 5 36t16 33.5t29 32t42 30.5l19 -24q-25 -20 -42.5 -41t-17.5 -36t8.5 -22.5t20.5 -13.5q13 -8 19 -17t6 -21q0 -16 -10.5 -26t-29.5 -10z" />
    <glyph glyph-name="uni02BC" unicode="&#x2bc;" horiz-adv-x="193" 
d="M50 442l32 258h59l-58 -258h-33z" />
    <glyph glyph-name="uni02BE" unicode="&#x2be;" horiz-adv-x="215" 
d="M55 538v36q29 0 49 19.5t20 45.5q0 30 -19.5 48t-49.5 18v35q29 0 52.5 -13.5t38 -36.5t14.5 -51q0 -26 -14.5 -49t-38.5 -37.5t-52 -14.5z" />
    <glyph glyph-name="uni02BF" unicode="&#x2bf;" horiz-adv-x="242" 
d="M160 538q-27 0 -51.5 14.5t-39 37.5t-14.5 49q0 28 14.5 51t38 36.5t51.5 13.5l1 -35q-29 0 -49 -17.5t-20 -48.5q0 -26 20 -45.5t49 -19.5v-36z" />
    <glyph glyph-name="circumflex" unicode="&#x2c6;" horiz-adv-x="500" 
d="M138 616l-22 20l110 100h48l110 -100l-22 -20l-122 85h20z" />
    <glyph glyph-name="caron" unicode="&#x2c7;" horiz-adv-x="500" 
d="M226 616l-107 99l22 21l119 -86h-20l119 86l22 -21l-107 -99h-48z" />
    <glyph glyph-name="uni02C8" unicode="&#x2c8;" horiz-adv-x="231" 
d="M91 368v344h50v-344h-50z" />
    <glyph glyph-name="uni02CC" unicode="&#x2cc;" horiz-adv-x="225" 
d="M88 -147v344h49v-344h-49z" />
    <glyph glyph-name="breve" unicode="&#x2d8;" horiz-adv-x="364" 
d="M250 604q-56 0 -93 35.5t-50 96.5l41 6q11 -45 38.5 -70t63.5 -25t64 25t38 70l41 -6q-13 -61 -50.5 -96.5t-92.5 -35.5z" />
    <glyph glyph-name="dotaccent" unicode="&#x2d9;" horiz-adv-x="500" 
d="M250 655q-21 0 -32 11.5t-11 30.5t11 30t32 11q20 0 31.5 -11t11.5 -30q0 -18 -11 -30t-32 -12z" />
    <glyph glyph-name="ring" unicode="&#x2da;" horiz-adv-x="500" 
d="M250 597q-25 0 -47.5 13t-36.5 35t-14 47q0 26 13.5 47.5t36 34.5t48.5 13q27 0 49.5 -13t35.5 -34.5t13 -47.5q0 -25 -13.5 -46.5t-35.5 -35t-49 -13.5zM250 631q27 0 45.5 18.5t18.5 42.5q0 28 -18.5 44.5t-45.5 16.5t-44.5 -17t-17.5 -44q0 -24 18 -42.5t44 -18.5z
" />
    <glyph glyph-name="ogonek" unicode="&#x2db;" horiz-adv-x="500" 
d="M253 -219q-28 0 -50.5 13.5t-35.5 36.5t-13 51t11.5 51t33 41.5t49.5 31.5t61 21l15 -25q-34 -8 -63 -24t-45.5 -39.5t-16.5 -53.5q0 -26 17 -44.5t42 -18.5q21 0 35.5 10.5t23.5 27.5l29 -22q-10 -25 -35 -41t-58 -16z" />
    <glyph glyph-name="tilde" unicode="&#x2dc;" horiz-adv-x="500" 
d="M312 627q-22 0 -39 10.5t-34 22.5q-22 17 -32 22t-18 5q-15 0 -27 -14.5t-13 -42.5l-37 6q0 37 23 63.5t56 26.5q20 0 37 -10.5t35 -23.5q10 -9 24 -18t26 -9q15 0 26 13.5t13 43.5l37 -6q0 -25 -10.5 -45.5t-28 -32t-38.5 -11.5z" />
    <glyph glyph-name="hungarumlaut" unicode="&#x2dd;" horiz-adv-x="500" 
d="M256 609l-18 28l140 115l33 -42zM108 609l-19 28l142 115l32 -42z" />
    <glyph glyph-name="gravecomb" unicode="&#x300;" 
d="M318 609l-155 101l33 42l141 -115z" />
    <glyph glyph-name="acutecomb" unicode="&#x301;" 
d="M182 609l-19 28l141 115l33 -42z" />
    <glyph glyph-name="uni0302" unicode="&#x302;" 
d="M138 616l-22 20l110 100h48l110 -100l-22 -20l-122 85h20z" />
    <glyph glyph-name="tildecomb" unicode="&#x303;" 
d="M312 627q-22 0 -39 10.5t-34 22.5q-22 17 -32 22t-18 5q-15 0 -27 -14.5t-13 -42.5l-37 6q0 37 23 63.5t56 26.5q20 0 37 -10.5t35 -23.5q10 -9 24 -18t26 -9q15 0 26 13.5t13 43.5l37 -6q0 -25 -10.5 -45.5t-28 -32t-38.5 -11.5z" />
    <glyph glyph-name="uni0304" unicode="&#x304;" 
d="M113 656v41h274v-41h-274z" />
    <glyph glyph-name="uni0306" unicode="&#x306;" 
d="M250 604q-56 0 -93 35.5t-50 96.5l41 6q11 -45 38.5 -70t63.5 -25t64 25t38 70l41 -6q-13 -61 -50.5 -96.5t-92.5 -35.5z" />
    <glyph glyph-name="uni0307" unicode="&#x307;" 
d="M250 655q-21 0 -32 11.5t-11 30.5t11 30t32 11q20 0 31.5 -11t11.5 -30q0 -18 -11 -30t-32 -12z" />
    <glyph glyph-name="uni0308" unicode="&#x308;" 
d="M334 656q-21 0 -31.5 11.5t-10.5 29.5q0 19 10.5 30.5t31.5 11.5q19 0 31 -11.5t12 -30.5q0 -18 -11.5 -29.5t-31.5 -11.5zM166 656q-20 0 -31.5 11.5t-11.5 29.5q0 19 11.5 30.5t31.5 11.5t31 -11.5t11 -30.5q0 -18 -10.5 -29.5t-31.5 -11.5z" />
    <glyph glyph-name="hookabovecomb" unicode="&#x309;" 
d="M236 601q-3 7 -6 12.5t-3 13.5q0 12 9 22t23 19q15 9 24.5 17t9.5 21t-14 19.5t-36 6.5q-16 0 -33.5 -3.5t-35.5 -11.5l-10 35q18 9 38.5 13.5t41.5 4.5q43 0 68 -17t25 -44q0 -23 -13 -36t-28 -21q-14 -7 -22.5 -14t-8.5 -16q0 -4 1 -7l2 -6z" />
    <glyph glyph-name="uni030A" unicode="&#x30a;" 
d="M250 597q-25 0 -47.5 13t-36.5 35t-14 47q0 26 13.5 47.5t36 34.5t48.5 13q27 0 49.5 -13t35.5 -34.5t13 -47.5q0 -25 -13.5 -46.5t-35.5 -35t-49 -13.5zM250 631q27 0 45.5 18.5t18.5 42.5q0 28 -18.5 44.5t-45.5 16.5t-44.5 -17t-17.5 -44q0 -24 18 -42.5t44 -18.5z
" />
    <glyph glyph-name="uni030B" unicode="&#x30b;" 
d="M256 609l-18 28l140 115l33 -42zM108 609l-19 28l142 115l32 -42z" />
    <glyph glyph-name="uni030C" unicode="&#x30c;" 
d="M226 616l-107 99l22 21l119 -86h-20l119 86l22 -21l-107 -99h-48z" />
    <glyph glyph-name="uni030F" unicode="&#x30f;" 
d="M392 609l-154 101l32 42l141 -115zM244 609l-155 101l33 42l141 -115z" />
    <glyph glyph-name="uni0311" unicode="&#x311;" 
d="M148 614l-41 6q13 61 50 96.5t93 35.5q55 0 92.5 -35.5t50.5 -96.5l-41 -6q-10 45 -38 70.5t-64 25.5t-63.5 -25.5t-38.5 -70.5z" />
    <glyph glyph-name="uni0312" unicode="&#x312;" 
d="M255 609q-20 0 -35.5 14.5t-15.5 42.5q0 18 6.5 32t16.5 26.5t23.5 22.5t27.5 19l16 -23q-8 -4 -17.5 -11.5t-16 -17t-6.5 -19.5q0 -8 4.5 -12.5t13.5 -9.5q11 -3 17 -10t6 -21q0 -15 -11 -24t-29 -9z" />
    <glyph glyph-name="uni031B" unicode="&#x31b;" 
d="M185 481l-5 35q54 0 75.5 26.5t21.5 78.5h43q0 -43 -13.5 -75t-43 -48.5t-78.5 -16.5z" />
    <glyph glyph-name="dotbelowcomb" unicode="&#x323;" 
d="M250 -163q-21 0 -32 11.5t-11 30.5q0 18 11 30t32 12q20 0 31.5 -11.5t11.5 -30.5q0 -18 -11 -30t-32 -12z" />
    <glyph glyph-name="uni0324" unicode="&#x324;" 
d="M334 -163q-21 0 -31.5 11.5t-10.5 30.5q0 18 10.5 30t31.5 12q19 0 31 -11.5t12 -30.5q0 -18 -11.5 -30t-31.5 -12zM166 -163q-20 0 -31.5 11.5t-11.5 30.5q0 18 11.5 30t31.5 12t31 -11.5t11 -30.5q0 -18 -10.5 -30t-31.5 -12z" />
    <glyph glyph-name="uni0326" unicode="&#x326;" 
d="M223 -218l-17 24q9 6 18.5 13.5t16 16.5t6.5 19q0 7 -3.5 12t-14.5 9q-13 5 -18.5 12.5t-5.5 19.5q0 13 11.5 23t29.5 10q22 0 36.5 -15.5t14.5 -41.5q0 -16 -4.5 -29.5t-13.5 -25.5t-23 -24t-33 -23z" />
    <glyph glyph-name="uni0327" unicode="&#x327;" 
d="M173 -233l-7 29q29 4 57.5 10.5t47.5 20t19 35.5q0 19 -16 28.5t-38.5 13.5t-41.5 4l-13 10l60 91h36l-48 -71q55 -5 80 -25t25 -52q0 -27 -15 -44t-39 -27t-52.5 -15.5t-54.5 -7.5z" />
    <glyph glyph-name="uni0328" unicode="&#x328;" 
d="M253 -219q-28 0 -50.5 13.5t-35.5 36.5t-13 51t11.5 51t33 41.5t49.5 31.5t61 21l15 -25q-34 -8 -63 -24t-45.5 -39.5t-16.5 -53.5q0 -26 17 -44.5t42 -18.5q21 0 35.5 10.5t23.5 27.5l29 -22q-10 -25 -35 -41t-58 -16z" />
    <glyph glyph-name="uni032E" unicode="&#x32e;" 
d="M250 -199q-54 0 -92 35t-51 97l41 5q11 -45 39 -70.5t63 -25.5t63.5 25.5t38.5 70.5l41 -5q-13 -62 -51 -97t-92 -35z" />
    <glyph glyph-name="uni0331" unicode="&#x331;" 
d="M113 -141v40h275v-40h-275z" />
    <glyph glyph-name="uni0335" unicode="&#x335;" 
d="M116 275v46h268v-46h-268z" />
    <glyph glyph-name="uni0394" unicode="&#x394;" horiz-adv-x="708" 
d="M10 0l342 720l347 -720h-689zM73 29l-11 14h584l-12 -15l-287 592h11z" />
    <glyph glyph-name="uni03A9" unicode="&#x3a9;" horiz-adv-x="675" 
d="M39 0v49h197l-9 -19q-61 53 -106.5 114t-70.5 127.5t-25 132.5q0 65 23.5 120.5t66 97.5t99.5 65t124 23t124 -23t99.5 -65t66 -97.5t23.5 -120.5t-25 -131.5t-70 -128t-106 -114.5l-8 19h195v-49h-238v34q35 32 75 76.5t67 90.5q28 47 44 97t16 105q0 68 -32.5 126.5
t-91.5 95t-139 36.5q-79 0 -138.5 -36t-92 -94.5t-32.5 -127.5q0 -41 9 -78t26 -72t39 -68q32 -53 67.5 -93.5t59.5 -57.5v-34h-237z" />
    <glyph glyph-name="uni03BC" unicode="&#x3bc;" horiz-adv-x="562" 
d="M75 -157v682h49v-334q0 -49 16 -84t48.5 -53t82.5 -18q35 0 65 13.5t53 37t35.5 53t12.5 63.5v322h49v-525h-48l-4 131l16 -5q-17 -48 -46 -78t-64.5 -44t-74.5 -14q-38 0 -70.5 11.5t-54.5 39t-30 73.5l14 -26v-245h-49z" />
    <glyph glyph-name="pi" unicode="&#x3c0;" horiz-adv-x="614" 
d="M114 0v493l12 -23h-86v50h534v-50h-81l7 10v-480h-46v487l7 -17h-310l9 10v-480h-46z" />
    <glyph glyph-name="uni060C" unicode="&#x60c;" horiz-adv-x="267" 
d="M185 248l19 -23q-25 -21 -41 -43.5t-16 -37.5q0 -14 6.5 -21t21.5 -16q12 -9 17.5 -18.5t5.5 -22.5q0 -15 -11 -25.5t-30 -10.5t-32.5 9.5t-21 27.5t-7.5 43q0 21 5.5 40t17 35.5t28 32.5t38.5 30z" />
    <glyph glyph-name="uni061B" unicode="&#x61b;" horiz-adv-x="284" 
d="M185 492l19 -23q-25 -21 -41 -43.5t-16 -37.5q0 -14 6.5 -21t21.5 -16q12 -9 17.5 -18.5t5.5 -22.5q0 -15 -11 -25.5t-30 -10.5t-32.5 9.5t-21 27.5t-7.5 43q0 21 5.5 40t17 35.5t28 32.5t38.5 30zM134 -7q-21 0 -32.5 12t-11.5 35q0 20 12 33t32 13q21 0 32.5 -12
t11.5 -34q0 -21 -12 -34t-32 -13z" />
    <glyph glyph-name="uni061F" unicode="&#x61f;" horiz-adv-x="529" 
d="M333 170h-41l-7 130q-57 17 -98.5 49.5t-65.5 76t-24 94.5q0 53 26 96t72.5 68.5t106.5 25.5q47 0 87 -17t72 -50t52 -81l-37 -28q-18 44 -44.5 72t-59 41.5t-67.5 13.5q-47 0 -81.5 -20t-53 -52t-18.5 -70q0 -34 12 -64t36 -54t60 -42.5t83 -30.5zM352 35
q0 -21 -10.5 -33t-30.5 -12q-18 0 -29.5 13t-11.5 32q0 23 10.5 35t30.5 12q19 0 30 -13t11 -34z" />
    <glyph glyph-name="uni0621" unicode="&#x621;" horiz-adv-x="366" 
d="M30 0v48h78q-18 16 -31.5 41t-13.5 56q0 42 17 72t46.5 46.5t68.5 16.5q24 0 49 -6.5t43 -17.5l-19 -40q-14 8 -33 12t-38 4q-39 0 -62.5 -22.5t-23.5 -66.5q0 -21 11.5 -43t37.5 -37t70 -15h86v-48h-286z" />
    <glyph glyph-name="uni0622" unicode="&#x622;" horiz-adv-x="210" 
d="M80 740h50v-740h-50v740zM210 818q-30 0 -55 8t-47.5 18t-43.5 18t-42 8q-27 0 -47.5 -10t-43.5 -35l-25 23q20 21 38 34t37.5 18.5t41.5 5.5q34 0 62 -13t58 -26t68 -13q25 0 46.5 7.5t39.5 22.5l21 -27q-22 -20 -49 -29.5t-59 -9.5z" />
    <glyph glyph-name="uni0623" unicode="&#x623;" horiz-adv-x="210" 
d="M80 740h50v-740h-50v740zM7 810v34h54q-11 11 -17 25.5t-6 32.5q0 37 24 59.5t63 22.5q16 0 32 -3.5t29 -10.5l-16 -30q-10 5 -21.5 7.5t-23.5 2.5q-25 0 -39 -13t-14 -36q0 -26 22 -41.5t65 -15.5h43v-34h-195z" />
    <glyph glyph-name="uni0624" unicode="&#x624;" horiz-adv-x="505" 
d="M136 492v41h66q-14 14 -21 31t-7 38q0 45 28.5 72t75.5 27q12 0 25 -2t25 -6t23 -10l-19 -35q-12 6 -26 9t-27 3q-31 0 -47.5 -15.5t-16.5 -42.5q0 -22 11.5 -37t34.5 -23.5t58 -8.5h51v-41h-234zM254 360q40 0 73.5 -20t57 -56.5t37 -87t13.5 -111.5q0 -56 -11.5 -103.5
t-34 -86.5t-54.5 -67t-73 -43t-91 -15q-39 0 -85 14t-86 40l24 40q34 -20 73 -32t72 -12q62 0 107.5 26.5t73.5 76.5t35 119q-31 -12 -64 -18.5t-66 -6.5q-43 0 -75.5 9.5t-55 28.5t-33.5 46t-11 63q0 41 14 76.5t38 62.5t55.5 42t66.5 15zM128 167q0 -34 14.5 -56.5t43 -33
t71.5 -10.5q32 0 64 7t65 22q-1 62 -18 110.5t-46.5 76t-68.5 27.5q-34 0 -62.5 -19.5t-45.5 -52t-17 -71.5z" />
    <glyph glyph-name="uni0625" unicode="&#x625;" horiz-adv-x="210" 
d="M80 740h50v-740h-50v740zM5 -234v34h54q-11 11 -17 25.5t-6 32.5q0 37 24 59.5t63 22.5q16 0 32 -3.5t29 -10.5l-16 -30q-10 5 -21.5 7.5t-23.5 2.5q-25 0 -39 -13t-14 -36q0 -17 10 -30t29 -20t48 -7h43v-34h-195z" />
    <glyph glyph-name="uni0626" unicode="&#x626;" horiz-adv-x="739" 
d="M-2 306v41h65q-14 14 -21 31t-7 38q0 45 28.5 72t75.5 27q13 0 25.5 -2.5t24.5 -6t24 -9.5l-19 -35q-12 6 -26 9t-28 3q-31 0 -47.5 -15.5t-16.5 -42.5q0 -22 12 -37t35 -23.5t57 -8.5h52v-41h-234zM326 -230q-69 0 -123.5 16.5t-93 47.5t-59 76t-20.5 102q0 34 10 81
t30 97l46 -16q-18 -45 -27 -86.5t-9 -73.5q0 -46 16.5 -82t48.5 -61t77.5 -38t105.5 -13t113 12.5t93 35t63 49.5t23 54q0 24 -16 41t-43 32t-61 31q-36 18 -71.5 39.5t-59 51.5t-23.5 73q0 49 25 85t70 56.5t103 20.5q28 0 55 -4.5t52.5 -13t47.5 -23.5l-25 -42
q-29 17 -61 25t-69 8q-66 0 -107 -31t-41 -79q0 -31 19 -53t49.5 -39t65.5 -34t66.5 -35t52 -43t20.5 -61q0 -32 -17 -62.5t-48 -56t-73.5 -45.5t-94.5 -31t-110 -11z" />
    <glyph glyph-name="uni0627" unicode="&#x627;" horiz-adv-x="210" 
d="M80 740h50v-740h-50v740z" />
    <glyph glyph-name="uni0628" unicode="&#x628;" horiz-adv-x="850" 
d="M334 0q-148 0 -226 50t-78 145q0 44 13.5 92t42.5 102l42 -21q-24 -50 -36 -91t-12 -78q0 -51 29 -83.5t87 -49t143 -16.5h360l12 -50h-377zM534 0v50h193q11 74 -4.5 155t-59.5 167l40 40q36 -72 56 -142t21.5 -138t-16.5 -132h-230zM534 50h10v-50h-10q-30 0 -30 25
t30 25zM410 -189l-52 53l50 54l52 -54z" />
    <glyph glyph-name="uni0629" unicode="&#x629;" horiz-adv-x="445" 
d="M211 -2q-54 0 -94.5 21t-63.5 57t-23 82q0 42 15.5 77.5t39.5 66t51.5 56.5t51.5 48l34 -34q-34 -31 -66.5 -63t-54 -69t-21.5 -82q0 -49 35.5 -79.5t95.5 -30.5q67 0 100.5 29t33.5 81q0 31 -13.5 63.5t-41 68.5t-70 75.5t-101.5 82.5l28 42q52 -38 92 -74t69.5 -69.5
t48.5 -65.5t28.5 -62.5t9.5 -60.5q0 -50 -22 -85.5t-63 -55t-99 -19.5zM129 585l-53 54l50 53l53 -53zM275 585l-53 54l50 53l53 -53z" />
    </font>
</defs>
</svg>
