<svg width="312" height="312" viewBox="0 0 312 312" fill="none" xmlns="http://www.w3.org/2000/svg">
<g clip-path="url(#clip0_1710_14)">
<path d="M247 0H65C29.107 0 0 29.107 0 65V247C0 282.893 29.107 312 65 312H247C282.906 312 312 282.893 312 247V65C312 29.107 282.906 0 247 0ZM188.942 254.67C183.677 255.684 182 252.447 182 249.678V221.143C182 211.432 178.594 205.114 174.85 201.89C198.016 199.316 222.352 190.515 222.352 150.579C222.352 139.217 218.296 129.935 211.653 122.668C212.719 120.042 216.281 109.46 210.626 95.147C210.626 95.147 201.903 92.352 182.052 105.807C173.732 103.467 164.84 102.336 156 102.284C147.16 102.323 138.268 103.467 129.961 105.781C110.097 92.326 101.361 95.121 101.361 95.121C95.719 109.447 99.281 120.016 100.36 122.655C93.704 129.935 89.648 139.204 89.648 150.566C89.648 190.398 113.919 199.329 137.033 201.968C134.056 204.568 131.365 209.144 130.429 215.878C124.488 218.53 109.447 223.119 100.165 207.22C100.165 207.22 94.666 197.236 84.214 196.495C84.214 196.495 74.074 196.365 83.499 202.826C83.499 202.826 90.324 206.024 95.056 218.036C95.056 218.036 101.075 236.6 130 230.308V249.665C130 252.408 128.323 255.632 123.136 254.67C81.796 240.929 52 201.942 52 156C52 98.553 98.566 52 156 52C213.434 52 260 98.553 260 156C260 201.929 230.243 240.903 188.942 254.67Z" fill="#1D1D1D"/>
</g>
<defs>
<clipPath id="clip0_1710_14">
<rect width="312" height="312" fill="white"/>
</clipPath>
</defs>
</svg>
