<svg width="312" height="312" viewBox="0 0 312 312" fill="none" xmlns="http://www.w3.org/2000/svg">
<path d="M149.133 73.6C149.133 77.3939 152.206 80.4667 156 80.4667C159.794 80.4667 162.867 77.3939 162.867 73.6V59.8667C162.867 56.0728 159.794 53 156 53C152.206 53 149.133 56.0728 149.133 59.8667V73.6Z" fill="#1D1D1D"/>
<path fill-rule="evenodd" clip-rule="evenodd" d="M87.3335 156C87.3335 118.079 118.079 87.3335 156 87.3335C193.922 87.3335 224.667 118.079 224.667 156C224.667 193.922 193.922 224.667 156 224.667C118.079 224.667 87.3335 193.922 87.3335 156ZM149.134 118.232C149.134 114.438 152.206 111.366 156 111.366C180.652 111.366 200.632 131.348 200.632 155.998C200.632 180.648 180.65 200.63 156 200.63C152.206 200.63 149.134 197.557 149.134 193.764V118.232Z" fill="#1D1D1D"/>
<path d="M156 259C152.206 259 149.133 255.927 149.133 252.133V238.4C149.133 234.606 152.206 231.533 156 231.533C159.794 231.533 162.867 234.606 162.867 238.4V252.133C162.867 255.927 159.794 259 156 259Z" fill="#1D1D1D"/>
<path d="M53 156C53 152.206 56.0728 149.133 59.8667 149.133H73.6C77.3939 149.133 80.4667 152.206 80.4667 156C80.4667 159.794 77.3939 162.867 73.6 162.867H59.8667C56.0728 162.867 53 159.794 53 156Z" fill="#1D1D1D"/>
<path d="M238.4 149.133C234.606 149.133 231.533 152.206 231.533 156C231.533 159.794 234.606 162.867 238.4 162.867H252.133C255.927 162.867 259 159.794 259 156C259 152.206 255.927 149.133 252.133 149.133H238.4Z" fill="#1D1D1D"/>
<path d="M83.1693 228.831C80.4826 226.153 80.4826 221.801 83.1693 219.123L92.8771 209.407C95.5638 206.728 99.9068 206.728 102.594 209.407C105.272 212.093 105.272 216.436 102.594 219.123L92.8771 228.831C90.199 231.517 85.8474 231.517 83.1693 228.831Z" fill="#1D1D1D"/>
<path d="M209.415 92.8771C206.728 95.5552 206.728 99.9068 209.415 102.585C212.093 105.272 216.445 105.272 219.123 102.585L228.831 92.8771C231.517 90.199 231.517 85.8474 228.831 83.1693C226.153 80.4826 221.801 80.4826 219.123 83.1693L209.415 92.8771Z" fill="#1D1D1D"/>
<path d="M83.1693 83.1693C85.8474 80.4826 90.199 80.4826 92.8771 83.1693L102.594 92.8771C105.272 95.5638 105.272 99.9068 102.594 102.594C99.9068 105.272 95.5638 105.272 92.8771 102.594L83.1693 92.8771C80.4826 90.199 80.4826 85.8474 83.1693 83.1693Z" fill="#1D1D1D"/>
<path d="M219.123 209.415C216.445 206.728 212.093 206.728 209.415 209.415C206.728 212.093 206.728 216.445 209.415 219.123L219.123 228.831C221.801 231.517 226.153 231.517 228.831 228.831C231.517 226.153 231.517 221.801 228.831 219.123L219.123 209.415Z" fill="#1D1D1D"/>
</svg>
