<svg width="312" height="312" viewBox="0 0 312 312" fill="none" xmlns="http://www.w3.org/2000/svg">
<g clip-path="url(#clip0_1710_11)">
<path d="M247 0H65C29.107 0 0 29.107 0 65V247C0 282.893 29.107 312 65 312H247C282.906 312 312 282.893 312 247V65C312 29.107 282.906 0 247 0ZM104 247H65V104H104V247ZM84.5 87.516C71.942 87.516 61.75 77.246 61.75 64.584C61.75 51.922 71.942 41.652 84.5 41.652C97.058 41.652 107.25 51.922 107.25 64.584C107.25 77.246 97.071 87.516 84.5 87.516ZM260 247H221V174.148C221 130.364 169 133.679 169 174.148V247H130V104H169V126.945C187.148 93.327 260 90.844 260 159.133V247Z" fill="#1D1D1D"/>
</g>
<defs>
<clipPath id="clip0_1710_11">
<rect width="312" height="312" fill="white"/>
</clipPath>
</defs>
</svg>
