<svg width="148" height="148" viewBox="0 0 148 148" fill="none" xmlns="http://www.w3.org/2000/svg">
<path d="M94.2427 53.494C111.483 70.7516 111.246 98.42 94.3466 115.413C94.3149 115.448 94.2774 115.485 94.2427 115.52L74.8524 134.91C57.7503 152.012 29.9261 152.01 12.8266 134.91C-4.27553 117.811 -4.27553 89.9835 12.8266 72.8843L23.5334 62.1775C26.3727 59.3382 31.2624 61.2253 31.409 65.2378C31.5959 70.3514 32.5129 75.489 34.205 80.4503C34.778 82.1302 34.3686 83.9884 33.1134 85.2436L29.3372 89.0198C21.2504 97.1066 20.9968 110.274 29.0039 118.44C37.0901 126.686 50.3812 126.735 58.5294 118.587L77.9197 99.1997C86.0541 91.0653 86.02 77.9174 77.9197 69.817C76.8518 68.7512 75.7761 67.923 74.9358 67.3445C74.3414 66.9363 73.8506 66.3948 73.5026 65.7633C73.1546 65.1318 72.9589 64.4276 72.9313 63.7071C72.8171 60.658 73.8974 57.516 76.3067 55.1067L82.3818 49.0313C83.9748 47.4383 86.4739 47.2426 88.3212 48.5319C90.4367 50.0091 92.4182 51.6695 94.2427 53.494ZM134.909 12.8257C117.809 -4.27409 89.9853 -4.2764 72.8831 12.8257L53.4928 32.216C53.4582 32.2507 53.4207 32.2882 53.389 32.3228C36.49 49.3158 36.2531 76.9842 53.4928 94.2419C55.3173 96.0663 57.2986 97.7266 59.4141 99.2037C61.2614 100.493 63.7607 100.297 65.3535 98.7043L71.4286 92.6289C73.8379 90.2196 74.9182 87.0776 74.804 84.0285C74.7764 83.308 74.5807 82.6038 74.2327 81.9723C73.8847 81.3408 73.3939 80.7993 72.7994 80.3911C71.9592 79.8126 70.8835 78.9844 69.8156 77.9185C61.7152 69.8182 61.6812 56.6703 69.8156 48.5359L89.2059 29.1485C97.3541 21.0002 110.645 21.0493 118.731 29.2957C126.739 37.4615 126.485 50.629 118.398 58.7158L114.622 62.492C113.367 63.7472 112.957 65.6054 113.53 67.2853C115.222 72.2466 116.139 77.3842 116.326 82.4978C116.473 86.5103 121.363 88.3974 124.202 85.5581L134.909 74.8513C152.011 57.7523 152.011 29.925 134.909 12.8257Z" fill="black"/>
</svg>
