<svg width="847" height="847" viewBox="0 0 847 847" fill="none" xmlns="http://www.w3.org/2000/svg">
<mask id="path-1-inside-1_776_265" fill="white">
<path fill-rule="evenodd" clip-rule="evenodd" d="M423.5 847C402.661 847 383.804 837.894 370.846 823.444C354.591 834.048 334.019 837.963 313.89 832.57C293.761 827.176 277.903 813.5 269.128 796.188C250.681 802.224 229.797 800.681 211.75 790.262C193.703 779.842 181.925 762.527 177.929 743.535C158.549 744.59 138.776 737.695 124.04 722.96C109.305 708.224 102.41 688.451 103.465 669.071C84.4726 665.075 67.1578 653.297 56.7383 635.25C46.3188 617.203 44.7762 596.319 50.8117 577.872C33.5004 569.097 19.824 553.239 14.4305 533.11C9.03694 512.981 12.952 492.409 23.5562 476.154C9.10607 463.196 0 444.339 0 423.5C0 402.661 9.10607 383.804 23.5562 370.846C12.9521 354.591 9.03708 334.019 14.4306 313.89C19.8241 293.761 33.5006 277.903 50.8119 269.128C44.7763 250.681 46.319 229.797 56.7385 211.75C67.1579 193.703 84.4727 181.925 103.465 177.929C102.41 158.549 109.305 138.776 124.04 124.04C138.776 109.305 158.549 102.41 177.929 103.465C181.925 84.4726 193.703 67.1578 211.75 56.7383C229.797 46.3188 250.681 44.7762 269.128 50.8117C277.903 33.5004 293.761 19.824 313.89 14.4304C334.019 9.03692 354.591 12.952 370.846 23.5562C383.804 9.10607 402.661 0 423.5 0C444.339 0 463.197 9.10606 476.154 23.5561C492.409 12.952 512.981 9.03687 533.11 14.4304C553.239 19.8239 569.097 33.5004 577.873 50.8116C596.319 44.7761 617.203 46.3187 635.25 56.7382C653.297 67.1577 665.075 84.4725 669.071 103.465C688.451 102.41 708.224 109.305 722.96 124.04C737.695 138.776 744.59 158.549 743.535 177.929C762.528 181.925 779.842 193.703 790.262 211.75C800.681 229.797 802.224 250.681 796.188 269.127C813.5 277.903 827.176 293.761 832.57 313.89C837.963 334.019 834.048 354.591 823.444 370.846C837.894 383.804 847 402.661 847 423.5C847 444.339 837.894 463.196 823.444 476.154C834.048 492.409 837.963 512.981 832.57 533.11C827.176 553.239 813.5 569.097 796.189 577.873C802.224 596.319 800.681 617.203 790.262 635.25C779.842 653.297 762.528 665.075 743.535 669.071C744.591 688.451 737.695 708.224 722.96 722.96C708.224 737.695 688.451 744.591 669.071 743.535C665.075 762.528 653.297 779.842 635.25 790.262C617.203 800.681 596.319 802.224 577.873 796.188C569.097 813.5 553.239 827.176 533.11 832.57C512.981 837.963 492.409 834.048 476.154 823.444C463.197 837.894 444.339 847 423.5 847Z"/>
</mask>
<path fill-rule="evenodd" clip-rule="evenodd" d="M423.5 847C402.661 847 383.804 837.894 370.846 823.444C354.591 834.048 334.019 837.963 313.89 832.57C293.761 827.176 277.903 813.5 269.128 796.188C250.681 802.224 229.797 800.681 211.75 790.262C193.703 779.842 181.925 762.527 177.929 743.535C158.549 744.59 138.776 737.695 124.04 722.96C109.305 708.224 102.41 688.451 103.465 669.071C84.4726 665.075 67.1578 653.297 56.7383 635.25C46.3188 617.203 44.7762 596.319 50.8117 577.872C33.5004 569.097 19.824 553.239 14.4305 533.11C9.03694 512.981 12.952 492.409 23.5562 476.154C9.10607 463.196 0 444.339 0 423.5C0 402.661 9.10607 383.804 23.5562 370.846C12.9521 354.591 9.03708 334.019 14.4306 313.89C19.8241 293.761 33.5006 277.903 50.8119 269.128C44.7763 250.681 46.319 229.797 56.7385 211.75C67.1579 193.703 84.4727 181.925 103.465 177.929C102.41 158.549 109.305 138.776 124.04 124.04C138.776 109.305 158.549 102.41 177.929 103.465C181.925 84.4726 193.703 67.1578 211.75 56.7383C229.797 46.3188 250.681 44.7762 269.128 50.8117C277.903 33.5004 293.761 19.824 313.89 14.4304C334.019 9.03692 354.591 12.952 370.846 23.5562C383.804 9.10607 402.661 0 423.5 0C444.339 0 463.197 9.10606 476.154 23.5561C492.409 12.952 512.981 9.03687 533.11 14.4304C553.239 19.8239 569.097 33.5004 577.873 50.8116C596.319 44.7761 617.203 46.3187 635.25 56.7382C653.297 67.1577 665.075 84.4725 669.071 103.465C688.451 102.41 708.224 109.305 722.96 124.04C737.695 138.776 744.59 158.549 743.535 177.929C762.528 181.925 779.842 193.703 790.262 211.75C800.681 229.797 802.224 250.681 796.188 269.127C813.5 277.903 827.176 293.761 832.57 313.89C837.963 334.019 834.048 354.591 823.444 370.846C837.894 383.804 847 402.661 847 423.5C847 444.339 837.894 463.196 823.444 476.154C834.048 492.409 837.963 512.981 832.57 533.11C827.176 553.239 813.5 569.097 796.189 577.873C802.224 596.319 800.681 617.203 790.262 635.25C779.842 653.297 762.528 665.075 743.535 669.071C744.591 688.451 737.695 708.224 722.96 722.96C708.224 737.695 688.451 744.591 669.071 743.535C665.075 762.528 653.297 779.842 635.25 790.262C617.203 800.681 596.319 802.224 577.873 796.188C569.097 813.5 553.239 827.176 533.11 832.57C512.981 837.963 492.409 834.048 476.154 823.444C463.197 837.894 444.339 847 423.5 847Z" fill="#CB4D3A"/>
<path d="M370.846 823.444L390.949 805.419L375.489 788.178L356.095 800.83L370.846 823.444ZM269.128 796.188L293.21 783.98L282.74 763.326L260.731 770.527L269.128 796.188ZM211.75 790.262L225.25 766.879L225.25 766.879L211.75 790.262ZM177.929 743.535L204.35 737.975L199.582 715.315L176.46 716.575L177.929 743.535ZM124.04 722.96L143.132 703.868L143.132 703.868L124.04 722.96ZM103.465 669.071L130.425 670.54L131.685 647.418L109.025 642.65L103.465 669.071ZM56.7383 635.25L33.3556 648.75L33.3556 648.75L56.7383 635.25ZM50.8117 577.872L76.473 586.269L83.674 564.261L63.02 553.79L50.8117 577.872ZM14.4305 533.11L-11.6495 540.098L-11.6495 540.098L14.4305 533.11ZM23.5562 476.154L46.17 490.905L58.8217 471.511L41.5814 456.052L23.5562 476.154ZM23.5562 370.846L41.5814 390.948L58.8217 375.489L46.1701 356.095L23.5562 370.846ZM14.4306 313.89L-11.6494 306.902L-11.6494 306.902L14.4306 313.89ZM50.8119 269.128L63.0201 293.21L83.6742 282.74L76.4732 260.731L50.8119 269.128ZM103.465 177.929L109.025 204.35L131.685 199.582L130.426 176.46L103.465 177.929ZM124.04 124.04L104.949 104.949L104.949 104.949L124.04 124.04ZM177.929 103.465L176.46 130.425L199.582 131.685L204.35 109.025L177.929 103.465ZM211.75 56.7383L198.25 33.3556L198.25 33.3556L211.75 56.7383ZM269.128 50.8117L260.731 76.473L282.74 83.674L293.21 63.02L269.128 50.8117ZM313.89 14.4304L306.902 -11.6496L306.902 -11.6496L313.89 14.4304ZM370.846 23.5562L356.095 46.17L375.489 58.8218L390.949 41.5814L370.846 23.5562ZM476.154 23.5561L456.052 41.5814L471.511 58.8217L490.905 46.17L476.154 23.5561ZM533.11 14.4304L526.122 40.5104L526.122 40.5104L533.11 14.4304ZM577.873 50.8116L553.79 63.0199L564.261 83.6739L586.269 76.4729L577.873 50.8116ZM635.25 56.7382L648.75 33.3555L648.75 33.3555L635.25 56.7382ZM669.071 103.465L642.65 109.025L647.418 131.685L670.54 130.425L669.071 103.465ZM722.96 124.04L703.868 143.132L703.868 143.132L722.96 124.04ZM743.535 177.929L716.575 176.46L715.315 199.582L737.975 204.35L743.535 177.929ZM790.262 211.75L766.879 225.25L766.879 225.25L790.262 211.75ZM796.188 269.127L770.527 260.731L763.326 282.739L783.98 293.21L796.188 269.127ZM823.444 370.846L800.83 356.095L788.178 375.489L805.419 390.948L823.444 370.846ZM823.444 476.154L805.419 456.052L788.178 471.511L800.83 490.905L823.444 476.154ZM832.57 533.11L806.49 526.122L806.49 526.122L832.57 533.11ZM796.189 577.873L783.98 553.79L763.326 564.261L770.527 586.269L796.189 577.873ZM790.262 635.25L766.879 621.75L766.879 621.75L790.262 635.25ZM743.535 669.071L737.976 642.65L715.315 647.418L716.575 670.54L743.535 669.071ZM669.071 743.535L670.54 716.575L647.418 715.315L642.65 737.976L669.071 743.535ZM635.25 790.262L621.75 766.879L621.75 766.879L635.25 790.262ZM577.873 796.188L586.269 770.527L564.261 763.326L553.79 783.98L577.873 796.188ZM476.154 823.444L490.905 800.83L471.511 788.178L456.052 805.419L476.154 823.444ZM350.744 841.469C368.596 861.378 394.656 874 423.5 874V820C410.666 820 399.011 814.41 390.949 805.419L350.744 841.469ZM306.902 858.65C334.763 866.115 363.202 860.667 385.598 846.058L356.095 800.83C345.98 807.429 333.275 809.811 320.878 806.49L306.902 858.65ZM245.045 808.397C257.136 832.247 279.041 851.184 306.902 858.65L320.878 806.49C308.482 803.168 298.671 794.752 293.21 783.98L245.045 808.397ZM198.25 813.644C223.23 828.066 252.11 830.165 277.524 821.85L260.731 770.527C249.253 774.283 236.365 773.296 225.25 766.879L198.25 813.644ZM151.507 749.094C157.013 775.261 173.271 799.222 198.25 813.644L225.25 766.879C214.135 760.462 206.837 749.794 204.35 737.975L151.507 749.094ZM104.948 742.052C125.344 762.447 152.697 771.949 179.397 770.495L176.46 716.575C164.401 717.231 152.207 712.943 143.132 703.868L104.948 742.052ZM76.5053 667.603C75.0509 694.303 84.5528 721.656 104.948 742.052L143.132 703.868C134.057 694.793 129.769 682.599 130.425 670.54L76.5053 667.603ZM33.3556 648.75C47.7775 673.729 71.7389 689.987 97.9061 695.493L109.025 642.65C97.2063 640.163 86.538 632.865 80.121 621.75L33.3556 648.75ZM25.1504 569.476C16.835 594.891 18.9337 623.77 33.3556 648.75L80.121 621.75C73.7039 610.635 72.7174 597.747 76.473 586.269L25.1504 569.476ZM-11.6495 540.098C-4.1842 567.959 14.753 589.864 38.6035 601.955L63.02 553.79C52.2479 548.329 43.8322 538.518 40.5105 526.122L-11.6495 540.098ZM0.942337 461.402C-13.6674 483.798 -19.1149 512.237 -11.6495 540.098L40.5105 526.122C37.1887 513.725 39.5715 501.021 46.17 490.905L0.942337 461.402ZM-27 423.5C-27 452.344 -14.3776 478.404 5.53095 496.256L41.5814 456.052C32.5897 447.989 27 436.334 27 423.5H-27ZM5.53095 350.744C-14.3776 368.596 -27 394.656 -27 423.5H27C27 410.666 32.5897 399.011 41.5814 390.948L5.53095 350.744ZM46.1701 356.095C39.5716 345.979 37.1889 333.275 40.5106 320.878L-11.6494 306.902C-19.1147 334.763 -13.6673 363.202 0.942294 385.598L46.1701 356.095ZM40.5106 320.878C43.8323 308.482 52.248 298.671 63.0201 293.21L38.6036 245.045C14.7531 257.136 -4.18407 279.041 -11.6494 306.902L40.5106 320.878ZM33.3558 198.25C18.9339 223.23 16.8352 252.11 25.1506 277.524L76.4732 260.731C72.7175 249.253 73.7041 236.365 80.1211 225.25L33.3558 198.25ZM97.9062 151.507C71.7391 157.013 47.7777 173.271 33.3558 198.25L80.1211 225.25C86.5382 214.135 97.2064 206.837 109.025 204.35L97.9062 151.507ZM104.949 104.949C84.5529 125.344 75.0511 152.697 76.5054 179.397L130.426 176.46C129.769 164.401 134.057 152.207 143.132 143.132L104.949 104.949ZM179.397 76.5054C152.697 75.0511 125.344 84.5529 104.949 104.949L143.132 143.132C152.207 134.057 164.401 129.769 176.46 130.425L179.397 76.5054ZM198.25 33.3556C173.271 47.7775 157.013 71.739 151.507 97.9062L204.35 109.025C206.837 97.2063 214.135 86.538 225.25 80.121L198.25 33.3556ZM277.524 25.1504C252.11 16.835 223.23 18.9337 198.25 33.3556L225.25 80.121C236.365 73.7039 249.253 72.7174 260.731 76.473L277.524 25.1504ZM306.902 -11.6496C279.041 -4.18422 257.136 14.753 245.045 38.6034L293.21 63.02C298.671 52.2479 308.482 43.8321 320.878 40.5104L306.902 -11.6496ZM385.598 0.942357C363.202 -13.6674 334.763 -19.1149 306.902 -11.6496L320.878 40.5104C333.275 37.1887 345.98 39.5715 356.095 46.17L385.598 0.942357ZM423.5 -27C394.656 -27 368.596 -14.3776 350.744 5.53095L390.949 41.5814C399.011 32.5897 410.666 27 423.5 27V-27ZM496.256 5.5309C478.404 -14.3776 452.344 -27 423.5 -27V27C436.334 27 447.989 32.5897 456.052 41.5814L496.256 5.5309ZM540.098 -11.6496C512.237 -19.1149 483.798 -13.6674 461.402 0.942315L490.905 46.17C501.021 39.5714 513.725 37.1887 526.122 40.5104L540.098 -11.6496ZM601.955 38.6034C589.864 14.7529 567.959 -4.18427 540.098 -11.6496L526.122 40.5104C538.519 43.8321 548.33 52.2478 553.79 63.0199L601.955 38.6034ZM648.75 33.3555C623.771 18.9336 594.891 16.8349 569.476 25.1503L586.269 76.4729C597.747 72.7173 610.635 73.7038 621.75 80.1209L648.75 33.3555ZM695.493 97.906C689.987 71.7389 673.73 47.7775 648.75 33.3555L621.75 80.1209C632.865 86.5379 640.163 97.2061 642.65 109.025L695.493 97.906ZM742.052 104.948C721.656 84.5527 694.303 75.0508 667.603 76.5052L670.54 130.425C682.599 129.768 694.793 134.057 703.868 143.132L742.052 104.948ZM770.495 179.397C771.949 152.697 762.447 125.344 742.052 104.948L703.868 143.132C712.943 152.207 717.232 164.401 716.575 176.46L770.495 179.397ZM813.644 198.25C799.223 173.27 775.261 157.013 749.094 151.507L737.975 204.35C749.794 206.837 760.462 214.135 766.879 225.25L813.644 198.25ZM821.85 277.524C830.165 252.109 828.066 223.229 813.644 198.25L766.879 225.25C773.296 236.365 774.283 249.253 770.527 260.731L821.85 277.524ZM858.65 306.902C851.184 279.041 832.247 257.136 808.397 245.045L783.98 293.21C794.752 298.671 803.168 308.481 806.49 320.878L858.65 306.902ZM846.058 385.598C860.667 363.202 866.115 334.763 858.65 306.902L806.49 320.878C809.811 333.275 807.429 345.979 800.83 356.095L846.058 385.598ZM874 423.5C874 394.656 861.378 368.596 841.469 350.744L805.419 390.948C814.41 399.011 820 410.666 820 423.5H874ZM841.469 496.256C861.378 478.404 874 452.344 874 423.5H820C820 436.334 814.41 447.989 805.419 456.052L841.469 496.256ZM800.83 490.905C807.429 501.021 809.811 513.725 806.49 526.122L858.65 540.098C866.115 512.237 860.668 483.798 846.058 461.402L800.83 490.905ZM806.49 526.122C803.168 538.519 794.752 548.33 783.98 553.79L808.397 601.955C832.247 589.864 851.184 567.959 858.65 540.098L806.49 526.122ZM813.645 648.75C828.067 623.771 830.165 594.891 821.85 569.476L770.527 586.269C774.283 597.747 773.296 610.636 766.879 621.75L813.645 648.75ZM749.094 695.493C775.261 689.987 799.223 673.73 813.645 648.75L766.879 621.75C760.462 632.865 749.794 640.163 737.976 642.65L749.094 695.493ZM742.052 742.052C762.448 721.656 771.949 694.303 770.495 667.603L716.575 670.54C717.232 682.599 712.943 694.793 703.868 703.868L742.052 742.052ZM667.603 770.495C694.303 771.949 721.656 762.447 742.052 742.052L703.868 703.868C694.793 712.943 682.599 717.232 670.54 716.575L667.603 770.495ZM648.75 813.644C673.73 799.223 689.987 775.261 695.493 749.094L642.65 737.976C640.163 749.794 632.865 760.462 621.75 766.879L648.75 813.644ZM569.476 821.85C594.891 830.165 623.771 828.066 648.75 813.644L621.75 766.879C610.635 773.296 597.747 774.283 586.269 770.527L569.476 821.85ZM540.098 858.65C567.959 851.184 589.864 832.247 601.955 808.397L553.79 783.98C548.329 794.752 538.519 803.168 526.122 806.49L540.098 858.65ZM461.402 846.058C483.798 860.667 512.237 866.115 540.098 858.65L526.122 806.49C513.725 809.811 501.021 807.429 490.905 800.83L461.402 846.058ZM423.5 874C452.344 874 478.404 861.378 496.256 841.469L456.052 805.419C447.989 814.41 436.334 820 423.5 820V874Z" fill="#323232" mask="url(#path-1-inside-1_776_265)"/>
<path d="M265.426 681.064L243.206 668.335L233.384 685.527L295.578 721.155L305.4 703.963L283.294 691.299L317.803 630.898L299.935 620.662L265.426 681.064Z" fill="#F0F0F0"/>
<path d="M265.426 681.064L264.93 681.932L265.798 682.429L266.294 681.561L265.426 681.064ZM243.206 668.335L243.702 667.466L242.834 666.969L242.338 667.838L243.206 668.335ZM233.384 685.527L232.516 685.03L232.02 685.898L232.888 686.395L233.384 685.527ZM295.578 721.155L295.082 722.023L295.95 722.52L296.446 721.652L295.578 721.155ZM305.4 703.963L306.268 704.46L306.764 703.591L305.896 703.094L305.4 703.963ZM283.294 691.299L282.427 690.802L281.93 691.67L282.798 692.168L283.294 691.299ZM317.803 630.898L318.671 631.395L319.167 630.527L318.299 630.03L317.803 630.898ZM299.935 620.662L300.431 619.794L299.563 619.297L299.067 620.165L299.935 620.662ZM265.922 680.195L243.702 667.466L242.71 669.203L264.93 681.932L265.922 680.195ZM242.338 667.838L232.516 685.03L234.252 686.024L244.074 668.832L242.338 667.838ZM232.888 686.395L295.082 722.023L296.074 720.286L233.88 684.658L232.888 686.395ZM296.446 721.652L306.268 704.46L304.532 703.466L294.71 720.658L296.446 721.652ZM305.896 703.094L283.79 690.431L282.798 692.168L304.904 704.831L305.896 703.094ZM284.162 691.796L318.671 631.395L316.935 630.401L282.427 690.802L284.162 691.796ZM318.299 630.03L300.431 619.794L299.439 621.531L317.307 631.766L318.299 630.03ZM299.067 620.165L264.559 680.567L266.294 681.561L300.803 621.159L299.067 620.165Z" fill="#323232"/>
<path d="M164.166 614.263L190.568 592.751L212.045 619.181L185.643 640.693L198.63 656.674L267.908 600.226L254.922 584.245L227.395 606.674L205.917 580.244L233.445 557.815L220.458 541.834L151.18 598.282L164.166 614.263Z" fill="#F0F0F0"/>
<path d="M164.166 614.263L163.391 614.895L164.021 615.671L164.797 615.039L164.166 614.263ZM190.568 592.751L191.343 592.119L190.712 591.343L189.937 591.975L190.568 592.751ZM212.045 619.181L212.676 619.957L213.451 619.325L212.82 618.549L212.045 619.181ZM185.643 640.693L185.013 639.917L184.237 640.548L184.868 641.324L185.643 640.693ZM198.63 656.674L197.854 657.305L198.485 658.081L199.26 657.45L198.63 656.674ZM267.908 600.226L268.539 601.002L269.314 600.37L268.684 599.594L267.908 600.226ZM254.922 584.245L255.697 583.613L255.067 582.837L254.292 583.469L254.922 584.245ZM227.395 606.674L226.62 607.306L227.25 608.082L228.025 607.45L227.395 606.674ZM205.917 580.244L205.287 579.468L204.512 580.1L205.142 580.876L205.917 580.244ZM233.445 557.815L234.075 558.591L234.851 557.959L234.22 557.183L233.445 557.815ZM220.458 541.834L221.234 541.203L220.603 540.427L219.828 541.058L220.458 541.834ZM151.18 598.282L150.549 597.506L149.774 598.138L150.404 598.914L151.18 598.282ZM164.797 615.039L191.198 593.527L189.937 591.975L163.535 613.487L164.797 615.039ZM189.792 593.383L211.27 619.813L212.82 618.549L191.343 592.119L189.792 593.383ZM211.414 618.405L185.013 639.917L186.274 641.469L212.676 619.957L211.414 618.405ZM184.868 641.324L197.854 657.305L199.405 656.042L186.419 640.061L184.868 641.324ZM199.26 657.45L268.539 601.002L267.278 599.45L197.999 655.898L199.26 657.45ZM268.684 599.594L255.697 583.613L254.147 584.876L267.133 600.857L268.684 599.594ZM254.292 583.469L226.764 605.898L228.025 607.45L255.553 585.021L254.292 583.469ZM228.17 606.042L206.693 579.612L205.142 580.876L226.62 607.306L228.17 606.042ZM206.548 581.02L234.075 558.591L232.814 557.039L205.287 579.468L206.548 581.02ZM234.22 557.183L221.234 541.203L219.683 542.466L232.67 558.447L234.22 557.183ZM219.828 541.058L150.549 597.506L151.81 599.058L221.089 542.61L219.828 541.058ZM150.404 598.914L163.391 614.895L164.941 613.631L151.955 597.651L150.404 598.914Z" fill="#323232"/>
<path d="M129.124 462.284C124.337 465.872 120.425 470.185 117.48 475.061C114.535 479.937 112.558 485.376 111.737 491.055C110.822 496.896 111.122 502.688 112.672 508.559C114.222 514.43 116.82 519.614 120.498 524.238C124.015 528.769 128.385 532.391 133.385 535.301C138.352 538.082 143.882 539.895 149.814 540.646C155.653 541.558 161.792 541.025 167.917 539.404C174.042 537.782 179.642 535.207 184.267 531.525C189.054 527.936 192.839 523.657 195.784 518.781C198.822 513.744 200.705 508.466 201.654 502.753C202.442 496.946 202.141 491.154 200.591 485.283C199.041 479.412 196.444 474.229 192.893 469.57C189.248 465.073 184.973 461.289 179.878 458.542C174.912 455.76 169.509 453.913 163.577 453.162C157.739 452.25 151.566 452.656 145.441 454.277C139.316 455.899 133.749 458.601 129.124 462.284ZM160.995 473.372C164.394 473.838 167.351 474.694 170.093 476.289C172.929 477.723 175.228 479.709 177.212 482.051C179.101 484.555 180.514 487.321 181.323 490.384C182.132 493.447 182.269 496.552 181.862 499.664C181.293 502.681 180.275 505.546 178.517 508.196C176.887 510.812 174.773 513.147 172.014 515.106C169.288 517.193 166.233 518.548 162.66 519.494C159.087 520.44 155.635 520.808 152.235 520.342C148.869 520.004 145.879 519.021 143.171 517.553C140.462 516.085 138.036 514.134 136.052 511.791C134.162 509.287 132.749 506.521 131.94 503.458C131.132 500.395 130.995 497.291 131.402 494.179C131.97 491.161 133.116 488.263 134.746 485.647C136.343 482.903 138.491 480.696 141.216 478.609C143.975 476.649 147.125 475.133 150.697 474.187C154.27 473.241 157.629 473.034 160.995 473.372Z" fill="#F0F0F0"/>
<path d="M129.124 462.284L129.723 463.084L129.735 463.075L129.746 463.066L129.124 462.284ZM117.48 475.061L118.336 475.578L118.336 475.578L117.48 475.061ZM111.737 491.055L112.725 491.21L112.726 491.198L111.737 491.055ZM120.498 524.238L121.288 523.625L121.281 523.615L120.498 524.238ZM133.385 535.301L132.882 536.165L132.889 536.169L132.896 536.173L133.385 535.301ZM149.814 540.646L149.969 539.658L149.955 539.656L149.94 539.654L149.814 540.646ZM184.267 531.525L183.668 530.725L183.656 530.733L183.645 530.743L184.267 531.525ZM195.784 518.781L196.639 519.298L196.64 519.298L195.784 518.781ZM201.654 502.753L202.641 502.916L202.643 502.902L202.645 502.887L201.654 502.753ZM192.893 469.57L193.688 468.963L193.679 468.952L193.67 468.94L192.893 469.57ZM179.878 458.542L179.39 459.414L179.396 459.418L179.403 459.422L179.878 458.542ZM163.577 453.162L163.422 454.151L163.437 454.153L163.451 454.155L163.577 453.162ZM160.995 473.372L161.131 472.381L161.113 472.379L161.095 472.377L160.995 473.372ZM170.093 476.289L169.59 477.154L169.615 477.168L169.641 477.182L170.093 476.289ZM177.212 482.051L178.01 481.448L177.993 481.426L177.975 481.404L177.212 482.051ZM181.862 499.664L182.844 499.848L182.85 499.821L182.853 499.793L181.862 499.664ZM178.517 508.196L177.684 507.643L177.676 507.655L177.669 507.667L178.517 508.196ZM172.014 515.106L171.435 514.291L171.421 514.301L171.406 514.312L172.014 515.106ZM152.235 520.342L152.371 519.351L152.354 519.349L152.336 519.347L152.235 520.342ZM143.171 517.553L142.694 518.433L142.694 518.433L143.171 517.553ZM136.052 511.791L135.254 512.394L135.271 512.417L135.289 512.438L136.052 511.791ZM131.402 494.179L130.419 493.994L130.414 494.022L130.41 494.05L131.402 494.179ZM134.746 485.647L135.595 486.175L135.603 486.162L135.611 486.149L134.746 485.647ZM141.216 478.609L140.638 477.793L140.623 477.803L140.609 477.814L141.216 478.609ZM128.525 461.483C123.639 465.146 119.638 469.555 116.624 474.544L118.336 475.578C121.212 470.815 125.036 466.598 129.723 463.084L128.525 461.483ZM116.624 474.544C113.612 479.532 111.588 485.098 110.747 490.913L112.726 491.198C113.528 485.654 115.459 480.342 118.336 475.578L116.624 474.544ZM110.749 490.901C109.812 496.881 110.121 502.813 111.706 508.815L113.639 508.303C112.124 502.564 111.831 496.912 112.725 491.21L110.749 490.901ZM111.706 508.815C113.29 514.817 115.95 520.127 119.716 524.861L121.281 523.615C117.69 519.101 115.154 514.042 113.639 508.303L111.706 508.815ZM119.708 524.852C123.315 529.498 127.788 533.201 132.882 536.165L133.888 534.436C128.982 531.582 124.716 528.04 121.288 523.625L119.708 524.852ZM132.896 536.173C137.979 539.02 143.633 540.872 149.688 541.638L149.94 539.654C144.131 538.919 138.725 537.145 133.874 534.428L132.896 536.173ZM149.659 541.634C155.661 542.572 161.943 542.02 168.172 540.371L167.662 538.437C161.641 540.031 155.644 540.545 149.969 539.658L149.659 541.634ZM168.172 540.371C174.402 538.721 180.135 536.093 184.89 532.307L183.645 530.743C179.149 534.322 173.682 536.843 167.662 538.437L168.172 540.371ZM184.867 532.325C189.759 528.657 193.63 524.28 196.639 519.298L194.928 518.264C192.047 523.034 188.348 527.216 183.668 530.725L184.867 532.325ZM196.64 519.298C199.747 514.146 201.672 508.748 202.641 502.916L200.668 502.59C199.739 508.184 197.898 513.341 194.928 518.265L196.64 519.298ZM202.645 502.887C203.45 496.954 203.143 491.029 201.558 485.027L199.625 485.539C201.14 491.279 201.434 496.938 200.664 502.619L202.645 502.887ZM201.558 485.027C199.973 479.025 197.316 473.723 193.688 468.963L192.098 470.177C195.572 474.734 198.109 479.8 199.625 485.539L201.558 485.027ZM193.67 468.94C189.956 464.358 185.582 460.482 180.353 457.661L179.403 459.422C184.363 462.097 188.54 465.788 192.116 470.2L193.67 468.94ZM180.367 457.669C175.292 454.827 169.767 452.938 163.703 452.17L163.451 454.155C169.251 454.889 174.531 456.694 179.39 459.414L180.367 457.669ZM163.732 452.174C157.743 451.239 151.43 451.657 145.185 453.31L145.696 455.244C151.701 453.654 157.734 453.262 163.422 454.151L163.732 452.174ZM145.185 453.31C138.941 454.963 133.246 457.724 128.502 461.501L129.746 463.066C134.252 459.479 139.691 456.834 145.696 455.244L145.185 453.31ZM160.859 474.363C164.169 474.817 166.991 475.642 169.59 477.154L170.596 475.424C167.71 473.746 164.619 472.859 161.131 472.381L160.859 474.363ZM169.641 477.182C172.335 478.544 174.533 480.435 176.449 482.698L177.975 481.404C175.923 478.982 173.523 476.902 170.544 475.396L169.641 477.182ZM176.414 482.654C178.233 485.065 179.584 487.715 180.357 490.64L182.29 490.128C181.445 486.928 179.97 484.045 178.01 481.448L176.414 482.654ZM180.357 490.64C181.129 493.566 181.262 496.538 180.87 499.534L182.853 499.793C183.275 496.565 183.135 493.329 182.29 490.128L180.357 490.64ZM180.879 499.479C180.33 502.394 179.353 505.126 177.684 507.643L179.35 508.748C181.196 505.965 182.257 502.969 182.844 499.848L180.879 499.479ZM177.669 507.667C176.105 510.177 174.081 512.412 171.435 514.291L172.592 515.922C175.465 513.882 177.669 511.447 179.366 508.724L177.669 507.667ZM171.406 514.312C168.809 516.301 165.882 517.607 162.405 518.527L162.915 520.461C166.584 519.49 169.768 518.085 172.621 515.9L171.406 514.312ZM162.405 518.527C158.923 519.449 155.607 519.795 152.371 519.351L152.099 521.333C155.662 521.821 159.251 521.431 162.915 520.461L162.405 518.527ZM152.336 519.347C149.108 519.023 146.245 518.082 143.647 516.674L142.694 518.433C145.513 519.96 148.631 520.986 152.135 521.337L152.336 519.347ZM143.647 516.674C141.045 515.263 138.716 513.389 136.815 511.144L135.289 512.438C137.355 514.878 139.88 516.908 142.694 518.433L143.647 516.674ZM136.85 511.188C135.031 508.778 133.68 506.127 132.907 503.202L130.974 503.714C131.819 506.915 133.294 509.797 135.254 512.394L136.85 511.188ZM132.907 503.202C132.135 500.277 132.001 497.304 132.393 494.308L130.41 494.05C129.988 497.277 130.129 500.513 130.974 503.714L132.907 503.202ZM132.384 494.363C132.929 491.471 134.029 488.689 135.595 486.175L133.898 485.118C132.204 487.837 131.011 490.851 130.419 493.994L132.384 494.363ZM135.611 486.149C137.123 483.549 139.169 481.435 141.824 479.403L140.609 477.814C137.812 479.956 135.562 482.256 133.882 485.144L135.611 486.149ZM141.795 479.424C144.457 477.533 147.497 476.068 150.953 475.154L150.442 473.22C146.752 474.197 143.493 475.765 140.638 477.793L141.795 479.424ZM150.953 475.154C154.404 474.24 157.641 474.041 160.894 474.367L161.095 472.377C157.617 472.028 154.137 472.242 150.442 473.22L150.953 475.154Z" fill="#323232"/>
<path d="M170.426 370.264L102.696 385.848L98.9343 403.806L186.39 422.174L190.612 402.02L146.949 392.849L194.834 381.865L197.432 369.462L157.99 340.137L201.653 349.308L205.875 329.153L118.419 310.785L114.657 328.743L170.426 370.264Z" fill="#F0F0F0"/>
<path d="M170.426 370.264L170.65 371.239L172.758 370.754L171.022 369.462L170.426 370.264ZM102.696 385.848L102.471 384.873L101.848 385.016L101.717 385.642L102.696 385.848ZM98.9343 403.806L97.9557 403.601L97.7506 404.579L98.7293 404.785L98.9343 403.806ZM186.39 422.174L186.185 423.153L187.164 423.358L187.369 422.38L186.39 422.174ZM190.612 402.02L191.591 402.225L191.796 401.246L190.817 401.041L190.612 402.02ZM146.949 392.849L146.725 391.874L146.744 393.828L146.949 392.849ZM194.834 381.865L195.058 382.84L195.681 382.697L195.812 382.071L194.834 381.865ZM197.432 369.462L198.41 369.668L198.541 369.041L198.028 368.66L197.432 369.462ZM157.99 340.137L158.195 339.158L157.394 340.94L157.99 340.137ZM201.653 349.308L201.448 350.286L202.427 350.492L202.632 349.513L201.653 349.308ZM205.875 329.153L206.854 329.359L207.059 328.38L206.08 328.174L205.875 329.153ZM118.419 310.785L118.624 309.806L117.645 309.601L117.44 310.579L118.419 310.785ZM114.657 328.743L113.679 328.538L113.548 329.163L114.061 329.545L114.657 328.743ZM170.201 369.29L102.471 384.873L102.921 386.822L170.65 371.239L170.201 369.29ZM101.717 385.642L97.9557 403.601L99.913 404.012L103.675 386.053L101.717 385.642ZM98.7293 404.785L186.185 423.153L186.595 421.195L99.1393 402.827L98.7293 404.785ZM187.369 422.38L191.591 402.225L189.633 401.814L185.412 421.969L187.369 422.38ZM190.817 401.041L147.154 391.87L146.744 393.828L190.407 402.998L190.817 401.041ZM147.173 393.824L195.058 382.84L194.61 380.89L146.725 391.874L147.173 393.824ZM195.812 382.071L198.41 369.668L196.453 369.257L193.855 381.659L195.812 382.071ZM198.028 368.66L158.586 339.335L157.394 340.94L196.835 370.265L198.028 368.66ZM157.785 341.116L201.448 350.286L201.858 348.329L158.195 339.158L157.785 341.116ZM202.632 349.513L206.854 329.359L204.896 328.947L200.675 349.102L202.632 349.513ZM206.08 328.174L118.624 309.806L118.214 311.764L205.67 330.132L206.08 328.174ZM117.44 310.579L113.679 328.538L115.636 328.949L119.398 310.99L117.44 310.579ZM114.061 329.545L169.829 371.067L171.022 369.462L115.254 327.941L114.061 329.545Z" fill="#323232"/>
<path d="M233.289 260.513L250.313 266.181L263.038 249.16L172.406 221.143L159.681 238.165L212.058 317.35L224.784 300.329L214.557 285.569L233.289 260.513ZM203.803 270.414L185.861 244.592L215.738 254.45L203.803 270.414Z" fill="#F0F0F0"/>
<path d="M233.289 260.513L233.604 259.564L232.921 259.336L232.489 259.913L233.289 260.513ZM250.313 266.181L249.998 267.13L250.682 267.358L251.113 266.781L250.313 266.181ZM263.038 249.16L263.838 249.759L264.688 248.623L263.333 248.204L263.038 249.16ZM172.406 221.143L172.701 220.187L172.028 219.979L171.606 220.544L172.406 221.143ZM159.681 238.165L158.881 237.565L158.459 238.129L158.848 238.717L159.681 238.165ZM212.058 317.35L211.225 317.902L212.009 319.086L212.859 317.95L212.058 317.35ZM224.784 300.329L225.584 300.928L226.015 300.351L225.605 299.758L224.784 300.329ZM214.557 285.569L213.757 284.969L213.326 285.547L213.736 286.139L214.557 285.569ZM203.803 270.414L202.983 270.985L203.773 272.123L204.603 271.014L203.803 270.414ZM185.861 244.592L186.173 243.641L183.332 242.704L185.04 245.163L185.861 244.592ZM215.738 254.45L216.538 255.05L217.371 253.935L216.05 253.5L215.738 254.45ZM232.974 261.463L249.998 267.13L250.628 265.231L233.604 259.564L232.974 261.463ZM251.113 266.781L263.838 249.759L262.238 248.56L249.513 265.581L251.113 266.781ZM263.333 248.204L172.701 220.187L172.112 222.1L262.744 250.116L263.333 248.204ZM171.606 220.544L158.881 237.565L160.481 238.764L173.207 221.743L171.606 220.544ZM158.848 238.717L211.225 317.902L212.892 316.797L160.514 237.612L158.848 238.717ZM212.859 317.95L225.584 300.928L223.983 299.729L211.258 316.75L212.859 317.95ZM225.605 299.758L215.378 284.999L213.736 286.139L223.962 300.899L225.605 299.758ZM215.357 286.169L234.09 261.113L232.489 259.913L213.757 284.969L215.357 286.169ZM204.623 269.843L186.681 244.02L185.04 245.163L202.983 270.985L204.623 269.843ZM185.548 245.542L215.425 255.4L216.05 253.5L186.173 243.641L185.548 245.542ZM214.938 253.85L203.003 269.814L204.603 271.014L216.538 255.05L214.938 253.85Z" fill="#323232"/>
<path d="M246.589 198.098C250.137 199.756 253.889 200.502 257.805 200.52C261.539 200.497 265.395 199.926 269.263 198.88C272.949 197.793 276.593 196.888 279.874 195.902C283.225 195.027 286.09 194.617 288.62 194.419C291.109 194.404 292.918 195.288 294.118 197.185C295.459 199.304 295.807 201.584 295.012 204.277C294.327 206.899 292.257 209.306 288.913 211.427C281.668 216.022 275.984 214.938 271.679 208.133L255.664 219.853C257.993 223.534 260.596 226.416 263.728 228.651C266.859 230.885 270.265 232.32 274.129 232.995C277.881 233.742 281.838 233.577 286.07 232.613C290.12 231.607 294.444 229.802 298.792 227.045C303.251 224.217 306.84 221.003 309.702 217.625C312.381 214.206 314.403 210.736 315.474 207.243C316.656 203.68 316.958 200.206 316.491 196.751C316.023 193.296 314.858 189.971 312.952 186.959C310.059 182.385 306.839 179.269 303.11 177.571C299.491 175.801 295.669 174.943 291.753 174.926C287.908 175.02 284.092 175.408 280.295 176.565C276.427 177.612 272.964 178.557 269.684 179.544C266.332 180.419 263.538 180.94 261.008 181.138C258.66 181.377 256.74 180.563 255.611 178.778C254.411 176.881 254.245 174.642 254.888 172.202C255.643 169.692 257.378 167.497 260.053 165.8C263.063 163.891 265.969 163.299 268.699 163.912C271.541 164.454 273.803 166.302 275.708 169.314L291.764 157.412C289.648 154.065 286.932 151.254 283.872 149.131C280.811 147.009 277.404 145.574 273.834 144.868C270.082 144.122 266.237 144.216 262.228 145.039C258.29 145.973 254.299 147.566 250.175 150.182C245.939 152.869 242.572 155.942 239.934 159.178C237.477 162.455 235.567 165.855 234.496 169.348C233.466 172.658 233.164 176.132 233.561 179.476C233.917 183.001 235.053 186.032 236.888 188.933C239.71 193.395 242.93 196.511 246.589 198.098Z" fill="#F0F0F0"/>
<path d="M246.589 198.098L247.013 197.191L247 197.185L246.987 197.18L246.589 198.098ZM257.805 200.52L257.8 201.52L257.811 201.52L257.805 200.52ZM269.263 198.88L269.523 199.846L269.534 199.843L269.545 199.84L269.263 198.88ZM279.874 195.902L279.622 194.934L279.605 194.938L279.587 194.944L279.874 195.902ZM288.62 194.419L288.614 193.419L288.578 193.419L288.543 193.422L288.62 194.419ZM295.012 204.277L294.053 203.994L294.049 204.009L294.045 204.025L295.012 204.277ZM271.679 208.133L272.524 207.597L271.952 206.694L271.09 207.325L271.679 208.133ZM255.664 219.853L255.075 219.045L254.32 219.598L254.82 220.389L255.664 219.853ZM263.728 228.651L263.147 229.465L263.147 229.465L263.728 228.651ZM274.129 232.995L274.324 232.014L274.313 232.012L274.302 232.01L274.129 232.995ZM286.07 232.613L286.291 233.588L286.301 233.586L286.31 233.584L286.07 232.613ZM309.702 217.625L310.464 218.272L310.476 218.257L310.488 218.242L309.702 217.625ZM315.474 207.243L314.525 206.928L314.522 206.939L314.519 206.95L315.474 207.243ZM316.491 196.751L315.5 196.886L315.5 196.886L316.491 196.751ZM303.11 177.571L302.67 178.47L302.683 178.476L302.695 178.482L303.11 177.571ZM291.753 174.926L291.758 173.925L291.743 173.925L291.729 173.926L291.753 174.926ZM280.295 176.565L280.555 177.531L280.57 177.527L280.586 177.523L280.295 176.565ZM269.684 179.544L269.935 180.512L269.953 180.507L269.971 180.502L269.684 179.544ZM261.008 181.138L260.931 180.141L260.919 180.141L260.908 180.143L261.008 181.138ZM254.888 172.202L253.931 171.915L253.926 171.931L253.921 171.948L254.888 172.202ZM268.699 163.912L268.48 164.888L268.496 164.892L268.512 164.895L268.699 163.912ZM275.708 169.314L274.864 169.85L275.439 170.759L276.303 170.118L275.708 169.314ZM291.764 157.412L292.359 158.216L293.106 157.662L292.609 156.876L291.764 157.412ZM283.872 149.131L283.302 149.954L283.302 149.954L283.872 149.131ZM273.834 144.868L273.639 145.85L273.64 145.85L273.834 144.868ZM262.228 145.039L262.028 144.059L262.013 144.062L261.998 144.065L262.228 145.039ZM239.934 159.178L239.159 158.546L239.147 158.562L239.134 158.578L239.934 159.178ZM234.496 169.348L235.45 169.645L235.451 169.641L234.496 169.348ZM233.561 179.476L234.555 179.375L234.555 179.366L234.553 179.357L233.561 179.476ZM246.166 199.005C249.859 200.731 253.757 201.502 257.8 201.52L257.81 199.519C254.022 199.502 250.415 198.781 247.013 197.191L246.166 199.005ZM257.811 201.52C261.641 201.496 265.583 200.912 269.523 199.846L269.003 197.914C265.207 198.941 261.436 199.497 257.799 199.519L257.811 201.52ZM269.545 199.84C271.376 199.3 273.198 198.805 274.982 198.319C276.762 197.834 278.506 197.358 280.161 196.86L279.587 194.944C277.961 195.433 276.242 195.902 274.458 196.388C272.679 196.873 270.836 197.373 268.981 197.92L269.545 199.84ZM280.126 196.87C283.414 196.012 286.219 195.61 288.697 195.417L288.543 193.422C285.961 193.624 283.037 194.042 279.622 194.934L280.126 196.87ZM288.626 195.42C290.829 195.406 292.287 196.161 293.273 197.72L294.962 196.649C293.549 194.415 291.39 193.401 288.614 193.419L288.626 195.42ZM293.273 197.72C294.455 199.588 294.77 201.568 294.053 203.994L295.97 204.56C296.845 201.6 296.462 199.02 294.962 196.649L293.273 197.72ZM294.045 204.025C293.449 206.305 291.611 208.532 288.379 210.582L289.448 212.272C292.904 210.081 295.205 207.493 295.979 204.53L294.045 204.025ZM288.379 210.582C284.87 212.807 281.9 213.554 279.381 213.072C276.879 212.594 274.587 210.859 272.524 207.597L270.835 208.669C273.076 212.212 275.778 214.421 279.005 215.038C282.216 215.651 285.711 214.642 289.448 212.272L288.379 210.582ZM271.09 207.325L255.075 219.045L256.254 220.661L272.269 208.941L271.09 207.325ZM254.82 220.389C257.204 224.159 259.892 227.143 263.147 229.465L264.308 227.836C261.3 225.689 258.781 222.91 256.509 219.317L254.82 220.389ZM263.147 229.465C266.4 231.787 269.946 233.279 273.957 233.981L274.302 232.01C270.585 231.36 267.318 229.983 264.308 227.836L263.147 229.465ZM273.934 233.977C277.85 234.756 281.951 234.577 286.291 233.588L285.848 231.637C281.725 232.577 277.913 232.728 274.324 232.014L273.934 233.977ZM286.31 233.584C290.469 232.551 294.893 230.702 299.326 227.89L298.257 226.2C293.996 228.903 289.77 230.663 285.83 231.642L286.31 233.584ZM299.326 227.89C303.871 225.008 307.537 221.727 310.464 218.272L308.94 216.978C306.143 220.279 302.631 223.427 298.257 226.2L299.326 227.89ZM310.488 218.242C313.215 214.763 315.311 211.184 316.429 207.536L314.519 206.95C313.495 210.288 311.548 213.649 308.916 217.008L310.488 218.242ZM316.422 207.558C317.652 203.851 317.969 200.224 317.481 196.616L315.5 196.886C315.947 200.188 315.66 203.508 314.525 206.928L316.422 207.558ZM317.481 196.616C316.995 193.025 315.782 189.563 313.797 186.424L312.108 187.495C313.933 190.38 315.051 193.567 315.5 196.886L317.481 196.616ZM313.797 186.424C310.837 181.744 307.484 178.464 303.524 176.66L302.695 178.482C306.194 180.075 309.282 183.026 312.108 187.495L313.797 186.424ZM303.549 176.672C299.792 174.835 295.82 173.943 291.758 173.925L291.748 175.926C295.517 175.943 299.191 176.768 302.67 178.47L303.549 176.672ZM291.729 173.926C287.835 174.021 283.92 174.414 280.004 175.608L280.586 177.523C284.264 176.401 287.98 176.019 291.777 175.926L291.729 173.926ZM280.035 175.6C276.168 176.646 272.692 177.595 269.397 178.586L269.971 180.502C273.236 179.52 276.687 178.578 280.555 177.531L280.035 175.6ZM269.432 178.576C266.116 179.441 263.383 179.949 260.931 180.141L261.086 182.136C263.694 181.932 266.549 181.396 269.935 180.512L269.432 178.576ZM260.908 180.143C258.866 180.35 257.347 179.651 256.455 178.242L254.766 179.313C256.133 181.474 258.454 182.403 261.109 182.133L260.908 180.143ZM256.455 178.242C255.443 176.641 255.261 174.706 255.854 172.457L253.921 171.948C253.228 174.578 253.38 177.121 254.766 179.313L256.455 178.242ZM255.845 172.49C256.519 170.247 258.081 168.235 260.588 166.645L259.519 164.955C256.675 166.759 254.766 169.137 253.931 171.915L255.845 172.49ZM260.588 166.645C263.424 164.847 266.061 164.345 268.48 164.888L268.918 162.936C265.877 162.253 262.703 162.936 259.519 164.955L260.588 166.645ZM268.512 164.895C270.995 165.369 273.052 166.985 274.864 169.85L276.553 168.779C274.555 165.62 272.087 163.54 268.887 162.929L268.512 164.895ZM276.303 170.118L292.359 158.216L291.17 156.608L275.114 168.51L276.303 170.118ZM292.609 156.876C290.421 153.418 287.613 150.509 284.441 148.309L283.302 149.954C286.252 152 288.874 154.713 290.92 157.948L292.609 156.876ZM284.441 148.309C281.268 146.108 277.733 144.619 274.028 143.887L273.64 145.85C277.075 146.529 280.354 147.909 283.302 149.954L284.441 148.309ZM274.03 143.887C270.129 143.111 266.148 143.213 262.028 144.059L262.428 146.019C266.326 145.219 270.036 145.133 273.639 145.85L274.03 143.887ZM261.998 144.065C257.954 145.025 253.86 146.661 249.64 149.337L250.709 151.027C254.738 148.472 258.626 146.922 262.458 146.012L261.998 144.065ZM249.64 149.337C245.314 152.081 241.866 155.225 239.159 158.546L240.708 159.811C243.278 156.658 246.564 153.657 250.709 151.027L249.64 149.337ZM239.134 158.578C236.631 161.918 234.655 165.42 233.54 169.055L235.451 169.641C236.479 166.29 238.323 162.993 240.733 159.778L239.134 158.578ZM233.542 169.051C232.47 172.497 232.155 176.113 232.569 179.594L234.553 179.357C234.173 176.152 234.463 172.82 235.45 169.645L233.542 169.051ZM232.567 179.577C232.94 183.272 234.134 186.45 236.043 189.468L237.732 188.397C235.972 185.615 234.894 182.731 234.555 179.375L232.567 179.577ZM236.043 189.468C238.931 194.034 242.288 197.323 246.192 199.016L246.987 197.18C243.573 195.699 240.489 192.756 237.732 188.397L236.043 189.468Z" fill="#323232"/>
<path d="M380.639 101.328L384.064 190.627L404.641 189.835L403.553 161.476L417.667 160.933C422.283 160.756 426.606 159.797 430.375 158.199C434.14 156.469 437.483 154.095 440.147 151.218C442.942 148.336 445.058 144.953 446.499 141.199C447.941 137.444 448.58 133.457 448.418 129.236C448.256 125.015 447.313 121.088 445.589 117.456C443.864 113.824 441.495 110.612 438.487 107.954C435.611 105.29 432.095 103.18 428.21 101.744C424.329 100.44 419.946 99.8165 415.329 99.994L380.639 101.328ZM402.794 141.691L401.974 120.322L416.088 119.78C419.254 119.658 422.064 120.606 424.255 122.636C426.584 124.792 427.73 127.125 427.841 130.027C427.948 132.797 426.989 135.344 424.827 137.541C422.803 139.864 420.205 141.021 416.908 141.148L402.794 141.691Z" fill="#F0F0F0"/>
<path d="M380.639 101.328L380.6 100.329L379.601 100.367L379.639 101.367L380.639 101.328ZM384.064 190.627L383.065 190.665L383.103 191.664L384.102 191.626L384.064 190.627ZM404.641 189.835L404.679 190.834L405.679 190.796L405.64 189.797L404.641 189.835ZM403.553 161.476L403.515 160.477L402.515 160.515L402.554 161.515L403.553 161.476ZM430.375 158.199L430.765 159.119L430.779 159.114L430.793 159.107L430.375 158.199ZM440.147 151.218L439.429 150.522L439.421 150.53L439.413 150.539L440.147 151.218ZM446.499 141.199L445.566 140.84L445.566 140.84L446.499 141.199ZM445.589 117.456L444.685 117.885L444.685 117.885L445.589 117.456ZM438.487 107.954L437.808 108.688L437.816 108.696L437.825 108.703L438.487 107.954ZM428.21 101.744L428.556 100.806L428.542 100.801L428.528 100.796L428.21 101.744ZM402.794 141.691L401.795 141.729L401.833 142.728L402.832 142.69L402.794 141.691ZM401.974 120.322L401.936 119.323L400.937 119.362L400.975 120.361L401.974 120.322ZM424.255 122.636L423.576 123.369L423.576 123.369L424.255 122.636ZM424.827 137.541L424.114 136.839L424.093 136.861L424.073 136.884L424.827 137.541ZM379.639 101.367L383.065 190.665L385.063 190.588L381.638 101.29L379.639 101.367ZM384.102 191.626L404.679 190.834L404.603 188.836L384.026 189.627L384.102 191.626ZM405.64 189.797L404.552 161.438L402.554 161.515L403.642 189.874L405.64 189.797ZM403.591 162.475L417.705 161.933L417.628 159.934L403.515 160.477L403.591 162.475ZM417.705 161.933C422.434 161.751 426.877 160.768 430.765 159.119L429.985 157.278C426.335 158.826 422.132 159.761 417.628 159.934L417.705 161.933ZM430.793 159.107C434.667 157.327 438.12 154.878 440.88 151.897L439.413 150.539C436.846 153.311 433.612 155.611 429.958 157.29L430.793 159.107ZM440.864 151.914C443.759 148.931 445.946 145.431 447.433 141.557L445.566 140.84C444.171 144.475 442.126 147.742 439.429 150.522L440.864 151.914ZM447.433 141.557C448.925 137.67 449.584 133.547 449.418 129.197L447.419 129.274C447.576 133.367 446.956 137.219 445.566 140.84L447.433 141.557ZM449.418 129.197C449.251 124.848 448.277 120.788 446.492 117.027L444.685 117.885C446.349 121.389 447.262 125.182 447.419 129.274L449.418 129.197ZM446.492 117.027C444.712 113.279 442.264 109.957 439.149 107.205L437.825 108.703C440.727 111.268 443.016 114.368 444.685 117.885L446.492 117.027ZM439.167 107.22C436.186 104.46 432.555 102.284 428.556 100.806L427.863 102.682C431.636 104.076 435.035 106.12 437.808 108.688L439.167 107.22ZM428.528 100.796C424.525 99.4513 420.02 98.8129 415.291 98.9948L415.367 100.993C419.871 100.82 424.133 101.43 427.891 102.692L428.528 100.796ZM415.291 98.9948L380.6 100.329L380.677 102.328L415.367 100.993L415.291 98.9948ZM403.793 141.652L402.974 120.284L400.975 120.361L401.795 141.729L403.793 141.652ZM402.013 121.322L416.126 120.779L416.05 118.78L401.936 119.323L402.013 121.322ZM416.126 120.779C419.057 120.666 421.601 121.54 423.576 123.369L424.935 121.902C422.528 119.673 419.45 118.649 416.05 118.78L416.126 120.779ZM423.576 123.369C425.733 125.367 426.742 127.46 426.842 130.066L428.841 129.989C428.718 126.791 427.434 124.216 424.935 121.902L423.576 123.369ZM426.842 130.066C426.938 132.551 426.089 134.832 424.114 136.839L425.54 138.242C427.888 135.856 428.958 133.044 428.841 129.989L426.842 130.066ZM424.073 136.884C422.25 138.977 419.923 140.031 416.869 140.149L416.946 142.147C420.488 142.011 423.356 140.751 425.581 138.198L424.073 136.884ZM416.869 140.149L402.756 140.691L402.832 142.69L416.946 142.147L416.869 140.149Z" fill="#323232"/>
<path d="M465.549 190.663L527.608 210.682L533.672 191.834L491.21 178.136L496.021 163.183L533.834 175.381L539.898 156.532L502.085 144.335L506.451 130.764L547.656 144.056L553.72 125.207L492.917 105.593L465.549 190.663Z" fill="#F0F0F0"/>
<path d="M465.549 190.663L464.597 190.356L464.291 191.308L465.242 191.615L465.549 190.663ZM527.608 210.682L527.301 211.634L528.253 211.941L528.559 210.989L527.608 210.682ZM533.672 191.834L534.623 192.141L534.93 191.189L533.978 190.882L533.672 191.834ZM491.21 178.136L490.259 177.829L489.952 178.781L490.904 179.088L491.21 178.136ZM496.021 163.183L496.327 162.231L495.376 161.924L495.069 162.876L496.021 163.183ZM533.834 175.381L533.528 176.333L534.48 176.64L534.786 175.688L533.834 175.381ZM539.898 156.532L540.85 156.839L541.156 155.887L540.205 155.58L539.898 156.532ZM502.085 144.335L501.133 144.028L500.827 144.979L501.779 145.286L502.085 144.335ZM506.451 130.764L506.757 129.812L505.806 129.505L505.499 130.457L506.451 130.764ZM547.656 144.056L547.35 145.008L548.302 145.315L548.608 144.363L547.656 144.056ZM553.72 125.207L554.672 125.514L554.978 124.562L554.026 124.255L553.72 125.207ZM492.917 105.593L493.224 104.641L492.272 104.334L491.966 105.286L492.917 105.593ZM465.242 191.615L527.301 211.634L527.914 209.73L465.855 189.711L465.242 191.615ZM528.559 210.989L534.623 192.141L532.72 191.527L526.656 210.375L528.559 210.989ZM533.978 190.882L491.517 177.184L490.904 179.088L533.365 192.786L533.978 190.882ZM492.162 178.443L496.973 163.49L495.069 162.876L490.259 177.829L492.162 178.443ZM495.715 164.135L533.528 176.333L534.141 174.429L496.327 162.231L495.715 164.135ZM534.786 175.688L540.85 156.839L538.947 156.225L532.883 175.074L534.786 175.688ZM540.205 155.58L502.391 143.383L501.779 145.286L539.592 157.484L540.205 155.58ZM503.037 144.642L507.403 131.071L505.499 130.457L501.133 144.028L503.037 144.642ZM506.145 131.716L547.35 145.008L547.962 143.104L506.757 129.812L506.145 131.716ZM548.608 144.363L554.672 125.514L552.768 124.9L546.705 143.749L548.608 144.363ZM554.026 124.255L493.224 104.641L492.611 106.545L553.414 126.159L554.026 124.255ZM491.966 105.286L464.597 190.356L466.5 190.97L493.869 105.9L491.966 105.286Z" fill="#323232"/>
<path d="M542.766 219.604L591.442 256.342L603.35 240.523L571.11 216.19L612.945 160.612L596.509 148.207L542.766 219.604Z" fill="#F0F0F0"/>
<path d="M542.766 219.604L541.968 219.002L541.367 219.801L542.165 220.403L542.766 219.604ZM591.442 256.342L590.841 257.141L591.639 257.744L592.24 256.945L591.442 256.342ZM603.35 240.523L604.148 241.126L604.749 240.327L603.951 239.724L603.35 240.523ZM571.11 216.19L570.312 215.588L569.71 216.387L570.509 216.989L571.11 216.19ZM612.945 160.612L613.744 161.214L614.345 160.415L613.547 159.813L612.945 160.612ZM596.509 148.207L597.111 147.408L596.313 146.806L595.711 147.604L596.509 148.207ZM542.165 220.403L590.841 257.141L592.044 255.544L543.368 218.805L542.165 220.403ZM592.24 256.945L604.148 241.126L602.552 239.921L590.644 255.74L592.24 256.945ZM603.951 239.724L571.711 215.391L570.509 216.989L602.749 241.322L603.951 239.724ZM571.908 216.793L613.744 161.214L612.147 160.01L570.312 215.588L571.908 216.793ZM613.547 159.813L597.111 147.408L595.908 149.006L612.344 161.411L613.547 159.813ZM595.711 147.604L541.968 219.002L543.564 220.207L597.308 148.809L595.711 147.604Z" fill="#323232"/>
<path d="M600.087 266.425L611.775 283.378L637.4 265.664L656.281 293.05L672.677 281.716L653.796 254.33L668.998 243.822L692.374 277.728L708.661 266.469L673.597 215.609L600.087 266.425Z" fill="#F0F0F0"/>
<path d="M600.087 266.425L599.519 265.601L598.697 266.17L599.264 266.993L600.087 266.425ZM611.775 283.378L610.952 283.947L611.52 284.77L612.343 284.201L611.775 283.378ZM637.4 265.664L638.223 265.095L637.655 264.272L636.833 264.841L637.4 265.664ZM656.281 293.05L655.459 293.619L656.026 294.442L656.849 293.874L656.281 293.05ZM672.677 281.716L673.245 282.54L674.067 281.971L673.5 281.148L672.677 281.716ZM653.796 254.33L653.229 253.507L652.406 254.075L652.974 254.899L653.796 254.33ZM668.998 243.822L669.82 243.253L669.253 242.43L668.43 242.998L668.998 243.822ZM692.374 277.728L691.551 278.297L692.119 279.12L692.942 278.552L692.374 277.728ZM708.661 266.469L709.229 267.293L710.052 266.724L709.484 265.901L708.661 266.469ZM673.597 215.609L674.419 215.041L673.852 214.217L673.029 214.786L673.597 215.609ZM599.264 266.993L610.952 283.947L612.598 282.809L600.91 265.856L599.264 266.993ZM612.343 284.201L637.968 266.487L636.833 264.841L611.207 282.555L612.343 284.201ZM636.578 266.233L655.459 293.619L657.104 292.482L638.223 265.095L636.578 266.233ZM656.849 293.874L673.245 282.54L672.11 280.893L655.714 292.227L656.849 293.874ZM673.5 281.148L654.619 253.761L652.974 254.899L671.855 282.285L673.5 281.148ZM654.364 255.153L669.565 244.645L668.43 242.998L653.229 253.507L654.364 255.153ZM668.175 244.39L691.551 278.297L693.197 277.16L669.82 243.253L668.175 244.39ZM692.942 278.552L709.229 267.293L708.094 265.646L691.806 276.905L692.942 278.552ZM709.484 265.901L674.419 215.041L672.774 216.178L707.839 267.038L709.484 265.901ZM673.029 214.786L599.519 265.601L600.655 267.248L674.164 216.433L673.029 214.786Z" fill="#323232"/>
<path d="M727.748 307.652L641.365 330.541L646.626 350.45L675.336 342.843L678.034 353.052L653.506 376.484L659.307 398.435L687.134 370.441C689.865 373.541 692.487 375.714 695.102 377.343C697.811 378.81 700.963 379.886 704.625 380.828C708.381 381.608 712.7 381.419 717.549 380.134C721.376 379.12 724.619 377.442 727.66 374.997C730.606 372.714 733.001 369.895 734.717 366.572C736.433 363.25 737.632 359.519 738.057 355.446C738.61 351.339 738.169 347.086 736.989 342.62L727.748 307.652ZM694.603 337.737L713.87 332.632L717.849 347.691C718.76 351.137 718.575 354.053 717.167 356.475C715.886 358.863 713.86 360.492 711.052 361.236C708.373 361.946 705.806 361.533 703.514 360.093C701.094 358.685 699.493 356.242 698.582 352.796L694.603 337.737Z" fill="#F0F0F0"/>
<path d="M727.748 307.652L728.715 307.396L728.459 306.429L727.493 306.685L727.748 307.652ZM641.365 330.541L641.11 329.575L640.143 329.831L640.398 330.797L641.365 330.541ZM646.626 350.45L645.66 350.706L645.915 351.673L646.882 351.417L646.626 350.45ZM675.336 342.843L676.302 342.587L676.047 341.62L675.08 341.876L675.336 342.843ZM678.034 353.052L678.724 353.775L679.151 353.367L679 352.796L678.034 353.052ZM653.506 376.484L652.816 375.761L652.389 376.169L652.54 376.74L653.506 376.484ZM659.307 398.435L658.34 398.691L658.786 400.377L660.016 399.14L659.307 398.435ZM687.134 370.441L687.885 369.78L687.179 368.978L686.426 369.736L687.134 370.441ZM695.102 377.343L694.573 378.192L694.599 378.208L694.626 378.222L695.102 377.343ZM704.625 380.828L704.375 381.796L704.398 381.802L704.421 381.807L704.625 380.828ZM727.66 374.997L727.048 374.207L727.04 374.212L727.033 374.218L727.66 374.997ZM734.717 366.572L733.829 366.114L733.829 366.114L734.717 366.572ZM738.057 355.446L737.066 355.313L737.064 355.328L737.063 355.342L738.057 355.446ZM694.603 337.737L694.347 336.771L693.38 337.027L693.636 337.993L694.603 337.737ZM713.87 332.632L714.836 332.376L714.581 331.409L713.614 331.665L713.87 332.632ZM717.167 356.475L716.303 355.972L716.294 355.987L716.286 356.002L717.167 356.475ZM703.514 360.093L704.046 359.246L704.032 359.236L704.017 359.228L703.514 360.093ZM727.493 306.685L641.11 329.575L641.621 331.508L728.004 308.619L727.493 306.685ZM640.398 330.797L645.66 350.706L647.593 350.194L642.332 330.285L640.398 330.797ZM646.882 351.417L675.591 343.809L675.08 341.876L646.371 349.483L646.882 351.417ZM674.369 343.099L677.067 353.308L679 352.796L676.302 342.587L674.369 343.099ZM677.343 352.329L652.816 375.761L654.197 377.207L678.724 353.775L677.343 352.329ZM652.54 376.74L658.34 398.691L660.274 398.178L654.473 376.228L652.54 376.74ZM660.016 399.14L687.843 371.146L686.426 369.736L658.598 397.73L660.016 399.14ZM686.384 371.103C689.174 374.27 691.87 376.508 694.573 378.192L695.631 376.493C693.105 374.92 690.556 372.812 687.885 369.78L686.384 371.103ZM694.626 378.222C697.436 379.744 700.676 380.845 704.375 381.796L704.874 379.859C701.25 378.927 698.186 377.875 695.579 376.463L694.626 378.222ZM704.421 381.807C708.359 382.625 712.839 382.417 717.804 381.101L717.293 379.168C712.561 380.421 708.402 380.591 704.828 379.848L704.421 381.807ZM717.804 381.101C721.772 380.05 725.14 378.305 728.286 375.777L727.033 374.218C724.098 376.578 720.981 378.19 717.293 379.168L717.804 381.101ZM728.272 375.788C731.328 373.42 733.82 370.489 735.606 367.031L733.829 366.114C732.183 369.301 729.884 372.009 727.048 374.207L728.272 375.788ZM735.606 367.031C737.375 363.605 738.612 359.754 739.052 355.549L737.063 355.342C736.651 359.283 735.492 362.895 733.829 366.114L735.606 367.031ZM739.048 355.579C739.623 351.309 739.16 346.921 737.955 342.363L736.022 342.876C737.179 347.252 737.598 351.369 737.066 355.313L739.048 355.579ZM737.955 342.363L728.715 307.396L726.781 307.908L736.022 342.876L737.955 342.363ZM694.858 338.704L714.125 333.599L713.614 331.665L694.347 336.771L694.858 338.704ZM712.903 332.888L716.883 347.947L718.816 347.435L714.836 332.376L712.903 332.888ZM716.883 347.947C717.749 351.227 717.537 353.85 716.303 355.972L718.031 356.977C719.613 354.257 719.77 351.047 718.816 347.435L716.883 347.947ZM716.286 356.002C715.139 358.141 713.341 359.595 710.797 360.269L711.308 362.203C714.378 361.389 716.634 359.584 718.048 356.947L716.286 356.002ZM710.797 360.269C708.388 360.907 706.106 360.54 704.046 359.246L702.982 360.939C705.506 362.527 708.358 362.984 711.308 362.203L710.797 360.269ZM704.017 359.228C701.896 357.994 700.416 355.82 699.549 352.54L697.616 353.053C698.57 356.664 700.293 359.376 703.011 360.957L704.017 359.228ZM699.549 352.54L695.569 337.481L693.636 337.993L697.616 353.053L699.549 352.54Z" fill="#323232"/>
<path d="M659.776 414.336L653.25 479.217L672.95 481.204L677.415 436.812L693.044 438.388L689.067 477.92L708.767 479.907L712.744 440.375L726.928 441.805L722.595 484.884L742.295 486.871L748.689 423.304L659.776 414.336Z" fill="#F0F0F0"/>
<path d="M659.776 414.336L659.876 413.341L658.881 413.241L658.781 414.236L659.776 414.336ZM653.25 479.217L652.255 479.116L652.155 480.111L653.15 480.212L653.25 479.217ZM672.95 481.204L672.85 482.199L673.845 482.299L673.945 481.304L672.95 481.204ZM677.415 436.812L677.515 435.817L676.52 435.716L676.42 436.711L677.415 436.812ZM693.044 438.388L694.039 438.488L694.139 437.493L693.144 437.393L693.044 438.388ZM689.067 477.92L688.072 477.82L687.972 478.815L688.967 478.915L689.067 477.92ZM708.767 479.907L708.667 480.902L709.662 481.003L709.762 480.008L708.767 479.907ZM712.744 440.375L712.844 439.38L711.849 439.28L711.749 440.275L712.744 440.375ZM726.928 441.805L727.923 441.906L728.023 440.911L727.028 440.811L726.928 441.805ZM722.595 484.884L721.6 484.784L721.5 485.779L722.495 485.879L722.595 484.884ZM742.295 486.871L742.195 487.866L743.19 487.966L743.29 486.971L742.295 486.871ZM748.689 423.304L749.684 423.404L749.784 422.409L748.789 422.309L748.689 423.304ZM658.781 414.236L652.255 479.116L654.245 479.317L660.771 414.436L658.781 414.236ZM653.15 480.212L672.85 482.199L673.05 480.209L653.35 478.222L653.15 480.212ZM673.945 481.304L678.41 436.912L676.42 436.711L671.955 481.103L673.945 481.304ZM677.315 437.807L692.944 439.383L693.144 437.393L677.515 435.817L677.315 437.807ZM692.049 438.288L688.072 477.82L690.062 478.021L694.039 438.488L692.049 438.288ZM688.967 478.915L708.667 480.902L708.868 478.912L689.167 476.925L688.967 478.915ZM709.762 480.008L713.739 440.475L711.749 440.275L707.773 479.807L709.762 480.008ZM712.644 441.37L726.828 442.8L727.028 440.811L712.844 439.38L712.644 441.37ZM725.933 441.705L721.6 484.784L723.59 484.984L727.923 441.906L725.933 441.705ZM722.495 485.879L742.195 487.866L742.395 485.876L722.695 483.889L722.495 485.879ZM743.29 486.971L749.684 423.404L747.694 423.203L741.3 486.771L743.29 486.971ZM748.789 422.309L659.876 413.341L659.676 415.331L748.589 424.299L748.789 422.309Z" fill="#323232"/>
<path d="M703.26 586.265L656.669 561.989L719.998 554.054L728.459 537.773L649.207 496.48L639.712 514.752L686.303 539.028L623.035 546.846L614.513 563.244L693.765 604.537L703.26 586.265Z" fill="#F0F0F0"/>
<path d="M703.26 586.265L704.147 586.727L704.608 585.84L703.721 585.377L703.26 586.265ZM656.669 561.989L656.544 560.996L653.364 561.395L656.208 562.876L656.669 561.989ZM719.998 554.054L720.123 555.047L720.643 554.982L720.885 554.516L719.998 554.054ZM728.459 537.773L729.345 538.235L729.807 537.348L728.92 536.886L728.459 537.773ZM649.207 496.48L649.668 495.593L648.781 495.131L648.32 496.018L649.207 496.48ZM639.712 514.752L638.825 514.29L638.364 515.177L639.251 515.64L639.712 514.752ZM686.303 539.028L686.426 540.021L689.616 539.627L686.764 538.141L686.303 539.028ZM623.035 546.846L622.912 545.853L622.39 545.917L622.148 546.384L623.035 546.846ZM614.513 563.244L613.627 562.782L613.165 563.669L614.052 564.131L614.513 563.244ZM693.765 604.537L693.304 605.424L694.191 605.886L694.652 604.999L693.765 604.537ZM703.721 585.377L657.13 561.102L656.208 562.876L702.799 587.152L703.721 585.377ZM656.794 562.982L720.123 555.047L719.873 553.062L656.544 560.996L656.794 562.982ZM720.885 554.516L729.345 538.235L727.572 537.311L719.111 553.592L720.885 554.516ZM728.92 536.886L649.668 495.593L648.746 497.367L727.998 538.661L728.92 536.886ZM648.32 496.018L638.825 514.29L640.599 515.214L650.094 496.942L648.32 496.018ZM639.251 515.64L685.842 539.915L686.764 538.141L640.173 513.865L639.251 515.64ZM686.18 538.035L622.912 545.853L623.158 547.839L686.426 540.021L686.18 538.035ZM622.148 546.384L613.627 562.782L615.4 563.706L623.922 547.308L622.148 546.384ZM614.052 564.131L693.304 605.424L694.226 603.65L614.975 562.356L614.052 564.131ZM694.652 604.999L704.147 586.727L702.373 585.803L692.878 604.075L694.652 604.999Z" fill="#323232"/>
<path d="M601.159 578.823L551.804 621.439L564.725 636.443L598.494 607.284L608.744 619.187L578.672 645.154L591.592 660.157L621.665 634.19L630.967 644.993L598.197 673.289L611.118 688.292L659.474 646.538L601.159 578.823Z" fill="#F0F0F0"/>
<path d="M601.159 578.823L601.916 578.169L601.264 577.412L600.507 578.065L601.159 578.823ZM551.804 621.439L551.152 620.682L550.395 621.335L551.048 622.093L551.804 621.439ZM564.725 636.443L563.968 637.096L564.621 637.854L565.377 637.201L564.725 636.443ZM598.494 607.284L599.251 606.631L598.598 605.873L597.842 606.526L598.494 607.284ZM608.744 619.187L609.397 619.945L610.154 619.291L609.501 618.533L608.744 619.187ZM578.672 645.154L578.019 644.396L577.262 645.049L577.915 645.807L578.672 645.154ZM591.592 660.157L590.835 660.811L591.488 661.568L592.245 660.915L591.592 660.157ZM621.665 634.19L622.422 633.537L621.769 632.779L621.012 633.433L621.665 634.19ZM630.967 644.993L631.62 645.751L632.377 645.097L631.724 644.339L630.967 644.993ZM598.197 673.289L597.545 672.531L596.788 673.185L597.44 673.942L598.197 673.289ZM611.118 688.292L610.361 688.946L611.013 689.704L611.77 689.05L611.118 688.292ZM659.474 646.538L660.126 647.296L660.883 646.643L660.231 645.885L659.474 646.538ZM600.507 578.065L551.152 620.682L552.457 622.197L601.812 579.581L600.507 578.065ZM551.048 622.093L563.968 637.096L565.482 635.789L552.561 620.786L551.048 622.093ZM565.377 637.201L599.147 608.042L597.842 606.526L564.072 635.685L565.377 637.201ZM597.737 607.938L607.987 619.84L609.501 618.533L599.251 606.631L597.737 607.938ZM608.092 618.429L578.019 644.396L579.324 645.911L609.397 619.945L608.092 618.429ZM577.915 645.807L590.835 660.811L592.349 659.504L579.429 644.5L577.915 645.807ZM592.245 660.915L622.317 634.948L621.012 633.433L590.94 659.399L592.245 660.915ZM620.908 634.844L630.211 645.646L631.724 644.339L622.422 633.537L620.908 634.844ZM630.315 644.235L597.545 672.531L598.85 674.047L631.62 645.751L630.315 644.235ZM597.44 673.942L610.361 688.946L611.875 687.639L598.954 672.635L597.44 673.942ZM611.77 689.05L660.126 647.296L658.821 645.781L610.465 687.534L611.77 689.05ZM660.231 645.885L601.916 578.169L600.403 579.476L658.717 647.192L660.231 645.885Z" fill="#323232"/>
</svg>
